<svg width="2225" height="2291" viewBox="0 0 2225 2291" fill="none" xmlns="http://www.w3.org/2000/svg">
<path d="M1306.57 1452.59C1315.28 1458.65 1338.76 1462.78 1338.81 1462.78C1338.86 1462.78 1336.84 1446.49 1336.54 1445.46C1333.59 1433.74 1320.89 1412.77 1307.3 1411.94C1305.05 1411.85 1302.8 1412.25 1300.71 1413.09C1298.62 1413.94 1296.72 1415.22 1295.16 1416.84C1293.59 1418.47 1292.39 1420.41 1291.62 1422.53C1290.86 1424.65 1290.55 1426.91 1290.72 1429.16C1291.11 1438.71 1299.13 1447.38 1306.57 1452.59Z" fill="#2F80ED"/>
<path d="M1301.1 1521.9C1310.95 1525.35 1332.8 1523.47 1334.57 1523.28C1335.63 1535.91 1337.52 1548.45 1340.23 1560.83C1341.81 1568.07 1343.58 1575.26 1345.45 1582.49C1344.12 1579.34 1342.89 1576.49 1342.65 1576.14C1336.69 1565.56 1318.92 1548.73 1305.58 1551.53C1303.38 1552.05 1301.32 1553.03 1299.53 1554.4C1297.73 1555.77 1296.25 1557.5 1295.17 1559.49C1294.09 1561.47 1293.45 1563.66 1293.27 1565.91C1293.1 1568.16 1293.4 1570.42 1294.16 1572.55C1297.02 1581.66 1307.06 1587.91 1315.57 1590.96C1324.09 1594.01 1343.09 1592.78 1348.11 1592.39C1348.85 1595.19 1349.54 1597.95 1350.32 1600.71C1353.97 1613.95 1357.66 1627.14 1360.86 1640.08C1362.04 1644.66 1362.97 1649.24 1363.96 1653.82C1362.73 1651.01 1361.69 1648.65 1361.5 1648.3C1355.54 1637.77 1337.77 1620.89 1324.43 1623.69C1322.24 1624.22 1320.18 1625.2 1318.39 1626.57C1316.6 1627.94 1315.12 1629.68 1314.05 1631.66C1312.97 1633.64 1312.32 1635.83 1312.14 1638.08C1311.97 1640.32 1312.26 1642.58 1313.01 1644.71C1315.87 1653.87 1325.91 1660.07 1334.47 1663.12C1343.04 1666.17 1360.12 1665.09 1366.08 1664.65C1366.91 1669.57 1367.75 1674.05 1368.39 1678.67C1368.73 1681.82 1369.28 1684.83 1369.47 1688.03C1369.67 1691.23 1369.92 1694.28 1370.16 1697.38C1370.41 1703.33 1370.65 1709.49 1370.75 1715.3C1370.75 1719.38 1370.75 1723.22 1370.75 1727.11C1369.67 1722.53 1367.36 1713.57 1367.11 1712.83C1362.78 1701.51 1347.77 1682.17 1334.18 1682.86C1331.93 1683.04 1329.74 1683.69 1327.76 1684.78C1325.78 1685.86 1324.05 1687.35 1322.68 1689.15C1321.32 1690.94 1320.35 1693.01 1319.83 1695.21C1319.32 1697.41 1319.28 1699.69 1319.71 1701.91C1321.14 1711.36 1330.14 1719.09 1338.12 1723.37C1346.88 1728.29 1368.14 1729.62 1370.75 1729.77C1370.75 1736.22 1370.75 1742.47 1370.75 1748.37C1370.51 1760.38 1370.01 1771.16 1369.42 1780.47L1378.14 1782.19C1378.53 1772.34 1378.82 1761.17 1378.82 1748.47C1378.82 1741.93 1378.82 1734.94 1378.82 1727.8C1385.47 1726.52 1392.05 1724.88 1398.51 1722.88C1403.88 1731.59 1419.63 1743.75 1421.65 1745.27C1418.1 1750.64 1414.61 1755.86 1411.26 1760.68C1404.81 1769.93 1398.86 1778.1 1393.49 1785.29L1402.85 1787.16C1407.47 1780.66 1412.69 1773.33 1417.91 1765.26C1421.5 1759.79 1425.29 1753.94 1429.08 1747.83C1431.49 1748.87 1451.18 1757.14 1461.12 1756.89C1470.18 1756.89 1481.7 1753.84 1487.26 1746.06C1488.64 1744.27 1489.62 1742.21 1490.15 1740.02C1490.68 1737.83 1490.74 1735.55 1490.33 1733.33C1489.93 1731.11 1489.06 1729.01 1487.78 1727.14C1486.5 1725.28 1484.85 1723.71 1482.93 1722.53C1471.12 1715.74 1449.02 1726.27 1440.01 1734.44C1439.52 1734.89 1434.35 1740.74 1431.15 1744.53L1435.78 1737.05C1438.88 1732.13 1441.83 1726.76 1445.03 1721.2L1449.41 1712.93C1450.94 1710.18 1452.22 1707.12 1453.64 1704.17C1456.79 1697.33 1459.65 1690.19 1462.4 1682.96C1466.83 1685.66 1482.83 1695.11 1491.94 1696.25C1501.04 1697.38 1512.66 1696.25 1519.36 1689.5C1520.99 1687.95 1522.28 1686.06 1523.14 1683.97C1524 1681.88 1524.41 1679.63 1524.34 1677.38C1524.27 1675.12 1523.72 1672.9 1522.74 1670.87C1521.75 1668.83 1520.35 1667.03 1518.62 1665.58C1508.03 1657.11 1484.55 1664.15 1474.32 1670.85C1473.68 1671.24 1466.93 1676.9 1463.34 1680.05C1464.91 1675.67 1466.54 1671.34 1468.02 1666.91C1472.3 1654.01 1476.24 1640.82 1480.22 1627.53C1481.4 1623.5 1482.68 1619.51 1483.92 1615.52C1485.49 1616.51 1504.29 1628.07 1514.38 1629.35C1523.39 1630.53 1535.16 1629.35 1541.85 1622.61C1543.48 1621.05 1544.76 1619.17 1545.62 1617.09C1546.47 1615 1546.88 1612.76 1546.81 1610.51C1546.74 1608.26 1546.19 1606.04 1545.21 1604.02C1544.23 1601.99 1542.83 1600.19 1541.11 1598.74C1530.48 1590.22 1507 1597.26 1496.81 1603.95C1496.07 1604.5 1486.43 1612.57 1484.06 1614.78C1486.82 1605.97 1489.62 1597.21 1492.73 1588.69C1496.94 1577.17 1501.87 1565.93 1507.49 1555.03C1508.23 1555.52 1527.77 1567.68 1538.11 1569.01C1547.12 1570.19 1558.88 1569.01 1565.58 1562.26C1567.21 1560.7 1568.49 1558.82 1569.34 1556.73C1570.2 1554.64 1570.6 1552.39 1570.54 1550.14C1570.47 1547.88 1569.92 1545.66 1568.94 1543.63C1567.96 1541.6 1566.56 1539.8 1564.84 1538.34C1554.2 1529.87 1530.73 1536.91 1520.54 1543.61C1519.75 1544.15 1509.36 1552.86 1507.59 1554.58C1507.94 1553.99 1508.23 1553.3 1508.58 1552.66C1514.5 1541.89 1521.39 1531.68 1529.15 1522.15C1533.33 1516.83 1537.67 1511.96 1542 1507.38C1545.39 1510.04 1561.1 1522.15 1570.25 1524.16C1579.41 1526.18 1590.88 1526.53 1598.31 1520.47C1600.1 1519.1 1601.58 1517.37 1602.66 1515.39C1603.74 1513.41 1604.39 1511.23 1604.56 1508.98C1604.74 1506.73 1604.44 1504.47 1603.68 1502.35C1602.93 1500.22 1601.73 1498.28 1600.18 1496.65C1590.58 1487.05 1566.46 1491.43 1555.88 1496.99C1555.29 1497.29 1549.68 1501.03 1545.64 1503.84C1547.61 1501.77 1549.63 1499.6 1551.55 1497.68C1558.78 1490.4 1565.87 1484.15 1572.17 1478.68C1575.81 1475.63 1579.16 1472.92 1582.31 1470.41C1586.99 1471.25 1605.94 1474.45 1614.95 1472.23C1623.95 1470.02 1634.34 1464.85 1638.13 1456.04C1639.09 1454 1639.61 1451.77 1639.65 1449.52C1639.7 1447.26 1639.27 1445.02 1638.39 1442.94C1637.51 1440.86 1636.21 1438.99 1634.56 1437.45C1632.91 1435.91 1630.96 1434.73 1628.83 1433.99C1615.88 1429.95 1596.49 1444.92 1589.45 1454.86C1588.86 1455.7 1580.93 1470.17 1581.18 1470.22H1581.43C1578.37 1472.58 1575.08 1475.14 1571.58 1477.99C1565.13 1483.31 1557.9 1489.36 1550.46 1496.55C1542.36 1504.16 1534.72 1512.25 1527.58 1520.77C1519.5 1530.24 1512.31 1540.42 1506.07 1551.19C1506.07 1551.32 1506.07 1551.45 1506.07 1551.58C1506.9 1547.69 1508.92 1536.81 1508.97 1535.88C1509.81 1523.77 1504.29 1499.9 1491.64 1494.88C1489.52 1494.1 1487.27 1493.77 1485.01 1493.93C1482.76 1494.08 1480.57 1494.71 1478.58 1495.77C1476.58 1496.83 1474.84 1498.29 1473.45 1500.08C1472.06 1501.86 1471.07 1503.91 1470.53 1506.1C1467.87 1515.3 1472.79 1526.03 1478.25 1533.27C1484.41 1541.44 1503.85 1552.07 1505.38 1552.96C1499.28 1564.07 1493.95 1575.58 1489.43 1587.42C1486.72 1594.31 1484.21 1601.3 1481.8 1608.38C1482.44 1604.99 1482.98 1601.94 1482.98 1601.49C1483.82 1589.43 1478.3 1565.56 1465.65 1560.49C1463.54 1559.71 1461.28 1559.39 1459.02 1559.54C1456.77 1559.7 1454.58 1560.32 1452.59 1561.38C1450.59 1562.44 1448.85 1563.91 1447.46 1565.69C1446.07 1567.47 1445.08 1569.52 1444.54 1571.71C1441.88 1580.92 1446.8 1591.65 1452.26 1598.88C1457.73 1606.12 1474.22 1615.62 1478.55 1618.03C1477.66 1620.74 1476.73 1623.45 1475.84 1626.2C1471.61 1639.25 1467.38 1652.29 1462.9 1664.94C1461.27 1669.42 1459.55 1673.75 1457.97 1678.08C1458.52 1675.08 1458.96 1672.52 1458.96 1672.13C1459.8 1660.07 1454.28 1636.19 1441.68 1631.12C1439.56 1630.35 1437.3 1630.04 1435.05 1630.19C1432.8 1630.35 1430.6 1630.98 1428.61 1632.04C1426.61 1633.09 1424.86 1634.56 1423.47 1636.33C1422.07 1638.11 1421.07 1640.16 1420.52 1642.35C1417.91 1651.55 1422.83 1662.28 1428.24 1669.52C1433.66 1676.75 1448.57 1685.32 1453.79 1688.22C1451.87 1692.65 1450 1697.03 1447.98 1701.22C1446.51 1704.02 1445.32 1706.88 1443.7 1709.64L1439.12 1717.81C1436.02 1722.73 1432.87 1728.19 1429.72 1733.11L1423.32 1742.96C1424.95 1738.53 1427.95 1729.77 1428.24 1729.03C1430.15 1718.53 1429.36 1707.73 1425.93 1697.62C1426.21 1696.46 1426.38 1695.28 1426.42 1694.08C1426.58 1691.83 1426.27 1689.57 1425.5 1687.45C1424.73 1685.33 1423.53 1683.4 1421.96 1681.78C1420.4 1680.15 1418.51 1678.87 1416.42 1678.03C1414.33 1677.18 1412.09 1676.78 1409.83 1676.85C1396.25 1677.74 1383.6 1698.71 1380.6 1710.47C1380.6 1711.16 1379.37 1718.89 1378.78 1723.76C1378.78 1720.86 1378.78 1718 1378.53 1715C1378.28 1709.04 1377.89 1703.09 1377.5 1696.69L1376.61 1687.34C1376.36 1684.24 1375.72 1680.94 1375.28 1677.74C1374.15 1670.26 1372.57 1662.73 1370.9 1655.19C1376.12 1655.19 1394.63 1654.01 1402.8 1650.27C1410.97 1646.53 1420.17 1638.9 1421.99 1629.5C1422.52 1627.29 1422.58 1624.99 1422.15 1622.75C1421.72 1620.52 1420.83 1618.4 1419.52 1616.54C1418.21 1614.67 1416.52 1613.11 1414.56 1611.95C1412.61 1610.79 1410.42 1610.06 1408.16 1609.81C1394.63 1608.58 1378.92 1627.38 1374.2 1638.56C1373.9 1639.25 1371.44 1647.66 1370.16 1652.29C1369.08 1647.76 1368.04 1643.23 1366.81 1638.71C1363.27 1625.61 1359.28 1612.47 1355.35 1599.33L1351.8 1587.27C1353.67 1587.27 1375.72 1586.53 1384.88 1582C1393 1578.01 1402.25 1570.68 1404.08 1561.23C1404.6 1559.02 1404.65 1556.72 1404.22 1554.49C1403.79 1552.25 1402.89 1550.14 1401.58 1548.28C1400.27 1546.42 1398.59 1544.86 1396.63 1543.69C1394.68 1542.53 1392.5 1541.8 1390.24 1541.54C1376.71 1540.36 1361.01 1559.16 1356.28 1570.33C1355.94 1571.17 1352.34 1583.28 1351.6 1586.38C1349.04 1577.52 1346.68 1568.66 1344.47 1559.85C1341.59 1547.94 1339.48 1535.86 1338.17 1523.67C1339.05 1523.67 1362.04 1523.03 1371.44 1518.4C1379.56 1514.42 1388.77 1507.03 1390.59 1497.63C1391.11 1495.42 1391.16 1493.13 1390.73 1490.9C1390.31 1488.67 1389.41 1486.56 1388.11 1484.7C1386.81 1482.84 1385.13 1481.28 1383.18 1480.11C1381.23 1478.95 1379.06 1478.21 1376.81 1477.94C1363.27 1476.76 1347.57 1495.57 1342.84 1506.74C1342.45 1507.63 1338.61 1520.62 1337.92 1523.03C1337.92 1522.29 1337.67 1521.6 1337.63 1520.87C1336.63 1508.62 1336.74 1496.32 1337.97 1484.1C1338.51 1477.3 1339.45 1470.91 1340.48 1464.65C1344.81 1464.95 1364.45 1466.23 1373.36 1463.03C1382.27 1459.83 1391.87 1453.63 1394.67 1444.47C1395.42 1442.34 1395.7 1440.08 1395.51 1437.83C1395.32 1435.58 1394.66 1433.4 1393.56 1431.43C1392.47 1429.45 1390.98 1427.73 1389.17 1426.38C1387.37 1425.02 1385.31 1424.06 1383.11 1423.55C1369.82 1420.85 1352.15 1437.83 1346.19 1448.41C1345.89 1449 1343.24 1455.2 1341.27 1459.73C1341.76 1456.93 1342.25 1454.02 1342.79 1451.36C1344.81 1441.52 1347.32 1432.17 1349.54 1424.14C1350.87 1419.57 1352.15 1415.48 1353.43 1411.69C1357.81 1409.77 1375.38 1401.85 1381.68 1395.15C1387.98 1388.46 1393.79 1378.32 1392.07 1368.87C1391.73 1366.66 1390.94 1364.55 1389.75 1362.66C1388.56 1360.78 1386.98 1359.16 1385.13 1357.92C1383.28 1356.67 1381.19 1355.82 1379 1355.43C1376.8 1355.04 1374.55 1355.1 1372.38 1355.63C1359.33 1359.37 1351.46 1382.6 1351.06 1394.71C1351.06 1395.74 1352.39 1412.18 1352.64 1412.08H1352.88C1351.65 1415.73 1350.32 1419.66 1348.95 1424C1346.53 1432.02 1344.02 1441.08 1341.56 1451.12C1339.04 1461.94 1337.14 1472.91 1335.85 1483.95C1334.38 1496.31 1334 1508.78 1334.72 1521.21C1334.72 1521.21 1334.72 1521.51 1334.72 1521.65C1333.29 1517.96 1328.91 1507.67 1328.47 1506.89C1322.46 1496.35 1304.7 1479.47 1291.41 1482.28C1289.21 1482.8 1287.15 1483.78 1285.36 1485.16C1283.58 1486.53 1282.09 1488.26 1281.02 1490.24C1279.94 1492.22 1279.29 1494.41 1279.11 1496.66C1278.94 1498.91 1279.23 1501.17 1279.99 1503.29C1282.54 1512.65 1292.59 1518.9 1301.1 1521.9Z" fill="#2F80ED"/>
<path d="M1542.05 1504.92C1542.05 1504.92 1549.38 1490.15 1549.73 1489.22C1553.71 1477.75 1554.65 1453.28 1543.87 1444.92C1542.03 1443.6 1539.94 1442.69 1537.73 1442.25C1535.52 1441.8 1533.24 1441.82 1531.04 1442.31C1528.84 1442.8 1526.76 1443.75 1524.95 1445.1C1523.14 1446.45 1521.64 1448.16 1520.54 1450.13C1515.61 1458.3 1517.44 1469.82 1520.78 1478.39C1524.72 1488.48 1542.05 1504.87 1542.05 1504.92Z" fill="#2F80ED"/>
<path d="M801.491 527.158C810.794 528.487 831.025 522.236 831.025 522.236C831.025 522.236 823.002 510.127 822.411 509.438C815.372 501.366 797.061 489.749 786.035 494.671C784.228 495.508 782.617 496.715 781.305 498.213C779.994 499.712 779.011 501.469 778.422 503.372C777.833 505.274 777.65 507.279 777.884 509.257C778.119 511.235 778.766 513.141 779.784 514.853C783.82 522.334 793.616 525.977 801.491 527.158Z" fill="#2F80ED"/>
<path d="M824.724 583.961C833.634 582.829 850.32 572.591 851.649 571.803C857.465 581.341 863.929 590.468 870.994 599.122C875.079 604.044 879.312 609.213 883.644 614.135C881.33 612.166 879.263 610.443 878.722 610.246C869.861 604.29 849.188 598.039 839.737 605.324C838.215 606.609 836.98 608.199 836.112 609.991C835.244 611.784 834.762 613.738 834.697 615.729C834.632 617.72 834.986 619.702 835.735 621.547C836.485 623.392 837.613 625.059 839.048 626.441C844.955 632.495 855.341 633.43 863.266 632.446C871.19 631.461 885.711 622.995 889.452 620.731C891.126 622.601 892.799 624.521 894.374 626.391C902.496 635.35 910.618 644.308 918.346 653.316C921.053 656.516 923.613 659.715 926.172 663.161C924.105 661.389 922.382 659.961 922.087 659.764C913.177 653.808 892.553 647.557 883.102 654.842C881.574 656.123 880.333 657.711 879.46 659.504C878.587 661.297 878.103 663.253 878.038 665.246C877.973 667.239 878.329 669.223 879.083 671.069C879.837 672.915 880.972 674.581 882.413 675.959C888.271 682.013 898.657 682.948 906.631 681.964C914.605 680.979 927.649 673.35 932.128 670.643C934.638 674.039 937.05 677.386 939.512 680.782C941.037 683.145 942.662 685.311 944.089 687.723L948.322 694.811C950.882 699.438 953.54 704.163 955.903 708.741C957.576 711.891 959.102 714.943 960.825 717.995C958.118 714.795 952.802 708.692 952.26 708.15C944.385 700.914 924.892 691.611 914.457 697.567C912.759 698.601 911.297 699.981 910.166 701.617C909.035 703.252 908.262 705.108 907.895 707.062C907.528 709.017 907.577 711.026 908.037 712.961C908.498 714.895 909.36 716.711 910.569 718.29C915.491 725.181 925.582 727.692 933.605 728.135C942.366 728.135 959.742 721.145 961.908 720.259C964.418 725.181 966.83 730.104 969.094 735.026C973.672 744.575 977.511 753.287 980.76 760.868L988.291 758.751C984.747 750.974 980.514 741.917 975.493 731.925C972.934 727.002 970.079 721.293 967.076 715.731C971.872 712.053 976.456 708.109 980.809 703.917C989.428 708 998.573 710.866 1007.98 712.433C1007.29 718.093 1006.6 723.557 1005.86 728.725C1004.44 738.57 1002.96 747.381 1001.58 755.109L1009.7 752.844C1010.79 745.904 1011.87 738.078 1012.9 729.661C1013.59 723.901 1014.23 717.798 1014.82 711.497C1017.09 711.497 1035.89 710.07 1043.67 705.886C1050.71 702.096 1058.43 695.352 1059.96 686.984C1060.34 685.031 1060.3 683.02 1059.85 681.082C1059.4 679.143 1058.55 677.322 1057.34 675.738C1056.14 674.153 1054.61 672.84 1052.87 671.886C1051.12 670.932 1049.19 670.357 1047.21 670.2C1035.25 669.51 1021.96 686.591 1018.12 696.534C1017.87 697.124 1016.15 703.819 1015.12 708.052C1015.12 705.443 1015.61 703.129 1015.81 700.324C1016.2 695.057 1016.5 689.839 1016.84 684.179V675.909C1016.84 673.153 1016.84 670.2 1016.84 667.345C1016.84 660.65 1016.05 653.907 1015.36 647.114C1019.94 647.508 1036.28 648.591 1043.86 645.933C1051.44 643.275 1060.25 637.762 1062.81 629.689C1063.49 627.828 1063.76 625.847 1063.62 623.873C1063.48 621.9 1062.93 619.977 1062 618.229C1061.08 616.481 1059.79 614.947 1058.24 613.724C1056.68 612.502 1054.89 611.619 1052.97 611.132C1041.21 608.671 1025.5 623.536 1020.19 632.79C1019.89 633.381 1016.79 640.469 1015.27 644.407C1014.77 640.371 1014.33 636.285 1013.74 632.2C1012.02 620.337 1009.9 608.376 1007.83 596.464C1007.19 592.821 1006.6 589.179 1006.01 585.537C1007.64 585.537 1027.03 587.358 1035.55 584.404C1043.08 581.746 1051.94 576.233 1054.55 568.161C1055.22 566.3 1055.49 564.319 1055.35 562.345C1055.21 560.371 1054.66 558.449 1053.74 556.701C1052.81 554.953 1051.53 553.418 1049.97 552.196C1048.41 550.974 1046.62 550.091 1044.7 549.604C1032.99 547.143 1017.28 562.008 1011.97 571.262C1011.57 572 1007.05 582.189 1006.16 584.847C1004.83 576.824 1003.6 568.801 1002.71 560.876C1001.42 550.129 1000.83 539.31 1000.94 528.487C1001.73 528.487 1021.96 530.456 1030.48 527.355C1038.01 524.697 1046.87 519.233 1049.48 511.161C1050.14 509.283 1050.41 507.286 1050.26 505.298C1050.1 503.311 1049.53 501.379 1048.58 499.628C1047.62 497.877 1046.31 496.346 1044.73 495.136C1043.15 493.925 1041.32 493.063 1039.38 492.604C1027.67 490.143 1011.92 504.959 1006.65 514.262C1006.21 515 1001.73 526.026 1000.79 528.044C1000.79 527.454 1000.79 526.765 1000.79 526.174C1001.25 515.328 1002.63 504.542 1004.93 493.933C1006.16 488.076 1007.64 482.563 1009.21 477.197C1012.95 477.936 1030.03 481.086 1038.15 479.166C1046.28 477.247 1055.33 472.915 1058.78 465.187C1059.67 463.391 1060.17 461.427 1060.24 459.425C1060.32 457.423 1059.97 455.427 1059.22 453.568C1058.48 451.709 1057.34 450.029 1055.9 448.639C1054.46 447.248 1052.74 446.178 1050.85 445.498C1039.43 441.757 1022.21 454.801 1015.91 463.464C1015.56 463.907 1012.61 469.076 1010.49 472.915C1011.23 470.503 1011.97 467.993 1012.71 465.679C1015.56 457.065 1018.66 449.387 1021.52 442.545C1023.14 438.705 1024.67 435.26 1026.19 432.011C1030.23 430.83 1046.42 425.858 1052.63 420.493C1058.83 415.127 1065.03 407.006 1064.49 398.539C1064.44 396.551 1063.97 394.596 1063.11 392.801C1062.25 391.006 1061.03 389.411 1059.52 388.12C1058 386.83 1056.23 385.872 1054.33 385.31C1052.42 384.747 1050.41 384.592 1048.44 384.856C1036.58 386.824 1027.28 406.317 1025.7 416.9C1025.7 417.835 1025.01 432.355 1025.26 432.306H1025.5C1023.98 435.407 1022.4 438.705 1020.58 442.151C1017.63 448.894 1014.33 456.573 1011.28 465.187C1007.91 474.396 1005.1 483.798 1002.86 493.342C1000.27 504.005 998.619 514.876 997.939 525.829V526.223C997.053 522.827 994.296 513.425 994.001 512.687C989.866 502.842 976.084 486.205 964.123 487.239C962.14 487.458 960.227 488.095 958.508 489.108C956.79 490.12 955.305 491.485 954.152 493.112C952.999 494.74 952.203 496.593 951.818 498.55C951.432 500.507 951.466 502.524 951.916 504.467C953.491 512.785 961.76 519.233 968.75 522.827C976.872 526.814 996.413 527.749 997.939 527.749C997.552 538.933 997.897 550.131 998.973 561.27C999.612 567.767 1000.4 574.264 1001.29 580.959C1000.45 578.055 999.662 575.446 999.514 575.101C995.379 565.257 981.548 548.619 969.636 549.653C967.657 549.875 965.748 550.511 964.032 551.519C962.315 552.528 960.831 553.887 959.674 555.508C958.518 557.128 957.716 558.974 957.321 560.925C956.925 562.876 956.945 564.889 957.379 566.832C958.955 575.15 967.224 581.599 974.263 585.241C981.302 588.884 998.185 589.72 1002.57 589.917C1002.96 592.378 1003.3 594.84 1003.65 597.399C1005.47 609.36 1007.34 621.321 1008.82 633.086C1009.31 637.22 1009.65 641.355 1010.05 645.441C1009.31 642.832 1008.62 640.518 1008.47 640.518C1004.34 630.674 990.555 613.987 978.594 615.021C976.615 615.248 974.706 615.89 972.991 616.904C971.277 617.919 969.795 619.283 968.643 620.909C967.492 622.534 966.695 624.384 966.307 626.338C965.918 628.292 965.945 630.306 966.387 632.249C967.962 640.567 976.232 647.016 983.221 650.609C990.211 654.202 1005.52 655.039 1010.79 655.236C1011.03 659.469 1011.28 663.702 1011.33 667.788C1011.33 670.593 1011.33 673.301 1011.33 676.106C1011.33 678.912 1011.08 681.619 1010.93 684.376C1010.54 689.593 1010.15 695.008 1009.6 700.127C1009.26 703.72 1008.87 707.067 1008.47 710.513C1007.98 706.378 1006.9 698.306 1006.75 697.617C1004.12 688.575 999.227 680.356 992.524 673.744C992.262 672.732 991.916 671.745 991.491 670.79C990.727 668.948 989.584 667.289 988.136 665.919C986.688 664.549 984.967 663.5 983.085 662.84C981.204 662.18 979.205 661.925 977.218 662.091C975.231 662.256 973.302 662.839 971.556 663.801C961.219 669.855 959.545 691.365 961.711 701.85C961.711 702.44 964.074 708.987 965.55 713.072C964.32 710.808 963.138 708.593 961.809 706.23C959.299 701.653 956.641 697.124 953.786 692.202L949.356 685.212C947.929 682.85 946.157 680.536 944.434 678.124C940.545 672.71 936.361 667.394 932.03 662.127C936.066 659.912 950.291 651.79 955.115 645.391C959.939 638.992 964.32 629.542 962.006 621.42C961.52 619.496 960.636 617.696 959.411 616.135C958.185 614.575 956.646 613.289 954.892 612.361C953.138 611.433 951.209 610.884 949.229 610.749C947.25 610.613 945.264 610.895 943.4 611.575C932.227 616.005 927.304 637.023 927.993 647.705C927.993 648.394 929.421 655.974 930.258 660.158C927.6 657.008 924.991 653.858 922.234 650.757C914.26 641.847 905.892 633.086 897.623 624.275L890.092 616.153C891.519 615.365 908.649 606.308 914.063 598.925C918.986 592.526 923.268 583.075 920.955 574.954C920.47 573.024 919.584 571.218 918.355 569.653C917.126 568.089 915.582 566.8 913.822 565.871C912.062 564.943 910.127 564.395 908.142 564.264C906.157 564.132 904.166 564.42 902.299 565.109C891.175 569.49 886.253 590.557 886.942 601.239C886.942 602.026 888.96 613.003 889.6 615.759C884.087 609.803 878.623 603.798 873.455 597.645C866.478 589.383 860.034 580.686 854.159 571.606C854.848 571.262 872.766 561.762 878.279 554.329C883.201 547.93 887.483 538.48 885.17 530.358C884.684 528.434 883.799 526.634 882.574 525.073C881.348 523.513 879.809 522.227 878.055 521.299C876.301 520.371 874.372 519.822 872.393 519.687C870.413 519.551 868.427 519.833 866.564 520.513C855.439 524.894 850.468 545.961 851.206 556.643C851.206 557.48 853.372 569.244 853.913 571.41L852.83 569.834C847.203 560.564 842.409 550.813 838.507 540.695C836.292 535.132 834.47 529.718 832.846 524.353C836.341 522.925 852.535 516.132 858.097 510.078C863.659 504.024 868.975 495.311 867.548 486.993C867.287 485.018 866.613 483.121 865.57 481.425C864.527 479.729 863.138 478.271 861.494 477.147C859.85 476.024 857.988 475.259 856.029 474.903C854.07 474.547 852.057 474.607 850.123 475.081C838.556 478.231 831.369 498.609 830.877 509.537C830.877 510.127 831.271 516.083 831.615 520.415C830.877 518.003 830.139 515.493 829.499 513.179C827.087 504.417 825.463 496.296 824.035 489.06C823.248 484.925 822.657 481.184 822.115 477.69C824.823 474.441 835.602 461.348 837.867 453.472C840.131 445.596 840.722 435.358 835.652 428.861C834.512 427.225 833.04 425.848 831.332 424.82C829.624 423.792 827.718 423.136 825.739 422.895C823.76 422.653 821.753 422.832 819.848 423.419C817.943 424.006 816.183 424.988 814.683 426.301C805.872 434.423 808.875 455.835 813.354 465.679C813.748 466.516 821.377 478.92 821.476 478.772C821.919 482.169 822.411 485.762 823.1 489.7C824.33 496.985 825.807 505.205 828.022 514.016C830.293 523.558 833.12 532.959 836.488 542.171C840.216 552.509 844.861 562.492 850.369 572C850.379 572.115 850.379 572.23 850.369 572.345C847.76 569.982 840.525 563.632 839.639 563.239C830.729 557.283 810.105 551.031 800.654 558.316C799.126 559.597 797.885 561.185 797.012 562.978C796.139 564.771 795.655 566.728 795.59 568.721C795.525 570.713 795.881 572.698 796.635 574.543C797.389 576.389 798.524 578.055 799.965 579.433C806.413 584.011 816.75 584.946 824.724 583.961Z" fill="#2F80ED"/>
<path d="M1007.88 475.081C1007.88 475.081 1007.88 460.314 1007.88 459.625C1006.5 449.042 997.595 429.353 985.782 427.187C983.813 426.888 981.803 427.007 979.883 427.534C977.962 428.061 976.174 428.986 974.634 430.248C973.093 431.51 971.835 433.081 970.94 434.86C970.046 436.639 969.534 438.586 969.44 440.576C968.751 448.993 974.903 457.41 980.859 462.726C987.751 468.977 1007.88 475.081 1007.88 475.081Z" fill="#2F80ED"/>
<path d="M175.33 1925.57C184.092 1922.72 199.203 1908.64 199.203 1908.64C199.203 1908.64 186.897 1901.51 186.061 1901.16C176.216 1897.08 155.296 1894.91 147.618 1903.82C146.392 1905.34 145.499 1907.1 144.996 1908.99C144.494 1910.88 144.392 1912.85 144.698 1914.78C145.004 1916.71 145.711 1918.55 146.774 1920.19C147.836 1921.83 149.23 1923.23 150.866 1924.3C157.905 1929.02 167.75 1927.99 175.33 1925.57Z" fill="#2F80ED"/>
<path d="M220.417 1965.54C227.801 1960.62 238.039 1944.43 238.827 1943.1C248.091 1948.98 257.744 1954.23 267.72 1958.8C273.529 1961.51 279.435 1964.02 285.391 1966.53L279.534 1965.1C269.148 1963.72 248.228 1967.22 243.158 1977.85C242.377 1979.64 241.981 1981.58 241.995 1983.54C242.009 1985.49 242.434 1987.42 243.241 1989.2C244.048 1990.99 245.22 1992.58 246.681 1993.88C248.142 1995.18 249.86 1996.16 251.723 1996.75C259.55 1999.51 269.099 1995.82 275.645 1991.53C282.192 1987.25 291.298 1973.47 293.612 1969.83L300.503 1972.58C311.529 1977.01 322.604 1981.34 333.285 1985.92C337.075 1987.55 340.718 1989.27 344.409 1990.84L339.487 1989.61C329.101 1988.24 308.182 1991.73 303.112 2002.36C302.33 2004.16 301.934 2006.09 301.948 2008.05C301.962 2010 302.387 2011.94 303.194 2013.72C304.001 2015.5 305.173 2017.09 306.634 2018.39C308.095 2019.69 309.813 2020.67 311.676 2021.26C319.503 2024.02 329.052 2020.33 335.599 2016.05C342.145 2011.76 350.365 1999.31 353.122 1994.98C356.814 1996.85 360.554 1998.72 364.049 2000.69C366.412 2002.12 368.972 2003.3 371.088 2004.82L377.881 2009.25C382.163 2012.21 386.544 2015.21 390.58 2018.21C393.435 2020.23 396.093 2022.25 398.801 2024.27C395.06 2022.64 387.676 2019.34 387.036 2019.34C376.946 2016.44 355.731 2016.69 349.135 2026.43C348.067 2028.1 347.364 2029.97 347.071 2031.92C346.779 2033.87 346.905 2035.87 347.439 2037.77C347.974 2039.67 348.907 2041.44 350.175 2042.96C351.442 2044.47 353.017 2045.7 354.795 2046.56C362.08 2050.5 372.073 2048.29 379.407 2045.04C387.282 2041.4 399.391 2027.52 400.917 2025.79C405.347 2029.14 409.679 2032.44 413.666 2035.64C421.837 2042.09 428.974 2048.04 435.127 2053.31L440.837 2048.39C434.389 2043.07 426.661 2036.97 417.948 2030.32C413.42 2026.88 408.547 2023.33 403.477 2019.69C406.161 2014.4 408.496 2008.94 410.466 2003.35C419.81 2003.22 429.09 2001.78 438.031 1999.06C439.901 2004.33 441.673 2009.45 443.249 2014.32C446.3 2023.58 448.86 2031.99 450.977 2039.38L457.129 2033.91C455.062 2027.32 452.65 2019.98 449.844 2012.11C447.974 2006.74 445.907 2001.08 443.692 1995.27C445.611 1994.14 461.609 1984.84 466.629 1977.8C471.65 1970.76 475.243 1962.05 472.782 1954.12C472.269 1952.24 471.363 1950.49 470.125 1948.98C468.887 1947.46 467.344 1946.23 465.598 1945.36C463.851 1944.49 461.939 1943.99 459.988 1943.91C458.037 1943.82 456.09 1944.15 454.274 1944.87C443.445 1949.45 439.114 1970.22 440.098 1980.7C440.098 1981.3 441.526 1987.94 442.461 1992.12L439.705 1985.04C437.785 1980.11 435.767 1975.49 433.601 1970.27C432.469 1967.81 431.287 1965.35 430.155 1962.89C429.023 1960.42 427.596 1957.96 426.316 1955.4C423.215 1949.65 419.769 1943.94 416.471 1938.32C420.655 1936.65 435.521 1930.5 441.083 1924.84C446.645 1919.18 451.961 1910.56 450.927 1902.34C450.7 1900.4 450.066 1898.53 449.067 1896.85C448.068 1895.16 446.726 1893.71 445.129 1892.58C443.532 1891.46 441.715 1890.68 439.797 1890.3C437.878 1889.92 435.901 1889.95 433.995 1890.38C422.624 1893.29 415.241 1913.17 414.601 1923.66C414.601 1924.34 414.946 1931.92 415.241 1936.06C413.075 1932.66 410.909 1929.27 408.596 1925.92C401.902 1916.08 394.863 1906.67 387.873 1897.08C385.707 1894.12 383.64 1891.17 381.523 1888.22C383 1887.67 400.819 1880.73 406.971 1874.43C413.124 1868.13 417.899 1860.16 416.816 1851.94C416.589 1850 415.955 1848.12 414.956 1846.44C413.957 1844.76 412.615 1843.31 411.018 1842.18C409.42 1841.05 407.604 1840.27 405.685 1839.89C403.767 1839.51 401.79 1839.54 399.883 1839.98C388.513 1842.88 381.08 1862.77 380.194 1873.25C380.194 1874.04 380.736 1884.92 381.031 1887.72C376.109 1881.23 371.777 1874.68 367.544 1868.03C361.735 1859.15 356.523 1849.89 351.941 1840.32C352.63 1840.03 371.285 1832.89 377.586 1826.44C383.049 1820.83 388.513 1812.17 387.43 1803.95C387.242 1801.89 386.598 1799.91 385.547 1798.13C384.495 1796.36 383.062 1794.84 381.351 1793.69C379.64 1792.54 377.694 1791.79 375.655 1791.48C373.616 1791.18 371.534 1791.33 369.562 1791.94C358.143 1794.84 350.759 1814.73 350.119 1825.21C350.119 1826.05 350.71 1837.76 350.956 1839.98C350.956 1839.44 350.365 1838.89 350.119 1838.3C345.771 1828.59 342.311 1818.51 339.782 1808.18C338.306 1802.47 337.174 1796.96 336.238 1791.59C339.832 1790.61 356.272 1785.98 362.622 1780.76C368.972 1775.54 375.026 1767.77 374.681 1759.45C374.666 1757.5 374.241 1755.57 373.432 1753.79C372.624 1752.01 371.45 1750.42 369.988 1749.13C368.526 1747.83 366.808 1746.86 364.945 1746.27C363.082 1745.68 361.117 1745.49 359.176 1745.72C347.56 1747.34 338.011 1766.34 336.238 1776.68C336.238 1777.22 335.746 1783.08 335.549 1787.31C335.205 1784.9 334.713 1782.39 334.417 1780.02C333.137 1771.21 332.547 1763.04 332.104 1755.86C332.104 1751.72 331.71 1748.03 331.612 1744.53C334.663 1741.73 346.772 1730.31 349.922 1722.93C353.073 1715.54 354.845 1705.65 350.808 1698.31C349.89 1696.59 348.619 1695.08 347.078 1693.89C345.537 1692.69 343.761 1691.83 341.866 1691.37C339.971 1690.9 338 1690.84 336.08 1691.19C334.16 1691.54 332.336 1692.29 330.726 1693.39C321.176 1700.23 321.422 1721.45 324.622 1731.44C324.917 1732.28 330.775 1745.32 330.922 1745.17C330.922 1748.52 330.922 1752.11 330.922 1756.05C331.218 1763.29 331.661 1771.46 332.744 1780.32C333.828 1789.89 335.471 1799.39 337.666 1808.77C340.052 1819.29 343.345 1829.58 347.51 1839.53C347.52 1839.65 347.52 1839.76 347.51 1839.88C345.246 1837.27 338.749 1830.03 338.158 1829.64C330.233 1822.8 310.84 1814.14 300.798 1820.24C299.16 1821.3 297.762 1822.69 296.695 1824.32C295.628 1825.95 294.917 1827.79 294.606 1829.72C294.295 1831.64 294.392 1833.61 294.89 1835.5C295.389 1837.39 296.278 1839.15 297.5 1840.67C302.422 1847.31 312.267 1849.53 320.34 1849.53C329.2 1849.53 346.674 1841.65 348.052 1841.01C352.542 1851.01 357.706 1860.7 363.508 1870C366.855 1875.47 370.399 1880.83 373.992 1886.2C371.974 1884.03 370.202 1882.06 369.907 1881.82C361.982 1874.93 342.588 1866.31 332.547 1872.37C330.895 1873.42 329.484 1874.81 328.408 1876.45C327.332 1878.08 326.615 1879.93 326.303 1881.86C325.992 1883.8 326.093 1885.78 326.601 1887.67C327.108 1889.56 328.011 1891.32 329.249 1892.84C334.171 1899.49 344.016 1901.65 352.039 1901.7C360.062 1901.75 375.075 1895.25 379.013 1893.48L383.246 1899.63C390.039 1909.48 396.832 1919.08 403.231 1928.82C405.495 1932.22 407.611 1935.72 409.679 1939.16C407.907 1937.19 406.381 1935.57 406.135 1935.37C398.21 1928.48 378.816 1919.82 368.775 1925.92C367.124 1926.97 365.714 1928.35 364.638 1929.99C363.563 1931.62 362.845 1933.46 362.534 1935.39C362.222 1937.32 362.323 1939.3 362.831 1941.19C363.338 1943.07 364.24 1944.83 365.477 1946.35C370.399 1952.99 380.244 1955.21 388.316 1955.21C396.389 1955.21 409.826 1949.4 414.552 1947.33C416.57 1950.92 418.637 1954.52 420.458 1958.11C421.689 1960.57 423.018 1963.03 424.052 1965.45C425.085 1967.86 426.267 1970.37 427.35 1972.88C429.22 1977.8 431.238 1982.72 432.961 1987.35C434.241 1990.65 435.324 1993.8 436.456 1996.95C434.29 1993.55 429.811 1987.1 429.368 1986.37C423.131 1979.56 415.249 1974.48 406.479 1971.6C405.829 1970.79 405.085 1970.07 404.264 1969.43C402.824 1968.23 401.153 1967.33 399.354 1966.79C397.554 1966.26 395.665 1966.09 393.8 1966.31C391.934 1966.52 390.133 1967.12 388.505 1968.05C386.876 1968.99 385.456 1970.24 384.329 1971.75C377.832 1981.59 385.707 2001.28 392.254 2009.45C392.648 2009.89 397.472 2014.72 400.523 2017.67L394.321 2013.24C390.088 2010.29 385.756 2007.48 381.13 2004.38L374.238 2000.15C371.925 1998.67 369.316 1997.44 366.855 1996.01C361.096 1992.91 355.14 1990.06 349.036 1987.35C351.596 1983.61 360.604 1970.32 362.08 1962.74C363.557 1955.16 363.311 1944.82 357.749 1938.67C356.488 1937.17 354.926 1935.96 353.166 1935.11C351.405 1934.26 349.485 1933.79 347.53 1933.73C345.575 1933.67 343.63 1934.02 341.82 1934.76C340.01 1935.5 338.377 1936.61 337.026 1938.03C329.15 1946.74 333.925 1967.56 339.192 1976.47C339.487 1977.06 344.114 1983.17 346.575 1986.32C342.884 1984.69 339.192 1983.07 335.451 1981.39C324.523 1977.01 313.35 1972.88 302.226 1968.74L292.036 1964.9C292.972 1963.58 303.998 1947.97 305.671 1939.31C307.148 1931.58 306.902 1921.39 301.34 1915.19C300.074 1913.7 298.511 1912.49 296.751 1911.65C294.991 1910.8 293.073 1910.33 291.12 1910.27C289.168 1910.21 287.224 1910.56 285.415 1911.3C283.606 1912.03 281.971 1913.14 280.617 1914.55C272.741 1923.26 277.516 1944.08 282.783 1953.04C283.176 1953.73 289.674 1962.49 291.446 1964.66C283.964 1961.8 276.679 1958.9 269.345 1955.75C259.638 1951.49 250.202 1946.64 241.091 1941.23C241.485 1940.59 253.101 1924.39 254.775 1915.48C256.252 1907.81 256.005 1897.57 250.443 1891.41C249.186 1889.92 247.627 1888.7 245.869 1887.84C244.11 1886.99 242.191 1886.51 240.236 1886.45C238.281 1886.38 236.334 1886.73 234.522 1887.47C232.711 1888.2 231.075 1889.31 229.721 1890.73C221.845 1899.49 226.669 1920.26 231.886 1929.22C232.329 1929.96 239.319 1939.36 240.697 1940.98L239.073 1940.1C230.089 1934.39 221.638 1927.88 213.822 1920.65C209.441 1916.72 205.454 1912.73 201.713 1908.74C204.174 1905.94 215.298 1893.04 217.71 1885.21C220.122 1877.39 220.91 1867.49 216.037 1860.6C214.952 1858.98 213.537 1857.6 211.885 1856.57C210.232 1855.53 208.38 1854.85 206.447 1854.57C204.515 1854.3 202.547 1854.44 200.671 1854.97C198.795 1855.51 197.053 1856.44 195.56 1857.7C186.749 1865.47 189.26 1886.54 193.443 1896.19C193.443 1896.68 196.594 1901.75 198.809 1905.44C197.135 1903.57 195.363 1901.75 193.886 1899.98C187.98 1893.33 183.008 1886.84 178.627 1881.08C176.166 1877.83 174 1874.78 172.032 1871.92C173.016 1867.94 176.954 1851.69 175.329 1843.77C173.705 1835.84 170.013 1826.64 162.581 1822.9C160.864 1821.93 158.96 1821.33 156.996 1821.15C155.032 1820.98 153.052 1821.22 151.189 1821.87C149.326 1822.51 147.623 1823.55 146.192 1824.91C144.761 1826.27 143.636 1827.91 142.892 1829.74C138.659 1840.72 150.62 1858.24 158.791 1864.83C159.48 1865.43 171.589 1873.05 171.638 1872.86V1872.61C173.508 1875.37 175.526 1878.37 177.791 1881.57C182.073 1887.43 186.946 1893.97 192.557 1900.82C198.704 1908.22 205.278 1915.25 212.247 1921.88C220.004 1929.4 228.422 1936.2 237.399 1942.21H237.744C234.446 1941.28 225.044 1938.96 224.306 1938.87C213.92 1937.49 193 1940.98 187.93 1951.61C187.149 1953.41 186.753 1955.34 186.767 1957.3C186.781 1959.26 187.206 1961.19 188.013 1962.97C188.82 1964.75 189.992 1966.34 191.453 1967.64C192.914 1968.94 194.632 1969.92 196.495 1970.52C204.322 1973.52 213.871 1969.83 220.417 1965.54Z" fill="#2F80ED"/>
<path d="M334.368 1790.16C334.614 1790.16 328.067 1777.41 327.575 1776.63C321.717 1767.91 305.326 1754.48 294.005 1757.68C292.139 1758.26 290.417 1759.23 288.952 1760.52C287.487 1761.82 286.311 1763.41 285.503 1765.19C284.694 1766.97 284.271 1768.9 284.26 1770.85C284.249 1772.81 284.651 1774.74 285.44 1776.53C288.492 1784.26 297.549 1789.03 305.129 1791.3C313.989 1793.56 334.368 1790.16 334.368 1790.16Z" fill="#2F80ED"/>
<path d="M1019.25 562.796L975.198 601.534" stroke="#263238" stroke-linecap="round" stroke-linejoin="round"/>
<path d="M1411.31 218.138L1155.01 443.431" stroke="#263238" stroke-linecap="round" stroke-linejoin="round"/>
<path d="M1372.97 208.54L1123.75 299.602" stroke="#263238" stroke-linecap="round" stroke-linejoin="round"/>
<path d="M1144.72 171.278L984.747 184.568" stroke="#263238" stroke-linecap="round" stroke-linejoin="round"/>
<path d="M1329.8 155.822L1162.59 169.752" stroke="#263238" stroke-linecap="round" stroke-linejoin="round"/>
<path d="M1258.92 56.4909L1092.25 0.672363" stroke="#263238" stroke-linecap="round" stroke-linejoin="round"/>
<path d="M1315.43 74.3587L1282.1 63.8251" stroke="#263238" stroke-linecap="round" stroke-linejoin="round"/>
<path d="M1985.45 562.796L2029.5 601.534" stroke="#263238" stroke-linecap="round" stroke-linejoin="round"/>
<path d="M1593.39 218.138L1958.32 538.972" stroke="#263238" stroke-linecap="round" stroke-linejoin="round"/>
<path d="M1631.73 208.54L1880.94 299.602" stroke="#263238" stroke-linecap="round" stroke-linejoin="round"/>
<path d="M1859.93 171.278L2019.9 184.568" stroke="#263238" stroke-linecap="round" stroke-linejoin="round"/>
<path d="M1674.85 155.822L1842.11 169.752" stroke="#263238" stroke-linecap="round" stroke-linejoin="round"/>
<path d="M1745.78 56.4909L1873.12 16.1283" stroke="#263238" stroke-linecap="round" stroke-linejoin="round"/>
<path d="M1689.22 74.3587L1722.6 63.8251" stroke="#263238" stroke-linecap="round" stroke-linejoin="round"/>
<path d="M1507.15 176.643H1480.76V288.97H1507.15V176.643Z" fill="#2F80ED" stroke="#263238" stroke-linecap="round" stroke-linejoin="round"/>
<path d="M1532.94 313.04H1454.97L1464.18 269.478H1523.74L1532.94 313.04Z" fill="#2F80ED" stroke="#263238" stroke-linecap="round" stroke-linejoin="round"/>
<path d="M1579.9 331.35H1408.01L1426.32 291.234H1561.59L1579.9 331.35Z" fill="#2F80ED" stroke="#263238" stroke-linecap="round" stroke-linejoin="round"/>
<path d="M1406.83 57.7215C1394.54 57.4869 1382.45 60.9182 1372.11 67.5781C1361.78 74.238 1353.66 83.8249 1348.79 95.117C1343.92 106.409 1342.52 118.895 1344.78 130.984C1347.03 143.072 1352.83 154.216 1361.45 162.994C1370.06 171.773 1381.09 177.789 1393.13 180.275C1405.17 182.762 1417.68 181.607 1429.07 176.957C1440.45 172.307 1450.19 164.372 1457.05 154.165C1463.91 143.958 1467.57 131.94 1467.57 119.644C1467.65 111.589 1466.14 103.599 1463.13 96.1277C1460.12 88.6568 1455.67 81.852 1450.03 76.1019C1444.39 70.3518 1437.67 65.7691 1430.26 62.6153C1422.85 59.4616 1414.89 57.7987 1406.83 57.7215ZM1406.83 166.011C1397.66 166.178 1388.65 163.61 1380.95 158.637C1373.25 153.663 1367.2 146.509 1363.58 138.086C1359.96 129.662 1358.93 120.351 1360.62 111.339C1362.31 102.327 1366.64 94.0218 1373.07 87.4827C1379.5 80.9435 1387.72 76.4662 1396.71 74.6214C1405.69 72.7766 1415.01 73.6478 1423.5 77.124C1431.98 80.6002 1439.24 86.5239 1444.35 94.1403C1449.45 101.757 1452.17 110.721 1452.17 119.89C1452.21 131.975 1447.46 143.585 1438.96 152.181C1430.47 160.777 1418.92 165.661 1406.83 165.765V166.011Z" fill="#2F80ED" stroke="#263238" stroke-linecap="round" stroke-linejoin="round"/>
<path d="M1590.29 57.7215C1577.99 57.4869 1565.9 60.9182 1555.57 67.5781C1545.23 74.238 1537.11 83.8249 1532.24 95.117C1527.37 106.409 1525.98 118.895 1528.23 130.984C1530.49 143.072 1536.29 154.216 1544.9 162.994C1553.51 171.773 1564.54 177.789 1576.58 180.275C1588.63 182.762 1601.14 181.607 1612.52 176.957C1623.9 172.307 1633.64 164.372 1640.5 154.165C1647.36 143.958 1651.02 131.94 1651.03 119.644C1651.1 111.589 1649.59 103.599 1646.58 96.1277C1643.57 88.6568 1639.12 81.852 1633.48 76.1019C1627.84 70.3518 1621.12 65.7691 1613.71 62.6153C1606.3 59.4616 1598.34 57.7987 1590.29 57.7215ZM1590.29 166.011C1581.12 166.187 1572.1 163.629 1564.39 158.661C1556.68 153.694 1550.63 146.543 1547 138.121C1543.37 129.698 1542.33 120.386 1544.01 111.37C1545.7 102.355 1550.03 94.0456 1556.45 87.5015C1562.88 80.9574 1571.11 76.4751 1580.09 74.6261C1589.07 72.7772 1598.4 73.6454 1606.89 77.12C1615.38 80.5946 1622.64 86.5181 1627.75 94.1354C1632.85 101.753 1635.58 110.719 1635.57 119.89C1635.61 131.967 1630.87 143.569 1622.39 152.164C1613.9 160.759 1602.36 165.648 1590.29 165.765V166.011Z" fill="#2F80ED" stroke="#263238" stroke-linecap="round" stroke-linejoin="round"/>
<path d="M1493.96 207.555C1483.87 207.562 1473.89 205.582 1464.57 201.728C1455.26 197.875 1446.79 192.223 1439.66 185.097C1432.53 177.97 1426.87 169.508 1423.02 160.195C1419.16 150.881 1417.17 140.899 1417.17 130.817V51.7163H1570.6V130.817C1570.6 151.152 1562.52 170.656 1548.15 185.044C1533.78 199.433 1514.29 207.529 1493.96 207.555Z" fill="#2F80ED" stroke="#263238" stroke-linecap="round" stroke-linejoin="round"/>
<path d="M1491.84 76.9675L1501.73 107.387H1533.73L1507.84 126.19L1517.73 156.61L1491.84 137.807L1465.95 156.61L1475.84 126.19L1449.95 107.387H1481.95L1491.84 76.9675Z" fill="#263238"/>
<path d="M1747.6 331.744H1243.56V791.287H1747.6V331.744Z" fill="#263238" stroke="#263238" stroke-linejoin="round"/>
<path d="M1578.57 331.744H1243.56V791.287H1578.57V331.744Z" fill="white" stroke="#263238" stroke-linejoin="round"/>
<path d="M1359.58 560.039H855.538V1019.58H1359.58V560.039Z" fill="#263238" stroke="#263238" stroke-linejoin="round"/>
<path d="M1190.55 560.039H855.538V1019.58H1190.55V560.039Z" fill="white" stroke="#263238" stroke-linejoin="round"/>
<path d="M1083.29 690.233V653.513H1060.3C1058.55 647.102 1055.93 640.959 1052.53 635.251L1066.75 620.977L1040.76 594.987L1026.59 609.163C1020.23 605.31 1013.33 602.439 1006.11 600.648V583.666H969.341V600.648C961.403 602.685 953.854 606.011 946.993 610.492L936.854 600.353L911.012 626.194L921.988 637.171C917.885 644.531 915.071 652.538 913.67 660.847H899.69V697.617H916.426C918.971 705.215 922.71 712.359 927.501 718.782L916.18 730.104L942.022 755.945L956.05 741.917C962.607 744.969 969.57 747.058 976.724 748.119V767.267H1013.44V744.378C1019.55 742.165 1025.34 739.17 1030.67 735.469L1045.98 750.777L1071.97 724.787L1054.89 707.707C1057.74 702.124 1059.87 696.203 1061.24 690.085L1083.29 690.233ZM987.75 719.767C978.655 719.776 969.762 717.088 962.195 712.043C954.628 706.997 948.728 699.82 945.24 691.42C941.753 683.021 940.836 673.775 942.604 664.854C944.372 655.933 948.747 647.736 955.175 641.302C961.602 634.867 969.794 630.484 978.713 628.706C987.633 626.928 996.879 627.835 1005.28 631.314C1013.69 634.792 1020.87 640.684 1025.92 648.246C1030.98 655.807 1033.67 664.698 1033.67 673.793C1033.65 685.96 1028.8 697.621 1020.19 706.22C1011.58 714.819 999.917 719.655 987.75 719.668V719.767Z" fill="#2F80ED"/>
<path d="M1116.91 835.932V808.909H1100.03C1098.7 804.198 1096.76 799.681 1094.27 795.471L1104.75 784.987L1085.65 765.79L1075.22 776.225C1070.54 773.393 1065.46 771.285 1060.16 769.974V757.471H1033.13V769.974C1027.3 771.429 1021.74 773.841 1016.69 777.111L1009.46 769.728L990.359 788.826L998.431 796.899C995.424 802.324 993.344 808.213 992.278 814.324H982.04V841.347H994.346C996.206 846.932 998.948 852.183 1002.47 856.901L994.149 865.22L1013.25 884.318L1023.58 874.031C1028.4 876.246 1033.5 877.771 1038.74 878.559V892.637H1065.77V875.852C1070.24 874.165 1074.47 871.916 1078.37 869.158L1089.64 880.43L1108.74 861.331L1096.19 848.779C1098.27 844.678 1099.83 840.328 1100.81 835.834L1116.91 835.932ZM1046.67 857.541C1039.99 857.541 1033.46 855.561 1027.91 851.85C1022.36 848.14 1018.03 842.866 1015.47 836.696C1012.92 830.526 1012.25 823.737 1013.55 817.187C1014.85 810.637 1018.07 804.62 1022.79 799.898C1027.52 795.175 1033.53 791.959 1040.08 790.656C1046.63 789.353 1053.42 790.022 1059.59 792.578C1065.76 795.134 1071.04 799.462 1074.75 805.015C1078.46 810.567 1080.44 817.096 1080.44 823.774C1080.44 828.209 1079.56 832.6 1077.87 836.696C1076.17 840.793 1073.68 844.515 1070.55 847.651C1067.41 850.787 1063.69 853.274 1059.59 854.971C1055.49 856.668 1051.1 857.541 1046.67 857.541Z" fill="#2F80ED"/>
<path d="M1638.28 856.557H1134.24V1316.1H1638.28V856.557Z" fill="#263238" stroke="#263238" stroke-linejoin="round"/>
<path d="M1469.25 856.557H1134.24V1316.1H1469.25V856.557Z" fill="white" stroke="#263238" stroke-linejoin="round"/>
<path d="M1387.14 936.593L1358.05 915.132C1352.56 911.068 1345.95 908.774 1339.12 908.555C1332.29 908.335 1325.55 910.2 1319.81 913.901L1262.12 948.357C1259.07 950.223 1256.84 953.163 1255.86 956.596C1254.87 960.029 1255.21 963.705 1256.81 966.9C1258.4 970.095 1261.13 972.577 1264.47 973.855C1267.8 975.133 1271.49 975.115 1274.82 973.805L1328.72 955.297L1393.39 1022.24L1433.61 1008.21V926.354L1387.14 936.593Z" fill="#2F80ED"/>
<path d="M1321.58 964.354L1267.88 982.862C1258.03 987.095 1247.35 970.753 1247.35 960.121C1247.35 946.388 1260.44 942.598 1270.73 933.492L1280.58 924.828C1275.27 920.001 1268.64 916.876 1261.54 915.858C1254.44 914.84 1247.2 915.976 1240.75 919.119C1225.29 926.692 1207.51 928.032 1191.09 922.86L1176.81 918.38V1009.34L1195.03 1011.61L1196.75 1010.13C1202.7 1005.03 1210.4 1002.43 1218.23 1002.87C1226.06 1003.32 1233.41 1006.79 1238.74 1012.54L1303.32 1082C1304.78 1083.56 1306.78 1084.51 1308.92 1084.66C1311.06 1084.8 1313.17 1084.13 1314.83 1082.78C1315.71 1082.06 1316.43 1081.17 1316.96 1080.17C1317.48 1079.16 1317.8 1078.06 1317.88 1076.93C1317.97 1075.8 1317.83 1074.66 1317.47 1073.59C1317.1 1072.51 1316.53 1071.52 1315.77 1070.68L1299.63 1052.56L1322.02 1067.33C1324.18 1068.63 1326.74 1069.12 1329.23 1068.7C1331.72 1068.27 1333.97 1066.97 1335.58 1065.03C1337.19 1063.09 1338.05 1060.63 1338 1058.11C1337.95 1055.58 1337 1053.16 1335.31 1051.28L1322.32 1037.79L1342.01 1050.25C1344.38 1051.68 1347.18 1052.22 1349.91 1051.77C1352.64 1051.31 1355.12 1049.9 1356.91 1047.78C1358.69 1045.66 1359.65 1042.97 1359.63 1040.2C1359.6 1037.43 1358.59 1034.76 1356.77 1032.68L1345.11 1019.63L1366.47 1032.58C1368.08 1033.55 1369.95 1034.01 1371.83 1033.87C1373.71 1033.74 1375.5 1033.03 1376.95 1031.84C1377.95 1031.02 1378.77 1030 1379.35 1028.85C1379.92 1027.7 1380.25 1026.43 1380.3 1025.14C1380.35 1023.85 1380.13 1022.57 1379.64 1021.37C1379.16 1020.18 1378.43 1019.1 1377.5 1018.2L1321.58 964.354Z" fill="#2F80ED"/>
<path d="M1221.11 1044.54L1229.38 1034.1C1231.05 1031.85 1231.77 1029.05 1231.41 1026.28C1231.04 1023.5 1229.61 1020.98 1227.42 1019.24C1225.23 1017.5 1222.45 1016.69 1219.66 1016.96C1216.88 1017.24 1214.31 1018.58 1212.5 1020.71L1204.23 1031.15C1202.57 1033.4 1201.84 1036.2 1202.21 1038.98C1202.58 1041.75 1204.01 1044.27 1206.2 1046.01C1208.39 1047.75 1211.17 1048.57 1213.95 1048.29C1216.74 1048.02 1219.3 1046.67 1221.11 1044.54Z" fill="#2F80ED"/>
<path d="M1237.06 1059.75L1245.33 1049.31C1246.89 1047.06 1247.54 1044.29 1247.13 1041.58C1246.73 1038.87 1245.31 1036.41 1243.15 1034.72C1241 1033.02 1238.28 1032.2 1235.55 1032.43C1232.82 1032.67 1230.28 1033.93 1228.45 1035.97L1220.18 1046.36C1218.62 1048.61 1217.97 1051.38 1218.38 1054.09C1218.78 1056.8 1220.21 1059.26 1222.36 1060.96C1224.51 1062.66 1227.23 1063.47 1229.96 1063.24C1232.69 1063.01 1235.23 1061.74 1237.06 1059.7V1059.75Z" fill="#2F80ED"/>
<path d="M1252.86 1074.96L1261.08 1064.57C1262.75 1062.32 1263.47 1059.52 1263.11 1056.74C1262.74 1053.97 1261.31 1051.45 1259.12 1049.71C1256.93 1047.97 1254.15 1047.16 1251.36 1047.43C1248.58 1047.7 1246.01 1049.05 1244.2 1051.18L1235.88 1061.62C1234.11 1063.85 1233.3 1066.7 1233.62 1069.53C1233.95 1072.36 1235.38 1074.95 1237.6 1076.73C1238.72 1077.63 1240 1078.29 1241.37 1078.69C1242.75 1079.08 1244.19 1079.2 1245.61 1079.04C1247.03 1078.87 1248.4 1078.43 1249.64 1077.73C1250.89 1077.03 1251.99 1076.09 1252.86 1074.96Z" fill="#2F80ED"/>
<path d="M1275.26 1064.67C1274.15 1063.79 1272.88 1063.14 1271.52 1062.75C1270.16 1062.36 1268.74 1062.25 1267.34 1062.42C1265.93 1062.58 1264.57 1063.02 1263.34 1063.71C1262.11 1064.4 1261.02 1065.33 1260.15 1066.44L1251.88 1076.83C1250.94 1077.93 1250.24 1079.21 1249.81 1080.59C1249.38 1081.97 1249.23 1083.42 1249.37 1084.86C1249.51 1086.3 1249.94 1087.7 1250.64 1088.96C1251.33 1090.23 1252.27 1091.35 1253.4 1092.25C1254.53 1093.15 1255.84 1093.81 1257.23 1094.19C1258.62 1094.58 1260.08 1094.68 1261.51 1094.49C1262.95 1094.3 1264.33 1093.82 1265.57 1093.09C1266.82 1092.36 1267.9 1091.38 1268.76 1090.22L1277.03 1079.78C1277.91 1078.67 1278.56 1077.4 1278.95 1076.04C1279.34 1074.68 1279.45 1073.26 1279.29 1071.86C1279.12 1070.45 1278.68 1069.1 1277.99 1067.86C1277.3 1066.63 1276.37 1065.54 1275.26 1064.67Z" fill="#2F80ED"/>
<path d="M1199.46 1150.07H695.417V1609.61H1199.46V1150.07Z" fill="#263238" stroke="#263238" stroke-linejoin="round"/>
<path d="M1030.43 1150.07H695.417V1609.61H1030.43V1150.07Z" fill="white" stroke="#263238" stroke-linejoin="round"/>
<path d="M783.131 1380.29H746.066V1441.77H783.131V1380.29Z" fill="#2F80ED"/>
<path d="M828.121 1354H791.057V1441.81H828.121V1354Z" fill="#2F80ED"/>
<path d="M873.159 1336.03H836.095V1441.77H873.159V1336.03Z" fill="#2F80ED"/>
<path d="M918.15 1312.11H881.085V1441.81H918.15V1312.11Z" fill="#2F80ED"/>
<path d="M896.245 1273.52L866.367 1282.87L874.292 1290.16L853.077 1313.29L803.264 1322.74L750.891 1362.96C749.854 1363.75 749.173 1364.92 748.998 1366.21C748.823 1367.5 749.167 1368.81 749.955 1369.85C750.753 1370.88 751.926 1371.55 753.218 1371.72C754.51 1371.88 755.814 1371.53 756.847 1370.74L807.644 1331.85L858.344 1322.01L881.774 1296.51L889.699 1303.79L896.245 1273.52Z" fill="#2F80ED"/>
<path d="M1504.88 1498.91H1000.84V1958.46H1504.88V1498.91Z" fill="#263238" stroke="#263238" stroke-linejoin="round"/>
<path d="M1335.85 1498.91H1000.84V1958.46H1335.85V1498.91Z" fill="white" stroke="#263238" stroke-linejoin="round"/>
<path d="M1222.4 1661.1L1191.58 1640.77V1634.96C1198.11 1626.29 1201.74 1615.79 1201.97 1604.94C1201.97 1578.31 1191.09 1575.4 1177.6 1575.4C1164.12 1575.4 1153.24 1581.21 1153.24 1604.94C1153.49 1616.02 1157.29 1626.73 1164.07 1635.51V1638.9L1130.3 1661.1C1127.47 1662.96 1125.15 1665.5 1123.54 1668.48C1121.93 1671.46 1121.09 1674.79 1121.09 1678.18V1685.47L1174.75 1709L1231.75 1685.47V1678.18C1231.73 1674.78 1230.87 1671.44 1229.24 1668.46C1227.6 1665.47 1225.25 1662.95 1222.4 1661.1Z" fill="#2F80ED"/>
<path d="M1256.21 1631.12C1256.24 1615.83 1251.88 1600.86 1243.65 1587.97C1235.41 1575.09 1223.65 1564.85 1209.76 1558.46C1195.87 1552.07 1180.43 1549.81 1165.29 1551.94C1150.15 1554.07 1135.94 1560.51 1124.35 1570.49C1112.77 1580.46 1104.29 1593.56 1099.94 1608.22C1095.58 1622.87 1095.53 1638.47 1099.78 1653.16C1104.04 1667.85 1112.43 1681 1123.95 1691.06C1135.46 1701.11 1149.63 1707.65 1164.75 1709.88V1772.84C1162.48 1774.42 1160.62 1776.52 1159.34 1778.97C1158.05 1781.42 1157.38 1784.15 1157.37 1786.91V1893.73C1157.37 1898.3 1159.19 1902.68 1162.42 1905.91C1165.65 1909.14 1170.03 1910.96 1174.6 1910.96C1179.17 1910.96 1183.55 1909.14 1186.78 1905.91C1190.01 1902.68 1191.83 1898.3 1191.83 1893.73V1786.91C1191.83 1784.14 1191.17 1781.41 1189.88 1778.96C1188.59 1776.51 1186.73 1774.41 1184.44 1772.84V1710.52C1204.11 1708.51 1222.33 1699.28 1235.59 1684.62C1248.84 1669.95 1256.19 1650.89 1256.21 1631.12ZM1111.4 1631.12C1111.39 1618.26 1115.19 1605.69 1122.33 1594.99C1129.47 1584.29 1139.62 1575.95 1151.5 1571.02C1163.38 1566.09 1176.46 1564.79 1189.08 1567.3C1201.69 1569.8 1213.28 1575.99 1222.38 1585.08C1231.48 1594.17 1237.68 1605.76 1240.19 1618.37C1242.7 1630.99 1241.42 1644.06 1236.5 1655.95C1231.58 1667.83 1223.24 1677.99 1212.55 1685.14C1201.86 1692.28 1189.28 1696.1 1176.42 1696.1C1159.19 1696.07 1142.68 1689.22 1130.49 1677.04C1118.3 1664.86 1111.44 1648.35 1111.4 1631.12Z" fill="#2F80ED"/>
<path d="M901.512 1830.48H397.472V2290.02H901.512V1830.48Z" fill="#263238" stroke="#263238" stroke-linejoin="round"/>
<path d="M732.481 1830.48H397.472V2290.02H732.481V1830.48Z" fill="white" stroke="#263238" stroke-linejoin="round"/>
<path d="M682.176 2112.67C682.172 2109.27 681.325 2105.93 679.709 2102.94C678.094 2099.95 675.762 2097.41 672.922 2095.54L641.961 2075.11V2069.31C648.502 2060.64 652.152 2050.13 652.397 2039.28C652.397 2012.7 641.469 2009.75 627.785 2009.75C614.101 2009.75 603.42 2015.55 603.42 2039.28C603.639 2050.37 607.438 2061.09 614.249 2069.85V2073.29L580.482 2095.44C577.642 2097.31 575.31 2099.85 573.695 2102.84C572.08 2105.83 571.232 2109.17 571.228 2112.57V2131.18C568.342 2130.62 565.405 2130.38 562.467 2130.44C559.937 2130.4 557.41 2130.65 554.936 2131.18V2112.57C554.932 2109.17 554.084 2105.83 552.469 2102.84C550.854 2099.85 548.522 2097.31 545.682 2095.44L514.967 2075.11V2069.31C521.507 2060.64 525.158 2050.13 525.402 2039.28C525.402 2018.85 518.954 2012.35 509.798 2010.44L525.599 1992.42H552.425L559.612 2095.34H562.811L573.148 1992.37H609.573L623.404 2008.32L622.469 1992.37H640.288V1857.89H489.617V1992.52H511.57L509.552 2010.48C506.741 2010 503.89 2009.77 501.037 2009.8C487.55 2009.8 476.672 2015.6 476.672 2039.33C476.884 2050.54 480.755 2061.38 487.697 2070.19V2073.64L453.931 2095.79C451.091 2097.65 448.759 2100.2 447.144 2103.19C445.528 2106.17 444.681 2109.52 444.677 2112.92V2144.03H541.006C539.213 2149.23 538.379 2154.72 538.544 2160.22C538.781 2171.31 542.578 2182.02 549.373 2190.79V2194.18L515.607 2216.38C512.764 2218.23 510.429 2220.77 508.814 2223.75C507.198 2226.73 506.352 2230.07 506.353 2233.46V2264.72H617.055V2233.46C617.056 2230.07 616.21 2226.73 614.594 2223.75C612.978 2220.77 610.643 2218.23 607.801 2216.38L576.84 2196.05V2190.25C583.38 2181.58 587.03 2171.08 587.275 2160.22C587.424 2154.75 586.744 2149.29 585.257 2144.03H682.373L682.176 2112.67ZM492.866 1989.27V1861.29H637.138V1989.27H619.073L619.614 1999.11L611.049 1989.27H570.195L561.531 2076.25L555.477 1989.27H524.122L513.884 2001.28L515.164 1989.52L492.866 1989.27Z" fill="#2F80ED"/>
<path d="M547.945 1965H581.023V1959.98H547.995L547.945 1965Z" fill="#2F80ED"/>
<path d="M550.21 1973.81H578.759C580.208 1972.3 581.019 1970.29 581.023 1968.2H547.945C547.949 1970.29 548.76 1972.3 550.21 1973.81Z" fill="#2F80ED"/>
<path d="M560.251 1984.54H568.619C569.696 1984.55 570.764 1984.34 571.761 1983.94C572.758 1983.53 573.664 1982.93 574.428 1982.17C575.192 1981.41 575.799 1980.51 576.212 1979.51C576.626 1978.52 576.839 1977.45 576.839 1976.37H552.228C552.215 1978.52 553.051 1980.58 554.554 1982.11C556.058 1983.64 558.106 1984.52 560.251 1984.54Z" fill="#2F80ED"/>
<path d="M543.121 1934.88C547.996 1940.76 550.66 1948.16 550.652 1955.8V1957.32H578.414V1955.8C578.408 1948.15 581.091 1940.75 585.994 1934.88C590.221 1929.86 592.539 1923.52 592.541 1916.96C592.543 1913.13 591.758 1909.35 590.234 1905.83C588.71 1902.32 586.48 1899.16 583.682 1896.55C580.884 1893.93 577.579 1891.93 573.971 1890.64C570.364 1889.36 566.531 1888.84 562.712 1889.1C557.565 1889.43 552.61 1891.19 548.396 1894.16C544.182 1897.13 540.873 1901.22 538.835 1905.95C536.798 1910.69 536.11 1915.9 536.849 1921.01C537.588 1926.11 539.725 1930.91 543.023 1934.88H543.121Z" fill="#2F80ED"/>
<path d="M596.873 1917.16C596.873 1917.86 597.153 1918.54 597.652 1919.04C598.15 1919.54 598.826 1919.82 599.531 1919.82H613.56C614.265 1919.82 614.941 1919.54 615.439 1919.04C615.938 1918.54 616.218 1917.86 616.218 1917.16C616.218 1916.45 615.938 1915.78 615.439 1915.28C614.941 1914.78 614.265 1914.5 613.56 1914.5H599.531C598.826 1914.5 598.15 1914.78 597.652 1915.28C597.153 1915.78 596.873 1916.45 596.873 1917.16Z" fill="#2F80ED"/>
<path d="M531.21 1917.16C531.21 1916.45 530.93 1915.78 530.431 1915.28C529.933 1914.78 529.257 1914.5 528.552 1914.5H514.376C513.671 1914.5 512.995 1914.78 512.496 1915.28C511.998 1915.78 511.718 1916.45 511.718 1917.16C511.718 1917.86 511.998 1918.54 512.496 1919.04C512.995 1919.54 513.671 1919.82 514.376 1919.82H528.552C529.257 1919.82 529.933 1919.54 530.431 1919.04C530.93 1918.54 531.21 1917.86 531.21 1917.16Z" fill="#2F80ED"/>
<path d="M564.041 1884.28C564.746 1884.28 565.422 1884 565.92 1883.5C566.419 1883 566.699 1882.32 566.699 1881.62V1867.54C566.706 1867.19 566.643 1866.85 566.515 1866.53C566.387 1866.21 566.195 1865.91 565.953 1865.67C565.71 1865.42 565.42 1865.22 565.1 1865.09C564.78 1864.95 564.437 1864.88 564.09 1864.88C563.394 1864.9 562.73 1865.18 562.242 1865.68C561.755 1866.18 561.481 1866.85 561.481 1867.54V1881.57C561.48 1882.26 561.745 1882.93 562.221 1883.43C562.698 1883.94 563.349 1884.24 564.041 1884.28Z" fill="#2F80ED"/>
<path d="M589.391 1894.42C590.093 1894.41 590.764 1894.12 591.262 1893.63L601.106 1883.79C601.356 1883.54 601.555 1883.25 601.691 1882.93C601.827 1882.61 601.897 1882.26 601.897 1881.91C601.897 1881.57 601.827 1881.22 601.691 1880.9C601.555 1880.58 601.356 1880.29 601.106 1880.04C600.6 1879.55 599.92 1879.27 599.211 1879.27C598.503 1879.27 597.822 1879.55 597.316 1880.04L587.472 1889.89C586.979 1890.39 586.702 1891.06 586.702 1891.76C586.702 1892.46 586.979 1893.13 587.472 1893.63C587.993 1894.12 588.676 1894.4 589.391 1894.42Z" fill="#2F80ED"/>
<path d="M536.92 1940.54L527.075 1950.38C526.582 1950.88 526.306 1951.55 526.306 1952.25C526.306 1952.95 526.582 1953.63 527.075 1954.12C527.318 1954.37 527.609 1954.57 527.93 1954.71C528.252 1954.84 528.597 1954.91 528.946 1954.91C529.294 1954.91 529.64 1954.84 529.961 1954.71C530.282 1954.57 530.573 1954.37 530.816 1954.12L540.661 1944.28C541.079 1943.77 541.293 1943.12 541.261 1942.46C541.228 1941.8 540.952 1941.18 540.486 1940.71C540.019 1940.25 539.395 1939.97 538.736 1939.94C538.077 1939.91 537.43 1940.12 536.92 1940.54Z" fill="#2F80ED"/>
<path d="M536.428 1893.33C536.678 1893.59 536.978 1893.79 537.307 1893.92C537.637 1894.06 537.991 1894.13 538.347 1894.12C538.87 1894.12 539.381 1893.96 539.815 1893.67C540.248 1893.38 540.586 1892.96 540.786 1892.48C540.986 1892 541.038 1891.46 540.937 1890.95C540.836 1890.44 540.586 1889.97 540.218 1889.59L530.816 1880.19C530.581 1879.91 530.288 1879.67 529.957 1879.5C529.625 1879.34 529.263 1879.24 528.892 1879.22C528.521 1879.21 528.151 1879.26 527.805 1879.4C527.459 1879.53 527.144 1879.74 526.882 1880C526.62 1880.26 526.415 1880.58 526.282 1880.92C526.148 1881.27 526.089 1881.64 526.107 1882.01C526.125 1882.38 526.221 1882.74 526.387 1883.07C526.554 1883.4 526.788 1883.7 527.075 1883.93L536.428 1893.33Z" fill="#2F80ED"/>
<path d="M591.508 1940.98C591.002 1940.49 590.321 1940.21 589.613 1940.21C588.904 1940.21 588.224 1940.49 587.718 1940.98C587.225 1941.48 586.948 1942.15 586.948 1942.85C586.948 1943.55 587.225 1944.23 587.718 1944.72L597.07 1954.08C597.313 1954.33 597.604 1954.52 597.925 1954.66C598.247 1954.8 598.592 1954.87 598.941 1954.87C599.289 1954.87 599.635 1954.8 599.956 1954.66C600.277 1954.52 600.568 1954.33 600.811 1954.08C601.304 1953.58 601.581 1952.91 601.581 1952.2C601.581 1951.5 601.304 1950.83 600.811 1950.33L591.508 1940.98Z" fill="#2F80ED"/>
<path d="M764.526 795.028C764.526 795.028 780.621 813.487 778.21 819.935C776.562 826.233 775.751 832.721 775.798 839.23C775.798 839.23 796.668 850.502 796.668 856.114C795.901 861.442 794.237 866.601 791.746 871.373C791.746 871.373 796.668 903.515 793.37 911.538C790.072 919.562 755.567 925.222 755.567 925.222L742.72 964.6L668.886 942.106L680.945 902.728C680.945 902.728 662.487 856.114 659.238 840.855C655.99 825.596 679.321 795.816 708.461 788.58C727.359 784.704 747.001 786.963 764.526 795.028Z" fill="white" stroke="#263238" stroke-linejoin="round"/>
<path d="M739.618 868.173C739.618 868.173 752.466 868.961 750.891 862.513C749.315 856.064 744.442 852.668 746.854 849.665C749.266 846.663 764.525 836.818 759.701 830.37C754.878 823.922 740.406 819.147 746.854 811.912C753.302 804.676 790.269 788.58 790.269 788.58C790.269 788.58 752.466 770.909 746.854 770.909C741.243 770.909 769.349 762.098 759.701 754.863C750.054 747.627 688.181 747.627 663.274 780.557C638.367 813.487 641.567 832.782 651.215 860.101C660.862 887.419 679.321 919.611 688.968 922.023C698.616 924.435 730.758 926.01 732.383 914.787C734.007 903.564 739.618 868.173 739.618 868.173Z" fill="#263238" stroke="#263238" stroke-linejoin="round"/>
<path d="M750.054 875.409C750.054 875.409 727.313 847.303 725.935 858.033C724.557 868.764 732.629 907.256 747.347 898.15" fill="white"/>
<path d="M750.054 875.409C750.054 875.409 727.313 847.303 725.935 858.033C724.557 868.764 732.629 907.256 747.347 898.15" stroke="#263238" stroke-linejoin="round"/>
<path d="M623.896 957.365C623.896 957.365 641.567 962.976 684.145 971.836C726.723 980.696 762.901 989.507 762.901 989.507C762.901 989.507 751.679 955.74 739.619 949.341C727.559 942.942 663.275 930.046 655.251 930.834C647.228 931.621 623.896 957.365 623.896 957.365Z" fill="white" stroke="#263238" stroke-linejoin="round"/>
<path d="M896.246 1181.57C896.246 1181.57 969.391 1115.71 973.378 1111.68C977.365 1107.64 968.456 1076.34 968.456 1071.51C968.456 1066.69 985.339 1058.62 985.339 1058.62C985.339 1058.62 987.751 1045.77 995.774 1045.77C1003.8 1045.77 1017.48 1056.2 1017.48 1056.2L1019.11 1065.06C1019.11 1065.06 1030.33 1089.97 1030.33 1094.01C1029.21 1102.55 1025.26 1110.47 1019.11 1116.5C1011.08 1124.52 992.575 1141.41 992.575 1141.41C992.575 1141.41 928.29 1228.19 913.819 1240.25C899.347 1252.31 880.052 1265.15 872.816 1250.73C865.58 1236.31 896.246 1181.57 896.246 1181.57Z" fill="white" stroke="#263238" stroke-linejoin="round"/>
<path d="M985.535 1058.62L987.947 1065.06L981.499 1069.89" stroke="#263238" stroke-linejoin="round"/>
<path d="M434.241 1087.56C434.241 1087.56 406.086 1116.5 407.71 1128.56C409.335 1140.62 474.407 1274.8 474.407 1274.8C474.407 1274.8 479.329 1294.93 482.43 1296.51C485.531 1298.08 492.866 1310.19 492.866 1310.19C492.866 1310.19 492.866 1320.63 504.925 1309.36C516.985 1298.08 533.868 1285.29 533.08 1274.9C532.137 1267.97 529.038 1261.51 524.22 1256.44C524.22 1256.44 520.233 1246.6 516.197 1246.01C512.161 1245.42 493.702 1245.17 493.702 1245.17L472.93 1135.8L434.241 1087.56Z" fill="white" stroke="#263238" stroke-linejoin="round"/>
<path d="M500.102 1264.37L510.586 1269.98C510.586 1269.98 497.69 1289.27 502.514 1293.31C507.337 1297.35 521.809 1268.4 523.433 1264.37C525.057 1260.33 521.021 1256.34 521.021 1256.34" fill="white"/>
<path d="M500.102 1264.37L510.586 1269.98C510.586 1269.98 497.69 1289.27 502.514 1293.31C507.337 1297.35 521.809 1268.4 523.433 1264.37C525.057 1260.33 521.021 1256.34 521.021 1256.34" stroke="#263238" stroke-linejoin="round"/>
<path d="M506.55 1271.6L485.63 1290.11" stroke="#263238" stroke-linejoin="round"/>
<path d="M540.857 1676.95L488.73 1722.14C490.725 1727.41 494.39 1731.89 499.166 1734.89C506.106 1738.38 536.23 1767.37 545.484 1773.13C562.167 1783.73 581.357 1789.73 601.106 1790.51C625.717 1790.51 630.098 1781.25 630.098 1777.76C630.098 1774.26 582.598 1743.01 582.598 1743.01L572.163 1701.32L540.857 1676.95Z" fill="white" stroke="#263238" stroke-linejoin="round"/>
<path d="M499.215 1713.08L488.73 1722.14C490.725 1727.41 494.39 1731.89 499.166 1734.89C506.106 1738.38 536.23 1767.37 545.484 1773.13C562.167 1783.73 581.357 1789.73 601.106 1790.51C615.38 1790.51 622.813 1787.36 626.603 1784.01C616.095 1781.5 605.419 1779.75 594.658 1778.79C578.71 1778.79 561.137 1764.47 561.137 1764.47L499.215 1713.08Z" fill="white" stroke="#263238" stroke-linejoin="round"/>
<path d="M524.221 1225.78C524.221 1225.78 512.899 1284.84 523.088 1303.5C531.267 1317.65 540.342 1331.26 550.259 1344.26L694.679 1529.43L538.397 1680.64L574.477 1717.51C574.477 1717.51 771.368 1555.08 783.034 1548.14C794.699 1541.2 783.034 1483.56 779.637 1478.49C776.241 1473.42 708.363 1324.91 708.363 1324.91L714.712 1258.76L524.221 1225.78Z" fill="#263238" stroke="#263238" stroke-linejoin="round"/>
<path d="M628.966 1757.28C628.966 1757.28 664.062 1796.37 669.673 1800.35C675.284 1804.34 715.106 1827.47 715.106 1827.47C715.106 1827.47 714.318 1833.04 711.119 1833.87C707.919 1834.71 628.966 1835.45 623.404 1834.66C617.842 1833.87 571.375 1809.31 565.961 1806.7C557.999 1802.34 550.276 1797.56 542.826 1792.38L577.922 1735.72L628.966 1757.28Z" fill="white" stroke="#263238" stroke-linejoin="round"/>
<path d="M569.555 1331.85L603.026 1355.82L650.92 1512.55L569.555 1742.32L640.337 1762.01L644.915 1736.31L658.992 1709.34C658.992 1709.34 745.427 1519.73 746.609 1504.18C747.79 1488.63 708.363 1324.71 708.363 1324.71L701.176 1255.31L576.692 1243.3" fill="#263238"/>
<path d="M569.555 1331.85L603.026 1355.82L650.92 1512.55L569.555 1742.32L640.337 1762.01L644.915 1736.31L658.992 1709.34C658.992 1709.34 745.427 1519.73 746.609 1504.18C747.79 1488.63 708.363 1324.71 708.363 1324.71L701.176 1255.31L576.692 1243.3" stroke="#263238" stroke-linejoin="round"/>
<path d="M711.119 1833.92C714.318 1833.09 715.106 1827.52 715.106 1827.52L708.067 1823.39C677.696 1821.08 626.751 1817.14 623.404 1817.14C620.057 1817.14 570.391 1788.1 552.228 1777.22L542.826 1792.43C550.276 1797.61 557.999 1802.39 565.961 1806.75C571.523 1809.16 617.792 1833.92 623.404 1834.71C629.015 1835.5 707.919 1834.66 711.119 1833.92Z" fill="white" stroke="#263238" stroke-linejoin="round"/>
<path d="M634.331 954.953C634.331 954.953 554.788 962.976 553.951 966.225C553.114 969.473 447.876 1083.52 447.876 1083.52L476.031 1137.37L543.516 1108.48L524.22 1225.78C524.22 1225.78 511.373 1230.7 534.656 1242.66C557.938 1254.62 611.837 1269.98 648.803 1269.98C685.769 1269.98 706.64 1269.98 714.712 1258.76C719.956 1251.81 722.775 1243.34 722.735 1234.64C723.523 1228.19 761.326 1130.14 761.326 1130.14C761.326 1130.14 845.694 1238.43 848.893 1241.08C852.093 1243.74 867.401 1246.01 880.248 1230.6C893.095 1215.19 890.683 1180 890.683 1180C890.683 1180 843.282 1094.01 840.87 1081.95C838.458 1069.89 831.025 1032.72 826.398 1023.27C821.772 1013.82 815.176 1012.84 802.279 1006.39C789.383 999.942 754.09 987.932 754.09 987.932L634.331 954.953Z" fill="white" stroke="#263238" stroke-linejoin="round"/>
<path d="M562.023 990.344L543.516 1108.48L551.539 996.743" stroke="#263238" stroke-linejoin="round"/>
<path d="M541.104 1105.23L520.233 1053.79" stroke="#263238" stroke-linejoin="round"/>
<path d="M489.223 1075.75L476.819 1068.26" stroke="#263238" stroke-linejoin="round"/>
<path d="M543.515 1108.48L499.707 1082.09" stroke="#263238" stroke-linejoin="round"/>
<path d="M798.933 1071.66L819.163 1040.16" stroke="#263238" stroke-linejoin="round"/>
<path d="M761.326 1130.14L792.533 1081.6" stroke="#263238" stroke-linejoin="round"/>
<path d="M822.165 1091.45L831.222 1085.93" stroke="#263238" stroke-linejoin="round"/>
<path d="M766.15 1125.36L811.189 1098.09" stroke="#263238" stroke-linejoin="round"/>
<path d="M762.113 1124.52L840.87 1110.89" stroke="#263238" stroke-linejoin="round"/>
<path d="M534.655 1229.02L613.461 1209.73" stroke="#263238" stroke-linejoin="round"/>
<path d="M667.163 1182.9C672.238 1180.93 677.172 1178.61 681.93 1175.96" stroke="#263238" stroke-linejoin="round"/>
<path d="M567.635 1209.73C597.204 1204.11 626.399 1196.68 655.054 1187.48" stroke="#263238" stroke-linejoin="round"/>
<path d="M889.896 1174.34C888.281 1187.39 882.337 1199.52 873.013 1208.79C863.842 1218.68 851.783 1225.42 838.557 1228.04C838.557 1228.04 845.792 1255.41 854.652 1255.41C863.513 1255.41 878.772 1260.33 892.406 1241.72C906.041 1223.12 909.29 1191.91 905.253 1183.84C901.217 1175.77 898.756 1171.93 889.896 1174.34Z" fill="white" stroke="#263238" stroke-linejoin="round"/>
<path d="M459.935 1065.06C459.935 1065.06 498.526 1137.37 495.277 1138.9C492.028 1140.42 478.443 1152.58 473.619 1153.37C468.795 1154.16 447.088 1132.45 439.163 1113.99C431.238 1095.53 428.728 1088.25 431.14 1085.05C433.552 1081.85 455.111 1065.06 459.935 1065.06Z" fill="white" stroke="#263238" stroke-linejoin="round"/>
<path d="M2217.53 682.554C2221.86 657.943 2228.11 597.153 2191.05 567.275C2144.04 529.373 2110.67 597.596 2069.71 544.534C2028.76 491.472 2016.65 376.192 1895.47 377.669C1774.28 379.146 1765.03 447.467 1765.03 470.208C1765.03 492.948 1728.65 509.586 1721.07 509.586C1713.49 509.586 1671.01 489.897 1655.85 533.853C1640.69 577.808 1650.93 603.257 1626.86 604.192C1602.79 605.127 1572.71 572.246 1540.03 588.687C1507.35 605.127 1507.2 640.026 1493.56 652.135C1479.93 664.244 1457.14 643.078 1426.82 655.187C1408.46 662.521 1402.9 674.334 1401.37 682.505L2217.53 682.554Z" fill="#EEEEEE" stroke="black" stroke-miterlimit="10"/>
<path d="M889.699 206.915C892.308 192.149 896.049 155.281 873.652 137.216C845.251 114.278 825.07 155.527 800.261 123.434C775.453 91.3406 768.267 21.6412 694.777 22.5272C621.288 23.4132 616.021 64.7111 616.021 78.4934C616.021 92.2758 593.969 102.366 589.391 102.366C584.814 102.366 559.119 90.4053 550.013 117.133C540.907 143.861 547.06 159.12 532.49 159.662C517.92 160.203 499.806 140.366 479.969 150.309C460.132 160.252 460.28 181.32 451.863 188.654C443.446 195.988 429.861 183.141 411.5 190.524C407.7 191.659 404.27 193.784 401.563 196.681C398.855 199.579 396.968 203.146 396.094 207.014L889.699 206.915Z" fill="#F0F0F0" stroke="black" stroke-miterlimit="10"/>
<path d="M500.003 403.806C501.578 394.897 503.842 372.845 490.158 362.016C473.127 348.234 461.018 372.993 446.153 353.747C431.288 334.501 427.153 292.711 383.148 293.252C339.143 293.793 335.845 318.553 335.845 326.822C335.845 335.091 322.653 341.097 319.897 341.097C317.141 341.097 301.783 333.959 296.27 349.907C290.757 365.856 294.498 375.06 285.736 375.405C276.975 375.749 266.047 363.837 254.234 369.793C242.42 375.749 242.371 388.4 237.4 392.83C232.428 397.26 224.208 389.482 213.231 393.912C210.952 394.581 208.893 395.846 207.266 397.576C205.639 399.307 204.504 401.441 203.978 403.757L500.003 403.806Z" fill="#F7F7F7" stroke="black" stroke-miterlimit="10"/>
<path d="M2050.52 1260.28C2052.09 1251.37 2054.36 1229.32 2040.92 1218.49C2023.89 1204.71 2011.78 1229.47 1996.91 1210.22C1982.05 1190.98 1977.67 1149.19 1933.66 1149.73C1889.66 1150.27 1886.36 1175.03 1886.36 1183.3C1886.36 1191.57 1873.17 1197.57 1870.41 1197.57C1867.66 1197.57 1852.3 1190.43 1846.78 1206.38C1841.27 1222.33 1845.01 1231.54 1836.25 1231.88C1827.49 1232.22 1816.56 1220.31 1804.75 1226.27C1792.94 1232.22 1792.89 1244.87 1787.91 1249.3C1782.94 1253.73 1774.72 1245.96 1763.75 1250.39C1761.47 1251.06 1759.41 1252.32 1757.78 1254.05C1756.15 1255.78 1755.02 1257.92 1754.49 1260.23L2050.52 1260.28Z" fill="#F1F1F1" stroke="black" stroke-miterlimit="10"/>
<path d="M1912 434.078C1913.38 426.301 1915.35 407.055 1903.64 397.604C1888.87 385.594 1878.19 407.449 1865.19 390.368C1852.2 373.288 1848.41 337.06 1809.97 337.552C1771.52 338.045 1768.67 359.653 1768.67 367.086C1768.67 374.519 1757.15 379.589 1754.74 379.589C1752.33 379.589 1738.89 373.337 1734.11 387.267C1729.34 401.197 1732.54 409.27 1724.91 409.565C1717.28 409.861 1707.83 399.425 1697.44 404.643C1687.06 409.861 1687.06 420.886 1682.68 424.726C1678.3 428.565 1671.16 421.871 1661.51 425.71C1659.52 426.297 1657.73 427.405 1656.32 428.92C1654.91 430.436 1653.93 432.302 1653.49 434.324L1912 434.078Z" fill="white" stroke="black" stroke-miterlimit="10"/>
</svg>
