<svg width="300" height="300" viewBox="0 0 300 300" fill="none" xmlns="http://www.w3.org/2000/svg">
<path d="M124.377 244C124.351 243.876 124.325 243.756 124.299 243.639C124.279 243.535 124.26 243.43 124.24 243.326C124.227 243.215 124.217 243.121 124.211 243.043C124.556 242.724 124.953 242.363 125.402 241.959C125.858 241.555 126.327 241.122 126.809 240.66C127.29 240.191 127.762 239.7 128.225 239.186C128.693 238.671 129.11 238.144 129.475 237.604C129.846 237.063 130.142 236.516 130.363 235.963C130.591 235.41 130.705 234.863 130.705 234.322C130.705 233.964 130.66 233.642 130.568 233.355C130.484 233.062 130.376 232.815 130.246 232.613C130.116 232.405 129.976 232.242 129.826 232.125C129.676 232.001 129.54 231.926 129.416 231.9C129.247 231.861 129.055 231.832 128.84 231.812C128.632 231.793 128.41 231.79 128.176 231.803C127.941 231.816 127.701 231.848 127.453 231.9C127.206 231.952 126.955 232.031 126.701 232.135C126.63 232.167 126.561 232.275 126.496 232.457C126.431 232.633 126.366 232.854 126.301 233.121C126.236 233.382 126.167 233.671 126.096 233.99C126.024 234.303 125.943 234.609 125.852 234.908H124.68L124.582 231.363C124.875 231.24 125.191 231.126 125.529 231.021C125.868 230.911 126.216 230.82 126.574 230.748C126.939 230.67 127.307 230.611 127.678 230.572C128.055 230.533 128.43 230.514 128.801 230.514C129.354 230.514 129.885 230.572 130.393 230.689C130.907 230.807 131.356 230.999 131.74 231.266C132.124 231.526 132.43 231.874 132.658 232.311C132.893 232.74 133.01 233.274 133.01 233.912C133.01 234.394 132.948 234.846 132.824 235.27C132.707 235.693 132.541 236.103 132.326 236.5C132.118 236.891 131.867 237.275 131.574 237.652C131.281 238.03 130.962 238.411 130.617 238.795C130.285 239.173 129.93 239.544 129.553 239.908C129.182 240.273 128.814 240.621 128.449 240.953C128.085 241.285 127.736 241.601 127.404 241.9C127.079 242.193 126.796 242.464 126.555 242.711L131.721 242.193C131.727 242.18 131.737 242.158 131.75 242.125C131.77 242.086 131.809 242.005 131.867 241.881C131.926 241.751 132.01 241.562 132.121 241.314C132.232 241.061 132.388 240.709 132.59 240.26L133.625 240.24L133.459 244.234L131.926 244H124.377ZM136.018 237.652C136.018 237.066 136.063 236.484 136.154 235.904C136.245 235.325 136.385 234.771 136.574 234.244C136.763 233.717 137.004 233.225 137.297 232.77C137.59 232.314 137.938 231.92 138.342 231.588C138.752 231.249 139.214 230.986 139.729 230.797C140.249 230.608 140.832 230.514 141.477 230.514C142.108 230.514 142.674 230.602 143.176 230.777C143.684 230.947 144.13 231.184 144.514 231.49C144.904 231.796 145.24 232.158 145.52 232.574C145.799 232.991 146.027 233.447 146.203 233.941C146.379 234.43 146.509 234.947 146.594 235.494C146.678 236.035 146.721 236.581 146.721 237.135C146.721 237.721 146.675 238.303 146.584 238.883C146.493 239.456 146.353 240.003 146.164 240.523C145.975 241.044 145.734 241.529 145.441 241.979C145.148 242.428 144.797 242.818 144.387 243.15C143.983 243.476 143.521 243.733 143 243.922C142.479 244.104 141.893 244.195 141.242 244.195C140.585 244.195 139.999 244.111 139.484 243.941C138.97 243.772 138.518 243.538 138.127 243.238C137.743 242.939 137.417 242.584 137.15 242.174C136.883 241.764 136.665 241.318 136.496 240.836C136.327 240.348 136.203 239.833 136.125 239.293C136.053 238.753 136.018 238.206 136.018 237.652ZM141.828 242.76C141.9 242.76 141.997 242.75 142.121 242.73C142.245 242.711 142.382 242.682 142.531 242.643C142.681 242.604 142.834 242.551 142.99 242.486C143.153 242.421 143.309 242.343 143.459 242.252C143.648 241.939 143.817 241.604 143.967 241.246C144.123 240.888 144.257 240.523 144.367 240.152C144.478 239.781 144.562 239.41 144.621 239.039C144.68 238.668 144.709 238.313 144.709 237.975C144.709 237.467 144.683 236.969 144.631 236.48C144.579 235.986 144.494 235.517 144.377 235.074C144.266 234.625 144.12 234.215 143.938 233.844C143.755 233.466 143.531 233.141 143.264 232.867C143.003 232.587 142.697 232.372 142.346 232.223C142.001 232.066 141.604 231.988 141.154 231.988C141.115 231.988 141.014 231.995 140.852 232.008C140.689 232.014 140.5 232.037 140.285 232.076C140.077 232.109 139.865 232.161 139.65 232.232C139.442 232.298 139.273 232.389 139.143 232.506C138.954 232.818 138.785 233.154 138.635 233.512C138.485 233.863 138.358 234.225 138.254 234.596C138.156 234.96 138.078 235.325 138.02 235.689C137.967 236.054 137.941 236.406 137.941 236.744C137.941 237.506 138.013 238.248 138.156 238.971C138.299 239.693 138.527 240.335 138.84 240.895C139.152 241.454 139.553 241.907 140.041 242.252C140.536 242.59 141.132 242.76 141.828 242.76ZM149.318 237.652C149.318 237.066 149.364 236.484 149.455 235.904C149.546 235.325 149.686 234.771 149.875 234.244C150.064 233.717 150.305 233.225 150.598 232.77C150.891 232.314 151.239 231.92 151.643 231.588C152.053 231.249 152.515 230.986 153.029 230.797C153.55 230.608 154.133 230.514 154.777 230.514C155.409 230.514 155.975 230.602 156.477 230.777C156.984 230.947 157.43 231.184 157.814 231.49C158.205 231.796 158.54 232.158 158.82 232.574C159.1 232.991 159.328 233.447 159.504 233.941C159.68 234.43 159.81 234.947 159.895 235.494C159.979 236.035 160.021 236.581 160.021 237.135C160.021 237.721 159.976 238.303 159.885 238.883C159.794 239.456 159.654 240.003 159.465 240.523C159.276 241.044 159.035 241.529 158.742 241.979C158.449 242.428 158.098 242.818 157.688 243.15C157.284 243.476 156.822 243.733 156.301 243.922C155.78 244.104 155.194 244.195 154.543 244.195C153.885 244.195 153.299 244.111 152.785 243.941C152.271 243.772 151.818 243.538 151.428 243.238C151.044 242.939 150.718 242.584 150.451 242.174C150.184 241.764 149.966 241.318 149.797 240.836C149.628 240.348 149.504 239.833 149.426 239.293C149.354 238.753 149.318 238.206 149.318 237.652ZM155.129 242.76C155.201 242.76 155.298 242.75 155.422 242.73C155.546 242.711 155.682 242.682 155.832 242.643C155.982 242.604 156.135 242.551 156.291 242.486C156.454 242.421 156.61 242.343 156.76 242.252C156.949 241.939 157.118 241.604 157.268 241.246C157.424 240.888 157.557 240.523 157.668 240.152C157.779 239.781 157.863 239.41 157.922 239.039C157.98 238.668 158.01 238.313 158.01 237.975C158.01 237.467 157.984 236.969 157.932 236.48C157.88 235.986 157.795 235.517 157.678 235.074C157.567 234.625 157.421 234.215 157.238 233.844C157.056 233.466 156.831 233.141 156.564 232.867C156.304 232.587 155.998 232.372 155.646 232.223C155.301 232.066 154.904 231.988 154.455 231.988C154.416 231.988 154.315 231.995 154.152 232.008C153.99 232.014 153.801 232.037 153.586 232.076C153.378 232.109 153.166 232.161 152.951 232.232C152.743 232.298 152.574 232.389 152.443 232.506C152.255 232.818 152.085 233.154 151.936 233.512C151.786 233.863 151.659 234.225 151.555 234.596C151.457 234.96 151.379 235.325 151.32 235.689C151.268 236.054 151.242 236.406 151.242 236.744C151.242 237.506 151.314 238.248 151.457 238.971C151.6 239.693 151.828 240.335 152.141 240.895C152.453 241.454 152.854 241.907 153.342 242.252C153.837 242.59 154.432 242.76 155.129 242.76ZM161.848 239.654C162.395 238.873 162.971 238.082 163.576 237.281C164.188 236.474 164.816 235.67 165.461 234.869C166.105 234.068 166.76 233.271 167.424 232.477C168.094 231.682 168.762 230.901 169.426 230.133L170.1 230.445V239.391C170.51 239.371 170.891 239.329 171.242 239.264C171.6 239.192 171.936 239.088 172.248 238.951L172.102 240.621H170.119V244.137L168.049 244.596L168.059 240.621H161.848V239.654ZM168.049 239.361V233.6C167.691 234.055 167.326 234.524 166.955 235.006C166.584 235.488 166.216 235.973 165.852 236.461C165.493 236.949 165.145 237.438 164.807 237.926C164.468 238.414 164.156 238.893 163.869 239.361H168.049Z" fill="#1D8CE0"/>
<rect x="125" y="83.8213" width="7.10526" height="18.0716" rx="1" fill="#1D8CE0"/>
<rect x="162.895" y="83" width="7.10526" height="18.0716" rx="1" fill="#1D8CE0"/>
<path fill-rule="evenodd" clip-rule="evenodd" d="M133.28 98.6775C133.17 98.947 133.003 99.1951 132.788 99.4041C132.376 99.8042 131.817 100.03 131.234 100.03H130.355C129.771 100.03 129.213 99.8042 128.801 99.4041C128.388 99.0052 128.157 98.4626 128.157 97.8963V87.6599C128.157 87.0948 128.388 86.5522 128.801 86.1521C129.213 85.752 129.771 85.5276 130.355 85.5276H131.234C131.817 85.5276 132.376 85.752 132.788 86.1521C133.119 86.4738 133.335 86.8882 133.405 87.3322C134.912 87.3263 136.474 87.2503 137.796 86.5095C139.802 85.3875 140.83 84.2003 143.27 83.875C144.748 83.6779 146.282 84.034 147.523 84.8532C147.669 84.9494 147.89 85.1002 148.102 85.2747C148.556 85.1417 149.007 85.0349 149.454 84.9613C151.406 84.6384 153.435 84.7096 155.268 85.5252C156.545 86.0927 157.972 86.2198 159.228 86.2269C160.161 86.2328 161.011 86.1735 161.675 86.1485C161.78 85.8315 161.963 85.5395 162.21 85.2997C162.623 84.8996 163.181 84.6752 163.765 84.6752H164.644C165.227 84.6752 165.786 84.8996 166.198 85.2997C166.611 85.6998 166.841 86.2411 166.841 86.8074V97.0439C166.841 97.609 166.611 98.1516 166.198 98.5517C165.786 98.9518 165.227 99.1761 164.644 99.1761H163.765C163.181 99.1761 162.623 98.9518 162.21 98.5517C161.865 98.2157 161.646 97.7788 161.584 97.3122C160.542 97.3027 159.417 97.4131 158.83 97.6125C158.544 97.7111 158.194 97.9272 157.921 98.1278C158.012 99.0895 157.511 100.001 156.83 100.503C156.28 100.91 155.618 101.051 155.016 100.873C155 100.868 154.985 100.864 154.969 100.86C154.62 101.242 154.093 101.782 153.612 102.148C153.153 102.496 152.691 102.68 152.368 102.69C152.126 102.699 151.891 102.686 151.663 102.654C151.187 103.404 150.459 104.015 149.949 104.254C148.796 104.797 147.521 104.542 146.447 104.12C146.155 104.005 145.861 103.884 145.563 103.757C145.512 103.817 145.458 103.878 145.404 103.937C144.571 104.845 143.461 105.569 142.687 105.834C141.273 106.316 139.946 105.688 139.338 104.808C139.214 104.628 139.117 104.438 139.052 104.244C137.96 104.348 137.014 103.736 136.536 102.971C136.396 102.749 136.299 102.515 136.243 102.282C135.859 102.198 135.504 102.017 135.226 101.748C134.767 101.302 134.467 100.6 134.681 99.6131C134.707 99.4967 134.784 99.3186 134.902 99.0978C134.357 98.9316 133.815 98.7891 133.28 98.6775ZM131.674 97.6707V87.6599C131.674 87.5471 131.627 87.4391 131.545 87.3583C131.462 87.2788 131.351 87.2337 131.234 87.2337H130.355C130.238 87.2337 130.127 87.2788 130.044 87.3583C129.962 87.4391 129.915 87.5471 129.915 87.6599V97.8963C129.915 98.0103 129.962 98.1183 130.044 98.1979C130.127 98.2786 130.238 98.3237 130.355 98.3237H131.234C131.351 98.3237 131.462 98.2786 131.545 98.1979C131.627 98.1183 131.674 98.0103 131.674 97.8963C131.674 97.8963 131.674 97.679 131.674 97.6707ZM146.086 86.0049C145.296 85.6083 144.389 85.4481 143.51 85.5656C141.337 85.8541 140.461 86.9879 138.675 87.9876C137.092 88.8744 135.229 89.0122 133.432 89.0335V96.9655C134.243 97.1234 135.066 97.3466 135.892 97.6173C136.037 97.4321 136.191 97.2433 136.352 97.0569C137.247 96.0169 138.351 95.0445 139.136 94.7762C140.19 94.4177 141.26 94.597 141.869 95.2084C141.876 95.2167 141.884 95.2238 141.891 95.2321C143.296 94.7988 144.566 95.4351 145.226 96.2923C145.611 96.7933 145.786 97.3763 145.727 97.8963C145.702 98.1314 145.642 98.3748 145.556 98.6229C145.968 98.8651 146.27 99.2569 146.453 99.7342C146.715 100.418 146.72 101.281 146.597 101.845C146.565 101.989 146.522 102.134 146.469 102.278C146.684 102.369 146.897 102.455 147.107 102.538C147.746 102.79 148.497 103.041 149.183 102.719C149.412 102.611 149.717 102.367 149.967 102.058C149.793 101.959 149.621 101.852 149.452 101.737C148.736 101.251 148.077 100.634 147.387 100.133C147 99.8505 146.921 99.3151 147.211 98.9387C147.503 98.5623 148.054 98.4852 148.443 98.7677C149.116 99.2581 149.759 99.8636 150.46 100.34C150.766 100.546 151.083 100.73 151.425 100.848C151.437 100.851 151.448 100.855 151.458 100.858C151.473 100.863 151.487 100.868 151.5 100.873C151.733 100.945 151.979 100.988 152.239 100.987C152.312 100.94 152.593 100.76 152.765 100.612C152.932 100.467 153.099 100.306 153.253 100.151C151.924 99.492 150.464 98.5552 149.579 97.6897C149.238 97.3549 149.24 96.8147 149.585 96.4835C149.929 96.1511 150.486 96.1546 150.828 96.4882C151.963 97.6007 154.195 98.8473 155.527 99.2415C155.611 99.2664 155.69 99.2023 155.767 99.1453C155.935 99.0206 156.07 98.8259 156.131 98.6039C156.21 98.3142 156.14 97.9806 155.842 97.6885C154.371 96.246 148.871 92.6499 147.392 91.7084C146.729 91.9399 146.063 92.1667 145.404 92.4136C143.363 93.177 141.696 92.6356 140.812 91.82C140.348 91.3926 140.079 90.8785 140.01 90.3822C139.902 89.5892 140.239 88.7854 141.258 88.3069C142.776 87.5958 144.423 86.7042 146.086 86.0049ZM161.567 87.8463C159.881 87.9009 156.974 88.1609 154.535 87.0758C153.027 86.405 151.356 86.3777 149.75 86.6436C149.24 86.7279 148.726 86.8585 148.21 87.0235C148.155 87.0473 148.1 87.0651 148.042 87.0781C145.984 87.7632 143.905 88.9611 142.023 89.8432C141.89 89.905 141.79 89.9691 141.759 90.0664C141.706 90.2338 141.836 90.4024 141.997 90.5579C142.513 91.0613 143.534 91.2845 144.772 90.8215C145.535 90.5354 146.306 90.2778 147.072 90.0059C147.151 89.9608 147.245 89.9216 147.353 89.905C147.495 89.8539 147.636 89.8029 147.777 89.7494C148.229 89.5808 148.738 89.7993 148.913 90.2398C148.969 90.3822 148.983 90.5306 148.962 90.6719C151.028 92.0135 155.728 95.1514 157.093 96.4894C157.118 96.5143 157.143 96.5405 157.168 96.5654C157.521 96.3351 157.914 96.1178 158.247 96.0038C158.956 95.7616 160.31 95.6061 161.567 95.6097V87.8463ZM163.325 96.5025V97.0439C163.325 97.1567 163.371 97.2647 163.454 97.3454C163.536 97.425 163.648 97.4701 163.765 97.4701H164.644C164.761 97.4701 164.872 97.425 164.955 97.3454C165.037 97.2647 165.084 97.1567 165.084 97.0439V86.8074C165.084 86.6947 165.037 86.5854 164.955 86.5059C164.872 86.4252 164.761 86.3812 164.644 86.3812H163.765C163.648 86.3812 163.536 86.4252 163.454 86.5059C163.371 86.5854 163.325 86.6947 163.325 86.8074C163.325 86.8074 163.325 86.9986 163.325 87.0045C163.325 87.0045 163.325 96.4977 163.325 96.5025ZM140.711 103.618C140.708 103.676 140.729 103.735 140.758 103.79C140.859 103.986 141.066 104.146 141.315 104.231C141.549 104.311 141.822 104.32 142.104 104.224C142.676 104.03 143.476 103.473 144.09 102.803C144.242 102.637 144.383 102.465 144.505 102.289C144.528 102.253 144.551 102.218 144.575 102.183C144.718 101.958 144.826 101.725 144.877 101.494C144.944 101.183 144.95 100.707 144.805 100.329C144.781 100.268 144.752 100.209 144.712 100.163C144.443 100.532 144.131 100.896 143.791 101.246C142.842 102.22 141.681 103.075 140.711 103.618ZM137.991 101.999C138.005 102.029 138.021 102.058 138.039 102.087C138.212 102.365 138.554 102.613 138.957 102.535C139.11 102.505 139.293 102.44 139.498 102.346C139.579 102.286 139.671 102.24 139.768 102.211C140.584 101.774 141.644 100.967 142.513 100.074C142.884 99.6926 143.226 99.2961 143.488 98.9019C143.52 98.8259 143.565 98.7547 143.619 98.6906C143.814 98.3581 143.944 98.0293 143.979 97.7135C144.002 97.5128 143.845 97.3074 143.651 97.1377C143.356 96.8776 142.916 96.7352 142.434 96.8646C142.426 96.9845 142.41 97.1092 142.386 97.2398C142.298 97.7182 141.969 98.3178 141.473 98.9268C140.509 100.108 138.915 101.403 138.065 101.954C138.04 101.97 138.016 101.985 137.991 101.999ZM136.92 99.1382C136.807 99.2949 136.707 99.4433 136.621 99.5786C136.511 99.752 136.397 99.9859 136.397 99.9859C136.346 100.235 136.352 100.428 136.47 100.541C136.568 100.638 136.711 100.66 136.854 100.632C136.885 100.622 136.917 100.614 136.949 100.604C136.998 100.587 137.045 100.563 137.089 100.534C137.735 100.116 138.863 99.2141 139.71 98.3059C140.178 97.8037 140.583 97.3276 140.655 96.9382C140.679 96.8088 140.694 96.696 140.687 96.6022C140.672 96.5571 140.661 96.5108 140.654 96.4657C140.642 96.4396 140.625 96.4146 140.604 96.3933C140.54 96.3303 140.445 96.3102 140.344 96.2995C140.149 96.2781 139.934 96.3125 139.72 96.3861C139.134 96.5856 138.369 97.3751 137.702 98.1504C137.422 98.4745 137.163 98.8022 136.946 99.1014C136.937 99.1144 136.929 99.1263 136.92 99.1382Z" fill="#1D8CE0"/>
<path d="M88 206V123.2C88 122.117 88.3518 121.063 89.0025 120.197L143.002 48.3209C145.003 45.6586 148.997 45.6586 150.998 48.3209L204.998 120.197C205.648 121.063 206 122.117 206 123.2V206" stroke="#1D8CE0" stroke-width="5"/>
<mask id="path-6-inside-1_31_575" fill="white">
<path d="M300 150C300 232.843 232.843 300 150 300C67.1573 300 0 232.843 0 150C0 67.1573 67.1573 0 150 0C232.843 0 300 67.1573 300 150ZM38.7384 150C38.7384 211.448 88.5519 261.262 150 261.262C211.448 261.262 261.262 211.448 261.262 150C261.262 88.5519 211.448 38.7384 150 38.7384C88.5519 38.7384 38.7384 88.5519 38.7384 150Z"/>
</mask>
<path d="M300 150C300 232.843 232.843 300 150 300C67.1573 300 0 232.843 0 150C0 67.1573 67.1573 0 150 0C232.843 0 300 67.1573 300 150ZM38.7384 150C38.7384 211.448 88.5519 261.262 150 261.262C211.448 261.262 261.262 211.448 261.262 150C261.262 88.5519 211.448 38.7384 150 38.7384C88.5519 38.7384 38.7384 88.5519 38.7384 150Z" fill="white" stroke="#1D8CE0" stroke-width="10" mask="url(#path-6-inside-1_31_575)"/>
<path d="M276.059 158.625C276.375 157.742 277.625 157.742 277.941 158.626L280.355 165.357C280.497 165.754 280.874 166.019 281.296 166.019L288.88 166.019C289.872 166.019 290.258 167.309 289.43 167.854L283.469 171.779C283.084 172.033 282.922 172.517 283.078 172.952L285.393 179.41C285.718 180.315 284.704 181.111 283.902 180.583L277.55 176.401C277.216 176.181 276.784 176.181 276.45 176.401L270.098 180.583C269.296 181.111 268.282 180.315 268.607 179.41L270.922 172.952C271.078 172.517 270.916 172.033 270.531 171.779L264.57 167.854C263.742 167.309 264.128 166.019 265.12 166.019L272.704 166.019C273.126 166.019 273.503 165.754 273.645 165.357L276.059 158.625Z" fill="#1D8CE0"/>
<path d="M149.059 158.625C149.375 157.742 150.625 157.742 150.941 158.626L153.355 165.357C153.497 165.754 153.874 166.019 154.296 166.019L161.88 166.019C162.872 166.019 163.258 167.309 162.43 167.854L156.469 171.779C156.084 172.033 155.922 172.517 156.078 172.952L158.393 179.41C158.718 180.315 157.704 181.111 156.902 180.583L150.55 176.401C150.216 176.181 149.784 176.181 149.45 176.401L143.098 180.583C142.296 181.111 141.282 180.315 141.607 179.41L143.922 172.952C144.078 172.517 143.916 172.033 143.531 171.779L137.57 167.854C136.742 167.309 137.128 166.019 138.12 166.019L145.704 166.019C146.126 166.019 146.503 165.754 146.645 165.357L149.059 158.625Z" fill="#1D8CE0"/>
<path d="M20.0587 158.625C20.3754 157.742 21.6246 157.742 21.9413 158.626L24.3547 165.357C24.4972 165.754 24.8739 166.019 25.296 166.019L32.8797 166.019C33.8721 166.019 34.2585 167.309 33.4296 167.854L27.4691 171.779C27.0837 172.033 26.922 172.517 27.0777 172.952L29.3934 179.41C29.7176 180.315 28.7044 181.111 27.9021 180.583L21.5499 176.401C21.2162 176.181 20.7838 176.181 20.4501 176.401L14.0979 180.583C13.2956 181.111 12.2824 180.315 12.6066 179.41L14.9223 172.952C15.078 172.517 14.9163 172.033 14.5309 171.779L8.57035 167.854C7.74151 167.309 8.12791 166.019 9.12028 166.019L16.704 166.019C17.1261 166.019 17.5028 165.754 17.6453 165.357L20.0587 158.625Z" fill="#1D8CE0"/>
<path d="M23.6 149.16C21.952 149.16 20.48 148.792 19.184 148.056C17.872 147.304 16.856 146.288 16.136 145.008C15.4 143.712 15.032 142.264 15.032 140.664C15.032 138.792 15.512 137.152 16.472 135.744C17.432 134.336 18.76 133.352 20.456 132.792L20.456 136.656C19.656 137.04 19.056 137.584 18.656 138.288C18.256 138.976 18.056 139.776 18.056 140.688C18.056 141.664 18.288 142.536 18.752 143.304C19.2 144.056 19.84 144.648 20.672 145.08C21.504 145.496 22.48 145.704 23.6 145.704C24.704 145.704 25.68 145.496 26.528 145.08C27.36 144.648 28.008 144.056 28.472 143.304C28.92 142.536 29.144 141.664 29.144 140.688C29.144 139.776 28.944 138.976 28.544 138.288C28.128 137.584 27.52 137.04 26.72 136.656V132.792C28.432 133.352 29.768 134.336 30.728 135.744C31.672 137.136 32.144 138.776 32.144 140.664C32.144 142.264 31.784 143.712 31.064 145.008C30.328 146.288 29.312 147.304 28.016 148.056C26.72 148.792 25.248 149.16 23.6 149.16Z" fill="#1D8CE0"/>
<path d="M16.4515 121.701L33.0844 123.696L32.6411 127.026L16.0082 125.032L16.4515 121.701Z" fill="#1D8CE0"/>
<path d="M21.1648 100.712L35.836 110.609L34.7705 114.547L16.8902 116.512L17.8304 113.037L31.9751 111.742L20.2309 104.164L21.1648 100.712Z" fill="#1D8CE0"/>
<path d="M25.2406 90.3233L40.9221 96.2157L39.6284 99.3167L23.947 93.4243L25.2406 90.3233Z" fill="#1D8CE0"/>
<path d="M43.6762 84.772L46.4431 79.9955L48.8049 81.2278L44.3539 88.9117L29.5018 81.1628L31.186 78.2553L43.6762 84.772Z" fill="#1D8CE0"/>
<path d="M52.4968 54.0203L55.6322 56.8147L59.5992 52.8056L61.588 54.578L57.621 58.5871L60.9357 61.5412L65.4091 57.0203L67.4516 58.8407L60.615 65.75L48.0909 54.5883L54.9276 47.679L56.9701 49.4994L52.4968 54.0203Z" fill="#1D8CE0"/>
<path d="M79.9826 48.626L77.3398 50.7009L63.8019 46.7332L71.3558 55.3991L68.713 57.474L57.6897 44.828L60.3325 42.7531L73.8861 46.7389L66.3165 38.0549L68.9593 35.98L79.9826 48.626Z" fill="#1D8CE0"/>
<path d="M85.6562 30.9512C84.9359 30.5641 84.1857 30.391 83.4055 30.4318C82.6253 30.4726 81.8514 30.7241 81.0838 31.1864C80.2341 31.6982 79.6048 32.3384 79.1959 33.1071C78.787 33.8757 78.6288 34.7173 78.7212 35.6318C78.8137 36.5463 79.1623 37.4558 79.767 38.3602C80.3896 39.2912 81.1172 39.9911 81.9497 40.4598C82.796 40.9203 83.6794 41.1345 84.6 41.1024C85.5206 41.0703 86.4264 40.786 87.3173 40.2494C88.4138 39.589 89.1247 38.769 89.4502 37.7894C89.7668 36.7965 89.6968 35.7286 89.2401 34.5857L84.3059 37.5575L82.8785 35.4228L90.6498 30.7422L92.2774 33.1761C92.7347 34.2626 92.9239 35.4081 92.8448 36.6124C92.7658 37.8168 92.395 38.9729 91.7324 40.081C91.0746 41.1674 90.129 42.0822 88.8954 42.8251C87.5111 43.6589 86.0569 44.1149 84.5328 44.1933C83.0135 44.2502 81.5715 43.9339 80.207 43.2446C78.8561 42.547 77.7226 41.5132 76.8065 40.1433C75.8905 38.7733 75.3875 37.3598 75.2975 35.9028C75.2124 34.4242 75.5249 33.0513 76.2348 31.7841C76.9496 30.4954 77.9923 29.4383 79.3629 28.6128C80.9802 27.6387 82.643 27.1783 84.3513 27.2315C86.0506 27.2714 87.5889 27.8468 88.9662 28.9576L85.6562 30.9512Z" fill="#1D8CE0"/>
<path d="M113.578 32.4517C112.462 32.7958 111.388 32.9178 110.356 32.8175C109.34 32.7125 108.45 32.3845 107.686 31.8333C106.923 31.2821 106.368 30.5245 106.021 29.5604L109.461 28.4996C109.73 29.1364 110.135 29.5803 110.678 29.8315C111.235 30.0779 111.881 30.088 112.615 29.8617C113.364 29.6306 113.893 29.275 114.202 28.7949C114.506 28.2996 114.559 27.7643 114.362 27.1891C114.202 26.7198 113.924 26.3786 113.53 26.1654C113.136 25.9523 112.689 25.8308 112.188 25.801C111.698 25.7514 111.034 25.7384 110.197 25.7623C109.054 25.7801 108.104 25.7466 107.348 25.6617C106.603 25.557 105.892 25.2825 105.216 24.8383C104.55 24.3743 104.046 23.6427 103.703 22.6436C103.382 21.7051 103.339 20.8146 103.575 19.9721C103.81 19.1296 104.294 18.3947 105.026 17.7674C105.753 17.125 106.666 16.634 107.767 16.2945C109.419 15.7854 110.894 15.774 112.193 16.2604C113.502 16.7269 114.454 17.6551 115.048 19.045L111.516 20.1341C111.299 19.5986 110.909 19.2252 110.346 19.0137C109.794 18.7824 109.158 18.7776 108.44 18.9992C107.813 19.1925 107.363 19.507 107.089 19.9428C106.831 20.3738 106.806 20.8921 107.013 21.4976C107.158 21.9214 107.418 22.2347 107.791 22.4375C108.175 22.6204 108.604 22.739 109.079 22.7933C109.565 22.8278 110.228 22.8407 111.07 22.8321C112.214 22.8142 113.166 22.8553 113.927 22.9553C114.688 23.0553 115.409 23.335 116.091 23.7943C116.772 24.2537 117.281 24.9753 117.618 25.9593C117.908 26.807 117.956 27.6625 117.761 28.5258C117.567 29.3891 117.116 30.1723 116.41 30.8753C115.699 31.5632 114.755 32.0886 113.578 32.4517Z" fill="#1D8CE0"/>
<path d="M130.725 11.1231L131.26 13.7819L126.867 14.5772L129.634 28.3419L126.328 28.9404L123.561 15.1757L119.168 15.971L118.634 13.3122L130.725 11.1231Z" fill="#1D8CE0"/>
<path d="M137.818 10.2212L138.504 20.5665C138.579 21.7 138.932 22.5524 139.563 23.1238C140.193 23.6792 141.044 23.925 142.114 23.8611C143.2 23.7962 144.019 23.4508 144.57 22.8248C145.121 22.1829 145.359 21.2951 145.284 20.1616L144.598 9.81634L147.976 9.61463L148.66 19.936C148.754 21.3569 148.523 22.5808 147.966 23.6078C147.423 24.6179 146.649 25.4014 145.644 25.9583C144.655 26.5143 143.529 26.8299 142.267 26.9053C141.022 26.9797 139.871 26.7999 138.816 26.366C137.777 25.9312 136.93 25.2445 136.274 24.3059C135.618 23.3514 135.242 22.1637 135.148 20.7428L134.464 10.4214L137.818 10.2212Z" fill="#1D8CE0"/>
<path d="M156.839 9.6755C158.596 9.7804 160.114 10.2157 161.395 10.9813C162.691 11.7479 163.656 12.7913 164.29 14.1114C164.941 15.4165 165.211 16.9072 165.1 18.5835C164.989 20.2599 164.524 21.7067 163.706 22.9241C162.904 24.1264 161.81 25.0308 160.423 25.6372C159.052 26.2445 157.488 26.4957 155.731 26.3908L149.885 26.0418L150.993 9.32645L156.839 9.6755ZM155.8 23.5339C157.557 23.6388 158.946 23.2409 159.968 22.3403C160.99 21.4396 161.558 20.1191 161.674 18.379C161.789 16.6388 161.4 15.2532 160.506 14.2221C159.614 13.175 158.289 12.599 156.532 12.4941L154.16 12.3525L153.428 23.3923L155.8 23.5339Z" fill="#1D8CE0"/>
<path d="M173.919 14.0331L173.091 18.1508L178.641 19.1555L178.116 21.7673L172.566 20.7625L171.691 25.1155L177.949 26.2485L177.41 28.9308L167.846 27.1992L171.152 10.7522L180.716 12.4838L180.177 15.1661L173.919 14.0331Z" fill="#1D8CE0"/>
<path d="M193.25 33.2122L190.039 32.2221L186.493 19.104L182.769 29.9802L179.558 28.9901L184.992 13.1185L188.203 14.1086L191.742 27.2494L195.473 16.3505L198.684 17.3406L193.25 33.2122Z" fill="#1D8CE0"/>
<path d="M213.998 23.6796L212.793 26.1094L208.717 24.2891L202.48 36.8677L199.412 35.4976L205.649 22.919L201.573 21.0987L202.778 18.6689L213.998 23.6796Z" fill="#1D8CE0"/>
<path d="M214.07 42.8208C213.069 42.2182 212.276 41.5071 211.689 40.6875C211.117 39.8762 210.806 39.0177 210.758 38.1119C210.71 37.2061 210.964 36.3235 211.52 35.464L214.604 37.3214C214.262 37.9181 214.165 38.4941 214.313 39.0495C214.475 39.6131 214.884 40.0931 215.542 40.4893C216.214 40.8938 216.844 41.0587 217.432 40.9839C218.029 40.8958 218.497 40.5991 218.835 40.0937C219.11 39.6814 219.207 39.2638 219.125 38.8409C219.042 38.4181 218.851 38.0138 218.551 37.6281C218.274 37.2374 217.855 36.7425 217.294 36.1436C216.54 35.3162 215.953 34.5987 215.533 33.991C215.135 33.3783 214.897 32.6847 214.819 31.91C214.764 31.1304 215.029 30.3016 215.616 29.4238C216.168 28.5992 216.861 28.0089 217.695 27.653C218.529 27.2971 219.436 27.1907 220.417 27.3338C221.407 27.4635 222.395 27.8256 223.382 28.4199C224.862 29.3115 225.826 30.3863 226.273 31.6443C226.742 32.8972 226.607 34.1777 225.867 35.4857L222.701 33.5788C222.994 33.0835 223.044 32.5632 222.851 32.0179C222.68 31.4675 222.273 30.9984 221.629 30.6104C221.067 30.2719 220.521 30.1392 219.992 30.2121C219.476 30.2933 219.04 30.5999 218.685 31.1319C218.436 31.5043 218.35 31.8912 218.428 32.2925C218.528 32.6887 218.71 33.0781 218.973 33.4606C219.259 33.838 219.678 34.3329 220.23 34.9451C220.984 35.7725 221.567 36.4966 221.978 37.1176C222.39 37.7386 222.63 38.443 222.699 39.2309C222.768 40.0188 222.514 40.8451 221.936 41.7096C221.438 42.4544 220.777 43.0263 219.952 43.4253C219.128 43.8244 218.203 43.9856 217.177 43.909C216.161 43.8192 215.125 43.4564 214.07 42.8208Z" fill="#1D8CE0"/>
<path d="M237.598 60.3524C236.776 59.5222 236.183 58.6385 235.817 57.7013C235.463 56.7755 235.376 55.8691 235.554 54.9821C235.733 54.095 236.199 53.3052 236.952 52.6125L239.485 55.1715C239.005 55.6634 238.767 56.1959 238.773 56.7692C238.789 57.3537 239.067 57.919 239.608 58.4649C240.159 59.0222 240.73 59.3377 241.32 59.4113C241.921 59.4742 242.449 59.3035 242.903 58.8989C243.273 58.5689 243.471 58.1894 243.496 57.7604C243.521 57.3314 243.436 56.8935 243.241 56.4465C243.069 56.0003 242.786 55.4184 242.39 54.7007C241.864 53.7144 241.472 52.8756 241.215 52.1843C240.982 51.4937 240.923 50.7645 241.04 49.9968C241.18 49.2298 241.645 48.4949 242.433 47.7924C243.174 47.1323 243.993 46.7338 244.891 46.5967C245.79 46.4596 246.697 46.5817 247.614 46.9631C248.543 47.3339 249.413 47.9287 250.223 48.7476C251.438 49.9759 252.106 51.2532 252.227 52.5794C252.371 53.9064 251.921 55.11 250.877 56.1903L248.278 53.563C248.685 53.157 248.863 52.6667 248.812 52.092C248.783 51.5181 248.505 50.9639 247.976 50.4293C247.514 49.963 247.017 49.6995 246.485 49.6387C245.964 49.5893 245.465 49.7775 244.987 50.2033C244.653 50.5014 244.473 50.8539 244.449 51.2609C244.448 51.6686 244.527 52.0898 244.688 52.5247C244.872 52.9602 245.155 53.5422 245.539 54.2705C246.065 55.2568 246.451 56.1009 246.696 56.8029C246.941 57.5049 246.999 58.245 246.87 59.0234C246.741 59.8018 246.288 60.537 245.512 61.2289C244.843 61.8251 244.059 62.2137 243.159 62.3949C242.259 62.576 241.321 62.5025 240.345 62.1743C239.38 61.8355 238.464 61.2282 237.598 60.3524Z" fill="#1D8CE0"/>
<path d="M247.214 70.7926C246.261 69.5476 245.688 68.1952 245.497 66.7357C245.305 65.2761 245.509 63.8736 246.109 62.5281C246.723 61.1735 247.708 60.0284 249.064 59.0929C250.408 58.1665 251.847 57.6403 253.38 57.5145C254.927 57.3795 256.403 57.624 257.806 58.248C259.209 58.872 260.388 59.8065 261.341 61.0516C262.304 62.3093 262.876 63.6616 263.058 65.1085C263.25 66.5681 263.034 67.9688 262.411 69.3107C261.811 70.6562 260.839 71.7921 259.495 72.7186C258.139 73.6541 256.687 74.1893 255.14 74.3242C253.616 74.4628 252.152 74.2201 250.749 73.5961C249.345 72.9722 248.167 72.0376 247.214 70.7926ZM249.684 69.0896C250.296 69.89 251.02 70.468 251.856 70.8235C252.705 71.1699 253.61 71.2739 254.57 71.1356C255.531 70.9972 256.473 70.6102 257.395 69.9744C258.317 69.3386 258.989 68.613 259.411 67.7977C259.847 66.9733 260.016 66.1291 259.918 65.2649C259.82 64.4008 259.464 63.5685 258.851 62.7682C258.239 61.9678 257.51 61.3835 256.664 61.0153C255.829 60.6598 254.93 60.5512 253.97 60.6895C253.022 60.8188 252.087 61.2013 251.165 61.8371C250.243 62.4729 249.564 63.203 249.129 64.0274C248.693 64.8518 248.518 65.7006 248.603 66.5738C248.711 67.4506 249.071 68.2892 249.684 69.0896Z" fill="#1D8CE0"/>
<path d="M260.338 74.8681C261.799 74.1057 263.288 73.7433 264.806 73.7807C266.346 73.8245 267.756 74.2337 269.036 75.0082C270.338 75.7892 271.391 76.8719 272.192 78.2564C273.131 79.8763 273.527 81.5174 273.382 83.1798C273.237 84.8422 272.552 86.308 271.329 87.5771L269.393 84.2335C269.909 83.5312 270.169 82.7829 270.17 81.9887C270.18 81.2084 269.957 80.4236 269.499 79.6345C269.01 78.7899 268.367 78.1427 267.571 77.6928C266.797 77.2493 265.933 77.0331 264.979 77.0441C264.033 77.069 263.063 77.3405 262.07 77.8586C261.091 78.3692 260.33 79.0007 259.787 79.7529C259.266 80.5116 258.988 81.3236 258.954 82.1889C258.941 83.0607 259.18 83.9189 259.669 84.7634C260.126 85.5526 260.704 86.1523 261.404 86.5626C262.126 86.9794 262.937 87.1688 263.839 87.1311L265.776 90.4746C263.977 90.7819 262.3 90.5485 260.743 89.7742C259.208 89.0063 257.968 87.8056 257.021 86.1719C256.219 84.7874 255.813 83.3679 255.801 81.9134C255.812 80.4654 256.204 79.1163 256.976 77.8661C257.756 76.6297 258.877 75.6304 260.338 74.8681Z" fill="#1D8CE0"/>
<path d="M279.93 94.8822L264.248 100.775L262.954 97.6737L278.636 91.7813L279.93 94.8822Z" fill="#1D8CE0"/>
<path d="M280.9 104.704L276.819 105.698L278.292 111.142L275.704 111.773L274.231 106.329L269.917 107.38L271.578 113.519L268.92 114.167L266.382 104.784L282.681 100.813L285.219 110.195L282.561 110.843L280.9 104.704Z" fill="#1D8CE0"/>
<path d="M288.098 127.392L285.405 127.715L284.816 123.29L270.876 124.961L270.433 121.631L284.373 119.96L283.784 115.535L286.477 115.212L288.098 127.392Z" fill="#1D8CE0"/>
<path d="M288.263 145.976L277.343 140.312H271.511V136.952H277.343L288.263 131.264V135.056L280.607 138.656L288.263 142.232V145.976Z" fill="#1D8CE0"/>
<path d="M269.115 222.362C268.544 223.288 267.86 224.032 267.064 224.594C266.253 225.149 265.413 225.492 264.545 225.625C263.685 225.743 262.878 225.639 262.125 225.312L263.902 222.432C264.392 222.608 264.901 222.589 265.427 222.373C265.962 222.143 266.402 221.749 266.747 221.191C267.083 220.646 267.229 220.166 267.185 219.751C267.15 219.322 266.954 219.018 266.597 218.837C266.212 218.642 265.809 218.688 265.388 218.976C264.961 219.242 264.381 219.726 263.649 220.428C262.914 221.164 262.264 221.746 261.7 222.175C261.143 222.591 260.508 222.877 259.793 223.033C259.087 223.176 258.334 223.045 257.534 222.641C256.878 222.309 256.387 221.828 256.063 221.2C255.747 220.558 255.638 219.824 255.736 218.998C255.842 218.158 256.176 217.282 256.739 216.37C257.571 215.022 258.592 214.126 259.801 213.684C260.997 213.235 262.219 213.272 263.469 213.797L261.78 216.534C261.284 216.337 260.795 216.34 260.313 216.543C259.826 216.725 259.41 217.096 259.066 217.654C258.747 218.171 258.599 218.623 258.622 219.011C258.654 219.384 258.848 219.661 259.205 219.842C259.605 220.044 260.03 220.008 260.479 219.736C260.914 219.455 261.487 218.968 262.197 218.273C262.915 217.564 263.552 217.002 264.108 216.586C264.664 216.171 265.303 215.895 266.023 215.76C266.738 215.603 267.492 215.717 268.286 216.1C268.971 216.447 269.472 216.941 269.787 217.583C270.112 218.212 270.221 218.946 270.115 219.786C270.003 220.605 269.67 221.463 269.115 222.362Z" fill="#1D8CE0"/>
<path d="M253.497 222.51L264.616 229.801L262.502 232.444L261.097 231.523C261.309 232.176 261.335 232.869 261.177 233.603C261.015 234.316 260.679 234.991 260.169 235.628C259.519 236.441 258.764 237.041 257.903 237.428C257.029 237.808 256.092 237.946 255.093 237.843C254.091 237.719 253.095 237.332 252.104 236.683L245.582 232.406L247.681 229.782L253.802 233.796C254.685 234.375 255.532 234.616 256.344 234.52C257.142 234.415 257.826 234.006 258.395 233.294C258.975 232.569 259.196 231.847 259.057 231.128C258.905 230.4 258.388 229.746 257.505 229.167L251.383 225.153L253.497 222.51Z" fill="#1D8CE0"/>
<path d="M239.029 241.959C238.88 241.265 238.926 240.527 239.166 239.748C239.406 238.946 239.879 238.208 240.585 237.534C241.406 236.75 242.359 236.225 243.444 235.96C244.54 235.684 245.673 235.702 246.844 236.015C248.014 236.306 249.116 236.895 250.148 237.781C251.179 238.666 251.899 239.641 252.307 240.705C252.714 241.747 252.801 242.776 252.567 243.792C252.344 244.797 251.822 245.692 251.001 246.477C250.295 247.151 249.518 247.617 248.671 247.876C247.835 248.124 247.019 248.21 246.222 248.134L252.468 253.496L250.038 255.817L235.142 243.029L237.572 240.708L239.029 241.959ZM247.666 240.151C247.059 239.63 246.415 239.298 245.735 239.154C245.054 238.99 244.402 238.996 243.778 239.174C243.165 239.341 242.634 239.64 242.182 240.07C241.743 240.49 241.447 240.992 241.297 241.577C241.146 242.139 241.173 242.729 241.379 243.347C241.597 243.954 242.009 244.518 242.616 245.039C243.223 245.56 243.867 245.903 244.548 246.067C245.24 246.221 245.898 246.22 246.523 246.063C247.147 245.886 247.679 245.587 248.119 245.167C248.57 244.736 248.865 244.234 249.004 243.661C249.155 243.077 249.121 242.481 248.904 241.875C248.697 241.257 248.285 240.682 247.666 240.151Z" fill="#1D8CE0"/>
<path d="M229.987 247.473C231.337 246.556 232.744 246.208 234.208 246.427C235.674 246.625 236.979 247.414 238.122 248.794L243.096 254.803L240.316 256.69L235.633 251.033C234.969 250.232 234.246 249.77 233.462 249.647C232.668 249.513 231.894 249.701 231.139 250.214C230.385 250.726 229.961 251.35 229.868 252.087C229.778 252.803 230.065 253.561 230.728 254.362L235.411 260.019L232.631 261.906L227.948 256.249C227.285 255.448 226.561 254.986 225.777 254.864C224.983 254.729 224.209 254.918 223.454 255.43C222.687 255.951 222.256 256.58 222.163 257.317C222.073 258.033 222.36 258.791 223.023 259.592L227.707 265.249L224.927 267.136L216.447 256.894L219.227 255.007L220.253 256.246C220.253 255.572 220.429 254.923 220.781 254.299C221.146 253.666 221.667 253.121 222.342 252.662C223.202 252.078 224.113 251.73 225.074 251.616C226.024 251.491 226.945 251.617 227.836 251.994C227.704 251.159 227.827 250.334 228.207 249.519C228.599 248.694 229.193 248.012 229.987 247.473Z" fill="#1D8CE0"/>
<path d="M206.037 269.392C205.364 268.228 205.007 267.083 204.964 265.957C204.935 264.823 205.193 263.819 205.737 262.944C206.295 262.061 207.088 261.377 208.114 260.891C209.011 260.466 209.892 260.27 210.757 260.301C211.637 260.325 212.431 260.505 213.14 260.84L212.192 259.198L215.25 257.749L221.901 269.262L218.843 270.711L217.871 269.027C217.792 269.753 217.51 270.46 217.024 271.149C216.545 271.817 215.857 272.363 214.96 272.788C213.948 273.268 212.878 273.456 211.752 273.355C210.639 273.247 209.577 272.859 208.565 272.191C207.56 271.503 206.717 270.57 206.037 269.392ZM215.517 264.954C215.109 264.248 214.616 263.714 214.039 263.352C213.454 262.976 212.839 262.773 212.196 262.743C211.544 262.699 210.936 262.81 210.372 263.077C209.808 263.344 209.364 263.722 209.038 264.212C208.713 264.701 208.547 265.274 208.54 265.93C208.539 266.566 208.738 267.23 209.138 267.923C209.538 268.616 210.035 269.157 210.629 269.546C211.228 269.915 211.847 270.125 212.484 270.176C213.136 270.22 213.737 270.112 214.286 269.852C214.85 269.585 215.302 269.203 215.641 268.707C215.973 268.197 216.139 267.624 216.14 266.989C216.133 266.339 215.926 265.661 215.517 264.954Z" fill="#1D8CE0"/>
<path d="M185.129 274.984C184.537 273.446 184.359 271.961 184.595 270.53C184.841 269.079 185.445 267.825 186.407 266.768C187.379 265.691 188.628 264.912 190.153 264.431C191.939 263.867 193.675 263.822 195.363 264.294C197.05 264.766 198.466 265.71 199.609 267.124L195.924 268.287C195.27 267.656 194.536 267.259 193.721 267.098C192.921 266.932 192.086 266.986 191.217 267.26C190.286 267.554 189.538 268.033 188.972 268.697C188.416 269.341 188.081 270.117 187.968 271.023C187.87 271.925 188.022 272.898 188.425 273.944C188.821 274.974 189.37 275.822 190.071 276.488C190.782 277.135 191.58 277.562 192.463 277.768C193.357 277.955 194.269 277.902 195.2 277.608C196.069 277.334 196.76 276.906 197.273 276.326C197.795 275.726 198.095 274.995 198.174 274.133L201.859 272.97C201.94 274.736 201.481 276.279 200.483 277.599C199.495 278.899 198.1 279.833 196.3 280.401C194.774 280.882 193.264 280.982 191.769 280.7C190.284 280.398 188.951 279.756 187.768 278.773C186.6 277.785 185.721 276.522 185.129 274.984Z" fill="#1D8CE0"/>
<path d="M169.562 268.375L172.384 285.909L169.053 286.349L166.231 268.814L169.562 268.375Z" fill="#1D8CE0"/>
<path d="M152.661 280.795C152.587 279.453 152.786 278.251 153.257 277.189C153.743 276.126 154.427 275.295 155.307 274.695C156.204 274.094 157.219 273.769 158.354 273.718C159.345 273.673 160.219 273.834 160.977 274.201C161.75 274.566 162.377 275.043 162.857 275.63L162.754 273.737L166.134 273.585L166.86 286.861L163.48 287.013L163.374 285.072C162.976 285.714 162.405 286.26 161.661 286.71C160.931 287.143 160.071 287.382 159.08 287.426C157.961 287.476 156.922 287.235 155.964 286.701C155.021 286.167 154.25 285.393 153.65 284.379C153.065 283.348 152.735 282.153 152.661 280.795ZM163.117 280.375C163.072 279.56 162.874 278.872 162.523 278.311C162.171 277.735 161.715 277.307 161.155 277.027C160.594 276.732 160.002 276.599 159.379 276.627C158.755 276.654 158.188 276.832 157.677 277.159C157.166 277.486 156.759 277.953 156.456 278.559C156.168 279.149 156.045 279.843 156.089 280.642C156.133 281.441 156.331 282.136 156.684 282.729C157.052 283.305 157.508 283.741 158.053 284.037C158.614 284.332 159.198 284.466 159.806 284.439C160.429 284.411 161.004 284.233 161.531 283.905C162.057 283.561 162.464 283.095 162.753 282.505C163.04 281.9 163.161 281.189 163.117 280.375Z" fill="#1D8CE0"/>
<path d="M144.857 273.735C145.862 273.804 146.738 274.088 147.483 274.588C148.229 275.072 148.782 275.759 149.142 276.649C149.518 277.525 149.657 278.56 149.558 279.756L148.912 287.529L145.56 287.301L146.168 279.982C146.255 278.93 146.059 278.107 145.578 277.513C145.099 276.903 144.405 276.567 143.495 276.505C142.569 276.442 141.811 276.679 141.22 277.216C140.647 277.738 140.317 278.525 140.23 279.578L139.622 286.897L136.269 286.668L137.74 268.969L141.092 269.198L140.585 275.297C141.064 274.752 141.676 274.345 142.42 274.075C143.167 273.789 143.979 273.676 144.857 273.735Z" fill="#1D8CE0"/>
<path d="M121.079 277.385C121.379 276.043 121.916 274.922 122.69 274.023C123.468 273.109 124.405 272.468 125.503 272.101C126.605 271.717 127.785 271.641 129.044 271.872C130.665 272.169 131.912 272.82 132.785 273.825C133.677 274.817 134.142 276.073 134.18 277.591L130.615 276.938C130.552 276.341 130.327 275.845 129.94 275.449C129.573 275.04 129.058 274.776 128.397 274.655C127.453 274.482 126.629 274.688 125.924 275.274C125.224 275.845 124.734 276.755 124.454 278.004C124.179 279.237 124.24 280.248 124.637 281.036C125.038 281.809 125.71 282.281 126.655 282.454C127.992 282.699 128.998 282.266 129.673 281.154L133.237 281.807C132.562 283.146 131.596 284.131 130.341 284.763C129.086 285.395 127.656 285.563 126.05 285.269C124.791 285.039 123.735 284.561 122.881 283.835C122.031 283.094 121.442 282.174 121.115 281.074C120.791 279.958 120.779 278.728 121.079 277.385Z" fill="#1D8CE0"/>
<path d="M115.434 268.696C116.95 269.157 117.999 270.002 118.582 271.231C119.171 272.445 119.153 273.892 118.53 275.572L115.816 282.885L112.602 281.907L115.157 275.022C115.524 274.032 115.553 273.198 115.242 272.519C114.938 271.825 114.349 271.346 113.476 271.08C112.589 270.81 111.784 270.866 111.063 271.247C110.363 271.619 109.83 272.299 109.462 273.289L106.907 280.175L103.693 279.197L108.319 266.731L111.533 267.709L110.957 269.262C111.586 268.852 112.285 268.597 113.055 268.498C113.845 268.388 114.638 268.454 115.434 268.696Z" fill="#1D8CE0"/>
<path d="M91.5673 266.747C92.1983 265.561 93 264.614 93.9722 263.907C94.9592 263.206 96.0021 262.79 97.101 262.66C98.2146 262.537 99.2921 262.702 100.333 263.156C101.243 263.552 101.941 264.074 102.428 264.721C102.929 265.375 103.243 266.06 103.368 266.776L104.258 265.102L107.36 266.454L101.118 278.194L98.0158 276.841L98.9285 275.125C98.2395 275.503 97.4454 275.723 96.546 275.783C95.6689 275.836 94.7757 275.664 93.8663 275.267C92.8396 274.82 92.0362 274.156 91.4559 273.277C90.8903 272.404 90.6023 271.399 90.5919 270.264C90.6037 269.12 90.9288 267.948 91.5673 266.747ZM101.137 270.972C101.52 270.251 101.7 269.573 101.677 268.936C101.662 268.286 101.476 267.717 101.12 267.232C100.772 266.732 100.312 266.357 99.7395 266.108C99.1675 265.858 98.5681 265.762 97.9414 265.82C97.3147 265.877 96.7083 266.1 96.1224 266.488C95.5586 266.869 95.089 267.413 94.7134 268.119C94.3378 268.825 94.1539 269.511 94.1618 270.176C94.1919 270.833 94.3738 271.408 94.7076 271.901C95.056 272.401 95.5089 272.773 96.0663 273.016C96.6383 273.265 97.245 273.364 97.8864 273.313C98.5353 273.248 99.1416 273.025 99.7054 272.644C100.277 272.25 100.754 271.692 101.137 270.972Z" fill="#1D8CE0"/>
<path d="M92.3444 259.914L81.0001 268.445L77.9242 266.529L81.4861 257.852L73.8093 263.965L70.713 262.036L75.437 249.381L78.3295 251.183L74.1983 260.491L82.4851 253.772L85.4999 255.65L81.5054 265.015L89.6147 258.214L92.3444 259.914Z" fill="#1D8CE0"/>
<path d="M69.6373 246.737C70.4706 246.519 71.2942 246.488 72.1082 246.647C72.9344 246.815 73.6923 247.186 74.3818 247.758L71.8718 250.237L71.1885 249.67C70.3759 248.996 69.5839 248.659 68.8124 248.66C68.0533 248.671 67.2355 249.11 66.359 249.976L61.6464 254.631L59.0609 252.485L68.5203 243.141L71.1057 245.287L69.6373 246.737Z" fill="#1D8CE0"/>
<path d="M66.8356 241.753L56.4149 250.011L54.0631 247.577L55.3798 246.534C54.6281 246.581 53.876 246.456 53.1234 246.158C52.3944 245.862 51.7464 245.421 51.1793 244.834C50.4565 244.087 49.9864 243.291 49.769 242.447C49.5641 241.594 49.6328 240.737 49.9749 239.877C50.3407 239.018 50.9876 238.221 51.9155 237.486L58.0288 232.641L60.3639 235.057L54.6269 239.603C53.7992 240.259 53.3432 240.956 53.2587 241.693C53.1867 242.421 53.4677 243.112 54.1015 243.768C54.7465 244.435 55.4719 244.785 56.2777 244.817C57.0961 244.839 57.9191 244.522 58.7467 243.866L64.4838 239.319L66.8356 241.753Z" fill="#1D8CE0"/>
<path d="M54.0003 230.403C53.2295 230.86 52.3803 231.113 51.4528 231.163C50.5346 231.225 49.602 231.009 48.6547 230.515C47.7169 230.034 46.8449 229.235 46.0388 228.12L44.3938 225.844L38.8606 229.124L36.8922 226.401L51.3034 217.86L54.9168 222.859C55.6761 223.909 56.1301 224.918 56.279 225.885C56.4279 226.853 56.2963 227.718 55.8843 228.481C55.4817 229.257 54.8537 229.897 54.0003 230.403ZM48.2875 226.621C48.8312 227.373 49.4132 227.824 50.0335 227.975C50.6676 228.118 51.315 227.994 51.9757 227.602C53.3796 226.77 53.5473 225.615 52.4788 224.137L50.9181 221.978L46.7269 224.462L48.2875 226.621Z" fill="#1D8CE0"/>
<path d="M143.321 144.988V144.748L143.873 144.532C144.145 144.42 144.329 144.276 144.425 144.1C144.537 143.908 144.593 143.652 144.593 143.332V130.804C144.593 130.484 144.545 130.236 144.449 130.06C144.369 129.868 144.177 129.716 143.873 129.604L143.321 129.388V129.148H154.817L154.961 132.844H154.721L153.689 130.588C153.545 130.3 153.393 130.068 153.233 129.892C153.073 129.716 152.833 129.628 152.513 129.628H148.193V136.564H150.761C151.081 136.564 151.321 136.484 151.481 136.324C151.657 136.148 151.809 135.916 151.937 135.628L152.417 134.668H152.657V138.988H152.417L151.937 137.98C151.793 137.692 151.641 137.468 151.481 137.308C151.321 137.132 151.081 137.044 150.761 137.044H148.193V144.508H153.041C153.361 144.508 153.609 144.428 153.785 144.268C153.961 144.092 154.105 143.852 154.217 143.548L155.201 141.292H155.441L155.297 144.988H143.321ZM161.794 145.42C160.914 145.42 160.018 145.308 159.106 145.084C158.194 144.876 157.434 144.596 156.826 144.244L156.946 140.98H157.186L157.93 142.54C158.154 142.988 158.394 143.388 158.65 143.74C158.906 144.076 159.258 144.34 159.706 144.532C160.026 144.692 160.33 144.804 160.618 144.868C160.922 144.916 161.258 144.94 161.626 144.94C162.602 144.94 163.37 144.676 163.93 144.148C164.506 143.62 164.794 142.94 164.794 142.108C164.794 141.324 164.602 140.716 164.218 140.284C163.834 139.836 163.218 139.404 162.37 138.988L161.386 138.556C160.01 137.948 158.93 137.252 158.146 136.468C157.378 135.668 156.994 134.612 156.994 133.3C156.994 132.356 157.234 131.54 157.714 130.852C158.21 130.164 158.89 129.636 159.754 129.268C160.634 128.9 161.658 128.716 162.826 128.716C163.674 128.716 164.474 128.828 165.226 129.052C165.994 129.276 166.658 129.58 167.218 129.964L167.074 132.844H166.834L165.85 131.044C165.578 130.484 165.306 130.092 165.034 129.868C164.762 129.628 164.45 129.46 164.098 129.364C163.89 129.3 163.698 129.26 163.522 129.244C163.346 129.212 163.122 129.196 162.85 129.196C162.034 129.196 161.346 129.436 160.786 129.916C160.226 130.38 159.946 131.012 159.946 131.812C159.946 132.628 160.162 133.284 160.594 133.78C161.026 134.26 161.658 134.692 162.49 135.076L163.594 135.556C165.13 136.228 166.234 136.948 166.906 137.716C167.578 138.468 167.914 139.444 167.914 140.644C167.914 142.052 167.378 143.204 166.306 144.1C165.25 144.98 163.746 145.42 161.794 145.42ZM174.145 145.42C173.265 145.42 172.369 145.308 171.457 145.084C170.545 144.876 169.785 144.596 169.177 144.244L169.297 140.98H169.537L170.281 142.54C170.505 142.988 170.745 143.388 171.001 143.74C171.257 144.076 171.609 144.34 172.057 144.532C172.377 144.692 172.681 144.804 172.969 144.868C173.273 144.916 173.609 144.94 173.977 144.94C174.953 144.94 175.721 144.676 176.281 144.148C176.857 143.62 177.145 142.94 177.145 142.108C177.145 141.324 176.953 140.716 176.569 140.284C176.185 139.836 175.569 139.404 174.721 138.988L173.737 138.556C172.361 137.948 171.281 137.252 170.497 136.468C169.729 135.668 169.345 134.612 169.345 133.3C169.345 132.356 169.585 131.54 170.065 130.852C170.561 130.164 171.241 129.636 172.105 129.268C172.985 128.9 174.009 128.716 175.177 128.716C176.025 128.716 176.825 128.828 177.577 129.052C178.345 129.276 179.009 129.58 179.569 129.964L179.425 132.844H179.185L178.201 131.044C177.929 130.484 177.657 130.092 177.385 129.868C177.113 129.628 176.801 129.46 176.449 129.364C176.241 129.3 176.049 129.26 175.873 129.244C175.697 129.212 175.473 129.196 175.201 129.196C174.385 129.196 173.697 129.436 173.137 129.916C172.577 130.38 172.297 131.012 172.297 131.812C172.297 132.628 172.513 133.284 172.945 133.78C173.377 134.26 174.009 134.692 174.841 135.076L175.945 135.556C177.481 136.228 178.585 136.948 179.257 137.716C179.929 138.468 180.265 139.444 180.265 140.644C180.265 142.052 179.729 143.204 178.657 144.1C177.601 144.98 176.097 145.42 174.145 145.42Z" fill="#1D8CE0"/>
<path d="M148.245 145.999C146.78 145.92 145.695 145.435 144.988 144.542C144.281 143.65 143.966 142.351 144.043 140.646L144.677 126.66L135.61 126.174L134.762 144.874L131.287 144.688L132.135 125.987L127.781 125.753L127.905 123.036L152.469 124.355L152.346 127.072L148.152 126.847L147.529 140.593C147.487 141.525 147.63 142.187 147.959 142.579C148.29 142.944 148.721 143.141 149.254 143.169C149.627 143.189 149.961 143.167 150.258 143.103C150.581 143.04 150.838 142.96 151.03 142.864L150.905 145.621C150.687 145.716 150.336 145.804 149.852 145.885C149.393 145.994 148.857 146.032 148.245 145.999Z" fill="#1D8CE0"/>
<path d="M123.077 116.418C122.822 115.481 121.856 114.95 120.987 115.403C119.25 116.308 117.705 117.714 116.436 119.553C114.783 121.95 113.651 125.009 113.139 128.46C112.627 131.91 112.751 135.646 113.501 139.336C114.25 143.026 115.602 146.557 117.437 149.615C119.271 152.673 121.532 155.164 124.018 156.868C126.504 158.571 129.138 159.435 131.689 159.382C134.239 159.329 136.626 158.361 138.639 156.564C140.454 154.943 141.915 152.692 142.917 149.978C143.116 149.439 142.951 148.848 142.53 148.494V148.494C141.792 147.873 140.643 148.245 140.222 149.161C139.415 150.921 138.359 152.402 137.101 153.526C135.398 155.047 133.378 155.866 131.219 155.91C129.061 155.955 126.831 155.224 124.728 153.783C122.624 152.341 120.711 150.233 119.159 147.645C117.606 145.057 116.462 142.07 115.828 138.947C115.193 135.824 115.088 132.663 115.521 129.742C115.954 126.822 116.913 124.234 118.312 122.205C119.327 120.734 120.551 119.59 121.923 118.823C122.779 118.344 123.333 117.356 123.077 116.418V116.418Z" fill="#1D8CE0"/>
<path d="M73.6462 196.116L107.393 183.834L110.391 192.07L113.231 199.875L79.6119 212.111L82.4738 203.914L83.1332 202.026L81.4353 200.968L73.6462 196.116Z" fill="white" stroke="#1D8CE0" stroke-width="5"/>
<path d="M224.279 198.31L191.019 186.204L188.033 194.407L185.205 202.179L218.339 214.239L215.536 206.091L214.892 204.217L216.569 203.162L224.279 198.31Z" fill="white" stroke="#1D8CE0" stroke-width="5"/>
<path d="M112.574 182.868C113.993 183.823 115.424 185.451 116.657 186.707C118.003 188.076 119.394 189.296 120.96 190.255C123.273 191.672 125.648 192.165 128.144 192.86C130.953 193.642 133.756 194.031 136.589 194.634C138.492 195.04 140.391 194.968 142.307 195.236C144.15 195.494 146.101 195.755 147.957 195.755C152.56 195.755 157.331 196.103 161.858 195.008C164.164 194.45 166.519 194.118 168.83 193.597C170.613 193.194 172.404 192.36 174.175 191.833C176.015 191.284 177.917 190.83 179.655 189.872C180.824 189.227 181.714 188.165 182.713 187.205C184.636 185.359 187.231 183.754 188.355 181" stroke="#1D8CE0" stroke-width="5" stroke-linecap="round"/>
<path d="M188.355 181C188.508 182.218 189.692 183.414 189.728 184.59C189.754 185.467 189.88 186.301 189.88 187.205C189.88 189.028 189.88 190.85 189.88 192.673C189.88 195.488 190.157 198.555 189.872 201.348C189.702 203.008 189.854 205.004 189.423 206.587" stroke="#1D8CE0" stroke-width="5" stroke-linecap="round"/>
<path d="M189.422 206.588C187.896 206.588 186.226 207.711 184.814 208.31C183.985 208.662 183.187 209.177 182.485 209.846C181.811 210.488 180.909 210.94 180.189 211.444C179.227 212.117 178.136 212.898 177.072 213.27C176.411 213.501 175.88 213.991 175.251 214.328C174.436 214.765 173.599 214.982 172.769 215.366C170.552 216.392 168.153 216.777 165.865 217.503C164.128 218.055 162.293 218.177 160.528 218.365C158.077 218.626 155.661 219.148 153.218 219.62C151.465 219.959 149.69 219.848 147.915 219.848C144.037 219.848 140.125 220.091 136.301 219.205C134.36 218.755 132.335 218.196 130.49 217.327C129.593 216.904 128.598 216.787 127.67 216.486C126.695 216.171 125.788 215.494 124.806 215.221C122.983 214.713 121.385 213.63 119.707 212.793C118.485 212.183 116.666 211.412 115.7 210.23C114.729 209.041 113.168 208.622 112.193 207.428C111.692 206.815 111.088 206.259 110.49 205.799C110.134 205.525 109.254 204.99 109.067 204.533" stroke="#1D8CE0" stroke-width="5" stroke-linecap="round"/>
<path d="M108 203.412C108 201.346 108.092 199.301 108.152 197.249C108.21 195.305 108.117 193.191 108.313 191.262C108.498 189.454 109.138 187.649 109.22 185.856C109.244 185.321 109.314 184.662 109.491 184.175C109.676 183.664 109.276 182.822 109.745 182.494C110.158 182.205 110.12 181.934 110.668 181.934C111.052 181.934 111.642 182.265 111.812 182.681" stroke="#1D8CE0" stroke-width="5" stroke-linecap="round"/>
<path d="M176.255 203.561L176.127 203.504L176.202 203.225C176.252 203.039 176.244 202.906 176.178 202.828C176.109 202.738 175.99 202.655 175.819 202.58L169.13 199.635C168.96 199.56 168.806 199.522 168.67 199.521C168.533 199.521 168.379 199.582 168.206 199.704L167.926 199.894L167.798 199.837L169.954 196.992L170.082 197.048L170.032 197.294C169.985 197.462 169.997 197.596 170.069 197.697C170.132 197.794 170.249 197.88 170.42 197.956L177.723 201.171L179.025 199.453C179.233 199.178 179.309 198.943 179.251 198.749C179.198 198.547 179.072 198.323 178.872 198.076L178.125 197.167L178.21 197.055L180.363 198.137L176.255 203.561Z" fill="#1D8CE0"/>
<path d="M163.327 212.86L163.24 212.751L163.478 212.505C163.601 212.368 163.677 212.238 163.705 212.114C163.728 211.983 163.708 211.828 163.645 211.647L161.086 203.972L162.165 203.47L169.95 208.771C170.146 208.9 170.321 208.989 170.476 209.037C170.624 209.077 170.811 209.085 171.035 209.061L171.223 209.034L171.31 209.143L168.087 210.644L167.999 210.535L168.146 210.392C168.277 210.251 168.318 210.121 168.27 210.003C168.225 209.875 168.119 209.749 167.951 209.627L166.094 208.331L163.277 209.643L163.902 211.468C163.971 211.655 164.052 211.793 164.145 211.88C164.246 211.963 164.409 211.992 164.633 211.967L164.991 211.936L165.079 212.045L163.327 212.86ZM163.191 209.383L165.843 208.148L161.839 205.347L163.191 209.383Z" fill="#1D8CE0"/>
<path d="M146.772 215.612L146.765 215.472L147.041 215.367C147.225 215.306 147.342 215.219 147.393 215.105C147.453 214.992 147.479 214.842 147.47 214.655L147.129 207.327C147.121 207.141 147.081 206.992 147.01 206.882C146.94 206.772 146.81 206.687 146.62 206.627L146.349 206.522L146.343 206.382L149.743 206.29C151.133 206.253 152.148 206.482 152.788 206.978C153.437 207.465 153.78 208.123 153.819 208.953C153.843 209.484 153.736 209.977 153.495 210.432C153.264 210.877 152.86 211.238 152.284 211.515C151.709 211.791 150.922 211.943 149.923 211.97L149.448 211.983L149.567 214.557C149.584 214.92 149.777 215.153 150.146 215.255L150.572 215.37L150.579 215.509L146.772 215.612ZM149.435 211.704L149.966 211.689C150.424 211.677 150.793 211.592 151.076 211.435C151.358 211.278 151.56 211.011 151.683 210.635C151.806 210.258 151.851 209.739 151.821 209.077C151.789 208.405 151.686 207.885 151.51 207.517C151.343 207.148 151.107 206.898 150.802 206.766C150.497 206.625 150.12 206.56 149.672 206.572L149.197 206.585L149.435 211.704Z" fill="#1D8CE0"/>
<path d="M131.671 210.815L131.742 210.695L132.11 210.691C132.294 210.686 132.438 210.649 132.543 210.579C132.662 210.503 132.769 210.385 132.864 210.225L136.582 203.933C136.677 203.773 136.724 203.639 136.723 203.532C136.736 203.421 136.675 203.308 136.541 203.194L136.3 202.981L136.372 202.861L142.714 205.039L141.696 206.923L141.564 206.877L141.664 205.549C141.67 205.377 141.655 205.231 141.619 205.113C141.583 204.994 141.477 204.904 141.3 204.844L138.917 204.025L136.858 207.508L138.275 207.995C138.452 208.055 138.608 208.061 138.744 208.011C138.893 207.956 139.046 207.868 139.202 207.748L139.752 207.356L139.884 207.402L138.602 209.571L138.469 209.526L138.504 208.929C138.51 208.757 138.492 208.616 138.452 208.505C138.416 208.386 138.309 208.297 138.133 208.236L136.716 207.749L134.501 211.498L137.175 212.416C137.352 212.477 137.513 212.484 137.657 212.437C137.807 212.382 137.957 212.289 138.109 212.157L139.322 211.211L139.454 211.256L138.278 213.085L131.671 210.815Z" fill="#1D8CE0"/>
<path d="M120.852 199.519L120.974 199.45L121.418 199.713C121.576 199.81 121.738 199.853 121.903 199.842C122.077 199.827 122.246 199.773 122.408 199.681L128.269 196.365C128.392 196.181 128.479 196.038 128.531 195.936C128.59 195.84 128.625 195.748 128.638 195.657C128.659 195.563 128.677 195.438 128.692 195.285L128.733 194.997L128.854 194.928L130.583 196.704L128.306 203.158L132.899 200.558C133.062 200.466 133.185 200.36 133.27 200.24C133.361 200.126 133.361 199.991 133.272 199.834L133.059 199.441L133.181 199.372L134.577 200.807L134.456 200.875L134.082 200.667C133.916 200.574 133.759 200.549 133.612 200.591C133.464 200.633 133.309 200.7 133.146 200.792L125.982 204.847L125.435 204.285L128.101 196.833L122.642 199.922C122.48 200.014 122.361 200.112 122.287 200.217C122.212 200.321 122.212 200.451 122.287 200.605L122.458 200.975L122.336 201.044L120.852 199.519Z" fill="#1D8CE0"/>
<path d="M108.938 186.699L115.102 201.601L108.28 202.812L108.938 186.699Z" fill="#1D8CE0"/>
<path d="M188.596 189.697L189.273 205.809L182.45 204.606L188.596 189.697Z" fill="#1D8CE0"/>
</svg>
