<svg width="3194" height="2380" viewBox="0 0 3194 2380" fill="none" xmlns="http://www.w3.org/2000/svg">
<path d="M3193.63 2091.19H0V2092.79H3193.63V2091.19Z" fill="#EBEBEB"/>
<path d="M2873.63 2193.96H2662.08V2195.56H2873.63V2193.96Z" fill="#EBEBEB"/>
<path d="M2115.59 2211.33H2060.08V2212.93H2115.59V2211.33Z" fill="#EBEBEB"/>
<path d="M2655.7 2134.69H2533.12V2136.28H2655.7V2134.69Z" fill="#EBEBEB"/>
<path d="M610.942 2145.42H335.076V2147.02H610.942V2145.42Z" fill="#EBEBEB"/>
<path d="M708.284 2145.42H667.853V2147.02H708.284V2145.42Z" fill="#EBEBEB"/>
<path d="M1438.09 2172.37H839.733V2173.97H1438.09V2172.37Z" fill="#EBEBEB"/>
<path d="M1513.78 1806.32H280.465C270.803 1806.3 261.543 1802.45 254.717 1795.61C247.891 1788.78 244.057 1779.51 244.057 1769.85V36.1519C244.141 26.5456 248.012 17.3604 254.829 10.5915C261.646 3.82251 270.858 0.0164561 280.465 0H1513.78C1523.45 0 1532.73 3.8425 1539.57 10.6822C1546.41 17.5219 1550.25 26.7985 1550.25 36.4713V1769.85C1550.25 1779.52 1546.41 1788.8 1539.57 1795.64C1532.73 1802.48 1523.45 1806.32 1513.78 1806.32ZM280.465 1.27746C271.226 1.29438 262.372 4.97609 255.846 11.5145C249.319 18.0529 245.654 26.9137 245.654 36.1519V1769.85C245.654 1779.09 249.319 1787.95 255.846 1794.48C262.372 1801.02 271.226 1804.7 280.465 1804.72H1513.78C1523.03 1804.7 1531.89 1801.02 1538.42 1794.49C1544.96 1787.95 1548.64 1779.09 1548.66 1769.85V36.1519C1548.64 26.9078 1544.96 18.0472 1538.42 11.5106C1531.89 4.97402 1523.03 1.29434 1513.78 1.27746H280.465Z" fill="#EBEBEB"/>
<path d="M2895.41 1806.32H1662.03C1652.36 1806.3 1643.1 1802.45 1636.26 1795.62C1629.42 1788.78 1625.58 1779.51 1625.56 1769.85V36.1519C1625.66 26.5398 1629.54 17.3547 1636.37 10.5875C1643.2 3.82028 1652.42 0.0162766 1662.03 0H2895.41C2905.01 0.0332425 2914.2 3.84672 2921.01 10.6139C2927.81 17.3811 2931.67 26.5567 2931.75 36.1519V1769.85C2931.75 1779.5 2927.93 1788.75 2921.12 1795.59C2914.31 1802.43 2905.06 1806.28 2895.41 1806.32ZM1662.03 1.27746C1652.79 1.29434 1643.93 4.97402 1637.39 11.5106C1630.85 18.0472 1627.17 26.9078 1627.16 36.1519V1769.85C1627.17 1779.09 1630.85 1787.95 1637.39 1794.49C1643.93 1801.02 1652.79 1804.7 1662.03 1804.72H2895.41C2904.65 1804.7 2913.52 1801.02 2920.05 1794.49C2926.59 1787.95 2930.27 1779.09 2930.28 1769.85V36.1519C2930.27 26.9078 2926.59 18.0472 2920.05 11.5106C2913.52 4.97402 2904.65 1.29434 2895.41 1.27746H1662.03Z" fill="#EBEBEB"/>
<path d="M2293.09 1165.74H2150.66V1226.35H2293.09V1165.74Z" fill="#FAFAFA"/>
<path d="M2120.76 1165.74H1978.33V1226.35H2120.76V1165.74Z" fill="#FAFAFA"/>
<path d="M1948.43 1165.74H1806V1226.35H1948.43V1165.74Z" fill="#FAFAFA"/>
<path d="M2379.26 1250.12H2236.82V1310.73H2379.26V1250.12Z" fill="#FAFAFA"/>
<path d="M2206.93 1250.12H2064.49V1310.73H2206.93V1250.12Z" fill="#FAFAFA"/>
<path d="M2034.6 1250.12H1892.16V1310.73H2034.6V1250.12Z" fill="#FAFAFA"/>
<path d="M1862.27 1250.12H1719.83V1310.73H1862.27V1250.12Z" fill="#FAFAFA"/>
<path d="M2657.04 1334.49H2514.6V1395.11H2657.04V1334.49Z" fill="#FAFAFA"/>
<path d="M2484.71 1334.49H2342.27V1395.11H2484.71V1334.49Z" fill="#FAFAFA"/>
<path d="M2120.76 1334.49H1978.33V1395.11H2120.76V1334.49Z" fill="#FAFAFA"/>
<path d="M1948.43 1334.49H1806V1395.11H1948.43V1334.49Z" fill="#FAFAFA"/>
<path d="M1776.11 1334.49H1633.67V1395.11H1776.11V1334.49Z" fill="#FAFAFA"/>
<path d="M2570.87 1418.8H2428.44V1479.42H2570.87V1418.8Z" fill="#FAFAFA"/>
<path d="M2206.93 1418.8H2064.49V1479.42H2206.93V1418.8Z" fill="#FAFAFA"/>
<path d="M2034.6 1418.8H1892.16V1479.42H2034.6V1418.8Z" fill="#FAFAFA"/>
<path d="M1862.27 1418.8H1719.83V1479.42H1862.27V1418.8Z" fill="#FAFAFA"/>
<path d="M1190.01 306.333H1047.58V366.948H1190.01V306.333Z" fill="#FAFAFA"/>
<path d="M1017.68 306.333H875.247V366.948H1017.68V306.333Z" fill="#FAFAFA"/>
<path d="M1276.18 390.709H1133.74V451.324H1276.18V390.709Z" fill="#FAFAFA"/>
<path d="M1103.85 390.709H961.411V451.324H1103.85V390.709Z" fill="#FAFAFA"/>
<path d="M759.19 390.709H616.754V451.324H759.19V390.709Z" fill="#FAFAFA"/>
<path d="M586.862 390.709H444.426V451.324H586.862V390.709Z" fill="#FAFAFA"/>
<path d="M1017.68 475.085H875.247V535.7H1017.68V475.085Z" fill="#FAFAFA"/>
<path d="M2586.46 800.069H2444.02V860.684H2586.46V800.069Z" fill="#FAFAFA"/>
<path d="M2286.39 800.069H2143.95V860.684H2286.39V800.069Z" fill="#FAFAFA"/>
<path d="M2672.69 884.445H2530.25V945.06H2672.69V884.445Z" fill="#FAFAFA"/>
<path d="M2500.29 884.445H2357.86V945.06H2500.29V884.445Z" fill="#FAFAFA"/>
<path d="M1029.88 714.99H887.446V775.605H1029.88V714.99Z" fill="#FAFAFA"/>
<path d="M665.873 714.99H523.437V775.605H665.873V714.99Z" fill="#FAFAFA"/>
<path d="M1116.05 799.302H973.611V859.917H1116.05V799.302Z" fill="#FAFAFA"/>
<path d="M879.782 799.302H737.346V859.917H879.782V799.302Z" fill="#FAFAFA"/>
<path d="M2586.46 968.82H2444.02V1029.44H2586.46V968.82Z" fill="#FAFAFA"/>
<path d="M2286.39 968.82H2143.95V1029.44H2286.39V968.82Z" fill="#FAFAFA"/>
<path d="M673.026 475.085H530.59V535.7H673.026V475.085Z" fill="#FAFAFA"/>
<path d="M2690.89 308.633H2548.45V369.248H2690.89V308.633Z" fill="#FAFAFA"/>
<path d="M2518.56 308.633H2376.13V369.248H2518.56V308.633Z" fill="#FAFAFA"/>
<path d="M2604.73 392.945H2462.29V453.56H2604.73V392.945Z" fill="#FAFAFA"/>
<path d="M1918.86 309.974H1776.43V370.589H1918.86V309.974Z" fill="#FAFAFA"/>
<path d="M1746.53 309.974H1604.1V370.589H1746.53V309.974Z" fill="#FAFAFA"/>
<path d="M2005.03 394.286H1862.59V454.901H2005.03V394.286Z" fill="#FAFAFA"/>
<path d="M1832.7 394.286H1690.26V454.901H1832.7V394.286Z" fill="#FAFAFA"/>
<path d="M1660.37 394.286H1517.93V454.901H1660.37V394.286Z" fill="#FAFAFA"/>
<path d="M2091.19 478.662H1948.75V539.277H2091.19V478.662Z" fill="#FAFAFA"/>
<path d="M1918.86 478.662H1776.43V539.277H1918.86V478.662Z" fill="#FAFAFA"/>
<path d="M1746.53 478.662H1604.1V539.277H1746.53V478.662Z" fill="#FAFAFA"/>
<path d="M2005.03 563.037H1862.59V623.653H2005.03V563.037Z" fill="#FAFAFA"/>
<path d="M1832.7 563.037H1690.26V623.653H1832.7V563.037Z" fill="#FAFAFA"/>
<path d="M846.696 1142.87H704.26V1203.49H846.696V1142.87Z" fill="#FAFAFA"/>
<path d="M674.304 1142.87H531.868V1203.49H674.304V1142.87Z" fill="#FAFAFA"/>
<path d="M1341.45 1150.54H1199.02V1211.15H1341.45V1150.54Z" fill="#FAFAFA"/>
<path d="M932.86 1227.19H790.424V1287.8H932.86V1227.19Z" fill="#FAFAFA"/>
<path d="M760.468 1227.19H618.032V1287.8H760.468V1227.19Z" fill="#FAFAFA"/>
<path d="M1427.62 1234.91H1285.18V1295.53H1427.62V1234.91Z" fill="#FAFAFA"/>
<path d="M1255.23 1234.91H1112.79V1295.53H1255.23V1234.91Z" fill="#FAFAFA"/>
<path d="M1712.55 962.177H1570.12V1022.79H1712.55V962.177Z" fill="#FAFAFA"/>
<path d="M819.039 922.065H676.603V982.681H819.039V922.065Z" fill="#FAFAFA"/>
<path d="M1518.32 663.062H1375.88V723.677H1518.32V663.062Z" fill="#FAFAFA"/>
<path d="M1626.39 877.866H1483.95V938.481H1626.39V877.866Z" fill="#FAFAFA"/>
<path d="M1798.72 877.866H1656.28V938.481H1798.72V877.866Z" fill="#FAFAFA"/>
<path d="M2445.68 2029.43H2303.25V2090.04H2445.68V2029.43Z" fill="#FAFAFA"/>
<path d="M2531.85 1945.11H2389.41V2005.73H2531.85V1945.11Z" fill="#FAFAFA"/>
<path d="M846.696 1311.56H704.26V1372.18H846.696V1311.56Z" fill="#FAFAFA"/>
<path d="M674.304 1311.56H531.868V1372.18H674.304V1311.56Z" fill="#FAFAFA"/>
<path d="M932.86 1395.94H790.424V1456.55H932.86V1395.94Z" fill="#FAFAFA"/>
<path d="M760.468 1395.94H618.032V1456.55H760.468V1395.94Z" fill="#FAFAFA"/>
<path d="M1117.13 1629.26H974.696V1689.88H1117.13V1629.26Z" fill="#FAFAFA"/>
<path d="M944.804 1629.26H802.368V1689.88H944.804V1629.26Z" fill="#FAFAFA"/>
<path d="M772.412 1629.26H629.976V1689.88H772.412V1629.26Z" fill="#FAFAFA"/>
<path d="M600.083 1629.26H457.647V1689.88H600.083V1629.26Z" fill="#FAFAFA"/>
<path d="M1203.3 1713.64H1060.86V1774.25H1203.3V1713.64Z" fill="#FAFAFA"/>
<path d="M1030.97 1713.64H888.532V1774.25H1030.97V1713.64Z" fill="#FAFAFA"/>
<path d="M686.248 1713.64H543.812V1774.25H686.248V1713.64Z" fill="#FAFAFA"/>
<path d="M1289.46 1797.95H1147.02V1858.57H1289.46V1797.95Z" fill="#FAFAFA"/>
<path d="M1117.13 1797.95H974.696V1858.57H1117.13V1797.95Z" fill="#FAFAFA"/>
<path d="M944.804 1797.95H802.368V1858.57H944.804V1797.95Z" fill="#FAFAFA"/>
<path d="M1203.3 1882.33H1060.86V1942.94H1203.3V1882.33Z" fill="#FAFAFA"/>
<path d="M1030.97 1882.33H888.532V1942.94H1030.97V1882.33Z" fill="#FAFAFA"/>
<path d="M858.64 1882.33H716.204V1942.94H858.64V1882.33Z" fill="#FAFAFA"/>
<path d="M2283 1625.37H2140.56V1685.98H2283V1625.37Z" fill="#FAFAFA"/>
<path d="M1919.05 1625.37H1776.62V1685.98H1919.05V1625.37Z" fill="#FAFAFA"/>
<path d="M1746.73 1625.37H1604.29V1685.98H1746.73V1625.37Z" fill="#FAFAFA"/>
<path d="M2369.23 1709.74H2226.79V1770.36H2369.23V1709.74Z" fill="#FAFAFA"/>
<path d="M2005.22 1709.74H1862.78V1770.36H2005.22V1709.74Z" fill="#FAFAFA"/>
<path d="M1832.89 1709.74H1690.45V1770.36H1832.89V1709.74Z" fill="#FAFAFA"/>
<path d="M1660.56 1709.74H1518.12V1770.36H1660.56V1709.74Z" fill="#FAFAFA"/>
<path d="M2455.39 1794.05H2312.96V1854.67H2455.39V1794.05Z" fill="#FAFAFA"/>
<path d="M2283 1794.05H2140.56V1854.67H2283V1794.05Z" fill="#FAFAFA"/>
<path d="M1919.05 1794.05H1776.62V1854.67H1919.05V1794.05Z" fill="#FAFAFA"/>
<path d="M1746.73 1794.05H1604.29V1854.67H1746.73V1794.05Z" fill="#FAFAFA"/>
<path d="M2177.55 1878.43H2035.11V1939.05H2177.55V1878.43Z" fill="#FAFAFA"/>
<path d="M2005.22 1878.43H1862.78V1939.05H2005.22V1878.43Z" fill="#FAFAFA"/>
<path d="M1832.89 1878.43H1690.45V1939.05H1832.89V1878.43Z" fill="#FAFAFA"/>
<path d="M1660.56 1878.43H1518.12V1939.05H1660.56V1878.43Z" fill="#FAFAFA"/>
<path d="M1973.86 1343.18H2589.08V639.493L1973.86 639.493V1343.18Z" fill="#E0E0E0"/>
<path d="M1975.01 1343.18H2566.53V639.493L1975.01 639.493V1343.18Z" fill="#E0E0E0"/>
<path d="M1954.63 1343.18H2569.85V639.493L1954.63 639.493V1343.18Z" fill="#F0F0F0"/>
<path d="M1982.61 1310.79H2543.03V661.848L1982.61 661.848V1310.79Z" fill="white"/>
<path d="M1982.61 1310.79H2000.11V661.848H1982.61V1310.79Z" fill="#E0E0E0"/>
<path d="M1998.26 1128.57V1146.07H2544.62V1128.57H1998.26Z" fill="#E0E0E0"/>
<path d="M1982.61 1128.5H2552.42V1099.12H1982.61V1128.5Z" fill="#F0F0F0"/>
<path d="M676.412 1343.18H1291.63V639.493L676.412 639.493L676.412 1343.18Z" fill="#E0E0E0"/>
<path d="M677.625 1343.18H1269.15V639.493L677.625 639.493L677.625 1343.18Z" fill="#E0E0E0"/>
<path d="M657.249 1343.18H1272.47V639.493L657.249 639.493L657.249 1343.18Z" fill="#F0F0F0"/>
<path d="M685.162 1310.79H1245.58V661.848L685.162 661.848L685.162 1310.79Z" fill="white"/>
<path d="M685.162 1310.79H702.663L702.663 661.848H685.162L685.162 1310.79Z" fill="#E0E0E0"/>
<path d="M700.811 1128.5V1146H1247.18V1128.5H700.811Z" fill="#E0E0E0"/>
<path d="M685.162 1128.5H1254.97V1099.12H685.162V1128.5Z" fill="#F0F0F0"/>
<path d="M1596.82 2379.64C2280.78 2379.64 2835.24 2347.27 2835.24 2307.34C2835.24 2267.4 2280.78 2235.03 1596.82 2235.03C912.852 2235.03 358.39 2267.4 358.39 2307.34C358.39 2347.27 912.852 2379.64 1596.82 2379.64Z" fill="#F5F5F5"/>
<path d="M570.894 2142.35C570.894 2142.35 562.079 2077.39 520.498 2070.3C478.917 2063.21 491.436 2031.98 480.642 2019.59C469.847 2007.2 441.552 2043.29 465.759 2078.1C489.967 2112.91 470.167 2101.92 480.642 2134.24C491.117 2166.56 574.854 2196.26 570.894 2142.35Z" fill="#263238"/>
<path opacity="0.2" d="M570.894 2142.35C570.894 2142.35 562.079 2077.39 520.498 2070.3C478.917 2063.21 491.436 2031.98 480.642 2019.59C469.847 2007.2 441.552 2043.29 465.759 2078.1C489.967 2112.91 470.167 2101.92 480.642 2134.24C491.117 2166.56 574.854 2196.26 570.894 2142.35Z" fill="white"/>
<path d="M569.169 2187.45C568.626 2187.45 568.092 2187.31 567.629 2187.03C567.165 2186.74 566.791 2186.34 566.55 2185.85C566.55 2185.15 534.614 2117.57 551.221 2009.88C556.598 1979.08 565.16 1948.92 576.77 1919.88C596.89 1865.08 612.73 1821.78 576.45 1742.7C564.953 1717.66 553.201 1694.35 541.831 1671.8C499.165 1587.11 465.504 1520.23 490.733 1452.46C491.005 1451.75 491.548 1451.18 492.242 1450.87C492.937 1450.56 493.726 1450.53 494.438 1450.8C494.799 1450.92 495.132 1451.1 495.417 1451.35C495.702 1451.6 495.933 1451.91 496.095 1452.25C496.257 1452.59 496.346 1452.96 496.358 1453.34C496.37 1453.72 496.303 1454.09 496.162 1454.44C471.955 1519.85 505.169 1585.77 547.261 1669.18C558.63 1691.79 570.383 1715.17 581.943 1740.27C619.245 1821.52 602.191 1868.02 582.454 1921.86C570.82 1950.51 562.255 1980.32 556.905 2010.77C540.49 2116.55 571.468 2182.66 571.788 2183.23C572.117 2183.92 572.161 2184.71 571.91 2185.42C571.658 2186.14 571.132 2186.73 570.446 2187.06C570.054 2187.28 569.618 2187.41 569.169 2187.45Z" fill="#263238"/>
<path d="M545.217 2171.67C545.217 2171.67 518.326 2131.17 557.097 2110.35C595.868 2089.53 603.66 2106.33 627.357 2091.19C651.054 2076.05 669.513 2040.09 673.601 2063.15C677.689 2086.21 650.032 2099.62 659.804 2110.22C669.577 2120.83 594.846 2189.81 545.217 2171.67Z" fill="#263238"/>
<path d="M481.791 1487.27C481.791 1487.27 455.667 1407.75 515.197 1406.09C574.726 1404.43 509.065 1478.78 481.791 1487.27Z" fill="#263238"/>
<path d="M533.528 1548.46C533.528 1548.46 551.284 1476.1 593.504 1491.36C635.724 1506.63 575.62 1549.81 533.528 1548.46Z" fill="#263238"/>
<path d="M461.863 1554.72C461.863 1554.72 468.25 1497.24 423.539 1495.83C378.828 1494.43 398.501 1545.72 461.863 1554.72Z" fill="#263238"/>
<path d="M491.819 1672.44C491.819 1672.44 431.651 1618.79 409.998 1658.71C388.345 1698.63 455.284 1706.93 491.819 1672.44Z" fill="#263238"/>
<path d="M598.103 1662.92C598.103 1662.92 609.408 1573.5 658.016 1601.8C706.623 1630.09 640.451 1671.87 598.103 1662.92Z" fill="#263238"/>
<path d="M640.898 1790.48C640.898 1790.48 605.002 1700.48 671.685 1710.64C738.368 1720.79 687.972 1768.63 640.898 1790.48Z" fill="#263238"/>
<path d="M538.574 1822.61C538.574 1822.61 482.302 1756.5 439.252 1777.32C396.202 1798.14 431.395 1864.25 538.574 1822.61Z" fill="#263238"/>
<path d="M589.672 1969.58C589.672 1969.58 637.64 1863.04 680.307 1898.93C722.974 1934.83 653.097 1988.48 589.672 1969.58Z" fill="#263238"/>
<path d="M519.987 1963.32C519.987 1963.32 532.761 1880.67 485.176 1887.31C437.591 1893.95 450.174 1944.54 519.987 1963.32Z" fill="#263238"/>
<g opacity="0.2">
<path d="M481.791 1487.27C481.791 1487.27 455.667 1407.75 515.197 1406.09C574.726 1404.43 509.065 1478.78 481.791 1487.27Z" fill="white"/>
<path d="M533.528 1548.46C533.528 1548.46 551.284 1476.1 593.504 1491.36C635.724 1506.63 575.62 1549.81 533.528 1548.46Z" fill="white"/>
<path d="M461.863 1554.72C461.863 1554.72 468.25 1497.24 423.539 1495.83C378.828 1494.43 398.501 1545.72 461.863 1554.72Z" fill="white"/>
<path d="M491.819 1672.44C491.819 1672.44 431.651 1618.79 409.998 1658.71C388.345 1698.63 455.284 1706.93 491.819 1672.44Z" fill="white"/>
<path d="M598.103 1662.92C598.103 1662.92 609.408 1573.5 658.016 1601.8C706.623 1630.09 640.451 1671.87 598.103 1662.92Z" fill="white"/>
<path d="M640.898 1790.48C640.898 1790.48 605.002 1700.48 671.685 1710.64C738.368 1720.79 687.972 1768.63 640.898 1790.48Z" fill="white"/>
<path d="M538.574 1822.61C538.574 1822.61 482.302 1756.5 439.252 1777.32C396.202 1798.14 431.395 1864.25 538.574 1822.61Z" fill="white"/>
<path d="M589.672 1969.58C589.672 1969.58 637.64 1863.04 680.307 1898.93C722.974 1934.83 653.097 1988.48 589.672 1969.58Z" fill="white"/>
<path d="M519.987 1963.32C519.987 1963.32 532.761 1880.67 485.176 1887.31C437.591 1893.95 450.174 1944.54 519.987 1963.32Z" fill="white"/>
</g>
<path d="M507.596 1596.31C507.11 1596.31 506.629 1596.2 506.191 1595.99C470.933 1576.25 445.576 1538.95 444.554 1537.41C444.337 1537.1 444.184 1536.75 444.106 1536.37C444.027 1536 444.023 1535.62 444.094 1535.24C444.166 1534.87 444.311 1534.51 444.521 1534.19C444.732 1533.88 445.003 1533.6 445.32 1533.39C445.959 1532.97 446.736 1532.81 447.488 1532.96C448.239 1533.1 448.905 1533.53 449.344 1534.16C464.653 1556.09 484.039 1574.87 506.446 1589.47C511.811 1579.51 531.165 1545.14 547.325 1535.43C547.977 1535.04 548.76 1534.91 549.503 1535.09C549.871 1535.18 550.217 1535.34 550.523 1535.57C550.829 1535.79 551.088 1536.07 551.285 1536.39C551.482 1536.72 551.613 1537.07 551.672 1537.45C551.73 1537.82 551.715 1538.2 551.626 1538.57C551.537 1538.94 551.376 1539.29 551.153 1539.59C550.931 1539.9 550.65 1540.16 550.327 1540.35C533.145 1550.64 510.342 1594.33 510.151 1594.77C509.971 1595.11 509.726 1595.41 509.43 1595.65C509.134 1595.89 508.793 1596.07 508.426 1596.18C508.161 1596.28 507.879 1596.32 507.596 1596.31Z" fill="#263238"/>
<path d="M562.079 1706.87C561.455 1706.88 560.845 1706.68 560.354 1706.29C510.214 1668.42 446.15 1670.01 445.384 1670.01C444.624 1670 443.896 1669.71 443.342 1669.19C442.787 1668.67 442.445 1667.96 442.382 1667.2C442.373 1666.83 442.439 1666.45 442.576 1666.1C442.712 1665.75 442.917 1665.43 443.178 1665.15C443.439 1664.88 443.751 1664.66 444.097 1664.51C444.442 1664.36 444.814 1664.27 445.192 1664.27C445.831 1664.27 509.767 1662.6 561.121 1699.78C567.827 1689.11 593.568 1650.34 626.654 1630.86C627.315 1630.47 628.103 1630.36 628.846 1630.55C629.589 1630.74 630.225 1631.22 630.614 1631.88C631.004 1632.54 631.115 1633.33 630.923 1634.07C630.732 1634.82 630.253 1635.45 629.592 1635.84C593.121 1657.3 564.698 1704.95 564.442 1705.46C564.232 1705.81 563.953 1706.1 563.623 1706.33C563.294 1706.56 562.92 1706.72 562.526 1706.8L562.079 1706.87Z" fill="#263238"/>
<path d="M596.89 1852.95C596.375 1852.95 595.868 1852.82 595.421 1852.56C594.718 1852.12 521.456 1810.02 468.506 1809C467.809 1808.9 467.173 1808.55 466.713 1808.01C466.253 1807.48 466 1806.8 466 1806.09C466 1805.39 466.253 1804.71 466.713 1804.18C467.173 1803.64 467.809 1803.29 468.506 1803.19C518.965 1804.21 584.69 1839.92 596.251 1846.56C630.231 1817.88 657.249 1747.56 657.505 1746.85C657.625 1746.48 657.82 1746.14 658.076 1745.85C658.333 1745.55 658.646 1745.32 658.998 1745.15C659.349 1744.98 659.731 1744.89 660.12 1744.87C660.509 1744.85 660.898 1744.92 661.261 1745.06C661.625 1745.19 661.957 1745.41 662.237 1745.68C662.517 1745.95 662.739 1746.27 662.889 1746.63C663.04 1746.99 663.116 1747.38 663.112 1747.77C663.109 1748.16 663.027 1748.54 662.87 1748.9C661.72 1751.9 634.255 1823.5 598.359 1852.31C597.934 1852.65 597.427 1852.87 596.89 1852.95Z" fill="#263238"/>
<path d="M554.478 2003.94C553.964 2003.93 553.46 2003.8 553.009 2003.56C525.352 1987.72 489.583 1918.41 488.114 1915.48C487.759 1914.8 487.687 1914.01 487.914 1913.28C488.142 1912.55 488.65 1911.94 489.328 1911.58C490.006 1911.22 490.797 1911.15 491.527 1911.38C492.258 1911.61 492.868 1912.12 493.224 1912.79C493.224 1913.5 527.779 1979.86 553.775 1997.23C574.936 1972.52 602.94 1954.63 634.255 1945.82C634.983 1945.6 635.769 1945.68 636.439 1946.04C637.11 1946.39 637.611 1947 637.832 1947.73C638.053 1948.47 637.976 1949.26 637.617 1949.94C637.259 1950.62 636.648 1951.14 635.916 1951.37C604.963 1959.94 577.371 1977.77 556.841 2002.47C556.595 2002.89 556.252 2003.24 555.84 2003.5C555.429 2003.75 554.961 2003.9 554.478 2003.94Z" fill="#263238"/>
<path d="M549.304 2161.96C549.304 2161.96 526.246 2125.3 500.25 2120.06C474.254 2114.82 463.012 2084.87 453.431 2102.88C443.851 2120.89 470.294 2180.68 549.304 2161.96Z" fill="#263238"/>
<path d="M455.476 2305.87H647.604L660.443 2150.72H442.637L455.476 2305.87Z" fill="#407BFF"/>
<path d="M438.102 2180.1H664.914L667.852 2147.21H435.228L438.102 2180.1Z" fill="#407BFF"/>
<path opacity="0.3" d="M438.102 2180.1H664.914L667.852 2147.21H435.228L438.102 2180.1Z" fill="white"/>
<path d="M1791.44 979.934L1781.73 981.786C1780.97 981.839 1780.2 981.667 1779.54 981.29C1778.87 980.914 1778.33 980.35 1777.99 979.67C1777.64 978.989 1777.5 978.221 1777.59 977.462C1777.67 976.702 1777.98 975.985 1778.47 975.399H1778.85C1776.11 976.613 1773.36 977.826 1770.49 978.912C1770.25 983.167 1770.25 987.432 1770.49 991.687L1833.14 1315.78L1599.75 1361C1599.82 1361.46 1599.82 1361.94 1599.75 1362.4C1599.66 1363.41 1599.17 1364.35 1598.39 1365C1597.62 1365.66 1596.62 1365.99 1595.6 1365.92C1591.83 1365.21 1588 1364.51 1584.17 1364L1275.15 1423.91C1275.1 1424.46 1274.93 1424.98 1274.64 1425.45C1273.48 1427.41 1272.17 1429.29 1270.75 1431.07C1270.93 1432.21 1270.79 1433.38 1270.36 1434.45C1267.97 1441.62 1264.87 1448.53 1261.1 1455.08C1259.88 1456.81 1258.06 1458.01 1255.99 1458.47C1254.65 1458.75 1253.25 1458.64 1251.97 1458.15C1250.5 1461.31 1249.43 1464.63 1248.77 1468.05L1743.91 1372.24L1744.36 1371.67C1747.25 1368.94 1750.67 1366.85 1754.41 1365.52C1758.15 1364.19 1762.12 1363.65 1766.08 1363.94C1768.9 1360.64 1772.24 1357.83 1775.98 1355.63C1777.66 1354.53 1779.6 1353.86 1781.61 1353.69C1783.61 1353.52 1785.63 1353.86 1787.48 1354.67C1789.93 1356.13 1791.8 1358.38 1792.78 1361.06C1797.65 1360.46 1802.56 1360.12 1807.47 1360.04L1877.73 1346.37L1809.06 992.325C1802.27 989.694 1796.21 985.44 1791.44 979.934Z" fill="#407BFF"/>
<path d="M1151.37 516.794L1153.67 517.241L1199.85 508.298C1204.96 506.063 1210 503.7 1214.92 501.592C1224.21 497.199 1234.2 494.454 1244.43 493.48C1250.53 493.198 1256.63 494.11 1262.38 496.163L1659.54 419.196L1696.39 609.153C1696.82 608.544 1697.42 608.07 1698.11 607.788C1698.8 607.506 1699.55 607.428 1700.28 607.562C1701.02 607.697 1701.7 608.039 1702.24 608.547C1702.78 609.055 1703.17 609.709 1703.36 610.431C1705.5 618.783 1706.66 627.358 1706.8 635.98C1706.61 640.12 1705.65 644.189 1703.99 647.988L1766.65 971.375C1770.42 969.97 1774.13 968.437 1777.83 966.776C1778.2 964.549 1779.02 962.421 1780.24 960.521C1781.46 958.621 1783.05 956.99 1784.92 955.726C1787.6 954.46 1790.65 954.233 1793.48 955.088C1794.96 951.735 1796.03 948.218 1796.67 944.612C1797.57 940.222 1797.98 935.744 1797.89 931.263L1795.4 918.169C1795.4 917.467 1794.82 916.828 1794.5 916.189C1794.24 915.698 1794.1 915.149 1794.1 914.592C1794.1 914.035 1794.24 913.487 1794.5 912.996L1728.59 573.065C1728.2 573.126 1727.82 573.126 1727.44 573.065C1725.13 573.311 1722.8 572.924 1720.69 571.945C1718.59 570.966 1716.79 569.432 1715.49 567.508C1713.67 563.784 1713.11 559.57 1713.89 555.5C1714.53 550.71 1715.75 545.983 1716.71 541.257C1717.73 537.082 1718.04 532.76 1717.6 528.482C1717.44 527.759 1717.52 527.006 1717.82 526.329C1718.12 525.652 1718.62 525.087 1719.26 524.714L1690.01 373.91L1117.26 485.432C1106.62 491.618 1094.5 494.777 1082.19 494.566C1081.61 494.529 1081.05 494.346 1080.56 494.033C1080.07 493.721 1079.66 493.289 1079.38 492.777L795.215 547.899C795.047 548.639 794.678 549.317 794.148 549.858C793.618 550.399 792.948 550.783 792.213 550.965L777.266 553.84C777.207 556.111 776.522 558.321 775.286 560.227C775.184 561.119 774.751 561.939 774.073 562.526C773.092 563.328 772.154 564.181 771.262 565.081C769.538 566.678 767.877 568.403 766.089 569.936C765.481 570.519 764.733 570.937 763.917 571.149C763.252 571.264 762.568 571.207 761.93 570.984C761.293 570.76 760.724 570.377 760.276 569.872C759.616 569.088 759.274 568.085 759.318 567.061C759.282 566.7 759.282 566.336 759.318 565.975C757.019 565.975 754.719 565.975 752.484 565.401C751.479 565.288 750.555 564.795 749.902 564.023C749.249 563.251 748.916 562.259 748.971 561.249C749.052 560.243 749.527 559.31 750.293 558.652C751.058 557.995 752.052 557.665 753.059 557.736C755.471 558.086 757.903 558.278 760.34 558.311H762.256C762.532 558.342 762.811 558.342 763.087 558.311C761.209 558.042 759.488 557.114 758.232 555.692C758.213 555.522 758.213 555.351 758.232 555.181L593.696 587.117C594.457 587.126 595.203 587.324 595.868 587.692C596.69 588.273 597.256 589.149 597.446 590.137C597.637 591.125 597.437 592.149 596.89 592.994C595.573 594.744 594.098 596.369 592.483 597.848L592.036 598.359C592.419 598.359 592.036 598.039 592.036 598.359C591.76 598.684 591.504 599.025 591.269 599.381C591.269 599.381 591.269 599.892 591.269 600.083C591.239 600.295 591.239 600.51 591.269 600.722C591.239 600.848 591.239 600.979 591.269 601.105C591.186 601.762 590.939 602.388 590.551 602.925C590.164 603.462 589.648 603.893 589.051 604.179C588.453 604.465 587.794 604.596 587.132 604.562C586.471 604.527 585.829 604.327 585.265 603.98C584.925 603.796 584.559 603.667 584.179 603.596C583.784 603.44 583.379 603.312 582.966 603.213C582.977 605.013 582.491 606.782 581.561 608.323C581.196 608.854 580.695 609.276 580.111 609.546C579.526 609.816 578.879 609.923 578.239 609.856C577.598 613.451 576.391 616.922 574.662 620.139C572.734 623.426 570.12 626.258 566.998 628.443C567.615 629.272 568.13 630.173 568.531 631.126L813.163 583.732V583.349C814.2 581.612 815.541 580.076 817.123 578.814C818.172 578.036 819.386 577.51 820.671 577.277C821.956 577.045 823.277 577.112 824.532 577.473C826.54 578.094 828.421 579.067 830.089 580.347L1146.83 518.965C1147.2 518.117 1147.86 517.431 1148.69 517.032C1149.53 516.633 1150.48 516.548 1151.37 516.794Z" fill="#407BFF"/>
<path d="M725.402 1530.64L667.916 1234.59C667.412 1235.17 666.746 1235.58 666.007 1235.77C665.267 1235.97 664.486 1235.93 663.764 1235.68C662.81 1235.35 662.026 1234.65 661.583 1233.74C661.14 1232.83 661.075 1231.78 661.401 1230.83C662.357 1228.02 663.806 1225.4 665.681 1223.1L590.375 834.049L589.672 832.835C588.14 829.677 587.044 826.325 586.415 822.871C585.096 822.774 583.773 822.774 582.455 822.871C581.876 822.969 581.282 822.934 580.718 822.77C580.155 822.606 579.636 822.316 579.199 821.923C578.763 821.53 578.422 821.043 578.2 820.5C577.979 819.956 577.883 819.369 577.92 818.783C577.844 811.414 579.741 804.159 583.413 797.769L552.882 640.387C552.372 639.548 551.923 638.673 551.54 637.768L550.007 634.894C549.38 634.878 548.769 634.691 548.24 634.353C547.711 634.016 547.284 633.54 547.005 632.978C546.562 632.071 546.494 631.025 546.817 630.068C547.14 629.111 547.827 628.321 548.73 627.868C550.326 627.249 551.781 626.314 553.009 625.121C553.879 624.13 554.59 623.009 555.117 621.8C556.121 619.1 556.661 616.249 556.714 613.369C555.755 612.069 555.06 610.593 554.67 609.026C554.38 606.88 554.577 604.697 555.245 602.638C555.38 602.1 555.668 601.611 556.075 601.233C556.075 598.806 555.692 596.379 555.564 593.952L506.702 603.405L646.136 1322.74C646.832 1322.37 647.641 1322.26 648.408 1322.45C649.174 1322.64 649.844 1323.11 650.287 1323.76C653.898 1327.67 655.885 1332.81 655.844 1338.13C655.652 1339.18 655.353 1340.21 654.95 1341.2C655.594 1341.66 656.068 1342.33 656.299 1343.09C656.529 1343.85 656.504 1344.67 656.227 1345.41C654.359 1349.08 653.753 1353.25 654.503 1357.29C655.305 1361.1 656.394 1364.83 657.76 1368.47C660.17 1374.58 660.484 1381.32 658.655 1387.63L695.062 1575.61L705.409 1573.57C711.226 1571.65 717.157 1570.09 723.166 1568.9C723.076 1568.46 723.08 1568 723.18 1567.56C723.279 1567.12 723.47 1566.71 723.741 1566.35C725.259 1564.59 726.88 1562.93 728.595 1561.37C728.436 1560.72 728.436 1560.04 728.595 1559.39C729.667 1554.97 732.157 1551.02 735.685 1548.15C738.886 1545.79 742.837 1544.67 746.799 1545.02C750.617 1545.5 754.281 1546.82 757.527 1548.88C760.774 1550.95 763.523 1553.71 765.577 1556.96C776.053 1554.4 787.358 1550.57 797.514 1555.75L1194.55 1479.1C1194.67 1478.06 1194.88 1477.03 1195.18 1476.03C1196.81 1470.86 1199.84 1466.24 1203.94 1462.68C1204.55 1462.16 1205.31 1461.84 1206.12 1461.79C1206.92 1461.73 1207.73 1461.93 1208.41 1462.36C1208.72 1461.86 1209.15 1461.45 1209.66 1461.16C1210.18 1460.87 1210.76 1460.72 1211.34 1460.72C1211.93 1460.72 1212.51 1460.87 1213.03 1461.16C1213.54 1461.45 1213.97 1461.86 1214.28 1462.36L1215.88 1464.28L1216.58 1464.92L1217.8 1465.75L1219.14 1466.39C1217.92 1462.7 1217.92 1458.71 1219.14 1455.02C1219.88 1452.94 1221.05 1451.04 1222.57 1449.44C1224.09 1447.83 1225.92 1446.56 1227.95 1445.69C1227.57 1445.18 1227.33 1444.58 1227.25 1443.95C1227.16 1443.32 1227.24 1442.68 1227.47 1442.09C1227.7 1441.5 1228.07 1440.97 1228.56 1440.56C1229.04 1440.15 1229.63 1439.88 1230.25 1439.75C1231.08 1439.65 1231.93 1439.82 1232.65 1440.23C1233.38 1440.65 1233.96 1441.29 1234.3 1442.05C1234.63 1442.82 1234.71 1443.68 1234.53 1444.49C1234.34 1445.31 1233.89 1446.04 1233.25 1446.59L1233.7 1447.1C1234.14 1448.01 1234.21 1449.05 1233.89 1450.01C1233.57 1450.96 1232.88 1451.76 1231.98 1452.21L1230.51 1452.91L1229.68 1453.36L1229.23 1453.68L1228.21 1454.57L1227.82 1455.02L1227.19 1455.98V1456.36C1227.04 1456.69 1226.91 1457.04 1226.8 1457.38C1228.07 1455.71 1229.55 1454.21 1231.21 1452.91C1232.32 1452.14 1233.52 1451.52 1234.79 1451.06C1237.92 1444.16 1240.85 1437.13 1243.79 1430.24L725.402 1530.64Z" fill="#407BFF"/>
<path d="M819.806 1232.74C820.486 1232 821.284 1231.37 822.169 1230.89L937.523 1002.99L884.508 1013.28L838.009 1104.29C838.299 1104.36 838.579 1104.47 838.84 1104.61C839.662 1105.19 840.227 1106.07 840.418 1107.06C840.608 1108.05 840.409 1109.07 839.862 1109.91C838.776 1111.51 837.945 1113.24 836.987 1114.9C837.818 1115.41 838.584 1116.05 839.414 1116.49C840.043 1116.92 840.531 1117.53 840.815 1118.23C841.1 1118.94 841.168 1119.71 841.011 1120.45C840.855 1121.19 840.488 1121.87 839.955 1122.4C839.422 1122.93 838.746 1123.3 838.009 1123.46L836.732 1124.16H836.412H836.029L833.538 1125.31H832.963L832.069 1126.01L830.089 1127.74L829.067 1128.82L828.62 1129.33L826.831 1131.63C825.554 1133.36 824.404 1135.14 823.191 1136.93C822.598 1137.77 821.705 1138.34 820.7 1138.53L752.675 1271.77L759.063 1306.13L789.274 1300.26C790.243 1297.39 791.86 1294.79 794.001 1292.65C795.013 1291.7 796.127 1290.87 797.322 1290.16C797.291 1289.93 797.291 1289.69 797.322 1289.46C798.755 1273.99 803.785 1259.08 812.013 1245.9C811.603 1245.26 811.385 1244.52 811.385 1243.76C811.385 1243 811.603 1242.26 812.013 1241.62C813.055 1239.8 813.46 1237.69 813.163 1235.62C813.17 1234.85 813.4 1234.1 813.823 1233.46C814.247 1232.83 814.847 1232.32 815.55 1232.02C816.253 1231.72 817.029 1231.62 817.785 1231.75C818.54 1231.88 819.242 1232.22 819.806 1232.74Z" fill="#407BFF"/>
<path d="M1018.51 1212.49C1018.45 1213.45 1018.19 1214.39 1017.75 1215.24C1015.85 1218.95 1012.77 1221.92 1009 1223.67C1008.23 1224.82 1007.4 1225.91 1006.7 1226.99C1006.28 1227.58 1005.7 1228.02 1005.04 1228.27C1005.04 1228.85 1004.59 1229.48 1004.46 1230.06C1004.31 1230.56 1004.06 1231.02 1003.73 1231.41C1003.4 1231.81 1002.99 1232.14 1002.52 1232.37C1002.06 1232.6 1001.56 1232.74 1001.04 1232.77C1000.52 1232.81 1000 1232.74 999.514 1232.56C999.026 1232.39 998.577 1232.12 998.196 1231.77C997.815 1231.42 997.509 1230.99 997.297 1230.52C997.085 1230.05 996.971 1229.54 996.961 1229.02C996.952 1228.5 997.048 1227.98 997.244 1227.5C997.872 1225.31 998.684 1223.17 999.671 1221.12L996.03 1221.82C995.042 1221.99 994.025 1221.77 993.192 1221.22C992.36 1220.66 991.775 1219.8 991.559 1218.82C991.462 1218.53 991.462 1218.21 991.559 1217.92L989.323 1218.37L974.888 1143.32L928.772 1152.26L943.207 1226.87L829.067 1248.97C828.301 1249.35 827.598 1249.92 826.831 1250.37V1250.88C827.113 1251.71 827.105 1252.6 826.808 1253.42C826.512 1254.24 825.945 1254.94 825.2 1255.39C824.456 1255.85 823.579 1256.03 822.714 1255.92C821.85 1255.81 821.049 1255.41 820.444 1254.78C818.316 1256.61 816.369 1258.64 814.632 1260.85C815.299 1260.66 816.005 1260.66 816.671 1260.85C817.338 1261.04 817.937 1261.42 818.4 1261.93C818.756 1262.28 819.038 1262.7 819.23 1263.16C819.423 1263.62 819.522 1264.12 819.522 1264.61C819.522 1265.11 819.423 1265.61 819.23 1266.07C819.038 1266.53 818.756 1266.95 818.4 1267.3L815.334 1269.85C815.723 1270.5 815.928 1271.24 815.928 1271.99C815.928 1272.75 815.723 1273.49 815.334 1274.13V1274.58C815.303 1274.81 815.303 1275.05 815.334 1275.28C815.334 1276.18 815.334 1277.13 815.334 1278.09C815.2 1279.81 814.452 1281.42 813.227 1282.63C811.834 1283.83 810.127 1284.6 808.308 1284.86H807.861C808.04 1286.77 808.317 1288.67 808.692 1290.55C809.56 1292.28 810.245 1294.1 810.736 1295.98L950.553 1268.89L966.265 1354.1L1013.91 1344.9L997.563 1260.46L1062.78 1247.69L1054.6 1205.53L1018.51 1212.49Z" fill="#407BFF"/>
<path d="M1295.34 982.553L1292.27 985.236C1290.8 986.513 1289.4 987.79 1288.06 989.132L1286.33 991.048L1285.37 992.198C1284.28 993.79 1282.64 994.93 1280.77 995.407C1278.89 995.884 1276.91 995.665 1275.19 994.791C1273.46 993.918 1272.12 992.448 1271.39 990.656C1270.67 988.863 1270.62 986.869 1271.26 985.044L1273.05 978.273C1273.05 978.273 1272.53 977.762 1272.34 977.379C1271.82 976.419 1271.56 975.341 1271.58 974.249C1271.45 973.212 1271.58 972.159 1271.96 971.184C1271.96 970.417 1272.53 969.651 1272.85 968.884C1271.46 967.53 1270.29 965.955 1269.4 964.221V963.71C1242.46 949.54 1211.4 945.29 1181.64 951.702C1101.16 967.287 1053.9 1042.72 1075.36 1154.56C1096.82 1266.4 1169.25 1318.65 1249.73 1303.07C1256.96 1301.69 1264.08 1299.75 1271 1297.25C1273.24 1294.06 1275.47 1290.87 1277.39 1287.74C1278.15 1286.64 1279.17 1285.76 1280.36 1285.16C1281.55 1284.56 1282.87 1284.28 1284.2 1284.33C1285.53 1284.38 1286.83 1284.77 1287.97 1285.45C1289.12 1286.14 1290.07 1287.1 1290.74 1288.25C1344.84 1258.1 1372.94 1191.22 1355.31 1100.27C1345.29 1047.51 1323.7 1007.91 1295.34 982.553ZM1241.3 1259.44C1187.33 1269.92 1141.47 1233 1124.41 1145.11C1107.36 1057.22 1136.1 1005.87 1190.08 995.455C1204.26 992.389 1219 993.236 1232.74 997.905C1246.48 1002.57 1258.69 1010.89 1268.06 1021.96C1268.97 1021.32 1269.99 1020.84 1271.07 1020.56C1273.16 1020.18 1275.31 1020.64 1277.06 1021.83C1278.82 1023.03 1280.04 1024.86 1280.45 1026.94C1281.13 1031 1281.24 1035.13 1280.77 1039.21C1293.45 1060.9 1302.11 1084.7 1306.32 1109.47C1323.5 1197.68 1294.76 1249.09 1241.3 1259.44Z" fill="#407BFF"/>
<path d="M1645.04 1091.07L1630.6 1016.47L1584.42 1025.41L1598.92 1100.01L1466.9 1125.56L1593.18 876.077L1540.16 886.297L1492.7 979.295C1492.26 990.906 1489.9 1002.36 1485.74 1013.21C1485.45 1013.93 1484.95 1014.54 1484.31 1014.98C1483.66 1015.41 1482.91 1015.64 1482.13 1015.64C1481.36 1015.64 1480.6 1015.41 1479.96 1014.98C1479.32 1014.54 1478.82 1013.93 1478.52 1013.21C1477.25 1023.11 1472.6 1032.27 1465.37 1039.14C1464.89 1039.58 1464.31 1039.88 1463.68 1040.01C1463.05 1040.13 1462.39 1040.08 1461.79 1039.85L1408.07 1145.11L1414.46 1179.47L1493.92 1164.08C1500.69 1158.69 1508.71 1155.07 1517.23 1153.54C1524.72 1151.81 1532.35 1150.8 1540.03 1150.54C1545.79 1150.1 1551.58 1150.53 1557.21 1151.82L1605.37 1142.49L1621.73 1226.87L1669.31 1217.67L1652.96 1133.29L1718.24 1120.52L1710.06 1078.36L1645.04 1091.07Z" fill="#407BFF"/>
<path d="M767.111 886.616L759.574 847.782L837.498 832.708L831.622 802.496L753.697 817.57L746.671 781.099L834.88 764.045L828.492 732.875L701.705 757.466L712.563 813.418C714.499 814.407 716.215 815.775 717.609 817.442C720.018 820.484 721.464 824.176 721.761 828.045C722.591 836.029 720.611 844.269 721.761 851.997C721.917 852.643 721.878 853.321 721.651 853.946C721.424 854.571 721.018 855.115 720.484 855.51L734.536 925.259L864.453 900.093L858.448 868.668L767.111 886.616Z" fill="#407BFF"/>
<path d="M995.903 818.655C1005.33 812.679 1012.72 803.987 1017.11 793.726C1021.5 783.465 1022.68 772.115 1020.49 761.17C1019.85 761.843 1018.99 762.272 1018.07 762.384C1017.32 762.434 1016.57 762.261 1015.92 761.885C1015.28 761.51 1014.75 760.949 1014.43 760.276C1013.55 758.238 1012.97 756.088 1012.7 753.889C1012.7 753.569 1012.7 753.314 1012.7 752.994C1011.52 751.486 1010.67 749.744 1010.21 747.885C1010.06 746.889 1010.29 745.873 1010.86 745.042C1011.43 744.212 1012.29 743.629 1013.28 743.414C1013.66 743.313 1014.07 743.296 1014.47 743.362C1014.86 743.428 1015.24 743.576 1015.58 743.797C1003.38 716.523 973.994 704.387 935.543 711.86L862.92 725.912L872.756 776.563C873.533 776.893 874.151 777.512 874.481 778.288C880.661 790.84 884.514 804.409 885.85 818.336C886.003 819.331 885.772 820.348 885.202 821.179C884.633 822.009 883.768 822.592 882.784 822.807C882.425 822.869 882.058 822.869 881.698 822.807L895.431 894.217L934.266 886.68L925.196 839.989L960.901 833.027L1002.29 873.522L1044 865.41L995.903 818.655ZM950.809 802.751L918.872 809.138L907.503 750.695L939.439 744.308C963.136 739.709 977.252 748.14 980.829 766.599C984.406 785.059 974.569 798.408 950.809 802.751Z" fill="#407BFF"/>
<path d="M1172.13 784.484C1181.87 778.297 1189.44 769.223 1193.78 758.529C1198.12 747.835 1199.01 736.053 1196.33 724.827C1189.05 687.206 1156.54 669.385 1111.7 678.072L1039.08 692.188L1071.59 859.917L1110.43 852.444L1101.36 805.69L1137.06 798.727L1178.51 839.223L1220.22 831.111L1172.13 784.484ZM1127.03 768.643L1095.1 775.031L1083.79 716.523L1115.41 710.136C1117.39 709.753 1119.3 709.497 1121.09 709.306L1122.31 708.284C1122.42 707.327 1122.63 706.385 1122.94 705.473C1123.36 704.366 1124.12 703.417 1125.1 702.763C1126.09 702.11 1127.26 701.784 1128.44 701.833C1130.71 702.058 1132.89 702.801 1134.83 704.004C1135.16 703.603 1135.57 703.277 1136.04 703.046C1136.07 701.821 1136.22 700.601 1136.49 699.405C1136.86 698.493 1137.57 697.758 1138.47 697.354C1139.36 696.951 1140.39 696.909 1141.31 697.238C1142.24 697.567 1143.01 698.241 1143.45 699.12C1143.9 700 1143.99 701.017 1143.7 701.96C1142.94 704.898 1144.34 707.517 1144.09 710.519C1144 711.234 1143.78 711.926 1143.45 712.563C1147.04 714.648 1150.1 717.528 1152.41 720.983C1154.71 724.438 1156.19 728.375 1156.73 732.491C1160.57 750.695 1150.73 764.045 1127.03 768.643Z" fill="#407BFF"/>
<path d="M1355.89 645.689L1353.91 646.2C1353.44 646.36 1352.99 646.574 1352.57 646.838C1352.37 646.952 1352.2 647.104 1352.06 647.285C1351.49 647.96 1350.73 648.45 1349.88 648.691C1349.39 648.779 1348.88 648.768 1348.38 648.658C1347.89 648.549 1347.42 648.343 1347.01 648.052C1346.58 647.791 1346.21 647.438 1345.94 647.018C1345.66 646.598 1345.48 646.122 1345.41 645.625C1345.22 644.628 1345.42 643.595 1345.99 642.75C1345.99 642.75 1346.37 642.431 1346.5 642.239C1330.15 637.026 1312.73 636.081 1295.91 639.493C1242.9 649.776 1211.28 694.232 1220.93 744.052C1230.57 793.873 1276.56 823.318 1329.51 813.035C1382.46 802.751 1414.2 758.552 1404.5 708.475C1402.11 694.846 1396.44 682.005 1387.97 671.064C1379.5 660.123 1368.49 651.413 1355.89 645.689ZM1323.19 779.821C1308.95 782.582 1294.2 779.574 1282.18 771.459C1270.15 763.344 1261.85 750.786 1259.09 736.547C1256.33 722.309 1259.34 707.557 1267.45 695.537C1275.57 683.517 1288.13 675.212 1302.36 672.451C1309.53 671.046 1316.91 671.046 1324.08 672.451C1324.08 671.557 1324.65 670.663 1324.97 669.896C1325.29 669.028 1325.91 668.304 1326.72 667.858C1327.53 667.412 1328.48 667.274 1329.38 667.469C1330.09 667.594 1330.74 667.939 1331.25 668.454C1331.75 668.97 1332.08 669.631 1332.19 670.343L1334.43 669.769C1334.94 668.172 1335.45 666.639 1335.9 665.042C1336.34 663.445 1336.41 663.19 1336.6 662.295C1336.74 661.856 1336.84 661.408 1336.92 660.954V660.507L1337.3 658.208V657.377C1336.92 654.822 1339.6 651.756 1342.35 653.098L1349.95 656.739C1350.89 657.111 1351.65 657.828 1352.07 658.742C1352.5 659.656 1352.56 660.698 1352.25 661.657C1351.8 662.609 1351.41 663.591 1351.1 664.595C1351.1 664.914 1351.1 665.297 1350.78 665.617C1350.78 665.617 1350.78 665.617 1350.78 666.064C1350.65 667.594 1350.65 669.132 1350.78 670.663C1350.92 674.294 1350.7 677.931 1350.14 681.521C1350.32 681.935 1350.41 682.38 1350.41 682.83C1350.41 683.281 1350.32 683.726 1350.14 684.14C1350.01 684.577 1349.77 684.972 1349.44 685.29C1357.79 693.554 1363.39 704.194 1365.47 715.757C1367.21 722.758 1367.49 730.046 1366.27 737.158C1365.05 744.271 1362.37 751.053 1358.4 757.075C1354.42 763.097 1349.24 768.228 1343.18 772.144C1337.12 776.059 1330.31 778.674 1323.19 779.821Z" fill="#407BFF"/>
<path d="M1575.48 656.291C1575.27 656.263 1575.06 656.263 1574.84 656.291C1573.32 655.752 1571.91 654.929 1570.69 653.864C1570.11 654.855 1569.45 655.795 1568.71 656.675C1568.12 657.484 1567.25 658.039 1566.26 658.229C1565.28 658.419 1564.26 658.228 1563.41 657.696C1562.58 657.126 1562 656.249 1561.81 655.256C1561.62 654.263 1561.83 653.235 1562.39 652.395C1566.16 647.255 1568.54 641.225 1569.29 634.894C1556.51 608.962 1527.71 597.656 1490.21 604.938L1417.59 618.99L1449.91 786.591L1488.74 779.055L1479.67 732.3L1515.38 725.402L1556.83 765.833L1598.54 757.785L1550.44 711.158C1559.5 705.44 1566.7 697.203 1571.14 687.458C1575.59 677.712 1577.1 666.881 1575.48 656.291ZM1505.54 695.254L1473.61 701.641L1462.68 642.878L1494.62 636.491C1518.38 631.892 1532.43 640.387 1536.01 658.846C1539.59 677.305 1529.24 690.655 1505.54 695.254Z" fill="#407BFF"/>
<path d="M1237.66 1671.29H1510.65C1518.07 1671.29 1525.42 1672.75 1532.27 1675.6C1539.13 1678.44 1545.36 1682.6 1550.6 1687.85C1555.84 1693.1 1560 1699.33 1562.84 1706.19C1565.67 1713.05 1567.12 1720.4 1567.12 1727.82V1823.63C1567.12 1831.05 1565.67 1838.4 1562.84 1845.26C1560 1852.11 1555.84 1858.34 1550.6 1863.59C1545.36 1868.84 1539.13 1873.01 1532.27 1875.85C1525.42 1878.69 1518.07 1880.16 1510.65 1880.16H1329.25L1246.22 1968.94L1290.93 1880.16H1237.4C1222.41 1880.16 1208.03 1874.2 1197.43 1863.6C1186.83 1853 1180.88 1838.62 1180.88 1823.63V1727.82C1180.88 1720.37 1182.35 1713 1185.2 1706.13C1188.06 1699.25 1192.25 1693.01 1197.52 1687.76C1202.8 1682.5 1209.06 1678.35 1215.95 1675.52C1222.84 1672.7 1230.22 1671.26 1237.66 1671.29Z" fill="#407BFF"/>
<path opacity="0.7" d="M1237.66 1671.29H1510.65C1518.07 1671.29 1525.42 1672.75 1532.27 1675.6C1539.13 1678.44 1545.36 1682.6 1550.6 1687.85C1555.84 1693.1 1560 1699.33 1562.84 1706.19C1565.67 1713.05 1567.12 1720.4 1567.12 1727.82V1823.63C1567.12 1831.05 1565.67 1838.4 1562.84 1845.26C1560 1852.11 1555.84 1858.34 1550.6 1863.59C1545.36 1868.84 1539.13 1873.01 1532.27 1875.85C1525.42 1878.69 1518.07 1880.16 1510.65 1880.16H1329.25L1246.22 1968.94L1290.93 1880.16H1237.4C1222.41 1880.16 1208.03 1874.2 1197.43 1863.6C1186.83 1853 1180.88 1838.62 1180.88 1823.63V1727.82C1180.88 1720.37 1182.35 1713 1185.2 1706.13C1188.06 1699.25 1192.25 1693.01 1197.52 1687.76C1202.8 1682.5 1209.06 1678.35 1215.95 1675.52C1222.84 1672.7 1230.22 1671.26 1237.66 1671.29Z" fill="white"/>
<path d="M1251.01 1770.42C1250.77 1763.97 1252.46 1757.6 1255.86 1752.12C1259.27 1746.64 1264.23 1742.3 1270.12 1739.66C1276.01 1737.02 1282.55 1736.2 1288.91 1737.3C1295.27 1738.41 1301.15 1741.38 1305.8 1745.85C1310.46 1750.33 1313.67 1756.08 1315.03 1762.39C1316.39 1768.7 1315.83 1775.27 1313.43 1781.26C1311.03 1787.25 1306.89 1792.38 1301.55 1796.01C1296.21 1799.63 1289.91 1801.57 1283.46 1801.59C1279.25 1801.8 1275.04 1801.15 1271.09 1799.67C1267.15 1798.2 1263.54 1795.93 1260.51 1793.01C1257.47 1790.09 1255.06 1786.58 1253.42 1782.7C1251.79 1778.81 1250.97 1774.64 1251.01 1770.42ZM1307.03 1770.42C1307.08 1765.72 1305.73 1761.11 1303.15 1757.17C1300.57 1753.24 1296.88 1750.16 1292.55 1748.34C1288.21 1746.51 1283.43 1746.01 1278.82 1746.9C1274.2 1747.8 1269.95 1750.05 1266.62 1753.37C1263.29 1756.68 1261.01 1760.92 1260.09 1765.53C1259.17 1770.14 1259.64 1774.92 1261.45 1779.26C1263.25 1783.61 1266.31 1787.31 1270.23 1789.91C1274.15 1792.51 1278.75 1793.89 1283.46 1793.86C1286.57 1793.96 1289.66 1793.42 1292.56 1792.28C1295.45 1791.14 1298.09 1789.42 1300.29 1787.22C1302.5 1785.03 1304.23 1782.4 1305.39 1779.52C1306.55 1776.63 1307.11 1773.53 1307.03 1770.42Z" fill="#407BFF"/>
<path d="M1323.57 1777.83C1323.44 1773.06 1324.74 1768.36 1327.29 1764.33C1329.85 1760.3 1333.55 1757.13 1337.91 1755.21C1342.28 1753.29 1347.12 1752.71 1351.82 1753.55C1356.52 1754.4 1360.85 1756.62 1364.28 1759.94C1367.71 1763.26 1370.07 1767.52 1371.07 1772.19C1372.06 1776.86 1371.64 1781.71 1369.86 1786.14C1368.09 1790.57 1365.03 1794.37 1361.08 1797.05C1357.14 1799.73 1352.48 1801.18 1347.71 1801.21C1344.57 1801.37 1341.42 1800.88 1338.47 1799.77C1335.52 1798.66 1332.83 1796.96 1330.56 1794.76C1328.3 1792.57 1326.51 1789.94 1325.31 1787.02C1324.1 1784.11 1323.51 1780.98 1323.57 1777.83ZM1363.11 1777.83C1363.24 1775.7 1362.94 1773.57 1362.22 1771.57C1361.5 1769.56 1360.38 1767.73 1358.92 1766.17C1357.46 1764.62 1355.7 1763.38 1353.75 1762.53C1351.79 1761.69 1349.68 1761.25 1347.55 1761.25C1345.42 1761.25 1343.31 1761.69 1341.36 1762.53C1339.4 1763.38 1337.64 1764.62 1336.19 1766.17C1334.73 1767.73 1333.6 1769.56 1332.88 1771.57C1332.17 1773.57 1331.86 1775.7 1332 1777.83C1331.86 1779.96 1332.17 1782.09 1332.88 1784.09C1333.6 1786.1 1334.73 1787.94 1336.19 1789.49C1337.64 1791.04 1339.4 1792.28 1341.36 1793.13C1343.31 1793.98 1345.42 1794.41 1347.55 1794.41C1349.68 1794.41 1351.79 1793.98 1353.75 1793.13C1355.7 1792.28 1357.46 1791.04 1358.92 1789.49C1360.38 1787.94 1361.5 1786.1 1362.22 1784.09C1362.94 1782.09 1363.24 1779.96 1363.11 1777.83Z" fill="#407BFF"/>
<path d="M1430.75 1777.83C1430.92 1780.95 1430.44 1784.08 1429.33 1787C1428.22 1789.92 1426.52 1792.58 1424.32 1794.81C1422.13 1797.03 1419.49 1798.78 1416.58 1799.92C1413.67 1801.07 1410.56 1801.59 1407.43 1801.46C1404.35 1801.56 1401.28 1800.93 1398.49 1799.62C1395.69 1798.31 1393.24 1796.36 1391.34 1793.93V1817.82H1382.97V1754.77H1390.95V1762.12C1392.87 1759.59 1395.37 1757.56 1398.24 1756.2C1401.11 1754.84 1404.26 1754.2 1407.43 1754.33C1410.55 1754.2 1413.65 1754.72 1416.55 1755.86C1419.45 1757 1422.08 1758.73 1424.27 1760.94C1426.47 1763.15 1428.17 1765.79 1429.29 1768.7C1430.4 1771.61 1430.9 1774.72 1430.75 1777.83ZM1422.32 1777.83C1422.17 1774.8 1421.13 1771.88 1419.34 1769.43C1417.55 1766.99 1415.08 1765.12 1412.24 1764.06C1409.4 1763 1406.3 1762.79 1403.35 1763.47C1400.39 1764.15 1397.7 1765.68 1395.6 1767.87C1393.5 1770.06 1392.09 1772.82 1391.55 1775.8C1391 1778.79 1391.34 1781.86 1392.52 1784.66C1393.71 1787.45 1395.69 1789.83 1398.21 1791.52C1400.74 1793.2 1403.7 1794.1 1406.73 1794.12C1408.86 1794.19 1410.98 1793.81 1412.96 1793C1414.93 1792.2 1416.72 1790.99 1418.2 1789.46C1419.68 1787.93 1420.82 1786.1 1421.55 1784.09C1422.28 1782.09 1422.59 1779.96 1422.44 1777.83H1422.32Z" fill="#407BFF"/>
<path d="M1436.62 1796.03L1440.07 1789.65C1444.92 1792.73 1450.55 1794.37 1456.3 1794.37C1464.02 1794.37 1467.22 1792.07 1467.22 1787.99C1467.22 1777.64 1438.09 1786.65 1438.09 1768.25C1438.09 1760.01 1445.5 1754.39 1457.25 1754.39C1463.13 1754.3 1468.92 1755.75 1474.05 1758.61L1470.48 1764.99C1466.5 1762.51 1461.88 1761.24 1457.19 1761.35C1449.85 1761.35 1446.27 1764.03 1446.27 1767.74C1446.27 1778.6 1475.52 1769.72 1475.52 1787.67C1475.52 1795.97 1467.86 1801.34 1455.59 1801.34C1448.88 1801.54 1442.26 1799.69 1436.62 1796.03Z" fill="#407BFF"/>
<path d="M1484.14 1795.84C1484.14 1795.1 1484.29 1794.36 1484.59 1793.67C1484.88 1792.98 1485.3 1792.36 1485.84 1791.84C1486.38 1791.33 1487.01 1790.92 1487.71 1790.65C1488.4 1790.39 1489.15 1790.26 1489.89 1790.29C1490.63 1790.27 1491.36 1790.4 1492.04 1790.67C1492.72 1790.95 1493.34 1791.36 1493.86 1791.87C1494.38 1792.39 1494.79 1793.01 1495.06 1793.7C1495.34 1794.38 1495.47 1795.11 1495.45 1795.84C1495.46 1796.58 1495.32 1797.31 1495.05 1797.99C1494.77 1798.67 1494.36 1799.29 1493.85 1799.81C1493.33 1800.34 1492.71 1800.75 1492.03 1801.03C1491.36 1801.32 1490.63 1801.46 1489.89 1801.46C1489.14 1801.48 1488.4 1801.35 1487.7 1801.07C1487.01 1800.8 1486.37 1800.39 1485.84 1799.86C1485.3 1799.34 1484.87 1798.71 1484.58 1798.02C1484.29 1797.33 1484.14 1796.59 1484.14 1795.84ZM1484.91 1740.02H1494.62L1492.96 1781.66H1486.57L1484.91 1740.02Z" fill="#407BFF"/>
<path d="M2829.56 675.645C2829.56 696.467 2715.67 714.352 2552.54 722.208L2539.45 722.847L2521.82 723.549C2497.36 724.507 2471.94 725.21 2445.75 725.785H2434H2427.61C2407.49 726.104 2386.92 726.232 2366.03 726.232C2328.22 726.232 2291.5 725.721 2256.3 724.827L2230.75 723.996C2166.56 721.889 2108.31 718.248 2059.25 713.521C1963 704.196 1902.26 690.591 1902.26 675.198C1902.26 652.268 2040.22 632.978 2229.99 626.591L2244.87 626.08C2258.11 625.696 2271.55 625.377 2285.17 625.122C2301.59 624.802 2318.32 624.611 2335.25 624.483H2366.1C2413.88 624.483 2459.99 625.249 2503.36 626.782L2523.93 627.485L2550.69 628.635L2557.65 629.018L2575.47 629.912C2725.77 638.726 2829.56 655.78 2829.56 675.645Z" fill="#263238"/>
<path opacity="0.4" d="M2829.56 675.645C2829.56 696.467 2715.67 714.352 2552.54 722.208L2539.45 722.847L2521.82 723.549C2497.36 724.507 2471.94 725.21 2445.75 725.785H2434H2427.61C2407.49 726.104 2386.92 726.232 2366.03 726.232C2328.22 726.232 2291.5 725.721 2256.3 724.827L2230.75 723.996C2166.56 721.889 2108.31 718.248 2059.25 713.521C1963 704.196 1902.26 690.591 1902.26 675.198C1902.26 668.427 1914.33 661.912 1936.24 656.036C1976.7 665.517 2017.82 671.922 2059.25 675.198C2108.31 679.924 2166.56 683.565 2230.75 685.673L2256.3 686.503C2291.5 687.397 2328.22 687.908 2366.03 687.908C2386.92 687.908 2407.49 687.908 2427.61 687.461H2434H2445.75C2471.94 686.886 2497.36 686.184 2521.82 685.226L2539.45 684.523L2552.54 683.884C2662.6 678.583 2750.16 668.746 2795.58 656.483C2817.17 662.423 2829.56 668.81 2829.56 675.645Z" fill="white"/>
<path d="M2334.54 624.93C2334.08 632.539 2331.22 639.806 2326.37 645.689C2321.07 652.076 2316.53 656.93 2311.36 662.232C2308.29 665.361 2304.97 668.619 2302.1 671.429C2300.05 673.537 2297.95 675.517 2295.71 677.433C2284.89 687.424 2273.46 696.726 2261.47 705.282L2259.37 706.751L2253.81 710.455C2246.16 715.572 2238.18 720.181 2229.92 724.252C2226.86 725.785 2223.53 727.254 2220.47 728.659C2212.82 731.879 2204.94 734.526 2196.9 736.579C2189.75 738.496 2182.91 740.156 2176.14 741.561C2166.62 743.669 2156.98 745.585 2147.85 747.31C2130.41 750.695 2113.03 753.697 2095.53 756.252C2080.65 758.488 2065.77 760.595 2050.82 762.639C2038.81 764.108 2026.81 765.386 2014.67 766.408C2013.33 766.569 2011.98 766.569 2010.65 766.408C2006.6 765.856 2002.87 763.941 2000.06 760.98C1997.25 758.019 1995.53 754.188 1995.19 750.12C1995.13 749.313 1995.13 748.501 1995.19 747.693C1995.35 744.159 1996.56 740.754 1998.67 737.91C2000.77 735.066 2003.67 732.913 2007.01 731.725L2008.54 731.214C2025.08 725.274 2041.69 719.653 2058.36 714.224L2083.59 706.048C2109.14 697.745 2134.69 689.952 2159.53 681.713C2165.92 679.669 2171.86 677.561 2177.55 675.325C2182.44 673.703 2187.15 671.562 2191.6 668.938C2194.47 667.277 2197.35 665.425 2200.28 663.445C2206.73 659.117 2212.93 654.448 2218.87 649.457C2227.3 642.495 2235.73 634.83 2243.97 626.846C2257.22 626.463 2270.65 626.144 2284.28 625.888C2300.88 625.249 2317.62 625.058 2334.54 624.93Z" fill="#FFB573"/>
<path d="M2335.31 650.735C2334.86 652.076 2334.35 653.353 2333.84 654.631C2333.33 655.908 2332.76 657.186 2332.12 658.463C2331.56 659.716 2330.92 660.932 2330.2 662.104L2328.09 665.745V666.064C2326.65 668.321 2325.11 670.45 2323.49 672.451C2321.77 674.687 2319.98 676.858 2318.07 678.838L2316.28 680.819C2313.5 683.791 2310.56 686.605 2307.46 689.25C2306.44 690.208 2305.36 691.102 2304.27 691.932C2303.9 692.31 2303.49 692.652 2303.06 692.954C2293.48 700.595 2283.22 707.33 2272.4 713.074L2268.5 715.054L2264.67 716.97L2263.2 717.609L2258.54 713.521L2254.58 709.944L2245.63 702.024L2200.92 662.615L2197.54 659.613C2197.54 659.613 2211.21 644.347 2229.47 626.527L2244.36 626.016C2257.6 625.633 2271.03 625.313 2284.66 625.058C2301.08 624.738 2317.81 624.547 2334.74 624.419H2338.44C2339.36 633.314 2338.29 642.302 2335.31 650.735Z" fill="#407BFF"/>
<path opacity="0.7" d="M2335.38 650.735C2334.93 652.058 2334.42 653.359 2333.84 654.631C2333.33 655.908 2332.76 657.186 2332.12 658.463C2331.56 659.716 2330.92 660.932 2330.2 662.104L2328.09 665.745V666.064C2326.65 668.321 2325.11 670.45 2323.49 672.451C2321.77 674.687 2319.98 676.858 2318.07 678.838L2316.28 680.819C2313.5 683.791 2310.56 686.605 2307.46 689.25C2306.44 690.208 2305.36 691.102 2304.27 691.932C2303.9 692.31 2303.49 692.652 2303.06 692.954C2293.48 700.595 2283.22 707.33 2272.4 713.074L2268.5 715.054L2264.67 716.97L2263.2 717.609L2258.54 713.521L2254.58 709.944L2245.63 702.024L2200.92 662.615L2197.54 659.613C2197.54 659.613 2211.21 644.347 2229.47 626.527L2244.36 626.016C2257.6 625.633 2271.03 625.313 2284.66 625.058C2301.08 624.738 2317.81 624.547 2334.74 624.419H2338.51C2339.42 633.314 2338.36 642.303 2335.38 650.735Z" fill="white"/>
<path opacity="0.1" d="M2302.61 693.401C2290.31 703.231 2276.86 711.531 2262.56 718.12L2245 702.599C2254.22 675.197 2270.84 650.881 2293.03 632.339C2301.01 647.158 2303.57 678.136 2302.61 693.401Z" fill="black"/>
<path d="M2013.78 731.533L1954.5 722.463L1954.95 774.967C1954.95 774.967 1995.57 787.166 2017.1 759.573L2013.78 731.533Z" fill="#EBB376"/>
<path d="M1914.07 736.643L1923.84 775.669L1954.89 774.967L1954.44 722.463L1914.07 736.643Z" fill="#EBB376"/>
<path d="M2549.99 628.954C2549.48 630.295 2548.9 631.637 2548.39 633.042C2546.86 636.938 2545.39 640.898 2543.98 644.858C2543.09 647.285 2542.26 649.713 2541.43 652.204C2540.6 654.695 2539.7 657.186 2538.94 659.677C2536.57 667.086 2534.28 674.559 2532.04 682.16C2531.96 682.572 2531.86 682.977 2531.72 683.373C2529.29 691.805 2527.12 700.427 2525.01 708.923V709.944C2523.93 714.416 2522.78 718.887 2521.76 723.422C2521.25 725.465 2520.8 727.446 2520.35 729.49C2518.63 737.346 2516.97 745.266 2515.43 753.122C2514.86 756.061 2514.28 758.999 2513.77 761.873C2513.26 764.747 2512.56 768.26 2512.05 771.007C2512.05 771.645 2512.05 772.284 2511.73 772.923C2511.41 774.584 2511.09 776.244 2510.83 777.905C2510 782.568 2509.24 787.166 2508.47 791.701C2508.47 792.404 2508.47 793.043 2508.15 793.745L2507.38 798.536C2505.85 807.861 2504.51 816.995 2503.3 825.873C2503.27 826.384 2503.27 826.896 2503.3 827.406C2501.96 837.179 2500.81 846.568 2499.78 855.702C2499.34 859.47 2498.89 863.175 2498.51 866.816C2497.93 871.926 2497.42 876.844 2496.97 881.634C2496.59 885.147 2496.27 888.596 2495.95 891.918C2495.63 895.239 2495.38 898.305 2495.12 901.051C2494.87 903.798 2494.61 906.928 2494.35 909.674C2493.72 917.467 2493.2 924.493 2492.76 930.561C2492.76 933.243 2492.44 935.67 2492.25 937.97C2491.74 946.465 2491.48 952.405 2491.35 955.088C2491.35 956.174 2491.35 956.748 2491.35 956.748L2378.11 946.337H2376.45L2357.28 944.549L2328.48 941.866L2293.03 938.928L2284.66 938.161L2242.31 934.265C2242.31 930.241 2241.93 926.345 2241.87 922.385C2241.87 921.299 2241.87 920.213 2241.87 919.127C2240.65 884.253 2241.29 852.253 2243.14 823.318C2244.17 808.159 2245.49 793.745 2247.1 780.077C2249.4 760.404 2252.28 742.328 2255.53 725.657C2256.24 721.889 2257 718.184 2257.77 714.607C2258.28 712.116 2258.79 709.753 2259.37 707.39C2263.65 688.219 2268.94 669.287 2275.21 650.671C2278.27 641.728 2281.59 633.617 2284.34 626.271C2300.76 625.952 2317.49 625.76 2334.42 625.633H2365.27C2413.04 625.633 2459.16 626.399 2502.53 627.932L2523.1 628.635L2549.99 628.954Z" fill="#407BFF"/>
<path opacity="0.7" d="M2549.99 628.954C2549.48 630.295 2548.9 631.637 2548.39 633.042C2546.86 636.938 2545.39 640.898 2543.98 644.858C2543.09 647.285 2542.26 649.713 2541.43 652.204C2540.6 654.695 2539.7 657.186 2538.94 659.677V660.124C2536.57 667.405 2534.4 674.687 2532.23 682.16C2532.15 682.572 2532.05 682.977 2531.91 683.373C2528.85 694.232 2525.97 705.282 2523.29 716.396C2522.71 718.759 2522.2 721.186 2521.69 723.549C2521.18 725.913 2520.73 727.573 2520.29 729.617C2518.56 737.474 2516.9 745.394 2515.37 753.25C2514.73 756.188 2514.16 759.126 2513.64 762.065C2513.07 765.067 2512.49 768.132 2511.98 771.134C2511.98 771.773 2511.98 772.476 2511.6 773.114C2511.28 774.775 2510.96 776.436 2510.71 778.097C2509.88 782.759 2509.11 787.358 2508.34 791.893C2508.34 792.596 2508.34 793.234 2508.02 793.937L2507.26 798.727C2505.79 808.053 2504.38 817.187 2503.17 826.065C2503.14 826.575 2503.14 827.087 2503.17 827.598C2501.83 837.37 2500.68 846.76 2499.66 855.893C2499.21 859.662 2498.76 863.367 2498.38 867.007C2497.8 872.117 2497.29 877.035 2496.85 881.826C2496.46 885.339 2496.14 888.788 2495.82 892.109C2495.5 895.431 2495.25 898.497 2494.99 901.243C2494.74 903.99 2494.48 907.119 2494.23 909.866C2493.59 917.658 2493.08 924.684 2492.63 930.752C2492.63 933.435 2492.31 935.862 2492.12 938.161C2491.61 946.657 2491.35 952.597 2491.22 955.279C2491.22 956.365 2491.22 956.94 2491.22 956.94L2377.98 946.529H2376.32L2357.16 944.74L2328.35 942.058L2293.03 938.928L2284.66 938.161L2242.31 934.265C2242.31 930.241 2241.93 926.345 2241.87 922.385C2241.87 921.299 2241.87 920.213 2241.87 919.127C2240.65 884.253 2241.29 852.253 2243.14 823.318C2244.17 808.159 2245.49 793.745 2247.1 780.077C2249.4 760.404 2252.28 742.328 2255.53 725.657C2256.24 721.889 2257 718.184 2257.77 714.607C2258.28 712.116 2258.79 709.753 2259.37 707.39C2263.65 688.219 2268.94 669.287 2275.21 650.671C2278.27 641.728 2281.59 633.617 2284.34 626.271C2300.76 625.952 2317.49 625.76 2334.42 625.633H2365.27C2413.04 625.633 2459.16 626.399 2502.53 627.932L2523.1 628.635L2549.99 628.954Z" fill="white"/>
<path d="M1938.54 1476.74C1938.54 1476.74 2018.38 1443.52 2021.12 1410.63C2021.15 1409.84 2021.34 1409.07 2021.69 1408.36C2022.03 1407.65 2022.52 1407.02 2023.12 1406.51C2023.72 1406 2024.42 1405.62 2025.18 1405.39C2025.93 1405.17 2026.73 1405.1 2027.51 1405.2L2088.44 1408.9C2089.88 1409.02 2091.26 1409.52 2092.44 1410.36C2093.62 1411.19 2094.55 1412.32 2095.15 1413.63L2119.55 1470.03L2102.62 1472.33L2095.53 1464.6L2089.15 1474.18C1997.43 1486.96 1957.7 1491.11 1938.79 1487.91C1935.34 1480.18 1938.54 1476.74 1938.54 1476.74Z" fill="black"/>
<path d="M2312.76 1145.04C2309.25 1144.28 2307.34 1143.7 2307.34 1143.7L2019.91 1107.81L2105.37 1412.16L2018.38 1420.46C2018.38 1420.46 1819.86 1037.55 1900.98 982.297C1982.1 927.047 2233.63 988.046 2233.63 988.046L2243.53 912.229L2493.59 930.88C2533.76 1180.81 2347.26 1152.26 2312.76 1145.04Z" fill="#263238"/>
<path d="M2229.92 2024.32C2229.92 2024.32 2316.02 2016.08 2328.22 1985.16C2328.48 1984.44 2328.88 1983.78 2329.39 1983.21C2329.91 1982.65 2330.54 1982.19 2331.24 1981.88C2331.93 1981.56 2332.69 1981.39 2333.46 1981.37C2334.22 1981.35 2334.98 1981.49 2335.69 1981.78L2393.18 2003.11C2394.51 2003.64 2395.68 2004.5 2396.56 2005.62C2397.45 2006.75 2398.02 2008.08 2398.23 2009.5L2405.12 2070.56L2388.26 2067.81L2383.66 2058.36L2374.98 2065.71C2283.64 2050.95 2244.29 2043.61 2227.18 2034.98C2225.58 2026.55 2229.92 2024.32 2229.92 2024.32Z" fill="black"/>
<path d="M2496.08 1021.45C2495.7 1022.98 2485.28 1070.89 2471.68 1139.55C2470.91 1143.45 2470.15 1147.54 2469.32 1151.56C2462.93 1184.2 2455.9 1220.93 2449.01 1259.19C2440.57 1305.75 2432.21 1354.99 2425.18 1401.43C2415.65 1459.6 2409.45 1518.27 2406.59 1577.14C2403.27 1725.14 2397.08 2017.16 2397.08 2017.16L2317.43 2004.39C2317.43 2004.39 2273.42 1692.94 2273.93 1542.14C2274.31 1446.33 2298.07 1248.9 2314.3 1126.14C2322.47 1063.16 2328.73 1019.73 2328.73 1019.73L2418.98 1020.56L2496.08 1021.45Z" fill="#263238"/>
<path d="M2489.82 955.215L2495.12 955.663L2494.87 938.353L2490.2 938.034L2489.82 955.215Z" fill="#263238"/>
<path d="M2293.22 939.95L2399.89 948.253L2400.4 931.071L2294.11 922.896L2293.22 939.95Z" fill="#263238"/>
<path d="M2285.87 922.257L2240.78 918.744L2239.18 935.734L2284.85 939.311L2285.87 922.257Z" fill="#263238"/>
<path d="M2481.96 937.395L2408.57 931.71L2408.25 948.892L2481.39 954.577L2481.96 937.395Z" fill="#263238"/>
<g opacity="0.2">
<path d="M2489.82 955.215L2495.12 955.663L2494.87 938.353L2490.2 938.034L2489.82 955.215Z" fill="white"/>
<path d="M2293.22 939.95L2399.89 948.253L2400.4 931.072L2294.11 922.896L2293.22 939.95Z" fill="white"/>
<path d="M2285.87 922.257L2240.78 918.744L2239.18 935.734L2284.85 939.311L2285.87 922.257Z" fill="white"/>
<path d="M2481.96 937.395L2408.57 931.71L2408.25 948.892L2481.39 954.577L2481.96 937.395Z" fill="white"/>
</g>
<path d="M2355.88 947.103H2355.37L2328.8 944.612C2327.41 944.498 2326.12 943.847 2325.2 942.798C2324.28 941.749 2323.81 940.384 2323.88 938.992L2324.26 928.58C2324.28 927.848 2324.46 927.128 2324.78 926.468C2325.1 925.807 2325.55 925.222 2326.11 924.748C2326.65 924.249 2327.29 923.871 2327.98 923.64C2328.67 923.409 2329.41 923.329 2330.14 923.407L2356.58 925.451C2357.97 925.549 2359.27 926.184 2360.2 927.221C2361.13 928.258 2361.62 929.616 2361.56 931.008V941.866C2361.55 942.604 2361.39 943.332 2361.08 944.003C2360.77 944.674 2360.33 945.273 2359.77 945.762C2358.7 946.692 2357.3 947.172 2355.88 947.103ZM2329.69 927.942C2329.53 927.883 2329.34 927.883 2329.18 927.942C2329.14 928.032 2329.12 928.13 2329.12 928.229C2329.12 928.328 2329.14 928.426 2329.18 928.516L2328.73 938.928C2328.72 939.034 2328.74 939.14 2328.77 939.241C2328.81 939.341 2328.86 939.433 2328.93 939.512C2329.01 939.59 2329.09 939.652 2329.19 939.694C2329.29 939.737 2329.39 939.759 2329.5 939.758L2356.07 942.249C2356.17 942.291 2356.28 942.313 2356.39 942.313C2356.5 942.313 2356.61 942.291 2356.71 942.249C2356.78 942.065 2356.78 941.859 2356.71 941.674V930.816C2356.71 930.606 2356.63 930.404 2356.49 930.25C2356.35 930.096 2356.15 930.002 2355.94 929.986L2329.5 927.942H2329.69Z" fill="white"/>
<path d="M2355.5 938.289L2347.38 937.523C2346.77 937.458 2346.2 937.154 2345.81 936.676C2345.41 936.198 2345.22 935.585 2345.28 934.968C2345.34 934.369 2345.64 933.819 2346.1 933.436C2346.57 933.054 2347.17 932.87 2347.77 932.924L2355.88 933.69C2356.49 933.69 2357.07 933.932 2357.5 934.364C2357.94 934.795 2358.18 935.38 2358.18 935.99C2358.18 936.599 2357.94 937.184 2357.5 937.616C2357.07 938.047 2356.49 938.289 2355.88 938.289H2355.5Z" fill="white"/>
<path opacity="0.1" d="M2531.72 683.437C2528.65 694.296 2525.78 705.346 2523.1 716.46C2522.07 720.867 2521.05 725.274 2520.09 729.681C2515.3 751.334 2511.22 773.051 2507.83 794.001L2507.07 798.791C2463.18 812.907 2417.64 803.199 2419.11 760.915C2421.22 704.26 2469.51 677.88 2469.51 677.88C2491.03 666.064 2513.58 670.663 2531.72 683.437Z" fill="black"/>
<path d="M2102.43 2305.87H2161.51L1969.39 787.614H1910.3L2102.43 2305.87Z" fill="#263238"/>
<path opacity="0.4" d="M2102.43 2305.87H2161.51L1969.39 787.614H1910.3L2102.43 2305.87Z" fill="white"/>
<path d="M1978.9 1012.64H2166.75C2169.09 1012.51 2171.35 1011.72 2173.26 1010.37C2175.17 1009.01 2176.66 1007.14 2177.55 1004.97L2189.49 979.423H1956.16L1968.11 1004.97C1969 1007.14 1970.48 1009.01 1972.4 1010.37C1974.31 1011.72 1976.56 1012.51 1978.9 1012.64Z" fill="#263238"/>
<path opacity="0.4" d="M1978.9 1012.64H2166.75C2169.09 1012.51 2171.35 1011.72 2173.26 1010.37C2175.17 1009.01 2176.66 1007.14 2177.55 1004.97L2189.49 979.423H1956.16L1968.11 1004.97C1969 1007.14 1970.48 1009.01 1972.4 1010.37C1974.31 1011.72 1976.56 1012.51 1978.9 1012.64Z" fill="white"/>
<path d="M1959.29 991.687H2186.3C2193.03 991.687 2198.5 986.225 2198.5 979.487V976.74C2198.5 970.003 2193.03 964.541 2186.3 964.541H1959.29C1952.56 964.541 1947.09 970.003 1947.09 976.74V979.487C1947.09 986.225 1952.56 991.687 1959.29 991.687Z" fill="#263238"/>
<path opacity="0.1" d="M1959.29 991.687H2186.3C2193.03 991.687 2198.5 986.225 2198.5 979.487V976.74C2198.5 970.003 2193.03 964.541 2186.3 964.541H1959.29C1952.56 964.541 1947.09 970.003 1947.09 976.74V979.487C1947.09 986.225 1952.56 991.687 1959.29 991.687Z" fill="white"/>
<path d="M2013.2 1229.68H2200.99C2203.34 1229.56 2205.61 1228.77 2207.52 1227.4C2209.44 1226.03 2210.91 1224.14 2211.78 1221.95L2223.73 1196.72H1990.46L2002.34 1221.95C2003.22 1224.14 2004.71 1226.04 2006.64 1227.41C2008.56 1228.78 2010.84 1229.56 2013.2 1229.68Z" fill="#263238"/>
<path opacity="0.4" d="M2013.2 1229.68H2200.99C2203.34 1229.56 2205.61 1228.77 2207.52 1227.4C2209.44 1226.03 2210.91 1224.14 2211.78 1221.95L2223.73 1196.72H1990.46L2002.34 1221.95C2003.22 1224.14 2004.71 1226.04 2006.64 1227.41C2008.56 1228.78 2010.84 1229.56 2013.2 1229.68Z" fill="white"/>
<path d="M1993.59 1208.73H2220.6C2227.33 1208.73 2232.8 1203.26 2232.8 1196.53V1193.78C2232.8 1187.04 2227.33 1181.58 2220.6 1181.58H1993.59C1986.86 1181.58 1981.39 1187.04 1981.39 1193.78V1196.53C1981.39 1203.26 1986.86 1208.73 1993.59 1208.73Z" fill="#263238"/>
<path opacity="0.1" d="M1993.59 1208.73H2220.6C2227.33 1208.73 2232.8 1203.26 2232.8 1196.53V1193.78C2232.8 1187.04 2227.33 1181.58 2220.6 1181.58H1993.59C1986.86 1181.58 1981.39 1187.04 1981.39 1193.78V1196.53C1981.39 1203.26 1986.86 1208.73 1993.59 1208.73Z" fill="white"/>
<path d="M2047.44 1516.91H2235.54C2237.9 1516.81 2240.17 1516.04 2242.1 1514.68C2244.03 1513.32 2245.52 1511.43 2246.4 1509.25L2258.28 1483.7H2024.76L2036.71 1509.25C2037.57 1511.42 2039.05 1513.29 2040.95 1514.65C2042.85 1516.01 2045.1 1516.8 2047.44 1516.91Z" fill="#263238"/>
<path opacity="0.4" d="M2047.44 1516.91H2235.54C2237.9 1516.81 2240.17 1516.04 2242.1 1514.68C2244.03 1513.32 2245.52 1511.43 2246.4 1509.25L2258.28 1483.7H2024.76L2036.71 1509.25C2037.57 1511.42 2039.05 1513.29 2040.95 1514.65C2042.85 1516.01 2045.1 1516.8 2047.44 1516.91Z" fill="white"/>
<path d="M2027.83 1496.03H2254.83C2261.57 1496.03 2267.03 1490.56 2267.03 1483.83V1481.08C2267.03 1474.34 2261.57 1468.88 2254.83 1468.88H2027.83C2021.09 1468.88 2015.63 1474.34 2015.63 1481.08V1483.83C2015.63 1490.56 2021.09 1496.03 2027.83 1496.03Z" fill="#263238"/>
<path opacity="0.1" d="M2027.83 1496.03H2254.83C2261.57 1496.03 2267.03 1490.56 2267.03 1483.83V1481.08C2267.03 1474.34 2261.57 1468.88 2254.83 1468.88H2027.83C2021.09 1468.88 2015.63 1474.34 2015.63 1481.08V1483.83C2015.63 1490.56 2021.09 1496.03 2027.83 1496.03Z" fill="white"/>
<path d="M2081.67 1804.21H2269.52C2271.87 1804.1 2274.13 1803.32 2276.04 1801.96C2277.96 1800.6 2279.44 1798.72 2280.32 1796.55L2292.26 1771H2058.93L2070.88 1796.55C2071.76 1798.72 2073.24 1800.6 2075.15 1801.96C2077.07 1803.32 2079.33 1804.1 2081.67 1804.21Z" fill="#263238"/>
<path opacity="0.4" d="M2081.67 1804.21H2269.52C2271.87 1804.1 2274.13 1803.32 2276.04 1801.96C2277.96 1800.6 2279.44 1798.72 2280.32 1796.55L2292.26 1771H2058.93L2070.88 1796.55C2071.76 1798.72 2073.24 1800.6 2075.15 1801.96C2077.07 1803.32 2079.33 1804.1 2081.67 1804.21Z" fill="white"/>
<path d="M2062.06 1783.32H2289.07C2295.81 1783.32 2301.27 1777.86 2301.27 1771.12V1768.38C2301.27 1761.64 2295.81 1756.18 2289.07 1756.18H2062.06C2055.33 1756.18 2049.86 1761.64 2049.86 1768.38V1771.12C2049.86 1777.86 2055.33 1783.32 2062.06 1783.32Z" fill="#263238"/>
<path opacity="0.1" d="M2062.06 1783.32H2289.07C2295.81 1783.32 2301.27 1777.86 2301.27 1771.12V1768.38C2301.27 1761.64 2295.81 1756.18 2289.07 1756.18H2062.06C2055.33 1756.18 2049.86 1761.64 2049.86 1768.38V1771.12C2049.86 1777.86 2055.33 1783.32 2062.06 1783.32Z" fill="white"/>
<path d="M2115.97 2091.51H2303.76C2306.1 2091.41 2308.37 2090.63 2310.29 2089.27C2312.2 2087.91 2313.68 2086.03 2314.55 2083.84L2326.5 2058.3H2093.17L2105.11 2083.84C2106 2086.03 2107.49 2087.92 2109.42 2089.28C2111.34 2090.64 2113.62 2091.41 2115.97 2091.51Z" fill="#263238"/>
<path opacity="0.4" d="M2115.97 2091.51H2303.76C2306.1 2091.41 2308.37 2090.63 2310.29 2089.27C2312.2 2087.91 2313.68 2086.03 2314.55 2083.84L2326.5 2058.3H2093.17L2105.11 2083.84C2106 2086.03 2107.49 2087.92 2109.42 2089.28C2111.34 2090.64 2113.62 2091.41 2115.97 2091.51Z" fill="white"/>
<path d="M2096.3 2070.62H2323.3C2330.04 2070.62 2335.5 2065.16 2335.5 2058.42V2055.68C2335.5 2048.94 2330.04 2043.48 2323.3 2043.48H2096.3C2089.56 2043.48 2084.1 2048.94 2084.1 2055.68V2058.42C2084.1 2065.16 2089.56 2070.62 2096.3 2070.62Z" fill="#263238"/>
<path opacity="0.1" d="M2096.3 2070.62H2323.3C2330.04 2070.62 2335.5 2065.16 2335.5 2058.42V2055.68C2335.5 2048.94 2330.04 2043.48 2323.3 2043.48H2096.3C2089.56 2043.48 2084.1 2048.94 2084.1 2055.68V2058.42C2084.1 2065.16 2089.56 2070.62 2096.3 2070.62Z" fill="white"/>
<path d="M2330.52 2305.87H2389.6L2197.47 787.614H2138.39L2330.52 2305.87Z" fill="#263238"/>
<path opacity="0.7" d="M2330.52 2305.87H2389.6L2197.47 787.614H2138.39L2330.52 2305.87Z" fill="white"/>
<path d="M1710.25 2305.87H1651.17L1843.24 787.614H1902.32L1710.25 2305.87Z" fill="#263238"/>
<path opacity="0.4" d="M1710.25 2305.87H1651.17L1843.24 787.614H1902.32L1710.25 2305.87Z" fill="white"/>
<path d="M2061.81 1012.64H1874.02C1871.67 1012.52 1869.4 1011.74 1867.48 1010.38C1865.56 1009.03 1864.06 1007.15 1863.17 1004.97L1851.28 979.423H2084.55L2072.6 1004.97C2071.73 1007.15 2070.24 1009.03 2068.33 1010.39C2066.42 1011.74 2064.15 1012.53 2061.81 1012.64Z" fill="#263238"/>
<path opacity="0.5" d="M2061.81 1012.64H1874.02C1871.67 1012.52 1869.4 1011.74 1867.48 1010.38C1865.56 1009.03 1864.06 1007.15 1863.17 1004.97L1851.28 979.423H2084.55L2072.6 1004.97C2071.73 1007.15 2070.24 1009.03 2068.33 1010.39C2066.42 1011.74 2064.15 1012.53 2061.81 1012.64Z" fill="white"/>
<path d="M2081.42 964.605H1854.41C1847.68 964.605 1842.21 970.067 1842.21 976.804V979.551C1842.21 986.289 1847.68 991.751 1854.41 991.751H2081.42C2088.16 991.751 2093.62 986.289 2093.62 979.551V976.804C2093.62 970.067 2088.16 964.605 2081.42 964.605Z" fill="#263238"/>
<path opacity="0.2" d="M2081.42 964.605H1854.41C1847.68 964.605 1842.21 970.067 1842.21 976.804V979.551C1842.21 986.289 1847.68 991.751 1854.41 991.751H2081.42C2088.16 991.751 2093.62 986.289 2093.62 979.551V976.804C2093.62 970.067 2088.16 964.605 2081.42 964.605Z" fill="white"/>
<path d="M2027.57 1229.68H1839.53C1837.18 1229.55 1834.92 1228.76 1833.01 1227.39C1831.09 1226.02 1829.61 1224.13 1828.74 1221.95L1816.79 1196.72H2050.31L2038.37 1221.95C2037.49 1224.13 2036.01 1226.02 2034.1 1227.39C2032.19 1228.76 2029.92 1229.55 2027.57 1229.68Z" fill="#263238"/>
<path opacity="0.5" d="M2027.57 1229.68H1839.53C1837.18 1229.55 1834.92 1228.76 1833.01 1227.39C1831.09 1226.02 1829.61 1224.13 1828.74 1221.95L1816.79 1196.72H2050.31L2038.37 1221.95C2037.49 1224.13 2036.01 1226.02 2034.1 1227.39C2032.19 1228.76 2029.92 1229.55 2027.57 1229.68Z" fill="white"/>
<path d="M2047.18 1181.58H1820.18C1813.44 1181.58 1807.98 1187.04 1807.98 1193.78V1196.53C1807.98 1203.26 1813.44 1208.73 1820.18 1208.73H2047.18C2053.92 1208.73 2059.38 1203.26 2059.38 1196.53V1193.78C2059.38 1187.04 2053.92 1181.58 2047.18 1181.58Z" fill="#263238"/>
<path opacity="0.2" d="M2047.18 1181.58H1820.18C1813.44 1181.58 1807.98 1187.04 1807.98 1193.78V1196.53C1807.98 1203.26 1813.44 1208.73 1820.18 1208.73H2047.18C2053.92 1208.73 2059.38 1203.26 2059.38 1196.53V1193.78C2059.38 1187.04 2053.92 1181.58 2047.18 1181.58Z" fill="white"/>
<path d="M1993.27 1516.91H1805.49C1803.14 1516.81 1800.88 1516.03 1798.96 1514.67C1797.05 1513.31 1795.56 1511.43 1794.69 1509.25L1782.75 1483.7H2016.01L2004.13 1509.25C2003.25 1511.43 2001.76 1513.32 1999.83 1514.68C1997.91 1516.04 1995.63 1516.81 1993.27 1516.91Z" fill="#263238"/>
<path opacity="0.5" d="M1993.27 1516.91H1805.49C1803.14 1516.81 1800.88 1516.03 1798.96 1514.67C1797.05 1513.31 1795.56 1511.43 1794.69 1509.25L1782.75 1483.7H2016.01L2004.13 1509.25C2003.25 1511.43 2001.76 1513.32 1999.83 1514.68C1997.91 1516.04 1995.63 1516.81 1993.27 1516.91Z" fill="white"/>
<path d="M2012.88 1468.88H1785.88C1779.14 1468.88 1773.68 1474.34 1773.68 1481.08V1483.83C1773.68 1490.56 1779.14 1496.03 1785.88 1496.03H2012.88C2019.62 1496.03 2025.08 1490.56 2025.08 1483.83V1481.08C2025.08 1474.34 2019.62 1468.88 2012.88 1468.88Z" fill="#263238"/>
<path opacity="0.2" d="M2012.88 1468.88H1785.88C1779.14 1468.88 1773.68 1474.34 1773.68 1481.08V1483.83C1773.68 1490.56 1779.14 1496.03 1785.88 1496.03H2012.88C2019.62 1496.03 2025.08 1490.56 2025.08 1483.83V1481.08C2025.08 1474.34 2019.62 1468.88 2012.88 1468.88Z" fill="white"/>
<path d="M1959.04 1804.21H1771.25C1768.9 1804.1 1766.63 1803.33 1764.7 1801.97C1762.78 1800.61 1761.28 1798.73 1760.39 1796.55L1748.51 1771H1981.78L1969.83 1796.55C1968.96 1798.73 1967.48 1800.61 1965.57 1801.97C1963.65 1803.33 1961.38 1804.11 1959.04 1804.21Z" fill="#263238"/>
<path opacity="0.5" d="M1959.04 1804.21H1771.25C1768.9 1804.1 1766.63 1803.33 1764.7 1801.97C1762.78 1800.61 1761.28 1798.73 1760.39 1796.55L1748.51 1771H1981.78L1969.83 1796.55C1968.96 1798.73 1967.48 1800.61 1965.57 1801.97C1963.65 1803.33 1961.38 1804.11 1959.04 1804.21Z" fill="white"/>
<path d="M1978.65 1756.18H1751.64C1744.91 1756.18 1739.44 1761.64 1739.44 1768.38V1771.12C1739.44 1777.86 1744.91 1783.32 1751.64 1783.32H1978.65C1985.38 1783.32 1990.85 1777.86 1990.85 1771.12V1768.38C1990.85 1761.64 1985.38 1756.18 1978.65 1756.18Z" fill="#263238"/>
<path opacity="0.2" d="M1978.65 1756.18H1751.64C1744.91 1756.18 1739.44 1761.64 1739.44 1768.38V1771.12C1739.44 1777.86 1744.91 1783.32 1751.64 1783.32H1978.65C1985.38 1783.32 1990.85 1777.86 1990.85 1771.12V1768.38C1990.85 1761.64 1985.38 1756.18 1978.65 1756.18Z" fill="white"/>
<path d="M1924.8 2091.51H1736.95C1734.61 2091.4 1732.35 2090.62 1730.43 2089.26C1728.52 2087.9 1727.04 2086.02 1726.16 2083.84L1714.21 2058.3H1947.54L1935.6 2083.84C1934.73 2086.03 1933.24 2087.91 1931.33 2089.27C1929.41 2090.63 1927.15 2091.41 1924.8 2091.51Z" fill="#263238"/>
<path opacity="0.5" d="M1924.8 2091.51H1736.95C1734.61 2091.4 1732.35 2090.62 1730.43 2089.26C1728.52 2087.9 1727.04 2086.02 1726.16 2083.84L1714.21 2058.3H1947.54L1935.6 2083.84C1934.73 2086.03 1933.24 2087.91 1931.33 2089.27C1929.41 2090.63 1927.15 2091.41 1924.8 2091.51Z" fill="white"/>
<path d="M1944.41 2043.48H1717.41C1710.67 2043.48 1705.21 2048.94 1705.21 2055.68V2058.42C1705.21 2065.16 1710.67 2070.62 1717.41 2070.62H1944.41C1951.15 2070.62 1956.61 2065.16 1956.61 2058.42V2055.68C1956.61 2048.94 1951.15 2043.48 1944.41 2043.48Z" fill="#263238"/>
<path opacity="0.2" d="M1944.41 2043.48H1717.41C1710.67 2043.48 1705.21 2048.94 1705.21 2055.68V2058.42C1705.21 2065.16 1710.67 2070.62 1717.41 2070.62H1944.41C1951.15 2070.62 1956.61 2065.16 1956.61 2058.42V2055.68C1956.61 2048.94 1951.15 2043.48 1944.41 2043.48Z" fill="white"/>
<path d="M1938.28 2305.87H1879.2L2071.33 787.614H2130.41L1938.28 2305.87Z" fill="#263238"/>
<path opacity="0.7" d="M1938.28 2305.87H1879.2L2071.33 787.614H2130.41L1938.28 2305.87Z" fill="white"/>
<path d="M2206.93 795.342H1832.51C1830.17 795.216 1827.91 794.429 1826 793.072C1824.09 791.716 1822.6 789.845 1821.71 787.677L1809.77 762.128H2229.67L2217.79 787.677C2216.85 789.828 2215.35 791.681 2213.43 793.033C2211.52 794.385 2209.27 795.184 2206.93 795.342Z" fill="#263238"/>
<path opacity="0.5" d="M2206.93 795.342H1832.51C1830.17 795.216 1827.91 794.429 1826 793.072C1824.09 791.716 1822.6 789.845 1821.71 787.677L1809.77 762.128H2229.67L2217.79 787.677C2216.85 789.828 2215.35 791.681 2213.43 793.033C2211.52 794.385 2209.27 795.184 2206.93 795.342Z" fill="white"/>
<path d="M2226.54 747.31H1812.96C1806.22 747.31 1800.76 752.772 1800.76 759.51V762.256C1800.76 768.994 1806.22 774.456 1812.96 774.456H2226.54C2233.27 774.456 2238.74 768.994 2238.74 762.256V759.51C2238.74 752.772 2233.27 747.31 2226.54 747.31Z" fill="#263238"/>
<path opacity="0.2" d="M2226.54 747.31H1812.96C1806.22 747.31 1800.76 752.772 1800.76 759.51V762.256C1800.76 768.994 1806.22 774.456 1812.96 774.456H2226.54C2233.27 774.456 2238.74 768.994 2238.74 762.256V759.51C2238.74 752.772 2233.27 747.31 2226.54 747.31Z" fill="white"/>
<path d="M2233.12 789.019L2184 754.4L2161 801.602C2161 801.602 2191.92 830.6 2223.47 815.526L2233.12 789.019Z" fill="#EBB376"/>
<path d="M2141.59 749.098L2132.9 788.38L2161 801.602L2184 754.4L2141.59 749.098Z" fill="#EBB376"/>
<path d="M2568.89 679.797C2559.25 694.679 2549.41 708.922 2539.13 722.847C2531.4 733.13 2523.48 743.286 2515.18 753.25C2512.69 756.316 2510.13 759.318 2507.58 762.32C2502.53 768.132 2497.42 773.945 2492.06 779.693C2485.67 786.847 2478.45 793.873 2470.98 800.771L2466.7 804.604C2461.12 809.763 2455.26 814.604 2449.13 819.103C2440.02 825.929 2430.03 831.494 2419.43 835.646C2416.3 836.867 2413.07 837.849 2409.79 838.584C2406.66 839.35 2403.97 839.734 2401.1 840.245C2396.04 840.935 2390.94 841.361 2385.84 841.522C2376.19 841.841 2367.18 841.522 2358.31 841.075C2340.68 840.117 2323.69 837.754 2306.89 835.263C2285.43 831.877 2264.35 827.662 2243.46 822.488C2235.73 820.7 2228.07 818.72 2220.4 816.676L2208.21 813.29C2204.32 812.152 2200.93 809.721 2198.61 806.401C2196.29 803.08 2195.17 799.066 2195.43 795.023C2195.52 793.728 2195.73 792.444 2196.07 791.19C2196.98 787.872 2198.85 784.894 2201.44 782.624C2204.03 780.354 2207.22 778.891 2210.63 778.416C2211.71 778.289 2212.81 778.289 2213.89 778.416H2214.21H2218.68C2228.33 778.735 2237.84 779.119 2247.61 779.374C2269.14 780.141 2290.6 780.715 2311.49 781.035C2327.52 781.035 2343.42 781.035 2358.82 780.524C2366.48 780.204 2373.95 779.566 2380.73 778.608C2385.8 778.25 2390.77 777.018 2395.42 774.967C2399.86 772.417 2404.01 769.397 2407.81 765.961C2411.64 762.639 2415.66 758.935 2419.62 754.911C2420.77 753.825 2421.86 752.675 2422.95 751.526C2425.18 749.226 2427.35 746.799 2429.33 744.372C2434.83 738.368 2440.13 732.108 2445.43 725.657C2447.79 722.719 2450.22 719.781 2452.58 716.779C2464.08 702.28 2475.51 687.014 2486.56 671.621C2494.1 661.21 2501.51 650.671 2508.66 640.323L2509.05 639.685C2512.61 634.48 2517.5 630.331 2523.23 627.677L2549.99 628.826L2556.95 629.209C2557.68 629.61 2558.38 630.058 2559.06 630.551C2566.78 635.864 2572.13 643.982 2573.97 653.177C2575.81 662.373 2573.99 671.922 2568.89 679.797Z" fill="#FFB573"/>
<path d="M2552.22 722.208C2540.16 739.632 2526.63 756 2511.79 771.134C2507.83 775.222 2503.62 779.438 2499.02 783.909L2491.86 779.885L2429.2 744.627L2423.39 741.37C2423.39 741.37 2427.48 734.982 2433.55 726.104C2441.15 714.607 2451.94 698.192 2461.97 682.735C2469.76 670.599 2477.05 659.038 2481.84 650.798C2487.16 641.67 2494.18 633.648 2502.53 627.166L2523.1 627.868L2549.86 629.018L2556.82 629.401L2574.64 630.295C2582.88 649.329 2581.09 679.541 2552.22 722.208Z" fill="#407BFF"/>
<path opacity="0.7" d="M2552.22 722.208C2540.16 739.632 2526.63 756 2511.79 771.134C2507.83 775.222 2503.62 779.438 2499.02 783.909L2491.86 779.885L2429.2 744.627L2423.39 741.37C2423.39 741.37 2427.48 734.982 2433.55 726.104C2441.15 714.607 2451.94 698.192 2461.97 682.735C2469.76 670.599 2477.05 659.038 2481.84 650.798C2487.16 641.67 2494.18 633.648 2502.53 627.166L2523.1 627.868L2549.86 629.018L2556.82 629.401L2574.64 630.295C2582.88 649.329 2581.09 679.541 2552.22 722.208Z" fill="white"/>
<path d="M1618.15 2304.78C1618.18 2305.14 1618.18 2305.51 1618.15 2305.87C1618.18 2306.04 1618.18 2306.21 1618.15 2306.38C1618.07 2306.71 1617.97 2307.03 1617.83 2307.34C1617.64 2307.77 1617.41 2308.17 1617.13 2308.55C1616.85 2309 1616.53 2309.43 1616.17 2309.83C1613.15 2312.76 1609.6 2315.08 1605.69 2316.66L1602.56 2318C1599.5 2319.28 1596.18 2320.49 1592.15 2321.71C1589.73 2322.47 1587.17 2323.18 1584.42 2323.94C1539.71 2336.01 1453.81 2345.72 1345.8 2351.09L1333.02 2351.73L1312.07 2352.62L1290.55 2353.39L1275.66 2353.9C1263.85 2354.22 1251.9 2354.54 1239.77 2354.73H1235.36H1227.12H1219.14C1207.96 2354.73 1196.65 2354.73 1185.28 2355.11H1154.43C1117.13 2355.11 1080.79 2354.66 1045.85 2353.71L1030.39 2353.2C1025.92 2353.2 1021.45 2353.2 1017.04 2352.81L996.477 2352.11L969.715 2350.96L962.752 2350.58L944.932 2349.68C915.614 2348.02 888.085 2346.11 862.792 2343.81C802.241 2338.44 754.208 2331.48 724.508 2323.43L721.953 2322.73L719.142 2321.9C714.352 2320.49 710.2 2319.02 706.368 2317.62C705.026 2317.04 703.749 2316.53 702.599 2315.96C700.691 2315.07 698.835 2314.06 697.042 2312.96C696.432 2312.6 695.855 2312.2 695.318 2311.74L693.913 2310.66L692.571 2309.32C692.213 2308.94 691.892 2308.54 691.613 2308.1C691.143 2307.42 690.797 2306.67 690.591 2305.87V2305.16C690.559 2304.87 690.559 2304.57 690.591 2304.27C690.591 2283.45 804.476 2265.56 967.607 2257.71L980.701 2257.07L998.33 2256.36L1025.41 2255.41L1040.04 2254.96L1074.4 2254.13H1076.25H1086.15H1092.86C1102.95 2254.13 1113.11 2254.13 1123.39 2253.81H1126.46C1135.72 2253.81 1145.05 2253.81 1154.43 2253.81C1192.25 2253.81 1228.97 2254.32 1264.17 2255.22L1289.72 2256.05L1300.57 2256.43H1301.66L1313.54 2256.88L1321.33 2257.2L1341.52 2258.09L1360.68 2259.05C1397.21 2261.03 1430.94 2263.52 1461.34 2266.46C1557.41 2275.97 1618.15 2289.58 1618.15 2304.78Z" fill="#263238"/>
<path opacity="0.4" d="M690.463 2304.78C690.463 2283.96 804.348 2266.07 967.479 2258.22L980.573 2257.58L998.202 2256.88C1022.66 2255.92 1048.09 2255.22 1074.27 2254.64H1086.03H1092.73C1112.85 2254.32 1133.42 2254.19 1154.31 2254.19C1192.12 2254.19 1228.85 2254.7 1264.04 2255.6L1289.59 2256.43C1353.78 2258.54 1412.03 2262.18 1461.09 2266.9C1557.34 2276.23 1618.09 2289.83 1618.09 2305.23C1618.09 2312 1606.01 2318.51 1584.11 2324.39C1543.64 2314.91 1502.52 2308.5 1461.09 2305.23C1412.03 2300.5 1353.78 2296.86 1289.59 2294.75L1264.04 2293.92C1228.85 2293.03 1192.12 2292.52 1154.31 2292.52C1133.42 2292.52 1112.85 2292.52 1092.73 2292.96H1085.84H1074.08C1047.89 2293.54 1022.47 2294.24 998.01 2295.2L980.381 2295.9L967.287 2296.54C857.235 2301.84 769.665 2311.68 724.571 2323.94C702.599 2318 690.463 2311.61 690.463 2304.78Z" fill="white"/>
<path d="M1115.28 2281.21C1111.77 2285.43 1108.51 2289.07 1105.25 2292.58C1103.59 2294.31 1101.99 2296.03 1100.27 2297.75C1097.2 2300.88 1094.2 2304.14 1091.07 2306.95C1089.03 2309 1086.92 2310.98 1084.69 2312.96C1073.86 2322.97 1062.41 2332.27 1050.39 2340.8L1048.34 2342.21C1046.55 2343.49 1044.7 2344.7 1042.78 2345.98C1038.76 2348.66 1034.61 2351.28 1030.01 2353.71C1025.54 2353.71 1021.07 2353.71 1016.66 2353.32L996.094 2352.62L969.331 2351.47L962.369 2351.09L944.549 2350.19C915.231 2348.53 887.702 2346.62 862.409 2344.32L872.373 2341.12C897.922 2332.82 923.471 2325.03 948.381 2316.85C954.768 2314.74 960.709 2312.7 966.393 2310.47C971.291 2308.84 976.002 2306.7 980.445 2304.08C983.256 2302.42 986.194 2300.56 989.132 2298.58C990.665 2297.56 992.262 2296.48 993.859 2295.26C998.457 2292.01 1003.06 2288.37 1007.59 2284.6C1016.79 2277.06 1025.79 2268.76 1034.74 2260.13L1039.53 2255.41C1042.4 2252.66 1045.21 2249.91 1047.96 2247.04L1060.73 2234.26L1061.5 2233.43C1065.35 2229.43 1070.08 2226.37 1075.3 2224.48C1080.53 2222.6 1086.13 2221.95 1091.65 2222.58C1099.7 2223.5 1107.21 2227.13 1112.93 2232.87C1118.65 2238.62 1122.25 2246.13 1123.14 2254.19C1123.7 2258.99 1123.29 2263.86 1121.95 2268.5C1120.6 2273.14 1118.33 2277.46 1115.28 2281.21Z" fill="#FFB573"/>
<path d="M1100.97 2207.89C1065.33 2207.06 986.002 2295.65 986.002 2295.65L1051.47 2353.64C1051.47 2353.64 1109.91 2328.09 1124.22 2286.26C1138.53 2244.42 1100.97 2207.89 1100.97 2207.89Z" fill="#407BFF"/>
<path opacity="0.7" d="M1124.16 2286.26C1117.37 2303.22 1106.03 2317.98 1091.39 2328.92C1079.09 2338.75 1065.64 2347.05 1051.34 2353.64L1033.78 2338.06L985.875 2295.65C985.875 2295.65 1065.14 2207.06 1100.85 2207.89C1100.97 2207.89 1138.66 2244.17 1124.16 2286.26Z" fill="white"/>
<path opacity="0.1" d="M1091.58 2328.92C1079.28 2338.75 1065.84 2347.05 1051.54 2353.64L1033.97 2338.06C1043.3 2310.75 1059.99 2286.55 1082.19 2268.12C1089.99 2282.68 1092.54 2313.66 1091.58 2328.92Z" fill="black"/>
<path d="M1347.14 2245.25C1346.75 2246.08 1346.37 2246.85 1346.05 2247.68C1345.03 2249.91 1344.07 2252.15 1343.11 2254.45C1342.54 2255.63 1342.03 2256.85 1341.58 2258.09C1341.45 2258.33 1341.34 2258.59 1341.26 2258.86C1340.79 2259.81 1340.39 2260.79 1340.05 2261.79C1338.96 2264.35 1337.94 2266.97 1336.92 2269.65C1335.9 2272.33 1334.43 2276.36 1333.21 2279.74C1333.21 2279.74 1333.21 2280.06 1333.21 2280.19C1332.32 2282.62 1331.49 2285.04 1330.66 2287.54C1329.83 2290.03 1328.93 2292.52 1328.17 2295.01C1328.14 2295.26 1328.14 2295.52 1328.17 2295.77C1327.4 2298.07 1326.63 2300.37 1325.93 2302.67C1324.46 2307.53 1322.99 2312.38 1321.59 2317.36L1321.21 2318.7C1318.14 2329.56 1315.27 2340.61 1312.58 2351.73C1312.55 2351.96 1312.55 2352.2 1312.58 2352.43L1291.06 2353.2L1276.18 2353.71C1264.36 2354.03 1252.41 2354.35 1240.28 2354.54H1235.87H1227.63H1219.65C1208.47 2354.54 1197.17 2354.54 1185.8 2354.92H1154.95C1117.64 2354.92 1081.3 2354.47 1046.36 2353.52L1047.32 2348.79C1047.32 2347.77 1047.77 2346.81 1048.02 2345.85C1048.28 2344.89 1048.41 2343.93 1048.66 2342.98C1048.79 2342.51 1048.9 2342.04 1048.98 2341.57C1051.83 2328.8 1054.81 2317.15 1057.92 2306.63C1059.07 2302.93 1060.09 2299.42 1061.18 2295.9C1061.56 2294.82 1061.88 2293.73 1062.27 2292.64C1063.1 2290.03 1063.93 2287.53 1064.76 2285.11L1066.1 2281.21C1066.8 2279.23 1067.5 2277.25 1068.21 2275.4C1068.91 2273.55 1069.8 2270.99 1070.57 2269.01L1072.68 2263.65L1076.51 2254.39C1079.45 2247.36 1082.32 2241.23 1085 2235.8C1085.52 2234.9 1085.96 2233.95 1086.41 2233.05L1089.09 2227.88L1092.22 2222.19C1092.42 2221.91 1092.59 2221.61 1092.73 2221.3C1093.82 2219.32 1094.91 2217.53 1095.86 2216L1098.35 2212.04L1101.36 2207.69C1120.31 2205.88 1139.36 2205.26 1158.39 2205.84C1162.42 2205.84 1166.51 2206.16 1170.66 2206.42C1174.81 2206.67 1178.58 2207.06 1182.92 2207.57C1192.06 2208.59 1202.08 2209.99 1212.75 2211.72L1232.81 2215.17C1239.51 2216.38 1246.16 2217.59 1252.54 2218.87L1255.93 2219.57C1260.97 2220.53 1265.89 2221.55 1270.43 2222.51C1273.56 2223.15 1276.81 2223.85 1279.75 2224.62C1281.35 2225 1282.88 2225.32 1284.42 2225.77L1289.08 2226.92C1294.89 2228.39 1300.64 2229.99 1306.07 2231.52L1311.37 2233.12L1321.27 2236.18L1329.96 2238.99C1339.86 2242.25 1346.44 2244.68 1347.39 2245L1347.14 2245.25Z" fill="#407BFF"/>
<path opacity="0.7" d="M1347.2 2245.25C1346.82 2246.08 1346.44 2246.85 1346.12 2247.68C1345.09 2249.91 1344.07 2252.15 1343.18 2254.45C1342.58 2255.64 1342.07 2256.85 1341.65 2258.09C1341.62 2258.34 1341.62 2258.6 1341.65 2258.86C1341.18 2259.81 1340.77 2260.79 1340.43 2261.79C1339.35 2264.35 1338.32 2266.97 1337.3 2269.65C1336.28 2272.33 1334.75 2276.36 1333.6 2279.74C1333.6 2279.74 1333.6 2280.06 1333.6 2280.19C1332.7 2282.62 1331.87 2285.04 1331.04 2287.53C1330.21 2290.03 1329.32 2292.52 1328.55 2295.01V2295.46C1327.78 2297.75 1327.02 2300.05 1326.32 2302.35C1324.85 2307.21 1323.38 2312.06 1321.97 2317.04L1321.59 2318.39C1318.52 2329.24 1315.65 2340.29 1312.97 2351.41C1312.94 2351.64 1312.94 2351.88 1312.97 2352.11L1291.44 2352.88L1276.56 2353.39C1264.74 2353.71 1252.8 2354.03 1240.66 2354.22H1236.26H1228.02H1220.03C1208.85 2354.22 1197.55 2354.22 1186.18 2354.6H1155.33C1118.03 2354.6 1081.68 2354.15 1046.75 2353.2L1047.7 2348.53C1048.15 2346.49 1048.53 2344.57 1048.98 2342.66C1049.11 2342.19 1049.22 2341.73 1049.3 2341.25C1052.15 2328.48 1055.13 2316.83 1058.24 2306.31C1059.39 2302.61 1060.41 2299.1 1061.5 2295.58C1061.88 2294.5 1062.2 2293.41 1062.59 2292.33C1063.42 2289.71 1064.25 2287.22 1065.08 2284.79L1066.42 2280.89C1067.12 2278.91 1067.82 2276.93 1068.53 2275.08C1069.23 2273.23 1070.12 2270.67 1070.89 2268.69L1073 2263.33L1076.83 2254.07C1079.77 2247.04 1082.64 2240.91 1085.26 2235.48C1085.77 2234.58 1086.22 2233.63 1086.67 2232.73L1089.35 2227.56L1092.48 2221.87C1092.67 2221.59 1092.84 2221.29 1092.99 2220.98L1096.12 2215.68L1098.61 2211.72L1101.61 2207.37C1120.57 2205.56 1139.62 2204.94 1158.65 2205.52C1162.67 2205.52 1166.76 2205.84 1170.91 2206.1C1175.07 2206.35 1178.83 2206.74 1183.18 2207.25C1192.31 2208.27 1202.34 2209.67 1213.01 2211.4L1233.06 2214.85C1239.77 2216.06 1246.41 2217.27 1252.8 2218.55L1256.18 2219.26C1261.23 2220.21 1266.15 2221.24 1270.68 2222.19C1273.81 2222.83 1277.07 2223.53 1280.01 2224.3C1281.6 2224.68 1283.14 2225 1284.67 2225.45L1289.33 2226.54C1295.15 2228.01 1300.89 2229.6 1306.32 2231.2L1311.62 2232.8L1321.53 2235.86L1330.21 2238.67C1340.11 2241.93 1346.69 2244.36 1347.65 2244.68L1347.2 2245.25Z" fill="white"/>
<path d="M1231.66 2129.83C1231.66 2129.83 1233.64 2197.79 1240.09 2207.89C1246.54 2217.98 1269.85 2222.64 1269.85 2222.64C1269.85 2222.64 1213.84 2250.49 1187.65 2245.25C1161.46 2240.01 1148.88 2205.84 1148.88 2205.84C1148.88 2205.84 1167.15 2206.54 1171.62 2204.05C1176.09 2201.56 1168.1 2156.53 1168.1 2156.53L1231.66 2129.83Z" fill="#EBB376"/>
<path opacity="0.2" d="M1173.47 2173.46L1171.17 2176.72C1169.76 2166.18 1168.1 2156.53 1168.1 2156.53L1231.59 2129.83C1231.59 2129.83 1233.25 2184.57 1237.98 2203.1C1212.3 2205.78 1182.28 2186.74 1173.47 2173.46Z" fill="black"/>
<path d="M1209.94 2015.69C1227.31 2024.76 1252.16 2054.02 1224.95 2063.79C1197.74 2073.56 1180.11 2000.17 1209.94 2015.69Z" fill="#263238"/>
<path d="M1132.72 2128.75C1146.05 2145.02 1160.56 2160.29 1176.15 2174.42C1187.35 2183.91 1201.11 2189.88 1215.69 2191.6C1266.79 2197.99 1299.87 2143.57 1279.24 2098.66C1276.85 2093.52 1274.19 2088.51 1271.26 2083.65C1248.84 2046.73 1205.72 2007.96 1163.06 2020.61C1152.3 2023.8 1142.53 2029.67 1134.66 2037.66C1126.79 2045.65 1121.07 2055.51 1118.04 2066.31C1115.01 2077.11 1114.77 2088.5 1117.33 2099.42C1119.9 2110.34 1125.19 2120.43 1132.72 2128.75Z" fill="#EBB376"/>
<path d="M1153.73 2125.68L1156.09 2133.35C1160.58 2148.09 1167.44 2162.01 1176.41 2174.54C1187.61 2184.03 1201.36 2190.01 1215.94 2191.73C1267.04 2198.11 1300.13 2143.69 1279.5 2098.79C1277.11 2093.65 1274.44 2088.64 1271.51 2083.78C1271.51 2083.78 1275.34 2101.79 1272.02 2110.16C1272.02 2110.16 1252.86 2105.24 1243.41 2113.1C1243.41 2113.1 1223.1 2107.54 1205.85 2129.07C1197.97 2134.22 1188.63 2136.68 1179.23 2136.07C1169.83 2135.46 1160.88 2131.81 1153.73 2125.68Z" fill="#263238"/>
<path opacity="0.5" d="M1153.73 2125.68L1156.09 2133.35C1160.58 2148.09 1167.44 2162.01 1176.41 2174.54C1187.61 2184.03 1201.36 2190.01 1215.94 2191.73C1267.04 2198.11 1300.13 2143.69 1279.5 2098.79C1277.11 2093.65 1274.44 2088.64 1271.51 2083.78C1271.51 2083.78 1275.34 2101.79 1272.02 2110.16C1272.02 2110.16 1252.86 2105.24 1243.41 2113.1C1243.41 2113.1 1223.1 2107.54 1205.85 2129.07C1197.97 2134.22 1188.63 2136.68 1179.23 2136.07C1169.83 2135.46 1160.88 2131.81 1153.73 2125.68Z" fill="white"/>
<path d="M1079.45 2104.86C1056.26 2085.38 1078.23 2057.21 1102.51 2047.37C1105.13 2046.34 1107.36 2044.5 1108.89 2042.14L1137.7 2086.4C1135.08 2087.61 1132.46 2088.83 1129.97 2089.79C1129.97 2089.79 1163.63 2119.55 1160.37 2149.19C1113.36 2162.47 1068.01 2138.26 1079.45 2104.86Z" fill="#263238"/>
<path d="M1142.87 2171.67C1147.81 2175.02 1153.36 2177.35 1159.21 2178.53C1165.05 2179.7 1171.07 2179.69 1176.92 2178.5C1178.05 2178.29 1179.16 2177.99 1180.24 2177.61C1189.95 2168.48 1161.08 2136.35 1159.74 2134.69C1156.65 2133.75 1153.39 2133.49 1150.19 2133.93C1147 2134.37 1143.93 2135.5 1141.21 2137.24C1138.47 2139.27 1136.26 2141.94 1134.8 2145.02C1133.33 2148.1 1132.65 2151.49 1132.82 2154.9C1132.98 2158.31 1133.99 2161.62 1135.74 2164.55C1137.49 2167.47 1139.94 2169.92 1142.87 2171.67Z" fill="#EBB376"/>
<path d="M1198 2093.75C1200.36 2096.81 1203.94 2098.02 1205.98 2096.43C1208.02 2094.83 1207.64 2091 1205.21 2087.93C1202.79 2084.87 1199.21 2083.65 1197.23 2085.25C1195.25 2086.85 1195.57 2090.68 1198 2093.75Z" fill="#263238"/>
<path d="M1232.74 2066.09C1235.11 2069.15 1238.68 2070.37 1240.73 2068.77C1242.77 2067.17 1242.39 2063.41 1239.96 2060.28C1237.53 2057.15 1233.96 2056 1231.98 2057.66C1230 2059.32 1230.12 2063.09 1232.74 2066.09Z" fill="#263238"/>
<path d="M1222.71 2076.44C1233.62 2082.51 1245.31 2087.04 1257.46 2089.91C1255.93 2098.98 1244.69 2104.03 1244.69 2104.03L1222.71 2076.44Z" fill="#D58745"/>
<path d="M1184.26 2069.98C1183.91 2070.17 1183.61 2070.46 1183.41 2070.81C1183.2 2071.16 1183.1 2071.56 1183.11 2071.96C1183.16 2074.86 1182.53 2077.73 1181.26 2080.34C1180 2082.95 1178.14 2085.22 1175.83 2086.97C1175.34 2087.32 1174.99 2087.84 1174.86 2088.44C1174.73 2089.03 1174.83 2089.64 1175.13 2090.17C1175.29 2090.43 1175.5 2090.65 1175.75 2090.82C1176 2091 1176.28 2091.12 1176.58 2091.19C1176.88 2091.25 1177.18 2091.26 1177.48 2091.2C1177.78 2091.15 1178.07 2091.04 1178.32 2090.87C1181.3 2088.66 1183.7 2085.76 1185.32 2082.43C1186.95 2079.09 1187.74 2075.42 1187.65 2071.71C1187.65 2071.11 1187.41 2070.53 1187 2070.11C1186.58 2069.68 1186.01 2069.43 1185.41 2069.41C1184.98 2069.48 1184.58 2069.68 1184.26 2069.98Z" fill="#263238"/>
<path d="M1238.17 2041.11C1238.54 2040.84 1238.81 2040.46 1238.94 2040.03C1239.15 2039.46 1239.12 2038.83 1238.87 2038.28C1238.62 2037.73 1238.16 2037.31 1237.6 2037.09C1234.2 2035.77 1230.54 2035.29 1226.92 2035.71C1223.31 2036.12 1219.85 2037.4 1216.84 2039.45C1216.44 2039.84 1216.2 2040.37 1216.15 2040.92C1216.11 2041.48 1216.28 2042.03 1216.61 2042.48C1216.95 2042.93 1217.44 2043.23 1217.98 2043.35C1218.53 2043.46 1219.1 2043.37 1219.58 2043.09C1221.99 2041.5 1224.75 2040.52 1227.62 2040.23C1230.49 2039.94 1233.39 2040.36 1236.06 2041.43C1236.41 2041.56 1236.79 2041.6 1237.16 2041.54C1237.53 2041.49 1237.87 2041.34 1238.17 2041.11Z" fill="#263238"/>
<path d="M1244.49 2146.12C1245.74 2145.65 1246.96 2145.09 1248.14 2144.46L1251.26 2119.29C1251.26 2119.29 1249.73 2119.29 1247.37 2119.29C1239.45 2119.29 1221.82 2121.08 1217.09 2130.15C1216.58 2131.19 1216.17 2132.29 1215.88 2133.41C1214.69 2137.47 1214.98 2141.81 1216.71 2145.67C1219.58 2151.04 1227.25 2153.85 1244.49 2146.12Z" fill="#263238"/>
<path d="M1215.88 2133.35L1246.6 2122.23L1247.37 2119.23C1239.45 2119.23 1221.82 2121.02 1217.09 2130.09C1216.58 2131.13 1216.17 2132.22 1215.88 2133.35Z" fill="white"/>
<path d="M1244.49 2146.12C1239.13 2137.18 1224.82 2141.78 1216.71 2145.74C1219.58 2151.04 1227.25 2153.85 1244.49 2146.12Z" fill="#DE5753"/>
<path d="M1079.45 2104.86C1069.99 2097.58 1056.2 2077.97 1074.72 2057.53C1093.24 2037.09 1115.15 2027 1104.8 2012.18C1094.46 1997.36 1112.79 1984.78 1125.69 1994.42C1125.69 1994.42 1156.03 1944.79 1177.62 1982.93C1177.62 1982.93 1198.76 1968.36 1211.73 1984.01C1224.69 1999.66 1227.38 2016.4 1210.32 2022.34C1193.27 2028.28 1191.67 2030.13 1194.61 2040.03C1197.55 2049.93 1182.73 2058.1 1182.73 2058.1C1182.73 2058.1 1191.93 2052.23 1186.69 2045.33C1185.77 2049.7 1183.59 2053.71 1180.42 2056.86C1177.26 2060.01 1173.24 2062.18 1168.87 2063.09C1152.33 2068.26 1159.99 2084.36 1159.99 2084.36C1159.99 2084.36 1151.11 2087.81 1149.2 2075.16C1149.2 2075.16 1142.3 2103.39 1123.65 2110.42C1105 2117.44 1093.5 2115.78 1079.45 2104.86Z" fill="#263238"/>
<path opacity="0.1" d="M1320.69 2318.9C1317.63 2329.75 1314.75 2340.8 1312.07 2351.92C1312.04 2352.15 1312.04 2352.39 1312.07 2352.62L1290.55 2353.39L1275.66 2353.9C1263.85 2354.22 1251.9 2354.54 1239.77 2354.73H1235.36H1227.12H1219.14C1226.88 2340.17 1237.8 2327.53 1251.07 2317.75C1253.44 2315.95 1255.91 2314.31 1258.48 2312.83C1263.8 2309.91 1269.56 2307.9 1275.54 2306.89C1291.58 2304.84 1307.79 2309.15 1320.69 2318.9Z" fill="black"/>
<path d="M1363.55 2297.75C1363.23 2304.01 1361.27 2310.06 1357.87 2315.32C1349.76 2328.09 1341.52 2339.97 1332.89 2351.73L1311.94 2352.62L1290.42 2353.39L1275.54 2353.9C1263.72 2354.22 1251.78 2354.54 1239.64 2354.73C1240.34 2353.96 1240.92 2353.2 1241.56 2352.43C1253.05 2337.93 1264.49 2322.66 1275.54 2307.27C1278.67 2302.99 1281.92 2298.65 1284.73 2294.5C1289.14 2288.11 1293.36 2282.23 1297.51 2276.17L1297.96 2275.53C1302.49 2268.97 1309.07 2264.11 1316.66 2261.69C1324.25 2259.28 1332.43 2259.45 1339.92 2262.18C1342.8 2263.22 1345.52 2264.64 1348.03 2266.39C1353.08 2269.86 1357.16 2274.56 1359.87 2280.05C1362.59 2285.54 1363.86 2291.64 1363.55 2297.75Z" fill="#FFB573"/>
<path d="M1367.19 2297.95C1363.78 2316.98 1356.41 2335.09 1345.54 2351.09L1332.77 2351.73L1311.82 2352.62L1290.29 2353.39L1275.41 2353.9C1263.59 2354.22 1251.65 2354.54 1239.51 2354.73H1235.11H1226.87C1233.96 2344 1242.71 2330.59 1250.95 2317.87C1256.57 2309.06 1261.93 2300.63 1266.28 2293.47L1270.81 2286C1277.93 2273.69 1288.15 2263.45 1300.45 2256.3C1314.57 2248.29 1330.67 2244.43 1346.88 2245.19C1352.33 2248.72 1356.91 2253.44 1360.3 2258.98C1367.17 2270.73 1369.61 2284.55 1367.19 2297.95Z" fill="#407BFF"/>
<path opacity="0.7" d="M1367.19 2297.95C1363.78 2316.98 1356.41 2335.09 1345.54 2351.09L1332.77 2351.73L1311.82 2352.62L1290.29 2353.39L1275.41 2353.9C1263.59 2354.22 1251.65 2354.54 1239.51 2354.73H1235.11H1226.87C1233.96 2344 1242.71 2330.59 1250.95 2317.87C1256.57 2309.06 1261.93 2300.63 1266.28 2293.47L1270.81 2286C1277.93 2273.69 1288.15 2263.45 1300.45 2256.3C1314.57 2248.29 1330.67 2244.43 1346.88 2245.19C1352.33 2248.72 1356.91 2253.44 1360.3 2258.98C1367.17 2270.73 1369.61 2284.55 1367.19 2297.95Z" fill="white"/>
</svg>
