<?xml version="1.0" standalone="no"?>
<!DOCTYPE svg PUBLIC "-//W3C//DTD SVG 20010904//EN"
 "http://www.w3.org/TR/2001/REC-SVG-20010904/DTD/svg10.dtd">
<svg version="1.0" 
xmlns="http://www.w3.org/2000/svg"
 width="800.000000pt" height="600.000000pt" viewBox="0 0 800.000000 600.000000"
 preserveAspectRatio="xMidYMid meet">

<g transform="translate(0.000000,600.000000) scale(0.100000,-0.100000)"
fill="#1D8CE0" stroke="none">
<path d="M3934 4929 c-552 -40 -1100 -331 -1439 -764 -294 -376 -439 -795
-439 -1265 0 -205 16 -330 65 -519 193 -751 826 -1338 1594 -1481 638 -119
1313 81 1774 524 286 276 463 574 571 961 25 91 51 259 61 393 24 346 -45 688
-205 1017 -320 654 -958 1082 -1692 1135 -76 5 -148 9 -159 8 -11 0 -70 -4
-131 -9z m351 -59 c377 -42 730 -182 1012 -402 512 -400 793 -998 770 -1638
-11 -309 -87 -595 -229 -860 -268 -501 -746 -870 -1288 -995 -462 -106 -916
-55 -1335 150 -596 292 -1006 867 -1091 1529 -19 150 -14 433 10 571 105 600
476 1123 1002 1411 345 188 772 275 1149 234z"/>
<path d="M4054 4755 c-23 -34 -10 -59 46 -94 51 -31 60 -47 38 -69 -19 -19
-47 -14 -73 13 l-25 24 0 -24 c0 -20 7 -25 35 -31 51 -9 84 2 91 31 9 37 -1
52 -50 83 -32 19 -45 34 -46 50 0 18 5 22 33 22 25 0 37 -6 45 -22 11 -23 11
-23 11 3 1 19 -5 28 -21 33 -44 11 -68 6 -84 -19z"/>
<path d="M4227 4764 c-4 -4 -7 -14 -7 -21 0 -12 2 -12 15 0 8 9 24 13 36 10
20 -6 21 -10 14 -71 -4 -37 -11 -76 -15 -88 -10 -27 -4 -34 28 -34 19 0 22 3
14 13 -10 12 2 164 14 177 3 2 19 -3 35 -12 23 -14 29 -14 29 -3 0 8 -3 16 -7
18 -15 9 -149 18 -156 11z"/>
<path d="M3767 4740 c-14 -11 -31 -36 -37 -54 -24 -73 44 -147 121 -132 56 10
63 19 60 73 -1 26 -3 49 -5 50 -1 1 -12 0 -24 -4 -15 -4 -19 -9 -13 -17 5 -6
12 -26 16 -43 6 -29 4 -34 -19 -43 -56 -21 -106 25 -106 97 0 71 64 109 112
66 17 -15 18 -15 18 5 0 20 -6 22 -49 22 -33 0 -56 -6 -74 -20z"/>
<path d="M4444 4718 c0 -13 -7 -52 -15 -87 l-13 -63 27 -24 c34 -29 87 -32
110 -6 8 9 23 47 32 85 10 37 22 67 27 67 5 0 6 5 3 10 -3 6 -13 10 -21 10 -8
0 -12 -4 -9 -10 10 -17 -25 -134 -47 -152 -26 -23 -40 -23 -69 1 -22 18 -22
20 -10 90 7 39 17 74 22 77 13 8 1 24 -19 24 -11 0 -17 -8 -18 -22z"/>
<path d="M3633 4723 c-8 -3 -9 -10 -3 -21 17 -32 39 -112 31 -112 -5 0 -38 20
-74 45 -38 26 -78 45 -93 45 -26 0 -26 0 -6 -17 20 -18 52 -111 52 -152 0 -13
6 -21 16 -21 11 0 14 5 9 18 -14 32 -35 105 -35 119 0 9 31 -8 80 -42 44 -31
80 -50 80 -43 -1 39 -47 184 -57 181z"/>
<path d="M4684 4672 c9 -15 -53 -172 -67 -172 -29 -1 79 -40 110 -40 45 0 69
14 88 50 38 74 1 128 -115 165 -15 5 -20 4 -16 -3z m91 -47 c30 -30 32 -67 5
-111 -23 -37 -67 -52 -99 -34 -26 13 -26 13 0 80 38 101 50 109 94 65z"/>
<path d="M3387 4643 c-16 -4 -17 -7 -4 -21 7 -10 27 -52 43 -94 16 -43 31 -78
34 -78 3 0 12 5 20 10 10 7 11 12 4 18 -12 8 -64 135 -64 157 0 15 -2 16 -33
8z"/>
<path d="M3211 4558 c-25 -12 -39 -24 -32 -26 14 -5 81 -134 81 -157 0 -8 4
-15 8 -15 14 0 48 29 35 30 -15 0 -46 57 -38 70 4 6 28 -1 57 -16 35 -18 58
-24 77 -19 l26 7 -35 12 c-58 21 -94 42 -81 50 15 9 14 59 -1 74 -18 18 -48
15 -97 -10z m77 -19 c11 -17 11 -25 -3 -45 -8 -13 -20 -24 -25 -24 -14 0 -42
60 -36 76 8 21 49 17 64 -7z"/>
<path d="M4875 4500 c-22 -44 -46 -81 -55 -82 -16 -4 94 -68 116 -68 6 0 16 6
22 13 9 10 4 12 -21 9 -22 -2 -41 3 -56 15 -23 19 -23 20 -7 51 19 37 38 40
67 11 17 -17 23 -19 30 -8 13 21 11 28 -8 23 -10 -2 -26 3 -37 11 -17 12 -17
18 -6 45 7 16 17 30 22 30 21 0 67 -31 70 -47 3 -17 4 -17 10 -1 6 14 -4 25
-45 48 -29 16 -54 30 -57 30 -3 0 -23 -36 -45 -80z"/>
<path d="M3815 4491 c-635 -115 -1131 -575 -1290 -1196 -154 -598 52 -1235
525 -1630 300 -249 647 -375 1037 -375 270 0 484 49 718 165 167 83 293 174
425 305 251 252 410 569 460 920 18 125 14 359 -9 492 -57 328 -214 631 -451
868 -225 224 -499 373 -817 441 -141 31 -456 36 -598 10z m447 -42 c454 -49
875 -307 1130 -694 342 -518 342 -1192 0 -1710 -553 -837 -1739 -946 -2428
-222 -285 299 -434 671 -434 1082 0 519 260 1000 698 1292 218 146 432 221
727 256 67 8 210 6 307 -4z"/>
<path d="M3905 4240 c-99 -65 -298 -194 -442 -287 -255 -164 -262 -169 -262
-201 l-1 -34 34 21 c18 12 36 21 40 21 3 0 6 -249 6 -553 l0 -553 -87 -12
c-114 -15 -232 -46 -301 -77 l-55 -25 21 -23 c12 -13 49 -38 82 -57 33 -19 60
-36 60 -39 -1 -3 -20 -20 -43 -37 -42 -31 -125 -139 -115 -149 2 -3 56 8 119
25 119 31 253 54 376 65 l72 6 3 -73 3 -73 50 -27 c80 -44 201 -88 320 -116
101 -24 127 -26 330 -26 240 0 330 13 474 70 76 30 173 81 183 98 4 6 8 42 8
80 l0 68 68 -6 c116 -12 234 -35 363 -70 68 -19 126 -33 128 -31 2 2 -6 24
-18 49 -21 43 -69 93 -121 127 l-25 16 40 21 c52 26 125 80 125 91 0 25 -237
94 -370 107 l-70 7 -1 526 c0 289 -2 538 -3 554 -2 30 9 34 38 12 28 -22 36
-19 36 14 0 26 -30 48 -440 320 -241 160 -441 291 -442 290 -2 0 -84 -54 -183
-119z m943 -404 c56 -37 102 -71 102 -76 0 -15 -4 -13 -67 29 -32 21 -213 138
-403 261 -190 123 -354 229 -366 236 -18 13 -29 8 -110 -42 -448 -283 -786
-494 -790 -494 -16 0 2 22 34 41 20 13 102 66 182 118 80 52 261 170 403 262
l259 168 326 -218 c180 -119 373 -248 430 -285z m-423 229 c127 -81 232 -150
235 -152 22 -20 -184 -47 -303 -41 -70 4 -92 10 -152 41 -161 84 -284 89 -391
18 -40 -26 -57 -31 -103 -30 -68 1 -153 20 -150 34 2 6 122 85 267 177 l265
167 51 -33 c28 -18 155 -99 281 -181z m-395 -115 c-8 -5 -36 -14 -63 -21 -53
-12 -77 -40 -56 -65 8 -10 35 -14 101 -14 l89 0 80 -52 c43 -28 79 -55 79 -58
0 -4 -6 -13 -14 -19 -10 -9 -25 -3 -67 25 -30 20 -63 45 -75 55 -22 21 -34 24
-34 10 0 -5 29 -30 65 -55 70 -50 79 -61 70 -76 -7 -11 -47 7 -112 51 -23 16
-44 25 -47 20 -3 -5 19 -26 49 -47 30 -20 55 -39 55 -42 0 -14 -78 11 -121 39
-27 17 -53 29 -56 25 -7 -7 -9 -6 42 -39 36 -25 37 -27 15 -27 -39 1 -99 33
-180 98 -77 63 -115 76 -46 16 22 -19 37 -36 35 -38 -2 -2 -76 -13 -164 -26
-88 -12 -167 -26 -175 -31 -13 -7 -13 -8 0 -9 8 0 95 11 193 25 l179 25 31
-24 c18 -13 49 -31 71 -40 66 -27 223 -15 251 19 16 20 100 24 148 8 39 -14
224 -42 275 -43 12 0 22 4 22 8 0 4 -51 13 -113 20 -156 16 -188 28 -329 121
-119 79 -125 82 -176 80 -53 -3 -71 7 -72 37 0 12 73 34 114 34 14 0 60 -19
103 -42 l78 -43 130 1 c75 1 164 9 210 18 l80 16 67 -45 68 -45 -2 -572 -3
-572 -92 3 -92 3 -3 -124 -3 -123 -80 -27 c-210 -70 -502 -97 -695 -64 -86 15
-257 65 -287 84 -8 5 -13 48 -15 132 l-3 125 -102 -2 -103 -1 0 574 0 574 78
50 c42 27 86 50 97 50 11 0 52 -7 90 -15 105 -22 146 -19 191 12 21 14 55 32
74 39 41 15 173 19 150 4z m-60 -70 c0 -21 -8 -24 -34 -14 -25 10 -19 34 9 34
18 0 25 -5 25 -20z m-640 -655 c0 -496 -2 -565 -15 -565 -13 0 -15 69 -15 558
0 307 3 562 7 565 3 4 10 7 15 7 4 0 8 -254 8 -565z m1550 -17 c0 -527 -1
-559 -17 -556 -17 3 -18 39 -20 562 -1 308 0 564 3 568 3 5 12 4 20 -3 12 -10
14 -102 14 -571z m-594 500 c-10 -6 -20 -7 -24 -3 -9 8 20 25 31 18 5 -3 2
-10 -7 -15z m-824 -1087 c-22 -17 -44 -40 -48 -53 -5 -13 -8 -68 -9 -123 l0
-100 -55 -3 c-88 -4 -257 -31 -368 -58 -57 -14 -106 -24 -108 -22 -7 8 96 117
131 138 l35 22 -85 51 c-47 28 -85 54 -85 58 0 10 86 45 155 63 97 24 301 51
419 54 l59 2 -41 -29z m78 -86 c0 -121 -3 -124 -72 -72 -51 39 -59 71 -27 111
21 27 75 66 92 66 4 0 7 -47 7 -105z m1406 85 c82 -11 183 -29 224 -41 41 -11
85 -23 97 -26 12 -3 27 -11 33 -18 13 -15 -26 -48 -97 -84 -56 -28 -59 -36
-19 -60 39 -25 126 -115 126 -132 0 -7 -8 -9 -22 -5 -175 48 -422 96 -499 96
-7 0 -9 40 -7 111 l3 111 -39 34 -39 34 45 0 c25 0 113 -9 194 -20z m-223 -15
c39 -27 53 -59 42 -95 -6 -20 -79 -80 -97 -80 -4 0 -8 45 -8 100 0 112 3 115
63 75z m-1093 -238 c159 -58 242 -71 440 -72 145 0 194 4 290 24 130 27 294
81 358 117 l42 25 0 -135 0 -135 -46 -27 c-216 -126 -567 -171 -887 -114 -92
17 -212 57 -309 102 l-88 41 0 134 0 133 53 -29 c28 -17 95 -46 147 -64z"/>
<path d="M4013 3500 c-9 -24 -17 -30 -41 -30 -16 0 -41 10 -56 21 l-27 21 -36
-41 c-19 -23 -56 -54 -82 -69 l-46 -27 0 -173 c0 -185 -2 -178 49 -157 16 7
17 6 7 -13 -15 -28 -10 -28 35 3 79 54 153 55 218 4 33 -26 33 -49 0 -89 -85
-100 -258 -104 -358 -7 -115 111 -92 333 51 497 53 60 48 59 -50 -13 -95 -69
-170 -187 -197 -308 -16 -72 -1 -166 35 -221 28 -43 108 -98 170 -118 54 -18
173 -15 221 5 53 22 109 78 150 151 41 74 57 89 113 109 81 28 109 14 46 -24
-68 -40 -94 -123 -60 -196 19 -39 85 -74 85 -45 0 6 -6 10 -14 10 -39 0 -70
86 -46 130 20 38 121 52 175 24 27 -14 31 -13 55 5 64 52 114 75 172 79 32 3
58 8 58 13 0 5 -4 9 -10 9 -6 0 -10 35 -10 84 0 65 3 85 15 90 19 7 20 26 1
26 -8 0 -23 11 -34 24 l-19 25 -49 -25 c-27 -14 -58 -23 -69 -22 -18 3 -20 11
-20 78 0 74 0 75 25 72 91 -10 129 -6 155 18 15 14 25 34 25 51 0 37 -14 44
-28 14 -16 -36 -82 -36 -110 0 l-19 24 -29 -30 c-15 -16 -55 -39 -87 -51 -50
-18 -57 -23 -43 -33 17 -13 23 -84 7 -100 -4 -6 -11 -21 -14 -35 -5 -21 0 -31
27 -52 l33 -27 49 25 c31 16 58 23 73 19 18 -5 22 -3 18 8 -5 14 40 43 51 33
3 -3 -2 -8 -10 -11 -12 -5 -14 -20 -11 -73 3 -37 0 -85 -6 -107 -9 -37 -10
-33 -9 40 0 97 -1 106 -12 80 -5 -11 -9 -52 -9 -91 -1 -64 -3 -72 -22 -77 -11
-3 -39 3 -62 14 -26 11 -65 19 -102 19 -34 0 -66 5 -73 12 -15 15 -16 154 -2
163 15 9 12 25 -4 25 -8 0 -23 11 -33 24 -19 24 -20 24 -44 5 -13 -10 -39 -19
-56 -19 l-33 0 0 66 0 66 39 -7 c46 -8 104 13 120 43 6 12 11 33 11 49 l0 28
-19 -24 c-25 -33 -86 -35 -110 -4 -17 20 -17 20 -50 -19 -18 -22 -49 -47 -67
-56 -37 -17 -42 -27 -19 -36 19 -7 20 -78 3 -106 -11 -17 -9 -24 14 -47 l28
-27 20 22 c21 22 50 30 50 13 0 -5 10 -11 23 -13 20 -3 22 -9 25 -67 4 -94 -1
-100 -48 -58 -60 55 -149 62 -237 20 -23 -12 -44 -18 -47 -15 -4 3 -6 31 -6
62 0 47 4 60 24 80 14 12 36 23 50 23 23 0 26 4 26 33 0 42 -25 46 -60 9 -13
-14 -27 -25 -32 -25 -4 0 -8 32 -8 70 0 64 9 86 25 60 11 -18 117 -12 152 10
35 21 51 60 37 91 -9 18 -10 18 -21 -11z m152 -70 l40 -7 -29 -8 c-33 -9 -77
3 -84 24 -4 11 0 12 14 6 11 -4 37 -11 59 -15z m317 9 c5 -16 85 -24 103 -9 9
7 15 8 15 2 0 -23 -72 -30 -115 -10 -14 6 -25 15 -25 20 0 12 18 10 22 -3z
m-523 -15 c2 -2 -16 -4 -42 -4 -25 0 -49 5 -52 11 -5 7 8 8 41 3 27 -3 51 -8
53 -10z m431 -41 c0 -10 -5 -45 -10 -78 -7 -44 -7 -61 2 -66 7 -5 9 -11 5 -15
-4 -4 -15 -1 -24 8 -13 14 -14 23 -4 62 6 25 11 59 11 75 0 17 5 31 10 31 6 0
10 -8 10 -17z m-353 -60 c-2 -16 -4 -5 -4 22 0 28 2 40 4 28 2 -13 2 -35 0
-50z m-267 -109 c0 -94 -4 -143 -10 -139 -6 4 -10 63 -10 146 0 86 4 139 10
139 6 0 10 -55 10 -146z m-196 36 c-46 -113 -53 -224 -19 -290 53 -100 234
-177 336 -141 47 16 49 4 3 -15 -55 -23 -194 -15 -249 13 -120 63 -173 212
-126 351 19 56 65 142 75 142 2 0 -7 -27 -20 -60z m626 10 c-12 -7 -14 -28
-11 -101 2 -67 0 -90 -8 -84 -8 4 -11 31 -10 68 1 34 -1 72 -5 84 -5 16 -1 25
15 37 13 9 25 13 28 10 3 -3 -1 -9 -9 -14z m-160 -16 c0 -8 -4 -12 -10 -9 -5
3 -10 13 -10 21 0 8 5 12 10 9 6 -3 10 -13 10 -21z m-4 -158 c55 -26 69 -39
58 -57 -4 -7 -16 -1 -33 15 -32 31 -71 46 -117 46 -21 0 -33 4 -29 10 11 17
68 11 121 -14z m324 -92 c46 -18 56 -41 13 -28 -16 4 -59 8 -96 8 -68 0 -68 1
-47 18 28 22 77 23 130 2z"/>
<path d="M3575 2348 c-33 -97 -46 -161 -36 -171 15 -15 25 -2 46 61 9 28 18
52 21 52 2 0 22 -36 44 -80 36 -72 72 -111 88 -96 7 8 52 147 52 164 0 6 -6
12 -14 12 -7 0 -24 -27 -36 -60 -13 -34 -25 -58 -28 -55 -3 3 -26 44 -52 92
-44 83 -74 111 -85 81z"/>
<path d="M4480 2296 c0 -10 56 -149 66 -164 2 -4 40 10 138 47 21 8 26 15 19
22 -8 8 -28 5 -68 -10 l-56 -21 -32 70 c-22 48 -38 70 -49 70 -10 0 -18 -6
-18 -14z"/>
<path d="M3827 2263 c-11 -38 -29 -165 -24 -169 9 -9 190 -35 204 -30 26 10 4
24 -50 31 -104 12 -108 14 -105 43 3 30 6 30 102 18 46 -6 57 -5 54 5 -3 8
-32 18 -69 24 -60 9 -64 12 -67 39 -3 28 -2 29 29 22 18 -3 58 -9 88 -13 88
-10 53 13 -41 27 -46 6 -91 14 -100 16 -10 3 -18 -2 -21 -13z"/>
<path d="M4333 2272 c-13 -8 -73 -173 -73 -199 0 -26 20 -12 37 25 17 34 22
38 76 46 52 8 59 7 80 -12 25 -24 47 -29 47 -11 0 12 -139 159 -149 159 -3 0
-12 -4 -18 -8z m42 -49 c36 -41 32 -53 -16 -53 -34 0 -40 3 -35 16 3 9 9 27
12 40 8 30 10 30 39 -3z"/>
<path d="M4064 2237 c-3 -8 -4 -49 -2 -93 3 -66 6 -79 21 -82 14 -3 17 4 17
37 l0 41 56 0 c74 0 94 12 94 55 0 45 -20 55 -110 55 -50 0 -72 -4 -76 -13z
m146 -22 c24 -29 4 -45 -55 -45 -51 0 -55 2 -55 23 0 13 3 27 7 30 13 13 90 7
103 -8z"/>
<path d="M3754 1928 c-27 -13 -48 -54 -32 -64 6 -4 20 5 30 19 21 29 56 35 76
15 25 -25 12 -56 -53 -120 -88 -88 -87 -98 15 -98 64 0 80 3 80 15 0 12 -13
15 -55 15 -30 0 -55 4 -55 9 0 5 20 25 45 46 59 48 78 84 64 123 -15 45 -68
63 -115 40z"/>
<path d="M3945 1918 c-22 -19 -29 -35 -33 -76 -10 -105 19 -162 82 -162 43 0
72 34 81 94 7 45 -6 110 -27 139 -23 30 -71 32 -103 5z m85 -27 c5 -11 10 -51
10 -89 0 -55 -4 -72 -19 -86 -46 -42 -89 23 -78 116 4 28 12 56 18 64 17 20
57 17 69 -5z"/>
<path d="M4143 1916 c-27 -23 -28 -28 -28 -111 0 -80 2 -88 24 -106 35 -28 88
-22 114 13 24 32 29 126 9 174 -13 30 -47 54 -77 54 -8 0 -27 -11 -42 -24z
m87 -25 c18 -34 12 -146 -8 -171 -25 -31 -57 -19 -73 27 -13 40 -6 127 12 149
17 20 57 17 69 -5z"/>
<path d="M4360 1858 c-77 -105 -78 -118 -5 -118 54 0 55 0 55 -30 0 -20 5 -30
15 -30 10 0 15 10 15 29 0 21 6 30 21 34 23 6 17 27 -7 27 -11 0 -14 18 -14
85 0 51 -4 85 -10 85 -6 0 -37 -37 -70 -82z m50 -38 l0 -50 -40 0 -40 0 32 50
c18 27 36 50 41 50 4 0 7 -22 7 -50z"/>
<path d="M3052 4463 c-29 -20 -49 -39 -44 -42 5 -3 32 -40 59 -82 l49 -76 52
34 c34 22 52 40 52 53 0 27 -18 26 -22 -2 -2 -12 -17 -30 -34 -40 l-32 -19
-22 36 c-22 35 -22 37 -4 50 11 8 27 15 37 15 15 0 16 3 6 22 l-12 22 -8 -21
c-12 -34 -49 -40 -70 -12 -10 13 -19 27 -19 32 0 13 64 47 79 42 11 -5 12 -3
1 10 -7 8 -13 15 -14 14 0 0 -25 -16 -54 -36z"/>
<path d="M5087 4472 c2 -11 -16 -44 -47 -85 -27 -38 -48 -73 -45 -78 9 -13 22
-11 22 5 0 19 64 106 74 100 5 -3 9 -35 10 -72 1 -37 4 -78 8 -91 6 -22 11
-18 59 52 29 41 58 77 65 80 7 2 3 9 -12 16 -13 8 -21 8 -17 2 6 -10 -53 -110
-65 -111 -3 0 -9 39 -13 87 -7 81 -17 113 -36 113 -5 0 -6 -8 -3 -18z"/>
<path d="M2927 4374 c-3 -4 14 -30 38 -58 25 -28 45 -54 45 -57 0 -4 -41 2
-92 12 -82 17 -94 18 -107 4 -14 -13 -13 -15 4 -16 20 0 122 -114 118 -130 -5
-14 14 -10 27 6 10 12 10 15 -2 15 -8 0 -34 23 -57 50 -48 57 -48 57 69 34 45
-8 84 -14 86 -12 3 3 -98 133 -120 156 -2 1 -6 -1 -9 -4z"/>
<path d="M5267 4343 c-12 -11 -8 -23 6 -17 7 2 21 -4 31 -15 16 -18 15 -21
-46 -85 -61 -63 -63 -67 -46 -83 12 -11 18 -12 18 -4 0 7 26 41 57 77 53 60
57 63 75 47 10 -9 18 -23 18 -32 0 -12 2 -13 13 -2 10 10 0 23 -48 66 -62 56
-67 59 -78 48z"/>
<path d="M2735 4200 c-15 -17 -16 -20 -3 -20 23 0 128 -102 128 -125 0 -19 1
-19 21 2 l21 21 -43 38 c-24 22 -58 53 -75 71 -31 32 -32 32 -49 13z"/>
<path d="M5411 4174 c-21 -15 -22 -21 -16 -85 6 -59 5 -70 -9 -75 -26 -10 -58
25 -54 58 5 31 -3 36 -22 13 -9 -11 -8 -20 10 -45 27 -37 55 -53 80 -45 34 11
43 41 30 96 -7 27 -9 56 -6 64 15 41 73 -7 61 -52 -6 -27 -6 -27 13 -9 19 17
19 19 4 46 -9 16 -27 34 -40 39 -28 13 -23 14 -51 -5z"/>
<path d="M2633 4085 c-24 -24 -33 -44 -33 -67 0 -48 32 -94 74 -108 48 -16
103 10 130 61 l20 37 -38 36 c-35 33 -40 34 -51 19 -11 -15 -9 -19 14 -31 49
-25 56 -38 37 -66 -30 -46 -81 -46 -136 1 -22 18 -30 33 -30 58 0 38 31 75 62
75 11 0 16 5 13 10 -11 18 -29 10 -62 -25z"/>
<path d="M5557 4044 c-3 -3 -3 -12 -1 -19 3 -7 -3 -15 -13 -18 -12 -3 -10 -5
8 -6 16 -1 29 5 33 15 9 25 -10 45 -27 28z"/>
<path d="M2518 3928 c-3 -7 22 -26 54 -42 32 -17 58 -33 58 -37 0 -8 -35 -15
-116 -24 -45 -5 -64 -12 -73 -27 -11 -17 -10 -19 6 -14 12 4 45 -10 93 -39 51
-32 76 -43 84 -35 7 7 6 10 -3 10 -17 0 -121 62 -121 72 0 5 9 8 20 8 37 0
170 22 170 29 0 3 -34 26 -75 49 -41 24 -75 48 -75 53 0 13 -18 11 -22 -3z"/>
<path d="M5616 3884 c-11 -10 -16 -34 -16 -68 0 -76 -33 -101 -67 -50 -14 21
-14 29 -4 46 16 25 10 32 -13 15 -14 -11 -15 -17 -6 -42 16 -42 39 -65 65 -65
36 0 54 30 57 95 3 57 4 60 28 60 23 0 25 -4 24 -42 -1 -38 1 -41 18 -32 12 6
17 17 14 26 -3 8 -6 19 -6 24 0 16 -39 49 -59 49 -11 0 -27 -7 -35 -16z"/>
<path d="M2381 3686 c-32 -72 -33 -82 -13 -83 29 -2 149 -61 155 -75 4 -13 57
94 57 118 0 7 -4 16 -10 19 -6 3 -9 -4 -9 -17 2 -30 -17 -78 -31 -78 -13 0
-70 29 -70 35 0 18 26 55 39 55 14 0 14 2 1 10 -19 12 -43 13 -35 1 6 -11 -15
-61 -26 -61 -4 0 -20 5 -34 12 -22 10 -25 16 -20 37 9 34 23 51 44 51 14 0 14
2 1 10 -24 15 -28 13 -49 -34z"/>
<path d="M5638 3701 c-85 -76 9 -209 110 -157 68 35 83 107 33 157 -41 40 -98
41 -143 0z m152 -27 c18 -32 1 -67 -42 -94 -62 -38 -128 -17 -128 40 0 32 25
57 75 74 48 17 80 10 95 -20z"/>
<path d="M5745 3501 c-27 -11 -51 -40 -58 -70 -6 -26 13 -84 33 -96 7 -4 5 7
-5 25 -22 42 -13 76 28 100 58 36 121 22 140 -30 4 -10 6 -8 6 7 2 49 -85 88
-144 64z"/>
<path d="M2458 3428 c16 -16 15 -60 -1 -82 -13 -17 -16 -17 -83 2 -38 11 -76
23 -85 26 -11 5 -18 1 -21 -12 -5 -16 4 -21 58 -32 35 -6 79 -20 98 -30 l34
-17 17 65 c16 64 11 92 -18 92 -7 0 -7 -4 1 -12z"/>
<path d="M5880 3401 c0 -8 -7 -22 -16 -32 -15 -16 -14 -17 5 -12 28 7 34 19
22 40 -8 13 -10 14 -11 4z"/>
<path d="M5904 3301 c-5 -5 -46 -15 -91 -23 -76 -11 -83 -14 -83 -35 0 -19 3
-21 18 -14 25 15 162 42 173 36 11 -7 12 15 1 32 -5 8 -12 9 -18 4z"/>
<path d="M2246 3254 c-10 -25 -7 -33 12 -32 37 3 158 -25 168 -38 10 -12 12
-8 16 19 3 28 1 33 -14 29 -22 -6 -149 16 -164 29 -8 6 -14 4 -18 -7z"/>
<path d="M5890 3179 c-25 -4 -66 -8 -92 -8 l-48 -1 0 -44 c0 -58 15 -96 37
-95 10 0 13 3 6 6 -15 5 -37 79 -28 93 3 6 24 10 46 10 38 0 39 -1 39 -34 0
-19 -6 -37 -12 -39 -8 -4 -7 -6 4 -6 26 -1 51 11 39 18 -6 4 -14 21 -17 39 -6
32 -6 32 36 32 l42 0 -4 -45 c-2 -33 0 -45 11 -45 10 0 12 9 7 38 -3 20 -6 49
-6 65 0 15 -3 26 -7 26 -5 -1 -28 -5 -53 -10z"/>
<path d="M2230 3158 c0 -10 0 -21 0 -25 0 -3 11 -7 24 -9 22 -2 116 -51 116
-60 0 -8 -131 -43 -145 -38 -11 5 -15 -1 -15 -25 0 -30 1 -31 23 -17 12 7 59
26 105 41 45 15 82 28 82 30 0 2 -39 24 -87 50 -49 26 -91 53 -95 59 -5 7 -8
4 -8 -6z"/>
<path d="M5935 3000 c-4 -6 -1 -10 5 -10 6 0 10 -12 8 -27 -3 -26 -4 -27 -85
-31 -63 -3 -83 -1 -83 9 0 8 -3 10 -10 3 -5 -5 -7 -19 -4 -31 5 -17 10 -20 32
-14 15 4 56 9 91 10 l63 3 -4 -36 c-3 -25 0 -36 9 -36 20 0 18 156 -2 163 -8
4 -17 2 -20 -3z"/>
<path d="M2210 2891 c0 -18 4 -30 9 -26 6 3 51 6 100 7 90 1 91 1 91 27 0 19
-3 22 -12 13 -16 -16 -160 -16 -176 0 -9 9 -12 5 -12 -21z"/>
<path d="M2225 2802 c-6 -4 -10 -29 -10 -56 0 -41 5 -52 33 -77 45 -40 99 -40
144 0 25 22 32 36 31 63 -1 37 -20 84 -31 74 -3 -4 0 -12 6 -18 18 -18 14 -66
-7 -87 -37 -37 -112 -39 -146 -5 -23 24 -19 79 8 97 21 15 21 16 2 16 -11 1
-25 -3 -30 -7z"/>
<path d="M5950 2782 c0 -4 -27 -21 -60 -37 -52 -25 -64 -27 -94 -18 -28 9 -36
8 -40 -4 -10 -26 -7 -35 12 -29 30 10 81 -11 132 -54 49 -41 50 -42 50 -16 0
18 -4 24 -14 20 -8 -3 -29 8 -47 24 l-33 30 39 19 c22 11 45 18 51 16 14 -5
25 45 13 53 -5 3 -9 1 -9 -4z"/>
<path d="M2360 2391 c0 -37 -4 -44 -35 -62 -38 -23 -38 -32 4 -54 21 -11 31
-26 41 -62 l12 -48 24 29 c21 24 31 27 64 24 45 -4 47 0 24 44 -13 25 -14 38
-5 68 15 52 15 53 -23 46 -29 -6 -40 -2 -70 25 l-36 31 0 -41z"/>
<path d="M5810 2395 c-21 -22 -32 -26 -67 -23 -47 3 -48 2 -32 -52 9 -30 8
-43 -5 -68 -23 -44 -21 -48 24 -44 34 4 44 0 61 -22 11 -14 24 -26 29 -26 4 0
13 19 19 43 8 33 19 47 48 63 l37 21 -37 24 c-25 17 -37 32 -38 49 0 14 -4 33
-8 43 -6 16 -9 16 -31 -8z"/>
<path d="M2555 1998 c-38 -26 -76 -48 -82 -48 -17 0 -16 -15 2 -30 8 -7 15 -8
15 -3 0 5 14 17 30 27 l31 17 28 -30 c16 -17 34 -31 39 -31 47 0 70 46 46 95
-26 55 -33 55 -109 3z m93 -21 c4 -34 -37 -58 -63 -37 -22 18 -19 33 13 52 34
22 46 18 50 -15z"/>
<path d="M5590 1991 c-14 -28 -13 -36 5 -21 19 16 55 6 88 -24 26 -24 27 -24
37 -5 8 13 8 19 0 19 -6 0 -28 11 -50 25 -48 30 -66 31 -80 6z"/>
<path d="M5560 1932 c0 -10 6 -19 13 -19 6 0 31 -11 54 -26 36 -23 43 -24 53
-12 10 12 9 15 -2 15 -8 0 -34 14 -56 30 -48 35 -62 37 -62 12z"/>
<path d="M2612 1835 c-46 -44 -53 -69 -22 -85 11 -6 20 -17 20 -24 0 -8 7 -16
15 -20 9 -3 15 0 15 8 0 7 18 25 40 40 22 14 40 33 40 41 0 20 -7 19 -31 -3
-37 -35 -67 -46 -84 -32 -22 18 -19 26 25 57 37 26 50 47 33 55 -5 2 -27 -14
-51 -37z"/>
<path d="M5490 1851 c-15 -29 -12 -61 5 -61 18 0 19 12 3 28 -16 16 4 37 26
29 13 -5 15 -15 10 -48 -6 -34 -4 -45 11 -55 22 -16 55 -2 55 23 0 13 -3 14
-12 5 -7 -7 -18 -12 -24 -12 -17 0 -27 36 -17 55 8 13 12 13 31 -5 28 -26 52
-26 52 1 0 11 -4 17 -10 14 -6 -4 -26 5 -45 19 -40 31 -70 33 -85 7z"/>
<path d="M5433 1773 c-4 -10 -13 -24 -21 -32 -12 -13 -12 -16 -1 -20 30 -12
79 -55 79 -69 0 -12 4 -11 21 4 17 15 18 19 5 24 -20 7 -76 58 -76 69 0 5 7
11 15 15 20 7 19 26 0 26 -9 0 -19 -8 -22 -17z"/>
<path d="M2721 1709 c-18 -21 -41 -39 -49 -39 -14 0 -14 -2 1 -17 17 -17 19
-17 28 -1 5 9 23 27 41 39 29 21 31 21 44 5 7 -10 18 -15 24 -11 8 5 8 11 -1
21 -6 7 -15 12 -19 9 -4 -3 -10 4 -13 15 -7 28 -17 24 -56 -21z"/>
<path d="M5326 1661 c-10 -11 -16 -27 -14 -36 5 -24 23 -13 20 13 -3 16 2 22
17 22 28 0 32 -12 18 -49 -20 -55 31 -99 54 -47 7 14 18 26 26 26 7 0 13 7 13
15 0 8 -4 15 -8 15 -5 0 -24 14 -42 30 -39 35 -60 38 -84 11z m84 -46 c15 -18
6 -45 -14 -45 -17 0 -28 24 -20 45 8 19 18 19 34 0z"/>
<path d="M2820 1656 c0 -8 -9 -33 -20 -57 -29 -65 -27 -72 17 -54 20 8 38 13
40 11 2 -2 -3 -20 -11 -40 -8 -20 -11 -36 -6 -36 7 0 103 42 129 57 1 1 0 7
-4 13 -5 8 -10 8 -14 2 -8 -13 -72 -45 -78 -39 -2 3 4 23 15 46 16 32 17 42 7
51 -9 8 -14 5 -18 -10 -5 -19 -52 -48 -62 -38 -8 8 27 78 38 78 5 0 4 7 -3 15
-16 19 -30 19 -30 1z"/>
<path d="M5146 1590 c-4 -10 16 -39 54 -80 33 -35 60 -71 60 -79 0 -11 3 -11
14 -2 13 11 10 19 -20 58 -27 36 -32 48 -23 59 6 8 17 14 24 14 15 0 65 -63
65 -81 0 -9 5 -8 17 4 16 15 14 19 -29 62 -31 30 -51 43 -62 39 -9 -3 -16 -9
-16 -13 0 -3 -4 -12 -9 -20 -7 -11 -15 -6 -39 20 -24 26 -32 31 -36 19z"/>
<path d="M5035 1499 c-52 -27 -73 -48 -59 -57 17 -12 94 -124 94 -139 0 -20
13 -16 62 21 50 38 58 52 58 98 0 37 -57 98 -92 98 -13 0 -41 -9 -63 -21z m75
-16 c55 -32 68 -108 24 -142 -33 -26 -41 -20 -90 60 -37 61 -37 74 0 89 30 12
35 12 66 -7z"/>
<path d="M2987 1503 c-16 -15 -5 -24 23 -18 26 6 30 4 30 -15 0 -21 -3 -22
-43 -16 -33 5 -47 3 -56 -8 -16 -19 -10 -50 10 -54 13 -2 15 3 12 23 -5 22 -2
25 26 25 36 0 39 -10 11 -35 -21 -19 -27 -45 -10 -45 6 0 13 0 18 0 4 0 7 3 7
8 0 4 10 23 23 43 12 20 22 44 22 54 0 30 -54 58 -73 38z"/>
<path d="M3110 1419 c0 -6 -13 -30 -29 -54 -21 -31 -26 -46 -18 -54 16 -16 27
-13 27 7 0 9 11 34 25 54 29 42 31 58 10 58 -8 0 -15 -5 -15 -11z"/>
<path d="M3165 1391 c16 -19 16 -22 -15 -67 -23 -35 -28 -49 -19 -55 9 -5 22
8 41 41 15 27 28 55 28 63 0 17 -20 37 -39 37 -11 0 -11 -4 4 -19z"/>
<path d="M3400 1331 c0 -10 -14 -52 -31 -91 -24 -58 -28 -75 -17 -81 19 -13
28 -11 22 5 -3 7 4 33 14 57 11 24 27 63 36 87 15 41 15 42 -4 42 -13 0 -20
-7 -20 -19z"/>
<path d="M3235 1315 c-56 -55 -3 -147 58 -102 16 11 14 12 -15 12 -31 0 -33 3
-36 36 -2 25 3 40 17 53 24 22 51 15 51 -14 0 -11 4 -20 9 -20 18 0 20 17 5
38 -20 29 -59 28 -89 -3z"/>
<path d="M4756 1274 c-19 -18 -19 -20 -6 -45 6 -10 21 -19 35 -19 34 0 55 -10
55 -26 0 -21 -25 -27 -50 -14 -20 11 -21 10 -11 -9 10 -17 15 -18 41 -10 31
11 45 36 35 62 -7 16 -35 27 -73 27 -17 0 -22 5 -20 18 3 12 12 16 31 15 15
-1 27 2 27 8 0 15 -47 10 -64 -7z"/>
<path d="M3433 1259 c22 -13 22 -31 -3 -79 -24 -46 -24 -50 -7 -50 14 0 33 33
48 84 10 35 -3 56 -35 56 -19 -1 -19 -2 -3 -11z"/>
<path d="M3695 1262 c-6 -4 -10 -11 -10 -17 0 -27 -29 -157 -37 -161 -15 -10
-8 -24 12 -24 14 0 20 7 20 23 1 12 9 57 19 100 18 74 17 94 -4 79z"/>
<path d="M4673 1236 c3 -8 11 -34 18 -57 15 -54 25 -67 40 -52 7 7 8 16 0 29
-6 11 -17 36 -25 57 -8 20 -20 37 -27 37 -6 0 -9 -6 -6 -14z"/>
<path d="M3530 1215 c-18 -22 -4 -31 18 -12 11 10 23 13 31 8 20 -13 5 -41
-21 -41 -29 0 -68 -26 -68 -45 0 -19 34 -37 54 -29 9 3 16 1 16 -5 0 -22 35
-11 37 12 0 12 4 41 8 64 7 40 6 43 -19 53 -36 13 -41 13 -56 -5z m46 -71 c-3
-9 -6 -20 -6 -25 0 -5 -11 -9 -25 -9 -27 0 -33 18 -13 38 18 18 51 15 44 -4z"/>
<path d="M4900 1215 c0 -12 6 -16 19 -12 13 3 22 -1 25 -12 3 -9 4 -5 3 9 -2
30 -47 44 -47 15z"/>
<path d="M3874 1209 c-27 -14 -54 -60 -54 -94 0 -78 95 -135 147 -87 10 9 14
14 9 10 -19 -15 -83 -8 -99 10 -25 27 -22 103 4 136 31 39 90 30 109 -17 8
-20 9 -19 9 9 1 17 -4 31 -11 32 -64 10 -96 10 -114 1z"/>
<path d="M4585 1212 c6 -4 19 -29 30 -57 17 -40 25 -50 45 -50 13 0 25 5 27
12 3 7 -3 10 -15 6 -16 -4 -23 4 -37 46 -13 41 -21 51 -38 51 -12 0 -17 -4
-12 -8z"/>
<path d="M4486 1184 c-9 -8 -20 -12 -26 -9 -17 11 -30 -4 -20 -23 14 -26 40
-154 33 -166 -4 -5 1 -7 11 -3 10 4 19 7 21 7 2 0 0 13 -5 29 -4 16 -6 32 -3
35 3 3 1 12 -6 19 -6 8 -12 32 -14 53 -2 35 0 39 23 39 33 0 57 -47 41 -81
-13 -29 4 -33 19 -5 16 31 12 66 -11 95 -23 30 -41 33 -63 10z"/>
<path d="M4324 1159 c-3 -6 -17 -8 -31 -4 -14 3 -34 3 -46 -1 -22 -7 -22 -8 2
-14 27 -6 46 -55 38 -97 -3 -18 0 -23 12 -21 12 3 16 16 16 63 0 53 2 60 21
63 17 2 23 -4 28 -29 3 -17 6 -44 6 -60 0 -19 5 -29 15 -29 11 0 13 11 8 53
-3 28 -10 60 -15 70 -10 19 -43 23 -54 6z"/>
<path d="M4050 1131 c-7 -14 -7 -22 1 -26 6 -4 13 2 16 14 7 26 43 29 43 4 -1
-10 -15 -27 -33 -38 -22 -14 -32 -28 -32 -45 0 -23 4 -25 53 -26 29 -1 55 3
58 7 3 5 0 9 -5 9 -6 0 -11 21 -11 48 0 26 -5 53 -12 60 -19 19 -66 15 -78 -7z
m65 -51 c11 -18 -6 -50 -25 -50 -28 0 -34 19 -14 41 19 21 30 24 39 9z"/>
<path d="M4187 1143 c-4 -3 -2 -11 3 -18 5 -7 11 -35 12 -64 2 -39 6 -50 16
-46 8 3 15 5 17 5 1 0 -1 21 -6 46 -5 25 -8 48 -8 52 4 28 -16 43 -34 25z"/>
</g>
</svg>
