<svg width="1770" height="1723" viewBox="0 0 1770 1723" fill="none" xmlns="http://www.w3.org/2000/svg">
<path d="M76.9258 1668.81H1769.34" stroke="#263238" stroke-linecap="round" stroke-linejoin="round"/>
<path d="M1293.27 203.918H1436.13C1436.13 203.918 1449.81 162.675 1425.14 147.677C1400.47 132.68 1400.47 153.151 1381.27 144.903C1365.45 138.116 1362.52 125.218 1358.02 111.57C1357.54 109.996 1357.01 108.421 1356.45 106.884C1354.92 102.618 1352.94 98.532 1350.53 94.698" stroke="#B2B2B2" stroke-linecap="round" stroke-linejoin="round"/>
<path d="M1333.73 76.9632C1297.96 50.7173 1238.76 60.5782 1238.76 116.22C1238.76 129.905 1205.84 116.22 1193.5 134.029C1181.16 151.839 1194.89 162.825 1178.5 168.299C1162.12 173.773 1160.69 160.088 1140.11 161.437C1119.52 162.787 1122.3 181.984 1115.44 187.496C1108.58 193.007 1108.61 190.233 1093.54 191.583C1078.47 192.932 1075.69 203.918 1075.69 203.918H1268.04" stroke="#B2B2B2" stroke-linecap="round" stroke-linejoin="round"/>
<path d="M1370.51 188.921C1372.5 181.888 1372.54 174.445 1370.63 167.39C1368.71 160.336 1364.91 153.936 1359.64 148.877C1341.3 131.929 1322.14 141.378 1316.86 148.877C1311.57 156.376 1311.42 170.623 1302.61 171.973C1293.8 173.323 1295.82 156.976 1276.81 161.1C1257.8 165.224 1265.26 184.196 1256.45 188.246C1247.64 192.295 1247.64 177.41 1235.42 182.134C1223.2 186.858 1223.87 195.707 1223.87 195.707" stroke="#B2B2B2" stroke-linecap="round" stroke-linejoin="round"/>
<path d="M1272.99 142.803C1267.99 139.248 1262.13 137.095 1256.02 136.567C1249.91 136.04 1243.77 137.157 1238.23 139.803C1218.58 148.877 1227.66 167.774 1218.58 172.311C1209.51 176.847 1204.97 171.523 1193.65 176.847C1182.33 182.172 1183.04 189.67 1183.04 189.67" stroke="#B2B2B2" stroke-linecap="round" stroke-linejoin="round"/>
<path d="M317.938 458.578C314.609 456.745 310.813 455.936 307.027 456.254C295.216 457.041 296.791 468.064 292.854 471.251C288.917 474.438 289.105 472.826 280.293 473.613C278.067 473.58 275.885 474.241 274.05 475.504C272.216 476.767 270.821 478.57 270.058 480.662H476.913C476.913 480.662 482.012 465.402 476.613 454.904" stroke="#B2B2B2" stroke-linecap="round" stroke-linejoin="round"/>
<path d="M470.689 448.38C456.554 439.756 456.554 451.529 445.53 446.805C436.419 443.056 434.732 435.557 432.182 427.683L431.283 424.984C419.322 391.764 363.793 389.477 363.793 430.308C363.793 438.182 345.046 430.308 337.847 440.544C330.648 450.78 338.635 457.041 329.186 460.191" stroke="#B2B2B2" stroke-linecap="round" stroke-linejoin="round"/>
<path d="M439.344 472.039C440.487 468.003 440.512 463.733 439.416 459.685C438.319 455.636 436.143 451.962 433.12 449.055C422.584 439.306 411.673 444.781 408.561 449.055C405.449 453.329 405.449 461.503 400.387 462.29C395.325 463.078 396.638 453.742 385.577 456.066C374.516 458.391 378.978 469.302 373.879 471.664C368.78 474.026 368.817 465.402 361.806 468.139C354.794 470.876 355.207 476.126 355.207 476.126" stroke="#B2B2B2" stroke-linecap="round" stroke-linejoin="round"/>
<path d="M383.402 445.568C380.534 443.526 377.172 442.289 373.664 441.986C370.156 441.683 366.631 442.324 363.455 443.843C352.207 449.055 357.381 459.891 352.207 462.59C347.033 465.29 344.408 462.178 337.884 465.215C331.36 468.252 331.81 472.714 331.81 472.714" stroke="#B2B2B2" stroke-linecap="round" stroke-linejoin="round"/>
<path d="M801.612 99.3846C798.299 97.5455 794.514 96.7362 790.739 97.06C778.928 97.8474 780.503 108.871 776.566 112.058C772.629 115.245 772.629 113.632 763.968 114.382C761.743 114.359 759.566 115.029 757.738 116.299C755.911 117.569 754.524 119.375 753.77 121.469H960.625C960.625 121.469 965.724 106.209 960.325 95.7102" stroke="#B2B2B2" stroke-linecap="round" stroke-linejoin="round"/>
<path d="M954.176 89.1863C940.04 80.5251 940.04 92.3358 929.017 87.6115C919.906 83.8621 918.219 76.3633 915.669 68.4895L914.769 65.7899C902.809 32.5701 847.28 30.2455 847.28 71.1141C847.28 78.9504 828.533 71.1141 821.334 81.3125C814.135 91.5109 822.121 97.8474 812.673 100.997" stroke="#B2B2B2" stroke-linecap="round" stroke-linejoin="round"/>
<path d="M922.83 112.845C923.959 108.818 923.972 104.559 922.869 100.524C921.767 96.4895 919.589 92.8299 916.569 89.9362C906.07 80.1878 895.159 85.6244 892.047 89.9362C888.935 94.2481 888.935 102.384 883.874 103.172C878.812 103.959 880.124 94.5855 869.064 96.9476C858.003 99.3098 862.427 110.183 857.365 112.508C852.304 114.832 852.304 106.284 845.292 109.021C838.281 111.758 838.656 116.82 838.656 116.82" stroke="#B2B2B2" stroke-linecap="round" stroke-linejoin="round"/>
<path d="M866.852 86.3743C863.983 84.3326 860.621 83.0958 857.113 82.7926C853.606 82.4893 850.081 83.1305 846.905 84.6496C835.656 89.8238 840.831 100.697 835.656 103.397C830.482 106.096 827.82 102.947 821.334 105.984C814.847 109.021 815.26 113.483 815.26 113.483" stroke="#B2B2B2" stroke-linecap="round" stroke-linejoin="round"/>
<path d="M1615.57 292.742H798.988V1668.81H1615.57V292.742Z" fill="#ADADAD" stroke="#ADADAD" stroke-linecap="round" stroke-linejoin="round"/>
<path d="M1615.57 292.742H1145.4V1668.81H1615.57V292.742Z" fill="white" stroke="#ADADAD" stroke-linecap="round" stroke-linejoin="round"/>
<path d="M1560.98 292.742H1199.95V1668.81H1560.98V292.742Z" fill="white" stroke="#ADADAD" stroke-linecap="round" stroke-linejoin="round"/>
<path d="M1615.57 292.742H1145.4V387.002H1615.57V292.742Z" fill="#ADADAD" stroke="#ADADAD" stroke-linecap="round" stroke-linejoin="round"/>
<path d="M1494.69 1499.72H1266.28V1668.85H1494.69V1499.72Z" fill="white" stroke="#ADADAD" stroke-linecap="round" stroke-linejoin="round"/>
<path d="M1494.69 1499.72H1380.48V1668.85H1494.69V1499.72Z" fill="white" stroke="#ADADAD" stroke-linecap="round" stroke-linejoin="round"/>
<path d="M956.913 447.143H853.242V541.29H956.913V447.143Z" fill="white" stroke="#ADADAD" stroke-linecap="round" stroke-linejoin="round"/>
<path d="M956.913 420.034H853.242V460.978H956.913V420.034Z" fill="white" stroke="#ADADAD" stroke-linecap="round" stroke-linejoin="round"/>
<path d="M1105.09 447.143H1001.42V541.29H1105.09V447.143Z" fill="white" stroke="#ADADAD" stroke-linecap="round" stroke-linejoin="round"/>
<path d="M1105.09 420.034H1001.42V460.978H1105.09V420.034Z" fill="white" stroke="#ADADAD" stroke-linecap="round" stroke-linejoin="round"/>
<path d="M956.913 627.864H853.242V722.012H956.913V627.864Z" fill="white" stroke="#ADADAD" stroke-linecap="round" stroke-linejoin="round"/>
<path d="M956.913 600.756H853.242V641.7H956.913V600.756Z" fill="white" stroke="#ADADAD" stroke-linecap="round" stroke-linejoin="round"/>
<path d="M1105.09 627.864H1001.42V722.012H1105.09V627.864Z" fill="white" stroke="#ADADAD" stroke-linecap="round" stroke-linejoin="round"/>
<path d="M1105.09 600.756H1001.42V641.7H1105.09V600.756Z" fill="white" stroke="#ADADAD" stroke-linecap="round" stroke-linejoin="round"/>
<path d="M956.913 808.586H853.242V902.734H956.913V808.586Z" fill="white" stroke="#ADADAD" stroke-linecap="round" stroke-linejoin="round"/>
<path d="M956.913 781.478H853.242V822.421H956.913V781.478Z" fill="white" stroke="#ADADAD" stroke-linecap="round" stroke-linejoin="round"/>
<path d="M1105.09 808.586H1001.42V902.734H1105.09V808.586Z" fill="white" stroke="#ADADAD" stroke-linecap="round" stroke-linejoin="round"/>
<path d="M1105.09 781.478H1001.42V822.421H1105.09V781.478Z" fill="white" stroke="#ADADAD" stroke-linecap="round" stroke-linejoin="round"/>
<path d="M956.913 989.308H853.242V1083.46H956.913V989.308Z" fill="white" stroke="#ADADAD" stroke-linecap="round" stroke-linejoin="round"/>
<path d="M956.913 962.162H853.242V1003.11H956.913V962.162Z" fill="white" stroke="#ADADAD" stroke-linecap="round" stroke-linejoin="round"/>
<path d="M1105.09 989.308H1001.42V1083.46H1105.09V989.308Z" fill="white" stroke="#ADADAD" stroke-linecap="round" stroke-linejoin="round"/>
<path d="M1105.09 962.162H1001.42V1003.11H1105.09V962.162Z" fill="white" stroke="#ADADAD" stroke-linecap="round" stroke-linejoin="round"/>
<path d="M956.913 1170.03H853.242V1264.18H956.913V1170.03Z" fill="white" stroke="#ADADAD" stroke-linecap="round" stroke-linejoin="round"/>
<path d="M956.913 1142.88H853.242V1183.83H956.913V1142.88Z" fill="white" stroke="#ADADAD" stroke-linecap="round" stroke-linejoin="round"/>
<path d="M1105.09 1170.03H1001.42V1264.18H1105.09V1170.03Z" fill="white" stroke="#ADADAD" stroke-linecap="round" stroke-linejoin="round"/>
<path d="M1105.09 1142.88H1001.42V1183.83H1105.09V1142.88Z" fill="white" stroke="#ADADAD" stroke-linecap="round" stroke-linejoin="round"/>
<path d="M956.913 1350.71H853.242V1444.86H956.913V1350.71Z" fill="white" stroke="#ADADAD" stroke-linecap="round" stroke-linejoin="round"/>
<path d="M956.913 1323.61H853.242V1364.55H956.913V1323.61Z" fill="white" stroke="#ADADAD" stroke-linecap="round" stroke-linejoin="round"/>
<path d="M1105.09 1350.71H1001.42V1444.86H1105.09V1350.71Z" fill="white" stroke="#ADADAD" stroke-linecap="round" stroke-linejoin="round"/>
<path d="M1105.09 1323.61H1001.42V1364.55H1105.09V1323.61Z" fill="white" stroke="#ADADAD" stroke-linecap="round" stroke-linejoin="round"/>
<path d="M1287.01 447.143H1183.34V541.29H1287.01V447.143Z" fill="white" stroke="#ADADAD" stroke-linecap="round" stroke-linejoin="round"/>
<path d="M1287.01 420.034H1183.34V460.978H1287.01V420.034Z" fill="white" stroke="#ADADAD" stroke-linecap="round" stroke-linejoin="round"/>
<path d="M1435.23 447.143H1331.55V541.29H1435.23V447.143Z" fill="white" stroke="#ADADAD" stroke-linecap="round" stroke-linejoin="round"/>
<path d="M1435.23 420.034H1331.55V460.978H1435.23V420.034Z" fill="white" stroke="#ADADAD" stroke-linecap="round" stroke-linejoin="round"/>
<path d="M1583.4 447.143H1479.73V541.29H1583.4V447.143Z" fill="white" stroke="#ADADAD" stroke-linecap="round" stroke-linejoin="round"/>
<path d="M1583.4 420.034H1479.73V460.978H1583.4V420.034Z" fill="white" stroke="#ADADAD" stroke-linecap="round" stroke-linejoin="round"/>
<path d="M1287.01 627.864H1183.34V722.012H1287.01V627.864Z" fill="white" stroke="#ADADAD" stroke-linecap="round" stroke-linejoin="round"/>
<path d="M1287.01 600.756H1183.34V641.7H1287.01V600.756Z" fill="white" stroke="#ADADAD" stroke-linecap="round" stroke-linejoin="round"/>
<path d="M1435.23 627.864H1331.55V722.012H1435.23V627.864Z" fill="white" stroke="#ADADAD" stroke-linecap="round" stroke-linejoin="round"/>
<path d="M1435.23 600.756H1331.55V641.7H1435.23V600.756Z" fill="white" stroke="#ADADAD" stroke-linecap="round" stroke-linejoin="round"/>
<path d="M1583.4 627.864H1479.73V722.012H1583.4V627.864Z" fill="white" stroke="#ADADAD" stroke-linecap="round" stroke-linejoin="round"/>
<path d="M1583.4 600.756H1479.73V641.7H1583.4V600.756Z" fill="white" stroke="#ADADAD" stroke-linecap="round" stroke-linejoin="round"/>
<path d="M1287.01 808.586H1183.34V902.734H1287.01V808.586Z" fill="white" stroke="#ADADAD" stroke-linecap="round" stroke-linejoin="round"/>
<path d="M1287.01 781.478H1183.34V822.421H1287.01V781.478Z" fill="white" stroke="#ADADAD" stroke-linecap="round" stroke-linejoin="round"/>
<path d="M1435.23 808.586H1331.55V902.734H1435.23V808.586Z" fill="white" stroke="#ADADAD" stroke-linecap="round" stroke-linejoin="round"/>
<path d="M1435.23 781.478H1331.55V822.421H1435.23V781.478Z" fill="white" stroke="#ADADAD" stroke-linecap="round" stroke-linejoin="round"/>
<path d="M1583.4 808.586H1479.73V902.734H1583.4V808.586Z" fill="white" stroke="#ADADAD" stroke-linecap="round" stroke-linejoin="round"/>
<path d="M1583.4 781.478H1479.73V822.421H1583.4V781.478Z" fill="white" stroke="#ADADAD" stroke-linecap="round" stroke-linejoin="round"/>
<path d="M1287.01 989.308H1183.34V1083.46H1287.01V989.308Z" fill="white" stroke="#ADADAD" stroke-linecap="round" stroke-linejoin="round"/>
<path d="M1287.01 962.162H1183.34V1003.11H1287.01V962.162Z" fill="white" stroke="#ADADAD" stroke-linecap="round" stroke-linejoin="round"/>
<path d="M1435.23 989.308H1331.55V1083.46H1435.23V989.308Z" fill="white" stroke="#ADADAD" stroke-linecap="round" stroke-linejoin="round"/>
<path d="M1435.23 962.162H1331.55V1003.11H1435.23V962.162Z" fill="white" stroke="#ADADAD" stroke-linecap="round" stroke-linejoin="round"/>
<path d="M1583.4 989.308H1479.73V1083.46H1583.4V989.308Z" fill="white" stroke="#ADADAD" stroke-linecap="round" stroke-linejoin="round"/>
<path d="M1583.4 962.162H1479.73V1003.11H1583.4V962.162Z" fill="white" stroke="#ADADAD" stroke-linecap="round" stroke-linejoin="round"/>
<path d="M1287.01 1170.03H1183.34V1264.18H1287.01V1170.03Z" fill="white" stroke="#ADADAD" stroke-linecap="round" stroke-linejoin="round"/>
<path d="M1287.01 1142.88H1183.34V1183.83H1287.01V1142.88Z" fill="white" stroke="#ADADAD" stroke-linecap="round" stroke-linejoin="round"/>
<path d="M1435.23 1170.03H1331.55V1264.18H1435.23V1170.03Z" fill="white" stroke="#ADADAD" stroke-linecap="round" stroke-linejoin="round"/>
<path d="M1435.23 1142.88H1331.55V1183.83H1435.23V1142.88Z" fill="white" stroke="#ADADAD" stroke-linecap="round" stroke-linejoin="round"/>
<path d="M1583.4 1170.03H1479.73V1264.18H1583.4V1170.03Z" fill="white" stroke="#ADADAD" stroke-linecap="round" stroke-linejoin="round"/>
<path d="M1583.4 1142.88H1479.73V1183.83H1583.4V1142.88Z" fill="white" stroke="#ADADAD" stroke-linecap="round" stroke-linejoin="round"/>
<path d="M1287.01 1350.71H1183.34V1444.86H1287.01V1350.71Z" fill="white" stroke="#ADADAD" stroke-linecap="round" stroke-linejoin="round"/>
<path d="M1287.01 1323.61H1183.34V1364.55H1287.01V1323.61Z" fill="white" stroke="#ADADAD" stroke-linecap="round" stroke-linejoin="round"/>
<path d="M1435.23 1350.71H1331.55V1444.86H1435.23V1350.71Z" fill="white" stroke="#ADADAD" stroke-linecap="round" stroke-linejoin="round"/>
<path d="M1435.23 1323.61H1331.55V1364.55H1435.23V1323.61Z" fill="white" stroke="#ADADAD" stroke-linecap="round" stroke-linejoin="round"/>
<path d="M1583.4 1350.71H1479.73V1444.86H1583.4V1350.71Z" fill="white" stroke="#ADADAD" stroke-linecap="round" stroke-linejoin="round"/>
<path d="M1583.4 1323.61H1479.73V1364.55H1583.4V1323.61Z" fill="white" stroke="#ADADAD" stroke-linecap="round" stroke-linejoin="round"/>
<path d="M1582.09 1499.45H1178.28V1550.67H1582.09V1499.45Z" fill="white" stroke="#ADADAD" stroke-linecap="round" stroke-linejoin="round"/>
<path d="M1582.09 1484.64H1178.28V1535.86H1582.09V1484.64Z" fill="white" stroke="#ADADAD" stroke-linecap="round" stroke-linejoin="round"/>
<path d="M1018.52 221.953H798.538V357.569H1018.52V221.953Z" fill="#ADADAD" stroke="#ADADAD" stroke-linecap="round" stroke-linejoin="round"/>
<path d="M1018.52 221.953H942.403V357.569H1018.52V221.953Z" fill="white" stroke="#ADADAD" stroke-linecap="round" stroke-linejoin="round"/>
<path d="M1576.05 255.098H1485.65V357.569H1576.05V255.098Z" fill="white" stroke="#ADADAD" stroke-linecap="round" stroke-linejoin="round"/>
<path d="M1534.25 255.098H1443.85V357.569H1534.25V255.098Z" fill="#ADADAD" stroke="#ADADAD" stroke-linecap="round" stroke-linejoin="round"/>
<path d="M1635.48 292.742H779.116V357.569H1635.48V292.742Z" fill="white" stroke="#ADADAD" stroke-linecap="round" stroke-linejoin="round"/>
<path d="M1635.44 292.742H1123.35V357.569H1635.44V292.742Z" fill="white" stroke="#ADADAD" stroke-linecap="round" stroke-linejoin="round"/>
<path d="M1145.4 292.742V319.962" stroke="#ADADAD" stroke-linecap="round" stroke-linejoin="round"/>
<path d="M1159.38 292.742V319.962" stroke="#ADADAD" stroke-linecap="round" stroke-linejoin="round"/>
<path d="M1159.38 327.311V348.083" stroke="#ADADAD" stroke-linecap="round" stroke-linejoin="round"/>
<path d="M1173.4 292.742V319.962" stroke="#ADADAD" stroke-linecap="round" stroke-linejoin="round"/>
<path d="M1173.4 328.474V347.746" stroke="#ADADAD" stroke-linecap="round" stroke-linejoin="round"/>
<path d="M1186.49 328.474V340.622" stroke="#ADADAD" stroke-linecap="round" stroke-linejoin="round"/>
<path d="M1187.43 292.742V319.962" stroke="#ADADAD" stroke-linecap="round" stroke-linejoin="round"/>
<path d="M1203.29 313.064V319.963" stroke="#ADADAD" stroke-linecap="round" stroke-linejoin="round"/>
<path d="M1204.22 292.742V308.227" stroke="#ADADAD" stroke-linecap="round" stroke-linejoin="round"/>
<path d="M1145.4 325.437V341.559" stroke="#ADADAD" stroke-linecap="round" stroke-linejoin="round"/>
<path d="M81.0875 529.93C97.06 536.904 136.166 536.004 136.204 536.004C136.241 536.004 127.805 510.395 127.055 508.858C118.469 490.898 91.3234 461.278 69.2769 464.24C65.6003 464.802 62.0851 466.138 58.9643 468.161C55.8434 470.184 53.1881 472.848 51.1744 475.974C49.1607 479.101 47.8346 482.621 47.2839 486.299C46.7332 489.977 46.9706 493.73 47.9802 497.31C51.7296 512.607 67.4772 523.968 81.0875 529.93Z" fill="#2F80ED"/>
<path d="M94.5855 643.199C111.158 645.599 146.065 635.476 148.84 634.651C154.585 654.631 161.65 674.209 169.986 693.254C174.785 704.502 179.997 715.413 185.321 726.399C182.134 721.75 179.247 717.588 178.797 717.063C165.787 702.065 131.78 680.581 111.308 689.317C107.923 690.841 104.9 693.065 102.438 695.843C99.9761 698.621 98.1315 701.89 97.026 705.433C95.9204 708.977 95.5791 712.714 96.0244 716.399C96.4698 720.085 97.6918 723.633 99.6097 726.811C107.109 740.572 125.331 747.396 140.028 749.533C154.726 751.67 185.021 743.684 192.783 741.472C194.882 745.671 196.907 749.87 199.007 754.07C209.13 774.204 219.291 794.226 228.664 814.06C231.964 821.109 234.963 828.158 238.001 835.207C235.188 831.045 232.751 827.708 232.339 827.108C219.328 812.11 185.321 790.626 164.849 799.362C161.465 800.886 158.442 803.11 155.98 805.888C153.518 808.666 151.673 811.935 150.568 815.478C149.462 819.022 149.121 822.76 149.566 826.445C150.011 830.13 151.233 833.679 153.151 836.857C160.65 850.617 178.872 857.441 193.57 859.578C208.268 861.715 235.451 854.516 244.824 851.929C247.711 859.428 250.599 866.552 253.073 873.751C254.648 878.7 256.485 883.387 257.797 888.449L261.922 903.446C264.209 912.97 266.646 922.793 268.633 932.129C270.058 938.616 271.295 944.802 272.57 951.064C269.383 944.015 262.784 930.367 262.109 929.317C251.536 912.445 221.166 886.124 199.569 891.636C196.001 892.633 192.685 894.375 189.838 896.747C186.992 899.119 184.68 902.066 183.054 905.395C181.428 908.724 180.526 912.36 180.406 916.063C180.286 919.766 180.952 923.453 182.359 926.88C187.758 941.653 204.668 951.139 218.879 955.488C234.514 960.287 269.158 955.9 273.47 955.488C275.57 965.836 277.482 975.922 279.132 985.483C280.369 992.532 281.531 999.319 282.544 1005.84H296.416C295.104 998.569 293.679 990.845 292.105 983.046C290.042 972.51 287.643 961.337 285.018 949.864C295.45 945.689 305.628 940.906 315.501 935.541C326.749 947.877 356.145 962.312 359.894 964.149C355.92 973.935 351.983 983.421 348.083 992.307C346.059 996.994 344.071 1001.46 342.084 1005.84H356.744C357.907 1003.07 359.069 1000.33 360.231 997.444C364.318 987.508 368.48 976.86 372.679 965.836C376.841 966.736 411.148 973.673 427.121 970.073C441.631 966.811 459.178 958.6 465.665 944.277C467.326 940.963 468.266 937.334 468.423 933.63C468.58 929.926 467.951 926.231 466.576 922.788C465.202 919.344 463.114 916.232 460.449 913.654C457.784 911.076 454.604 909.092 451.117 907.833C430.008 900.747 397.763 924.705 385.952 940.715C385.24 941.69 378.828 952.751 374.704 959.837C376.391 955.338 378.079 950.989 379.728 946.302C383.103 937.116 386.215 927.855 389.552 917.919C391.014 913.045 392.514 908.133 393.976 903.146C395.438 898.16 396.601 892.91 397.95 887.736C400.837 875.663 403.162 863.29 405.224 850.804C413.248 853.729 442.006 863.74 456.891 862.69C471.776 861.64 490.298 856.204 498.885 843.006C501.099 839.997 502.645 836.55 503.42 832.895C504.196 829.241 504.182 825.463 503.379 821.814C502.577 818.165 501.005 814.73 498.769 811.737C496.533 808.745 493.683 806.264 490.411 804.462C470.614 794.226 435.107 813.085 421.009 826.958C420.147 827.821 411.148 839.031 406.312 845.293C407.511 837.794 408.711 830.295 409.686 822.609C412.423 800.525 414.485 778.066 416.698 755.682C417.335 748.82 418.085 741.996 418.835 735.172C421.684 736.26 455.579 748.858 472.264 747.696C487.074 746.646 505.671 741.209 514.257 728.011C516.391 724.989 517.863 721.55 518.574 717.919C519.286 714.288 519.222 710.548 518.386 706.944C517.551 703.339 515.962 699.953 513.726 697.005C511.489 694.058 508.655 691.617 505.409 689.842C485.612 679.644 450.105 698.466 436.007 712.339C434.92 713.388 422.022 729.548 418.947 733.823C420.522 718.825 422.247 703.827 424.571 689.055C427.579 669.191 431.862 649.541 437.394 630.226C438.744 630.751 474.064 644.062 491.161 642.862C505.971 641.85 524.568 636.375 533.154 623.215C535.25 620.189 536.686 616.756 537.369 613.139C538.052 609.522 537.967 605.801 537.118 602.219C536.269 598.637 534.677 595.274 532.444 592.348C530.21 589.421 527.387 586.997 524.156 585.234C504.359 575.035 468.889 593.857 454.754 607.73C453.667 608.855 439.756 626.215 437.507 629.552C437.807 628.427 438.032 627.227 438.369 626.14C444.492 606.931 452.296 588.299 461.69 570.461C466.752 560.525 472.151 551.339 477.625 542.528C483.924 545.677 513.02 559.775 528.505 560.412C543.503 561.012 562.437 557.638 572.411 545.415C574.878 542.643 576.729 539.38 577.843 535.841C578.956 532.301 579.307 528.566 578.871 524.881C578.435 521.196 577.223 517.646 575.315 514.464C573.406 511.281 570.844 508.54 567.799 506.421C549.052 494.123 511.895 508.933 496.335 521.419C495.473 522.093 487.636 529.93 482.012 535.666C484.524 531.917 487.074 527.605 489.511 523.893C498.847 509.833 508.258 497.647 516.657 486.774C521.494 480.662 525.955 475.226 530.23 470.202C538.066 470.202 569.561 469.114 583.359 462.703C597.157 456.291 612.192 444.593 615.454 429.22C616.364 425.626 616.503 421.879 615.86 418.227C615.217 414.575 613.808 411.1 611.725 408.033C609.642 404.965 606.933 402.373 603.775 400.428C600.618 398.484 597.084 397.23 593.407 396.751C571.248 394.388 544.927 424.721 536.829 442.906C536.116 444.481 528.018 470.314 528.43 470.314H528.88C524.681 475.076 520.256 480.25 515.532 485.949C506.871 496.597 497.16 508.708 487.524 522.618C476.936 537.456 467.233 552.905 458.466 568.886C448.535 586.727 440.228 605.424 433.645 624.752L433.42 625.465C433.42 618.941 433.42 600.681 433.082 599.219C430.533 579.459 413.998 542.978 392.064 538.816C388.406 538.225 384.663 538.415 381.084 539.374C377.505 540.334 374.169 542.04 371.296 544.381C368.424 546.722 366.08 549.645 364.418 552.958C362.756 556.27 361.815 559.897 361.656 563.599C360.381 579.272 371.742 594.982 382.84 604.843C395.326 616.091 430.008 626.814 432.782 627.639C426.561 647.477 421.663 667.706 418.122 688.192C415.985 700.115 414.373 712.189 412.611 724.299C412.611 718.638 412.611 713.613 412.311 713.051C409.761 693.329 393.226 656.81 371.292 652.648C367.637 652.063 363.899 652.257 360.324 653.219C356.749 654.181 353.418 655.889 350.549 658.229C347.681 660.57 345.341 663.491 343.681 666.8C342.022 670.11 341.082 673.733 340.922 677.432C339.61 693.142 350.97 708.814 362.069 718.675C373.167 728.536 402.712 738.547 410.511 741.172C409.949 745.821 409.311 750.47 408.749 755.157C406.087 777.653 403.537 799.812 400.313 821.634C399.225 829.133 397.838 836.857 396.563 844.393C396.563 839.406 396.376 835.169 396.301 834.532C393.751 814.81 377.216 778.291 355.32 774.129C351.659 773.532 347.912 773.718 344.328 774.674C340.744 775.631 337.404 777.336 334.527 779.678C331.65 782.02 329.303 784.945 327.639 788.261C325.975 791.576 325.033 795.206 324.874 798.912C323.6 814.585 334.96 830.295 346.059 840.156C357.157 850.017 383.853 858.903 393.114 862.053C391.464 869.551 389.852 877.425 387.94 884.774C386.515 889.798 385.502 894.71 383.778 899.772C382.053 904.833 380.628 909.558 379.053 914.394C375.716 923.618 372.304 933.142 368.818 942.028C366.455 948.214 364.056 954.101 361.656 959.987C362.893 952.488 364.918 937.491 364.956 936.066C364.706 918.569 359.982 901.428 351.233 886.274C351.276 884.317 351.151 882.36 350.858 880.425C350.431 876.732 349.225 873.173 347.319 869.981C345.413 866.79 342.851 864.04 339.803 861.913C336.754 859.786 333.289 858.331 329.636 857.644C325.983 856.957 322.226 857.054 318.613 857.928C297.091 863.665 283.443 901.459 282.431 921.331C282.431 922.493 283.106 935.279 283.743 943.34C282.656 938.653 281.644 934.079 280.481 929.28C278.232 919.756 275.682 910.533 272.983 900.184C271.483 895.31 270.021 890.398 268.521 885.449C267.021 880.5 265.034 875.438 263.309 870.451C259.035 858.828 254.16 847.205 248.986 835.657C257.31 833.67 286.818 826.133 298.666 816.91C310.514 807.686 322.962 793.063 322.85 777.316C322.97 773.609 322.302 769.919 320.892 766.488C319.482 763.058 317.36 759.966 314.668 757.415C311.976 754.864 308.773 752.913 305.272 751.69C301.77 750.467 298.049 750 294.354 750.32C272.195 752.72 253.111 788.002 248.949 807.499C248.724 808.736 247.412 823.021 246.849 830.895C243.662 823.959 240.55 817.022 237.101 810.123C227.202 790.176 216.591 770.304 206.056 750.433C202.831 744.359 199.682 738.247 196.495 732.173C199.494 731.498 234.739 723.287 247.974 713.126C259.785 704.09 272.27 689.28 272.158 673.57C272.277 669.866 271.611 666.179 270.203 662.752C268.794 659.324 266.677 656.234 263.988 653.684C261.3 651.134 258.102 649.182 254.605 647.956C251.108 646.731 247.392 646.26 243.7 646.574C221.541 648.974 202.456 684.068 198.294 703.752C197.994 705.215 196.157 725.799 195.932 731.048C188.958 717.625 182.134 704.165 175.91 690.629C167.457 672.371 160.193 653.584 154.164 634.388C155.551 634.088 192.37 625.727 205.981 615.304C217.754 606.268 230.277 591.458 230.164 575.71C230.284 572.003 229.617 568.313 228.207 564.883C226.796 561.452 224.675 558.36 221.983 555.809C219.29 553.258 216.088 551.307 212.586 550.084C209.085 548.861 205.364 548.394 201.669 548.714C179.547 551.151 160.425 586.433 156.301 605.893C155.963 607.43 153.976 629.589 153.901 633.638C153.564 632.514 153.076 631.389 152.776 630.301C147.267 610.904 143.502 591.053 141.528 570.986C140.291 559.925 139.728 549.277 139.391 538.891C146.402 538.066 178.46 533.792 191.695 525.768C204.931 517.744 218.466 504.734 220.078 489.061C220.609 485.391 220.357 481.651 219.337 478.086C218.317 474.52 216.554 471.212 214.162 468.378C211.771 465.544 208.807 463.249 205.464 461.644C202.121 460.039 198.477 459.16 194.77 459.066C172.273 459.066 149.477 491.986 143.365 510.92C143.028 511.97 140.778 522.806 139.278 530.717C139.278 526.03 139.016 521.194 139.054 516.694C139.054 499.859 140.141 484.449 141.191 470.764C141.866 463.003 142.615 456.029 143.403 449.467C149.852 445.043 175.61 426.971 183.522 413.848C191.433 400.725 197.582 382.84 191.808 368.218C190.592 364.711 188.647 361.502 186.1 358.803C183.553 356.103 180.463 353.975 177.033 352.557C173.603 351.14 169.912 350.466 166.202 350.581C162.493 350.695 158.85 351.594 155.513 353.22C135.567 363.643 130.467 403.499 133.654 423.109C133.954 424.796 141.416 450.817 141.753 450.592L142.128 450.33C141.266 456.629 140.403 463.378 139.616 470.764C138.266 484.412 136.841 499.859 136.466 516.769C135.888 534.992 136.389 553.234 137.966 571.398C139.529 591.758 142.917 611.936 148.09 631.689C148.09 631.914 148.09 632.139 148.315 632.401C144.79 626.889 134.479 611.817 133.542 610.729C120.531 595.732 86.5243 574.285 66.0525 582.984C62.6708 584.511 59.6514 586.738 57.1935 589.517C54.7355 592.297 52.8948 595.566 51.7929 599.109C50.691 602.653 50.3529 606.389 50.8009 610.072C51.2489 613.756 52.4727 617.302 54.3918 620.478C61.7407 634.238 79.8878 641.1 94.5855 643.199Z" fill="#2F80ED"/>
<path d="M476.65 538.516C476.988 538.741 483.737 512.532 484.149 510.808C486.886 491.123 480.587 451.417 460.528 441.743C457.153 440.206 453.492 439.401 449.784 439.382C446.076 439.363 442.406 440.129 439.016 441.632C435.625 443.134 432.592 445.337 430.115 448.096C427.638 450.856 425.774 454.109 424.646 457.641C419.284 472.414 426.108 490.523 434.169 503.009C443.506 517.669 476.613 538.478 476.65 538.516Z" fill="#2F80ED"/>
<path d="M1061 1405.45C1069.84 1409.2 1091.48 1408.83 1091.52 1408.83C1091.55 1408.83 1086.87 1394.66 1086.45 1393.83C1081.69 1383.9 1066.66 1367.59 1054.43 1369.12C1052.41 1369.45 1050.48 1370.21 1048.77 1371.33C1047.06 1372.46 1045.61 1373.93 1044.5 1375.66C1043.4 1377.39 1042.67 1379.33 1042.37 1381.35C1042.06 1383.38 1042.19 1385.45 1042.74 1387.42C1044.76 1395.86 1053.46 1402.23 1061 1405.45Z" fill="#2F80ED"/>
<path d="M1068.46 1468.18C1077.64 1469.49 1096.99 1463.91 1098.45 1463.46C1101.63 1474.52 1105.54 1485.35 1110.15 1495.89C1112.81 1502.04 1115.7 1508.15 1118.62 1514.26C1116.86 1511.68 1115.29 1509.39 1114.88 1509.09C1107.68 1500.76 1088.85 1488.88 1077.38 1493.72C1075.52 1494.57 1073.85 1495.8 1072.49 1497.34C1071.14 1498.87 1070.12 1500.68 1069.51 1502.63C1068.9 1504.59 1068.7 1506.65 1068.94 1508.69C1069.18 1510.73 1069.85 1512.69 1070.89 1514.45C1075.09 1521.95 1085.14 1525.7 1093.39 1527.05C1101.64 1528.4 1118.21 1523.79 1122.6 1522.59L1126.05 1529.56C1131.64 1540.81 1137.3 1551.79 1142.47 1562.86C1144.31 1566.6 1145.96 1570.65 1147.65 1574.55C1146.07 1572.27 1144.72 1570.32 1144.5 1570.05C1137.3 1561.73 1118.47 1549.88 1107 1554.68C1105.14 1555.54 1103.48 1556.77 1102.13 1558.31C1100.77 1559.85 1099.76 1561.65 1099.15 1563.61C1098.53 1565.56 1098.34 1567.62 1098.58 1569.66C1098.81 1571.69 1099.47 1573.65 1100.52 1575.42C1104.71 1582.91 1114.76 1586.85 1123.01 1588.01C1131.26 1589.18 1146.26 1585.2 1151.43 1583.78C1153.04 1587.83 1154.66 1591.88 1156.01 1595.85C1156.87 1598.59 1157.92 1601.17 1158.63 1603.99C1159.34 1606.8 1160.17 1609.5 1160.92 1612.2C1162.19 1617.48 1163.51 1622.88 1164.67 1628.06C1165.45 1631.81 1166.13 1635.11 1166.84 1638.56C1165.08 1634.81 1161.44 1627.31 1161.07 1626.52C1155.18 1617.18 1138.38 1602.6 1126.42 1605.64C1124.45 1606.2 1122.63 1607.17 1121.06 1608.49C1119.49 1609.81 1118.21 1611.44 1117.31 1613.28C1116.42 1615.13 1115.91 1617.14 1115.84 1619.18C1115.77 1621.23 1116.13 1623.27 1116.9 1625.17C1119.86 1633.34 1129.24 1638.63 1137.11 1641.03C1145.77 1643.65 1164.97 1641.26 1167.33 1641.03C1168.49 1646.77 1169.54 1652.28 1170.48 1657.64C1171.15 1661.58 1171.79 1665.33 1172.39 1668.89H1179.89C1179.18 1664.88 1178.39 1660.68 1177.53 1656.25C1176.37 1650.44 1175.02 1644.25 1173.59 1637.88C1179.38 1635.59 1185.01 1632.93 1190.46 1629.93C1196.8 1636.79 1212.96 1644.93 1215.06 1645.79C1212.85 1651.23 1210.67 1656.48 1208.5 1661.39L1205.2 1668.89H1213.3C1213.97 1667.35 1214.61 1665.85 1215.25 1664.24C1217.5 1658.73 1219.82 1652.99 1222.11 1646.73C1224.43 1647.22 1243.44 1651.08 1252.29 1649.09C1260.32 1647.25 1270.03 1642.72 1273.63 1634.81C1274.54 1632.97 1275.05 1630.96 1275.13 1628.91C1275.21 1626.86 1274.86 1624.81 1274.1 1622.9C1273.34 1621 1272.19 1619.27 1270.72 1617.84C1269.25 1616.41 1267.49 1615.31 1265.56 1614.6C1253.87 1610.85 1236.02 1623.97 1229.49 1632.82C1229.08 1633.34 1225.75 1639.49 1223.35 1643.39C1224.28 1640.92 1225.22 1638.52 1226.16 1635.89C1228.03 1630.79 1229.72 1625.66 1231.59 1620.15C1232.38 1617.45 1233.21 1614.75 1234.03 1611.97C1234.86 1609.2 1235.49 1606.31 1236.24 1603.42C1237.82 1596.75 1239.09 1589.93 1240.26 1582.99C1244.72 1584.6 1260.61 1590.15 1268.86 1589.59C1277.11 1589.03 1287.39 1585.84 1292.15 1578.68C1293.32 1577 1294.13 1575.09 1294.52 1573.08C1294.91 1571.07 1294.87 1569 1294.41 1567.01C1293.95 1565.01 1293.07 1563.14 1291.83 1561.51C1290.6 1559.87 1289.03 1558.52 1287.24 1557.53C1276.25 1551.87 1256.6 1562.29 1248.8 1570.05C1248.32 1570.54 1243.33 1576.77 1240.67 1580.21C1241.31 1576.05 1241.98 1571.89 1242.51 1567.65C1244.04 1555.43 1245.2 1542.98 1246.25 1530.57C1246.63 1526.82 1247.04 1523.07 1247.42 1519.32C1249.03 1519.92 1267.78 1526.82 1277.04 1526.26C1285.25 1525.7 1295.52 1522.51 1300.28 1515.39C1301.46 1513.71 1302.27 1511.8 1302.66 1509.79C1303.05 1507.77 1303.01 1505.7 1302.55 1503.7C1302.08 1501.7 1301.21 1499.83 1299.97 1498.19C1298.73 1496.55 1297.17 1495.19 1295.37 1494.2C1284.42 1488.58 1264.74 1499 1256.94 1506.76C1256.34 1507.36 1249.22 1516.29 1247.49 1518.65C1248.39 1510.33 1249.33 1502 1250.6 1493.87C1252.29 1482.87 1254.66 1471.98 1257.73 1461.28C1258.44 1461.58 1278.01 1468.97 1287.5 1468.29C1295.71 1467.73 1305.98 1464.55 1310.74 1457.38C1311.92 1455.71 1312.73 1453.8 1313.12 1451.79C1313.51 1449.78 1313.47 1447.71 1313.01 1445.72C1312.54 1443.72 1311.67 1441.85 1310.43 1440.21C1309.19 1438.58 1307.63 1437.23 1305.83 1436.24C1294.88 1430.58 1275.2 1441 1267.4 1448.76C1266.8 1449.4 1259.12 1459 1257.84 1460.83C1258.03 1460.23 1258.14 1459.56 1258.33 1458.96C1261.7 1448.32 1266.01 1438.01 1271.23 1428.14C1274.04 1422.63 1277.04 1417.53 1280.04 1412.65C1283.56 1414.42 1299.65 1422.21 1308.23 1422.55C1316.82 1422.89 1326.98 1421.01 1332.53 1414.3C1333.89 1412.77 1334.91 1410.96 1335.52 1409C1336.13 1407.04 1336.33 1404.97 1336.08 1402.93C1335.84 1400.9 1335.18 1398.93 1334.12 1397.17C1333.07 1395.41 1331.66 1393.89 1329.98 1392.71C1319.71 1385.88 1299.05 1394.09 1290.42 1400.96C1289.94 1401.33 1285.62 1405.64 1282.47 1408.83C1283.9 1406.65 1285.29 1404.37 1286.67 1402.31C1291.81 1394.54 1297.02 1387.76 1301.67 1381.76C1304.33 1378.38 1306.81 1375.38 1309.17 1372.57C1313.52 1372.57 1330.95 1371.97 1338.6 1368.41C1346.25 1364.85 1354.58 1358.36 1356.37 1349.85C1356.87 1347.86 1356.93 1345.79 1356.57 1343.77C1356.21 1341.75 1355.43 1339.84 1354.27 1338.14C1353.12 1336.45 1351.62 1335.01 1349.88 1333.94C1348.14 1332.86 1346.18 1332.16 1344.15 1331.89C1331.89 1330.54 1317.31 1347.38 1312.84 1357.42C1312.43 1358.29 1307.93 1372.61 1308.16 1372.61H1308.42C1306.1 1375.23 1303.66 1378.08 1300.92 1381.27C1296.12 1387.16 1290.76 1393.87 1285.4 1401.56C1279.54 1409.77 1274.17 1418.32 1269.31 1427.16C1263.83 1437.05 1259.22 1447.4 1255.55 1458.1C1255.58 1458.23 1255.58 1458.37 1255.55 1458.51C1255.55 1454.76 1255.55 1444.79 1255.55 1444C1254.13 1433.09 1244.98 1412.8 1232.87 1410.55C1230.84 1410.24 1228.77 1410.35 1226.79 1410.88C1224.81 1411.42 1222.97 1412.36 1221.38 1413.66C1219.78 1414.95 1218.48 1416.56 1217.56 1418.39C1216.63 1420.22 1216.1 1422.23 1216 1424.28C1215.28 1432.98 1221.58 1441.67 1227.73 1447.15C1234.67 1453.33 1253.98 1459.3 1255.4 1459.78C1251.96 1470.77 1249.24 1481.96 1247.27 1493.3C1246.1 1499.9 1245.13 1506.58 1244.23 1513.29C1244.23 1510.18 1244.23 1507.36 1244.23 1506.99C1242.81 1496.08 1233.66 1475.79 1221.51 1473.54C1219.48 1473.23 1217.42 1473.34 1215.44 1473.87C1213.46 1474.41 1211.62 1475.35 1210.03 1476.65C1208.44 1477.94 1207.14 1479.56 1206.22 1481.39C1205.3 1483.22 1204.77 1485.22 1204.67 1487.27C1203.96 1495.97 1210.26 1504.63 1216.37 1510.14C1222.48 1515.65 1238.87 1521.12 1243.22 1522.51C1242.88 1525.1 1242.54 1527.65 1242.24 1530.24C1240.78 1542.61 1239.36 1554.98 1237.56 1567.05C1236.96 1571.33 1236.17 1575.49 1235.42 1579.65C1235.42 1576.88 1235.42 1574.55 1235.42 1574.22C1234.03 1563.27 1224.85 1542.98 1212.92 1540.73C1210.9 1540.42 1208.83 1540.54 1206.85 1541.08C1204.87 1541.62 1203.03 1542.57 1201.44 1543.86C1199.85 1545.16 1198.56 1546.78 1197.63 1548.61C1196.71 1550.44 1196.18 1552.45 1196.09 1554.49C1195.38 1563.16 1201.67 1571.85 1207.79 1577.33C1213.9 1582.8 1228.71 1587.79 1233.84 1589.44C1232.94 1593.71 1232.04 1597.99 1230.99 1602.04C1230.21 1604.81 1229.64 1607.55 1228.67 1610.29L1226.08 1618.38C1224.21 1623.48 1222.33 1628.77 1220.38 1633.68C1219.07 1637.13 1217.76 1640.36 1216.63 1643.66C1217.31 1639.42 1218.43 1631.09 1218.43 1630.38C1218.35 1620.7 1215.76 1611.21 1210.94 1602.82C1210.96 1601.74 1210.88 1600.67 1210.71 1599.6C1210.46 1597.56 1209.78 1595.6 1208.72 1593.85C1207.66 1592.09 1206.25 1590.58 1204.56 1589.4C1202.88 1588.23 1200.96 1587.43 1198.95 1587.05C1196.93 1586.67 1194.86 1586.71 1192.86 1587.19C1180.94 1590.38 1173.37 1611.3 1172.8 1622.28C1172.8 1622.96 1173.22 1630.04 1173.55 1634.51C1172.95 1631.92 1172.39 1629.37 1171.75 1626.71C1170.48 1621.46 1169.09 1616.21 1167.59 1610.59C1166.8 1607.89 1165.98 1605.19 1165.12 1602.45C1164.26 1599.71 1163.21 1596.9 1162.27 1594.09C1159.91 1587.64 1157.21 1581.23 1154.32 1574.82C1158.93 1573.73 1175.28 1569.57 1181.84 1564.5C1188.4 1559.44 1195.26 1551.31 1195.23 1542.61C1195.28 1540.55 1194.91 1538.51 1194.13 1536.61C1193.34 1534.71 1192.17 1533 1190.68 1531.59C1189.19 1530.17 1187.42 1529.09 1185.48 1528.4C1183.55 1527.72 1181.49 1527.45 1179.44 1527.61C1167.18 1528.96 1156.53 1548.49 1154.32 1559.29C1154.32 1559.97 1153.46 1567.88 1153.12 1572.23C1151.39 1568.48 1149.63 1564.54 1147.76 1560.72C1142.28 1549.69 1136.51 1538.67 1130.55 1527.69C1128.75 1524.31 1127.02 1520.94 1125.26 1517.56C1126.91 1517.19 1146.41 1512.65 1153.76 1507.03C1160.28 1502 1167.22 1493.79 1167.18 1485.09C1167.24 1483.04 1166.87 1480.99 1166.09 1479.09C1165.31 1477.19 1164.14 1475.47 1162.65 1474.06C1161.16 1472.64 1159.38 1471.55 1157.44 1470.87C1155.51 1470.19 1153.44 1469.92 1151.39 1470.09C1139.13 1471.41 1128.49 1490.94 1126.24 1501.74C1126.24 1502.56 1125.07 1513.96 1124.92 1516.74C1121.17 1509.24 1117.42 1501.74 1113.86 1494.24C1109.16 1484.15 1105.14 1473.75 1101.83 1463.12C1102.58 1462.93 1122.97 1458.32 1130.51 1452.55C1137.03 1447.52 1143.97 1439.35 1143.9 1430.61C1143.96 1428.56 1143.59 1426.51 1142.81 1424.61C1142.03 1422.71 1140.85 1420.99 1139.36 1419.58C1137.87 1418.16 1136.1 1417.08 1134.16 1416.39C1132.22 1415.71 1130.16 1415.45 1128.11 1415.62C1115.85 1416.93 1105.2 1436.46 1102.99 1447.26C1102.99 1448.12 1101.71 1460.38 1101.68 1462.63C1101.49 1462 1101.23 1461.4 1101.04 1460.76C1097.97 1450.02 1095.88 1439.03 1094.78 1427.91C1094.1 1421.8 1093.8 1415.92 1093.62 1410.18C1097.37 1409.69 1115.25 1407.33 1122.6 1402.87C1129.95 1398.41 1137.41 1391.24 1138.31 1382.58C1138.59 1380.55 1138.44 1378.49 1137.87 1376.52C1137.3 1374.55 1136.32 1372.72 1135 1371.16C1133.67 1369.59 1132.04 1368.32 1130.19 1367.43C1128.35 1366.53 1126.34 1366.04 1124.29 1365.97C1111.91 1365.97 1099.2 1384.2 1095.79 1394.69C1095.6 1395.26 1094.37 1401.26 1093.54 1405.64C1093.54 1403.06 1093.54 1400.39 1093.54 1397.88C1093.54 1388.54 1094.14 1380.03 1094.74 1372.46C1095.08 1368.15 1095.53 1364.29 1095.94 1360.65C1099.5 1358.21 1113.79 1348.13 1118.17 1340.93C1122.56 1333.73 1125.97 1323.76 1122.75 1315.66C1122.06 1313.72 1120.98 1311.96 1119.56 1310.48C1118.15 1308.99 1116.44 1307.82 1114.54 1307.04C1112.65 1306.27 1110.61 1305.9 1108.56 1305.96C1106.51 1306.02 1104.5 1306.51 1102.65 1307.41C1091.7 1313.07 1088.82 1335.12 1090.62 1345.99C1090.8 1346.93 1094.93 1361.32 1095.12 1361.21H1095.34C1094.85 1364.7 1094.37 1368.45 1093.92 1372.46C1093.17 1379.96 1092.42 1388.58 1092.19 1397.96C1091.83 1408.03 1092.06 1418.13 1092.9 1428.18C1093.77 1439.46 1095.64 1450.63 1098.49 1461.58V1461.96C1096.54 1458.92 1090.99 1450.71 1090.32 1450C1083.12 1441.64 1064.3 1429.79 1052.82 1434.63C1050.96 1435.48 1049.3 1436.72 1047.95 1438.25C1046.59 1439.79 1045.58 1441.59 1044.97 1443.55C1044.35 1445.5 1044.16 1447.57 1044.4 1449.6C1044.63 1451.63 1045.29 1453.6 1046.34 1455.36C1050.27 1463.2 1060.32 1466.98 1068.46 1468.18Z" fill="#2F80ED"/>
<path d="M1280.04 1410.22C1280.04 1410.22 1283.79 1395.82 1284.12 1394.88C1285.62 1383.97 1282.14 1361.96 1271.04 1356.6C1269.17 1355.76 1267.14 1355.33 1265.09 1355.33C1263.04 1355.32 1261.01 1355.75 1259.14 1356.58C1257.27 1357.41 1255.59 1358.63 1254.21 1360.15C1252.84 1361.67 1251.8 1363.46 1251.17 1365.41C1248.2 1373.58 1251.95 1383.63 1256.45 1390.53C1261.7 1398.67 1280.04 1410.18 1280.04 1410.22Z" fill="#2F80ED"/>
<path d="M1011.02 623.328H294.841C270.427 623.328 250.636 643.119 250.636 667.533V1624.61C250.636 1649.02 270.427 1668.81 294.841 1668.81H1011.02C1035.43 1668.81 1055.22 1649.02 1055.22 1624.61V667.533C1055.22 643.119 1035.43 623.328 1011.02 623.328Z" fill="#263238"/>
<path d="M1016.72 685.155H289.142V1619.21H1016.72V685.155Z" fill="white" stroke="#263238" stroke-linecap="round" stroke-linejoin="round"/>
<path d="M505.183 825.046H800.674" stroke="#263238" stroke-linecap="round" stroke-linejoin="round"/>
<path d="M839.218 952.339H941.615" stroke="#263238" stroke-linecap="round" stroke-linejoin="round"/>
<path d="M544.627 952.339H814.847" stroke="#263238" stroke-linecap="round" stroke-linejoin="round"/>
<path d="M418.685 952.339H526.368" stroke="#263238" stroke-linecap="round" stroke-linejoin="round"/>
<path d="M364.243 952.339H392.289" stroke="#263238" stroke-linecap="round" stroke-linejoin="round"/>
<path d="M841.243 1052.34H941.615" stroke="#263238" stroke-linecap="round" stroke-linejoin="round"/>
<path d="M674.657 1052.34H820.959" stroke="#263238" stroke-linecap="round" stroke-linejoin="round"/>
<path d="M424.796 1052.34H652.31" stroke="#263238" stroke-linecap="round" stroke-linejoin="round"/>
<path d="M364.243 1052.34H398.363" stroke="#263238" stroke-linecap="round" stroke-linejoin="round"/>
<path d="M784.365 1152.37H941.615" stroke="#263238" stroke-linecap="round" stroke-linejoin="round"/>
<path d="M447.143 1152.37H755.944" stroke="#263238" stroke-linecap="round" stroke-linejoin="round"/>
<path d="M364.243 1152.37H422.734" stroke="#263238" stroke-linecap="round" stroke-linejoin="round"/>
<path d="M904.233 1252.37H941.615" stroke="#263238" stroke-linecap="round" stroke-linejoin="round"/>
<path d="M471.514 1252.37H865.652" stroke="#263238" stroke-linecap="round" stroke-linejoin="round"/>
<path d="M364.243 1252.37H443.056" stroke="#263238" stroke-linecap="round" stroke-linejoin="round"/>
<path d="M898.159 1352.4H941.615" stroke="#263238" stroke-linecap="round" stroke-linejoin="round"/>
<path d="M558.875 1352.4H865.652" stroke="#263238" stroke-linecap="round" stroke-linejoin="round"/>
<path d="M364.243 1352.4H532.442" stroke="#263238" stroke-linecap="round" stroke-linejoin="round"/>
<path d="M745.783 1452.4H941.615" stroke="#263238" stroke-linecap="round" stroke-linejoin="round"/>
<path d="M364.243 1452.4H707.164" stroke="#263238" stroke-linecap="round" stroke-linejoin="round"/>
<path d="M748.745 602.218C745.188 602.184 741.708 601.185 738.675 599.328C735.641 597.47 733.169 594.824 731.522 591.672C729.875 588.52 729.114 584.979 729.321 581.429C729.528 577.878 730.695 574.45 732.697 571.511C739.253 561.027 742.869 548.974 743.166 536.614C743.464 524.253 740.432 512.04 734.389 501.253C728.346 490.466 719.514 481.503 708.817 475.301C698.12 469.1 685.953 465.889 673.59 466.005C661.226 466.121 649.121 469.559 638.542 475.959C627.963 482.359 619.3 491.486 613.46 502.384C607.62 513.282 604.817 525.55 605.346 537.903C605.875 550.256 609.715 562.239 616.466 572.598C618.279 575.559 619.267 578.952 619.327 582.424C619.387 585.896 618.516 589.32 616.806 592.343C615.096 595.365 612.609 597.874 609.602 599.611C606.595 601.347 603.178 602.248 599.706 602.218H479.725L512.12 695.279H836.106L868.501 602.218H748.745ZM674.132 562.587C669.353 562.594 664.679 561.184 660.703 558.533C656.726 555.883 653.625 552.112 651.793 547.699C649.961 543.285 649.48 538.427 650.41 533.739C651.341 529.052 653.641 524.746 657.02 521.367C660.399 517.988 664.705 515.687 669.393 514.757C674.08 513.826 678.938 514.308 683.352 516.14C687.766 517.972 691.536 521.073 694.187 525.049C696.837 529.026 698.248 533.7 698.24 538.478C698.24 544.872 695.7 551.005 691.179 555.526C686.658 560.047 680.526 562.587 674.132 562.587Z" fill="#2F80ED" stroke="#263238" stroke-linecap="round" stroke-linejoin="round"/>
<path d="M490.093 1542.02C524.158 1511.09 526.698 1458.4 495.767 1424.34C464.836 1390.28 412.147 1387.74 378.083 1418.67C344.018 1449.6 341.478 1502.29 372.409 1536.35C403.34 1570.41 456.029 1572.95 490.093 1542.02Z" fill="#263238" stroke="#263238" stroke-linecap="round" stroke-linejoin="round"/>
<path d="M440.094 1515.24C437.421 1515.22 434.783 1514.62 432.358 1513.5C429.933 1512.37 427.777 1510.74 426.034 1508.71L389.477 1465.97C387.653 1464.14 386.226 1461.96 385.285 1459.56C384.344 1457.15 383.91 1454.58 384.01 1452C384.11 1449.42 384.742 1446.89 385.866 1444.56C386.989 1442.24 388.581 1440.17 390.541 1438.49C392.501 1436.81 394.787 1435.55 397.256 1434.8C399.724 1434.04 402.322 1433.81 404.887 1434.1C407.452 1434.4 409.928 1435.22 412.16 1436.51C414.393 1437.81 416.333 1439.55 417.86 1441.64L440.356 1468.11L515.345 1384.42C516.929 1382.4 518.912 1380.72 521.17 1379.5C523.428 1378.28 525.914 1377.53 528.473 1377.31C531.031 1377.09 533.609 1377.39 536.044 1378.21C538.48 1379.02 540.723 1380.33 542.633 1382.04C544.543 1383.76 546.08 1385.85 547.148 1388.19C548.217 1390.52 548.794 1393.05 548.844 1395.62C548.894 1398.19 548.415 1400.74 547.438 1403.11C546.462 1405.49 545.007 1407.64 543.165 1409.43L453.779 1508.98C452.022 1510.92 449.876 1512.48 447.48 1513.54C445.084 1514.61 442.491 1515.16 439.869 1515.16L440.094 1515.24Z" fill="#2F80ED"/>
<path d="M529.63 1383.9C532.162 1383.89 534.642 1384.61 536.768 1385.99C538.894 1387.36 540.575 1389.33 541.604 1391.64C542.633 1393.95 542.968 1396.51 542.566 1399.01C542.164 1401.51 541.043 1403.84 539.341 1405.72L449.955 1505.26C448.734 1506.63 447.238 1507.73 445.564 1508.48C443.891 1509.23 442.078 1509.61 440.244 1509.61C438.379 1509.6 436.54 1509.19 434.851 1508.4C433.161 1507.61 431.663 1506.46 430.458 1505.04L393.714 1462.22C392.556 1460.92 391.669 1459.41 391.104 1457.76C390.54 1456.11 390.31 1454.37 390.427 1452.64C390.543 1450.9 391.006 1449.2 391.786 1447.65C392.566 1446.09 393.648 1444.71 394.97 1443.58C396.291 1442.44 397.825 1441.59 399.482 1441.06C401.139 1440.52 402.885 1440.33 404.618 1440.48C406.352 1440.63 408.038 1441.12 409.577 1441.94C411.117 1442.75 412.48 1443.86 413.586 1445.2L440.469 1476.54L519.881 1388.1C521.106 1386.72 522.609 1385.62 524.289 1384.87C525.969 1384.12 527.79 1383.74 529.63 1383.75M529.63 1372.5C526.216 1372.5 522.842 1373.23 519.723 1374.61C516.604 1376 513.81 1378.03 511.52 1380.56L440.656 1459.48L422.134 1437.89C420.074 1435.4 417.539 1433.34 414.675 1431.84C411.812 1430.34 408.678 1429.42 405.457 1429.15C402.236 1428.87 398.993 1429.24 395.916 1430.23C392.839 1431.23 389.991 1432.82 387.537 1434.92C385.084 1437.03 383.074 1439.6 381.626 1442.49C380.178 1445.38 379.32 1448.53 379.102 1451.76C378.885 1454.98 379.313 1458.22 380.36 1461.28C381.407 1464.34 383.054 1467.15 385.203 1469.57L421.759 1512.24C424.017 1514.86 426.806 1516.97 429.941 1518.43C433.076 1519.89 436.486 1520.67 439.944 1520.71H440.244C443.654 1520.72 447.026 1520 450.141 1518.61C453.255 1517.22 456.041 1515.19 458.316 1512.65L547.74 1413.1C550.869 1409.6 552.919 1405.27 553.643 1400.63C554.367 1395.98 553.735 1391.23 551.821 1386.94C549.908 1382.65 546.795 1379.01 542.858 1376.44C538.921 1373.88 534.327 1372.51 529.63 1372.5Z" fill="#263238"/>
<path d="M675.932 514.332V281.569" stroke="#2F80ED" stroke-width="4" stroke-linecap="round" stroke-linejoin="round"/>
<path d="M665.283 234.963V256.672L656.622 271.67C656.617 274.074 657.087 276.456 658.005 278.678C658.923 280.9 660.27 282.919 661.97 284.619C663.67 286.319 665.689 287.667 667.911 288.585C670.134 289.502 672.515 289.972 674.919 289.967C677.32 289.967 679.698 289.494 681.916 288.574C684.133 287.654 686.148 286.305 687.844 284.606C689.54 282.906 690.884 280.889 691.8 278.669C692.715 276.45 693.184 274.071 693.179 271.67V256.672" stroke="#263238" stroke-width="3" stroke-linecap="round" stroke-linejoin="round"/>
<path d="M646.424 233.951H683.018V193.307H646.424V233.951Z" fill="white" stroke="#263238" stroke-linecap="round" stroke-linejoin="round"/>
<path d="M632.926 220.378H696.591V138.753H632.926V220.378Z" fill="white" stroke="#263238" stroke-linecap="round" stroke-linejoin="round"/>
<path d="M613.954 204.818H714.888V179.772H613.954V204.818Z" fill="white" stroke="#263238" stroke-linecap="round" stroke-linejoin="round"/>
<path d="M664.721 179.734H679.194L699.628 202.906L697.491 204.818H686.843L664.721 179.734Z" fill="#263238"/>
<path d="M706.939 179.734L714.888 188.695V204.818H714.625L692.504 179.734H706.939Z" fill="#263238"/>
<path d="M636.975 179.734H651.41L671.845 202.906L669.708 204.818H659.059L636.975 179.734Z" fill="#263238"/>
<path d="M613.917 185.134V179.734H623.627L644.062 202.906L641.925 204.818H631.276L613.917 185.134Z" fill="#263238"/>
<path d="M666.183 137.329V88.2114" stroke="#263238" stroke-width="2" stroke-linecap="round" stroke-linejoin="round"/>
<path d="M1 86.974H691.679V57.5411L558.163 1H1" stroke="#263238" stroke-width="2" stroke-linecap="round" stroke-linejoin="round"/>
<path d="M558.163 86.974V1L469.939 86.974V1L558.163 86.974Z" stroke="#263238" stroke-width="2" stroke-linecap="round" stroke-linejoin="round"/>
<path d="M470.052 86.974V1L381.791 86.974V1L470.052 86.974Z" stroke="#263238" stroke-width="2" stroke-linecap="round" stroke-linejoin="round"/>
<path d="M381.903 86.974V1L293.679 86.974V1L381.903 86.974Z" stroke="#263238" stroke-width="2" stroke-linecap="round" stroke-linejoin="round"/>
<path d="M293.791 86.974V1L205.53 86.974V1L293.791 86.974Z" stroke="#263238" stroke-width="2" stroke-linecap="round" stroke-linejoin="round"/>
<path d="M205.643 86.974V1L117.419 86.974V1L205.643 86.974Z" stroke="#263238" stroke-width="2" stroke-linecap="round" stroke-linejoin="round"/>
<path d="M117.532 86.974V1L29.2705 86.974V1L117.532 86.974Z" stroke="#263238" stroke-width="2" stroke-linecap="round" stroke-linejoin="round"/>
<path d="M1464.96 961.412L1418.54 1089.53L1415.58 1088.78L1389.33 1069.77L1379.62 1079.33L1389.82 1129.46C1389.82 1129.46 1431.06 1150.68 1438.56 1149.29C1444.15 1148.14 1449.64 1146.55 1454.98 1144.53C1454.98 1144.53 1480.93 966.211 1481.61 962.762C1482.28 959.312 1477.93 949.789 1464.96 961.412Z" fill="white" stroke="#263238" stroke-linecap="round" stroke-linejoin="round"/>
<path d="M1477.48 1630.94C1477.48 1630.94 1464.51 1650.7 1453.93 1659.03C1443.36 1667.35 1418.54 1679.35 1411.64 1684.94C1404.74 1690.52 1407.89 1695.51 1410.18 1697.91C1412.47 1700.31 1444.49 1702.07 1461.85 1702.11C1479.21 1702.15 1510.59 1694.61 1510.59 1694.61C1510.59 1694.61 1524.46 1696.82 1527.99 1695.06C1531.51 1693.3 1533.72 1689.36 1534.28 1683.21C1534.85 1677.06 1532.82 1642.34 1532.82 1642.34L1477.48 1630.94Z" fill="white" stroke="#263238" stroke-linecap="round" stroke-linejoin="round"/>
<path d="M1514.75 1685.42C1501.25 1687.6 1498.59 1690.67 1472.42 1694.57C1450.9 1697.8 1418.99 1693.82 1407.4 1691.76C1407.43 1692.91 1407.68 1694.04 1408.16 1695.08C1408.64 1696.13 1409.33 1697.07 1410.18 1697.83C1412.54 1700.23 1444.49 1702 1461.85 1702.03C1479.21 1702.07 1510.59 1694.53 1510.59 1694.53C1510.59 1694.53 1524.46 1696.75 1527.99 1694.98C1531.51 1693.22 1533.68 1689.32 1534.25 1683.29C1527.71 1683.62 1521.2 1684.34 1514.75 1685.42Z" fill="#263238" stroke="#263238" stroke-linecap="round" stroke-linejoin="round"/>
<path d="M1488.77 1645.45C1488.77 1645.45 1473.77 1638.78 1463.65 1650.03" stroke="#263238" stroke-width="2" stroke-linecap="round" stroke-linejoin="round"/>
<path d="M1471.67 1639.79C1471.67 1639.79 1483.22 1648.83 1481.68 1658.54" stroke="#263238" stroke-width="2" stroke-linecap="round" stroke-linejoin="round"/>
<path d="M1477.56 1655.88C1477.56 1655.88 1465.74 1650.4 1457.72 1659.63" stroke="#263238" stroke-width="2" stroke-linecap="round" stroke-linejoin="round"/>
<path d="M1464.1 1651.27C1464.1 1651.27 1473.17 1658.77 1471.89 1666.64" stroke="#263238" stroke-width="2" stroke-linecap="round" stroke-linejoin="round"/>
<path d="M1469.01 1666.45C1469.01 1666.45 1458.1 1661.31 1440.92 1667.39" stroke="#263238" stroke-width="2" stroke-linecap="round" stroke-linejoin="round"/>
<path d="M1455.21 1661.76C1456.03 1662.59 1456.65 1663.59 1457.03 1664.7C1457.4 1665.8 1457.52 1666.97 1457.38 1668.13C1457.23 1669.28 1456.83 1670.39 1456.19 1671.37C1455.56 1672.34 1454.71 1673.16 1453.71 1673.76" stroke="#263238" stroke-width="2" stroke-linecap="round" stroke-linejoin="round"/>
<path d="M1563.01 1649.69C1563.01 1649.69 1556.59 1672.64 1554.31 1675.94C1552.02 1679.24 1536.72 1698.43 1536.57 1705.15C1536.42 1711.86 1541.33 1717.03 1553.52 1719.81C1565.7 1722.58 1584.6 1723.55 1599.67 1716.69C1614.75 1709.83 1621.53 1707.58 1625.32 1697.08C1629.11 1686.59 1626.6 1651.38 1626.6 1651.38C1626.6 1651.38 1579.54 1616.7 1563.01 1649.69Z" fill="white" stroke="#263238" stroke-linecap="round" stroke-linejoin="round"/>
<path d="M1625.32 1696.97C1626.78 1691.28 1627.46 1685.41 1627.34 1679.54C1624.2 1684.54 1620.66 1689.29 1616.77 1693.75C1609.27 1701.96 1596.6 1711.07 1572.15 1712.87C1559.56 1713.96 1547.02 1710.12 1537.21 1702.15C1536.87 1703.08 1536.66 1704.05 1536.57 1705.03C1536.57 1711.89 1541.33 1716.92 1553.52 1719.69C1565.7 1722.47 1584.6 1723.44 1599.67 1716.58C1614.75 1709.72 1621.53 1707.47 1625.32 1696.97Z" fill="#263238" stroke="#263238" stroke-linecap="round" stroke-linejoin="round"/>
<path d="M1596.11 1641.89C1596.11 1641.89 1575.57 1640.88 1569.12 1653.14" stroke="#263238" stroke-width="2" stroke-linecap="round" stroke-linejoin="round"/>
<path d="M1573.62 1642.19C1573.62 1642.19 1591.28 1645.94 1593.98 1654.34" stroke="#263238" stroke-width="2" stroke-linecap="round" stroke-linejoin="round"/>
<path d="M1592.03 1656.89C1592.03 1656.89 1571.44 1655.92 1564.99 1668.14" stroke="#263238" stroke-width="2" stroke-linecap="round" stroke-linejoin="round"/>
<path d="M1569.49 1657.19C1569.49 1657.19 1587.15 1660.94 1589.89 1669.34" stroke="#263238" stroke-width="2" stroke-linecap="round" stroke-linejoin="round"/>
<path d="M1587.94 1671.89C1587.94 1671.89 1567.35 1670.91 1560.91 1683.14" stroke="#263238" stroke-width="2" stroke-linecap="round" stroke-linejoin="round"/>
<path d="M1565.4 1672.19C1565.4 1672.19 1583.06 1675.94 1585.76 1684.34" stroke="#263238" stroke-width="2" stroke-linecap="round" stroke-linejoin="round"/>
<path d="M1439.99 1199.24C1439.99 1199.24 1447.86 1318.51 1451.24 1351.99C1454.61 1385.47 1462.82 1462.67 1463.5 1464.73C1464.17 1466.8 1466.23 1494.09 1466.23 1494.09C1466.23 1494.09 1464.21 1505.04 1466.95 1528.96C1469.68 1552.88 1477.86 1602.75 1477.86 1602.75C1477.86 1602.75 1471.03 1604.1 1471.71 1609.57C1472.38 1615.05 1475.12 1630.08 1475.12 1630.08C1475.12 1630.08 1501.1 1638.93 1508.6 1639.64C1516.1 1640.36 1531.1 1639.64 1531.1 1639.64C1531.1 1639.64 1537.25 1629.37 1536.57 1623.93C1535.15 1617.22 1533.32 1610.59 1531.1 1604.1L1534.51 1563.79L1540.25 1399.16C1540.25 1399.16 1561.43 1559.71 1564.84 1571.29C1568.25 1582.88 1571.67 1601.29 1571.67 1601.29C1571.67 1601.29 1564.84 1606.76 1564.84 1610.17C1564.84 1613.58 1566.23 1637.51 1566.23 1637.51C1566.23 1637.51 1579.88 1626.56 1592.85 1628.62C1605.82 1630.68 1627.04 1645.72 1627.04 1645.72C1627.88 1638.79 1629.25 1631.93 1631.13 1625.21C1633.87 1616.32 1628.39 1593.79 1627.01 1587.71C1625.44 1580.76 1625.21 1573.57 1626.33 1566.53C1627.72 1560.38 1628.39 1541.26 1629.07 1535.11C1629.74 1528.96 1628.39 1375.91 1628.39 1375.91L1642.34 1200.62L1443.62 1194.48L1439.99 1199.24Z" fill="#263238" stroke="#263238" stroke-linecap="round" stroke-linejoin="round"/>
<path d="M1512.8 905.208C1512.8 905.208 1470.58 924.555 1467.81 931.454C1465.03 938.353 1450.79 1078.06 1442.57 1133.92C1434.36 1189.79 1437.89 1204.64 1437.89 1204.64C1437.89 1204.64 1446.7 1222.82 1532.9 1219.86C1619.1 1216.9 1649.62 1204.04 1650.78 1196.43C1651.94 1188.81 1653.14 1198.45 1653.14 1193.16C1653.14 1187.88 1659.59 938.653 1653.14 923.393C1646.69 908.133 1610.32 882.937 1599.75 881.774C1589.18 880.612 1512.8 905.208 1512.8 905.208Z" fill="#2F80ED" stroke="#263238" stroke-linecap="round" stroke-linejoin="round"/>
<path d="M1582.5 893.81C1556.71 900.146 1512.8 914.319 1512.8 914.319C1512.8 914.319 1470.58 933.666 1467.81 940.565C1466.84 944.423 1466.15 948.345 1465.75 952.301C1484.49 941.653 1528.32 916.906 1543.1 912.257C1555.13 908.544 1567.5 906.032 1580.03 904.758L1628.81 937.303L1649.28 937.828C1649.28 937.828 1603.35 897.372 1590.38 893.885C1587.77 893.476 1585.12 893.451 1582.5 893.81Z" fill="white" stroke="#263238" stroke-linecap="round" stroke-linejoin="round"/>
<path d="M1442.54 1142.36V1143.03C1441.11 1152.74 1440.14 1161.48 1439.42 1169.47C1482.71 1178.21 1526.92 1181.56 1571.03 1179.44C1616.02 1176.7 1640.99 1175.05 1653.7 1174.23C1653.7 1166.54 1654.04 1157.62 1654.23 1147.76C1624.16 1151.02 1506.8 1161.18 1442.54 1142.36Z" fill="white" stroke="#263238" stroke-linecap="round" stroke-linejoin="round"/>
<path d="M1473.36 1189.11C1473.66 1194.44 1474.11 1199.61 1474.67 1204.64" stroke="#263238" stroke-miterlimit="10"/>
<path d="M1486.18 1065.46C1480.26 1100.85 1472.12 1136.02 1472.94 1177.27" stroke="#263238" stroke-miterlimit="10"/>
<path d="M1496.98 1020.47C1496.98 1020.47 1492.59 1038.76 1487.72 1065.87" stroke="#263238" stroke-miterlimit="10"/>
<path d="M1365.07 1220.8C1365.07 1220.8 1373.7 1236.09 1389.03 1219.07C1397.28 1209.96 1428.29 1115.29 1428.29 1115.29C1428.29 1115.29 1367.77 1211.01 1365.07 1220.8Z" fill="white" stroke="#263238" stroke-linecap="round" stroke-linejoin="round"/>
<path d="M1307.18 934.604L1347.38 920.693C1347.38 920.693 1346.96 1006.93 1352.81 1027.44L1358.62 1048.02C1358.62 1048.02 1319.56 982.859 1311.19 961.112C1302.83 939.365 1307.18 934.604 1307.18 934.604Z" fill="white" stroke="#263238" stroke-linecap="round" stroke-linejoin="round"/>
<path d="M1390.27 1059.65C1390.27 1059.65 1383.15 1039.96 1370.96 1044.01C1358.77 1048.06 1349.81 1047.76 1348.88 1053.2C1347.94 1058.63 1379.62 1079.44 1379.62 1079.44C1379.62 1079.44 1402.08 1078.02 1390.27 1059.65Z" fill="white" stroke="#263238" stroke-linecap="round" stroke-linejoin="round"/>
<path d="M1405.27 1152.59C1405.27 1152.59 1365.67 1218.1 1365.15 1220.8C1365.15 1220.8 1338 1174.83 1301.41 1118.51C1264.81 1062.2 1230.39 929.017 1230.39 929.017C1240.89 918.44 1254.66 911.738 1269.46 910.007C1295.18 906.558 1304.03 907.57 1304.03 907.57C1304.03 907.57 1328.55 994.294 1355.7 1034.26C1373.65 1059.99 1394.27 1083.74 1417.23 1105.13L1428.48 1115.29L1405.27 1152.59Z" fill="white" stroke="#263238" stroke-linecap="round" stroke-linejoin="round"/>
<path d="M1300.58 1045.06C1324.08 1053.75 1348.02 1061.19 1372.31 1067.33" stroke="#263238" stroke-miterlimit="10"/>
<path d="M1278.65 1036.96C1278.65 1036.96 1281.8 1038.2 1287.12 1040.15" stroke="#263238" stroke-miterlimit="10"/>
<path d="M1317.83 1028.45C1317.83 1028.45 1343.51 1054.21 1370.32 1059.31" stroke="#263238" stroke-miterlimit="10"/>
<path d="M1448.84 1094.55C1448.84 1094.55 1415.99 1079.29 1410.7 1078.73C1405.42 1078.17 1378.46 1088.67 1375.53 1091.03C1372.61 1093.39 1371.41 1098.53 1374.93 1099.24C1378.46 1099.95 1384.31 1095.72 1384.31 1095.72L1399.57 1092.79L1406.62 1096.88C1406.62 1096.88 1381.98 1111.54 1379.62 1116.26C1377.26 1120.99 1373.17 1129.72 1375.53 1131.49C1377.9 1133.25 1379.06 1137.37 1382.55 1137.37C1384.4 1137.4 1386.26 1137.27 1388.1 1137C1392.55 1136.29 1396.72 1134.39 1400.17 1131.49C1405.42 1126.8 1417.15 1128.56 1417.15 1128.56C1417.15 1128.56 1431.25 1133.25 1434.78 1132.09C1439.01 1130.21 1443.12 1128.05 1447.07 1125.64H1453.52L1448.84 1094.55Z" fill="white" stroke="#263238" stroke-linecap="round" stroke-linejoin="round"/>
<path d="M1375.53 1131.49C1375.53 1131.49 1388.09 1118.4 1389.52 1116.71C1390.94 1115.03 1412.24 1104.3 1412.24 1104.3" stroke="#263238" stroke-miterlimit="10"/>
<path d="M1382.55 1137.37C1382.55 1137.37 1399.57 1122.37 1400.77 1121.47C1401.97 1120.57 1416.29 1114.8 1416.29 1114.8" stroke="#263238" stroke-miterlimit="10"/>
<path d="M1644.18 933.066C1644.18 933.066 1621.31 925.568 1605.49 950.089C1589.66 974.61 1580.18 1093.32 1580.18 1093.32L1448.95 1094.55L1451.27 1130.92C1451.27 1130.92 1575.6 1144.35 1599.64 1144.35C1623.67 1144.35 1630.16 1148.43 1633.08 1139.66C1636.01 1130.89 1661.88 1023.99 1665.4 989.982C1668.93 955.975 1655.32 935.428 1644.18 933.066Z" fill="white" stroke="#263238" stroke-linecap="round" stroke-linejoin="round"/>
<path d="M1450.26 1201.3C1450.26 1201.3 1414.04 1195.83 1411.98 1199.91C1409.92 1204 1411.98 1259.9 1415.39 1263.46C1418.8 1267.03 1442.05 1271.68 1448.87 1267.55C1455.7 1263.43 1459.82 1260.73 1461.17 1257.32C1462.52 1253.9 1462.56 1210.86 1459.82 1205.39C1458.85 1203.8 1457.4 1202.55 1455.69 1201.82C1453.98 1201.09 1452.08 1200.91 1450.26 1201.3Z" fill="#263238" stroke="#263238" stroke-linecap="round" stroke-linejoin="round"/>
<path d="M1493.27 1208.12C1493.27 1208.12 1487.75 1263.5 1496.68 1266.88C1506.63 1269.92 1517.02 1271.32 1527.42 1271C1530.83 1270.29 1543.13 1268.26 1545.2 1262.79C1547.26 1257.32 1547.22 1214.27 1545.87 1210.3C1544.52 1206.32 1496.68 1202.65 1493.27 1208.12Z" fill="#263238" stroke="#263238" stroke-linecap="round" stroke-linejoin="round"/>
<path d="M1579.35 1214.27C1579.35 1214.27 1582.09 1276.44 1583.44 1279.17C1584.79 1281.91 1610.77 1299.01 1615.53 1298.3C1620.3 1297.58 1658.58 1293.53 1660.53 1286C1662.48 1278.46 1667.35 1217.68 1663.26 1211.01C1659.18 1204.34 1650.29 1201.45 1642.08 1200.77C1633.87 1200.1 1586.06 1206.92 1586.06 1206.92C1584.22 1207.07 1582.5 1207.91 1581.25 1209.27C1580.01 1210.64 1579.33 1212.42 1579.35 1214.27Z" fill="#263238" stroke="#263238" stroke-linecap="round" stroke-linejoin="round"/>
<path d="M1530.42 889.686L1502.26 904.946L1512.24 923.13L1498.14 1011.09C1498.14 1011.09 1581.49 902.584 1582.61 900.821C1588.03 897.098 1593.71 893.765 1599.6 890.848L1594.31 869.139L1585.54 871.501L1530.42 889.686Z" fill="#263238" stroke="#263238" stroke-linecap="round" stroke-linejoin="round"/>
<path d="M1500.69 768.58C1500.69 768.58 1495.63 784.215 1495.63 786.314C1495.89 789.148 1496.32 791.965 1496.9 794.75C1496.9 794.75 1481.31 816.685 1482.13 817.922C1482.96 819.159 1492.25 828.908 1492.25 828.908C1492.25 828.908 1493.08 861.79 1497.32 862.24C1501.55 862.69 1528.96 862.652 1528.96 862.652L1526.41 910.72L1589.25 874.463L1590.53 832.282C1590.53 832.282 1607.4 810.76 1607.4 799.812C1607.4 788.864 1605.71 786.727 1605.71 786.727L1500.69 768.58Z" fill="white" stroke="#263238" stroke-linecap="round" stroke-linejoin="round"/>
<path d="M1605.71 786.689L1538.56 775.104L1539.08 779.94L1536.53 803.149C1536.53 803.149 1554.23 790.926 1557.61 789.239C1560.98 787.552 1567.73 799.362 1563.94 806.524C1560.16 813.685 1547.48 823.396 1547.48 823.396C1547.48 823.396 1561.43 837.719 1575.75 838.394C1580.66 838.701 1585.58 838.297 1590.38 837.194V832.057C1590.38 832.057 1607.25 810.536 1607.25 799.587C1607.25 788.639 1605.71 786.689 1605.71 786.689Z" fill="#263238" stroke="#263238" stroke-linecap="round" stroke-linejoin="round"/>
<path d="M1499.83 785.002C1501.85 783.803 1504.23 783.356 1506.55 783.74C1508.87 784.124 1510.97 785.315 1512.5 787.102" stroke="#263238" stroke-miterlimit="10"/>
<path d="M1504.06 801.462C1505.22 801.462 1506.16 799.196 1506.16 796.4C1506.16 793.605 1505.22 791.339 1504.06 791.339C1502.9 791.339 1501.96 793.605 1501.96 796.4C1501.96 799.196 1502.9 801.462 1504.06 801.462Z" fill="#263238"/>
<path d="M1517.15 861.753L1542.87 858.791L1528.96 875.25V862.615L1517.15 861.753Z" fill="#263238" stroke="#263238" stroke-miterlimit="10"/>
<path d="M1566.9 793.026L1590.38 837.381L1601.47 826.771L1580.4 791.751L1566.9 793.026Z" fill="white" stroke="#263238" stroke-linecap="round" stroke-linejoin="round"/>
<path d="M1492.4 758.456C1492.4 758.456 1462.67 762.206 1466.35 763.555C1470.02 764.905 1623.52 812.073 1623.52 812.073C1622.12 807.248 1621.09 802.321 1620.45 797.338C1620.45 793.588 1626.6 769.704 1624.2 745.146C1621.8 720.587 1569.83 706.864 1544.07 704.427C1518.31 701.99 1505.38 714.251 1502.83 727.749C1500.42 738.315 1496.92 748.606 1492.4 758.456Z" fill="#2F80ED" stroke="#263238" stroke-linecap="round" stroke-linejoin="round"/>
<path d="M1535 771.317L1507.89 761.568C1507.89 761.568 1523.64 725.761 1523.07 721.412C1522.75 718.711 1522.58 715.995 1522.55 713.276C1522.55 713.276 1523.07 706.227 1546.96 708.964" stroke="#263238" stroke-linecap="round" stroke-linejoin="round"/>
</svg>
